<?xml version="1.0" encoding="UTF-8"?>
<svg width="600px" height="121px" viewBox="0 0 600 121" version="1.1" xmlns="http://www.w3.org/2000/svg" xmlns:xlink="http://www.w3.org/1999/xlink">
    <!-- Generator: Sketch 46.2 (44496) - http://www.bohemiancoding.com/sketch -->
    <title>Artboard Copy</title>
    <desc>Created with Sketch.</desc>
    <defs></defs>
    <g id="Page-1" stroke="none" stroke-width="1" fill="none" fill-rule="evenodd">
        <g id="Artboard-Copy">
            <g id="Group">
                <path d="M552.605042,61.0084034 C552.605042,87.461086 531.158565,108.907563 504.705882,108.907563 C478.250947,108.907563 456.806723,87.461086 456.806723,61.0084034 C456.806723,34.5534677 478.250947,13.1092437 504.705882,13.1092437 C531.158565,13.1092437 552.605042,34.5534677 552.605042,61.0084034" id="Fill-1" fill="#A12A37"></path>
                <path d="M493.49717,65.328457 L493.49717,53.8045172 L489.07563,53.8045172 L489.07563,52.4369748 L499.687325,52.4369748 L499.687325,53.8045172 L495.265786,53.8045172 L495.265786,65.328457 L493.49717,65.328457 Z M506.968902,65.0235908 C505.857195,65.372011 504.905521,65.5462185 504.113851,65.5462185 C502.766327,65.5462185 501.66727,65.0831169 500.816646,64.1569 C499.966021,63.230683 499.540716,62.0301031 499.540716,60.5551244 C499.540716,59.1207946 499.91549,57.9448942 500.66505,57.0273877 C501.41461,56.1098812 502.373302,55.6511349 503.541156,55.6511349 C504.647248,55.6511349 505.502071,56.057619 506.105649,56.8705994 C506.709227,57.6835798 507.011012,58.8391561 507.011012,60.3373629 L507.00259,60.868701 L501.233534,60.868701 C501.474965,63.1160111 502.538931,64.2396493 504.425464,64.2396493 C505.11607,64.2396493 505.963874,64.0480211 506.968902,63.6647589 L506.968902,65.0235908 Z M501.309331,59.5795528 L505.34346,59.5795528 C505.34346,57.8200308 504.70901,56.9402831 503.440092,56.9402831 C502.16556,56.9402831 501.455313,57.8200308 501.309331,59.5795528 Z M511.075392,65.5462185 C510.31741,65.5462185 509.396616,65.3633006 508.312983,64.9974594 L508.312983,63.420866 C509.396616,63.9783383 510.339869,64.2570703 511.142768,64.2570703 C511.620016,64.2570703 512.015845,64.1235112 512.330267,63.8563891 C512.64469,63.5892669 512.801898,63.2553693 512.801898,62.8546861 C512.801898,62.2681788 512.361152,61.7833013 511.479647,61.4000391 L510.51112,60.9732265 C509.079376,60.3576842 508.363515,59.4721295 508.363515,58.3165359 C508.363515,57.4919415 508.645648,56.8430186 509.209924,56.3697479 C509.774199,55.8964772 510.54761,55.6598453 511.530179,55.6598453 C512.041115,55.6598453 512.672758,55.7324318 513.425125,55.8776069 L513.770426,55.9472905 L513.770426,57.3758061 C512.844004,57.091263 512.108491,56.9489936 511.563867,56.9489936 C510.497078,56.9489936 509.963691,57.3496707 509.963691,58.1510372 C509.963691,58.6678604 510.367942,59.1033791 511.176456,59.4576063 L511.976544,59.8060247 C512.880508,60.2009009 513.520572,60.6175472 513.896756,61.0559759 C514.272939,61.4944046 514.461028,62.0417064 514.461028,62.6978978 C514.461028,63.5282992 514.143804,64.2106118 513.509345,64.7448561 C512.874886,65.2791004 512.063576,65.5462185 511.075392,65.5462185 Z M518.963352,65.5462185 C518.121149,65.5462185 517.464242,65.2965211 516.992608,64.7971188 C516.520975,64.2977166 516.285162,63.6037901 516.285162,62.7153187 L516.285162,57.1580446 L515.139773,57.1580446 L515.139773,55.8688964 L516.285162,55.8688964 L516.285162,54.1529356 L517.944292,53.9874368 L517.944292,55.8688964 L520.336134,55.8688964 L520.336134,57.1580446 L517.944292,57.1580446 L517.944292,62.4017421 C517.944292,63.6386337 518.460835,64.2570703 519.493936,64.2570703 C519.712909,64.2570703 519.979602,64.2193253 520.294025,64.1438343 L520.294025,65.328457 C519.783089,65.473632 519.339535,65.5462185 518.963352,65.5462185 Z" id="Test" fill="#FFFFFE"></path>
                <path d="M450.756303,61.0084034 C450.756303,87.461086 429.312079,108.907563 402.857143,108.907563 C376.40446,108.907563 354.957983,87.461086 354.957983,61.0084034 C354.957983,34.5534677 376.40446,13.1092437 402.857143,13.1092437 C429.312079,13.1092437 450.756303,34.5534677 450.756303,61.0084034" id="Fill-2" fill="#D64B3D"></path>
                <path d="M367.058824,65.172437 L367.058824,52.4369748 L370.47504,52.4369748 C371.989599,52.4369748 373.077465,52.6965576 373.738671,53.2157311 C374.399878,53.7349046 374.730476,54.5882294 374.730476,55.7757311 C374.730476,57.1295978 374.278376,58.1908757 373.374162,58.9595966 C372.469948,59.7283176 371.21537,60.1126723 369.61039,60.1126723 L368.822032,60.1126723 L368.822032,65.172437 L367.058824,65.172437 Z M368.822032,58.7444706 L369.542574,58.7444706 C370.599374,58.7444706 371.41598,58.4977952 371.992417,58.004437 C372.568853,57.5110788 372.857067,56.8140773 372.857067,55.9134118 C372.857067,55.1504276 372.631017,54.605447 372.17891,54.2784538 C371.726803,53.9514605 370.972361,53.7879664 369.91556,53.7879664 L368.822032,53.7879664 L368.822032,58.7444706 Z M376.427835,65.172437 L376.427835,55.8273613 L378.097797,55.8273613 L378.097797,57.5827899 C378.759004,56.274817 379.719717,55.6208403 380.979965,55.6208403 C381.149505,55.6208403 381.32752,55.6351819 381.514014,55.6638655 L381.514014,57.2471933 C381.225796,57.149669 380.971489,57.1009076 380.751087,57.1009076 C379.694287,57.1009076 378.809866,57.7376743 378.097797,59.0112269 L378.097797,65.172437 L376.427835,65.172437 Z M386.856468,65.387563 C385.539706,65.387563 384.488573,64.9444078 383.703037,64.058084 C382.917501,63.1717603 382.524739,61.9857105 382.524739,60.4998992 C382.524739,58.9968776 382.918914,57.8079596 383.707276,56.9331092 C384.495637,56.0582589 385.565137,55.6208403 386.915807,55.6208403 C388.266476,55.6208403 389.335976,56.0582589 390.124337,56.9331092 C390.912699,57.8079596 391.306874,58.991141 391.306874,60.4826891 C391.306874,62.0086575 390.911286,63.2076147 390.120099,64.0795966 C389.328912,64.9515786 388.241045,65.387563 386.856468,65.387563 Z M386.881899,64.1140168 C388.650767,64.1140168 389.535188,62.9035863 389.535188,60.4826891 C389.535188,58.0904754 388.66207,56.8943866 386.915807,56.8943866 C385.175195,56.8943866 384.304902,58.0962121 384.304902,60.4998992 C384.304902,62.909323 385.163892,64.1140168 386.881899,64.1140168 Z M396.403496,65.387563 C395.555795,65.387563 394.894599,65.1408876 394.419886,64.6475294 C393.945174,64.1541712 393.707821,63.468643 393.707821,62.5909244 L393.707821,57.1009076 L392.554954,57.1009076 L392.554954,55.8273613 L393.707821,55.8273613 L393.707821,54.1321681 L395.377783,53.9686723 L395.377783,55.8273613 L397.785241,55.8273613 L397.785241,57.1009076 L395.377783,57.1009076 L395.377783,62.2811429 C395.377783,63.5030649 395.897699,64.1140168 396.937545,64.1140168 C397.157947,64.1140168 397.426381,64.0767287 397.742856,64.0021513 L397.742856,65.172437 C397.228584,65.3158551 396.782136,65.387563 396.403496,65.387563 Z M403.458297,65.387563 C402.141535,65.387563 401.090402,64.9444078 400.304866,64.058084 C399.51933,63.1717603 399.126568,61.9857105 399.126568,60.4998992 C399.126568,58.9968776 399.520743,57.8079596 400.309104,56.9331092 C401.097466,56.0582589 402.166966,55.6208403 403.517635,55.6208403 C404.868305,55.6208403 405.937805,56.0582589 406.726166,56.9331092 C407.514528,57.8079596 407.908703,58.991141 407.908703,60.4826891 C407.908703,62.0086575 407.513115,63.2076147 406.721928,64.0795966 C405.93074,64.9515786 404.842874,65.387563 403.458297,65.387563 Z M403.483727,64.1140168 C405.252596,64.1140168 406.137017,62.9035863 406.137017,60.4826891 C406.137017,58.0904754 405.263899,56.8943866 403.517635,56.8943866 C401.777023,56.8943866 400.90673,58.0962121 400.90673,60.4998992 C400.90673,62.909323 401.765721,64.1140168 403.483727,64.1140168 Z M413.005325,65.387563 C412.157624,65.387563 411.496427,65.1408876 411.021715,64.6475294 C410.547003,64.1541712 410.30965,63.468643 410.30965,62.5909244 L410.30965,57.1009076 L409.156783,57.1009076 L409.156783,55.8273613 L410.30965,55.8273613 L410.30965,54.1321681 L411.979612,53.9686723 L411.979612,55.8273613 L414.38707,55.8273613 L414.38707,57.1009076 L411.979612,57.1009076 L411.979612,62.2811429 C411.979612,63.5030649 412.499527,64.1140168 413.539373,64.1140168 C413.759776,64.1140168 414.02821,64.0767287 414.344685,64.0021513 L414.344685,65.172437 C413.830413,65.3158551 413.383964,65.387563 413.005325,65.387563 Z M416.991464,68.5714286 L418.48341,65.172437 L414.923085,55.8273613 L416.728679,55.8273613 L419.365014,62.8662857 L422.179366,55.8273613 L423.756082,55.8273613 L418.729242,68.5714286 L416.991464,68.5714286 Z M425.249994,68.5714286 L425.249994,55.8273613 L426.919956,55.8273613 L426.919956,57.5827899 C427.603768,56.274817 428.62947,55.6208403 429.997094,55.6208403 C431.104756,55.6208403 431.976462,56.0310099 432.612237,56.8513613 C433.248013,57.6717128 433.565896,58.7932254 433.565896,60.2159328 C433.565896,61.7648481 433.205628,63.0140009 432.485083,63.9634286 C431.764537,64.9128563 430.81654,65.387563 429.641061,65.387563 C428.550353,65.387563 427.643327,64.9630519 426.919956,64.1140168 L426.919956,68.5714286 L425.249994,68.5714286 Z M426.919956,62.9437311 C427.778959,63.7239255 428.598391,64.1140168 429.378275,64.1140168 C430.983255,64.1140168 431.785733,62.8720348 431.785733,60.3880336 C431.785733,58.1966053 431.073675,57.1009076 429.649538,57.1009076 C428.717068,57.1009076 427.807216,57.6143366 426.919956,58.6412101 L426.919956,62.9437311 Z M442.646691,64.8712605 C441.527726,65.2154639 440.569839,65.387563 439.773,65.387563 C438.416679,65.387563 437.310446,64.9300662 436.454269,64.0150588 C435.598091,63.1000514 435.170009,61.9140017 435.170009,60.4568739 C435.170009,59.0399033 435.54723,57.8782342 436.301683,56.9718319 C437.056137,56.0654296 438.021088,55.6122353 439.196566,55.6122353 C440.30988,55.6122353 441.170283,56.0137999 441.777802,56.8169412 C442.385321,57.6200824 442.689076,58.7616733 442.689076,60.2417479 L442.680599,60.7666555 L436.873878,60.7666555 C437.116886,62.9867674 438.187798,64.0968067 440.086648,64.0968067 C440.781762,64.0968067 441.635101,63.9074977 442.646691,63.5288739 L442.646691,64.8712605 Z M436.950171,59.4931092 L441.010637,59.4931092 C441.010637,57.7548821 440.372045,56.8857815 439.094843,56.8857815 C437.811989,56.8857815 437.097106,57.7548821 436.950171,59.4931092 Z" id="Prototype" fill="#FFFFFE"></path>
                <path d="M347.89916,61.0084034 C347.89916,87.461086 326.454936,108.907563 300,108.907563 C273.547317,108.907563 252.10084,87.461086 252.10084,61.0084034 C252.10084,34.5534677 273.547317,13.1092437 300,13.1092437 C326.454936,13.1092437 347.89916,34.5534677 347.89916,61.0084034" id="Fill-3" fill="#E5744D"></path>
                <path d="M277.310924,65.3261803 L277.310924,52.2999225 L279.086419,52.2999225 L279.086419,65.3261803 L277.310924,65.3261803 Z M288.251352,65.3261803 L288.251352,63.5306691 C287.57497,64.8743754 286.554775,65.5462185 285.190738,65.5462185 C284.08598,65.5462185 283.21656,65.1266833 282.582452,64.2876003 C281.948344,63.4485174 281.631294,62.3013967 281.631294,60.8462038 C281.631294,59.2560536 281.990617,57.9769113 282.709273,57.0087387 C283.427929,56.040566 284.373441,55.5564869 285.545837,55.5564869 C286.633685,55.5564869 287.535514,55.9906912 288.251352,56.8591127 L288.251352,51.4285714 L289.92539,51.4285714 L289.92539,65.3261803 L288.251352,65.3261803 Z M288.251352,58.0473187 C287.388965,57.2551774 286.571682,56.8591127 285.799479,56.8591127 C284.204344,56.8591127 283.406789,58.1294535 283.406789,60.6701733 C283.406789,62.905772 284.116979,64.0235546 285.537382,64.0235546 C286.461771,64.0235546 287.366419,63.4984021 288.251352,62.4480815 L288.251352,58.0473187 Z M299.986525,65.018127 C298.870495,65.3701897 297.915119,65.5462185 297.12037,65.5462185 C295.767605,65.5462185 294.664273,65.0782754 293.810341,64.1423752 C292.956408,63.2064749 292.529448,61.9933434 292.529448,60.5029443 C292.529448,59.0536192 292.90568,57.8654251 293.658156,56.9383265 C294.410631,56.0112278 295.373052,55.5476854 296.545448,55.5476854 C297.655842,55.5476854 298.513989,55.9584192 299.119915,56.779899 C299.725841,57.6013788 300.028799,58.7690362 300.028799,60.2829062 L300.020344,60.8197992 L294.22885,60.8197992 C294.471221,63.0906042 295.539325,64.2259896 297.433195,64.2259896 C298.126487,64.2259896 298.977588,64.032358 299.986525,63.645089 L299.986525,65.018127 Z M294.304943,59.5171735 L298.354761,59.5171735 C298.354761,57.7392564 297.717844,56.8503112 296.443991,56.8503112 C295.164501,56.8503112 294.451492,57.7392564 294.304943,59.5171735 Z M307.638061,64.1115698 C306.640397,65.068007 305.679385,65.5462185 304.754996,65.5462185 C303.994066,65.5462185 303.362786,65.2983113 302.861135,64.8024896 C302.359485,64.3066678 302.108664,63.6802988 302.108664,62.9233639 C302.108664,61.8789109 302.529987,61.0765132 303.372647,60.5161466 C304.215306,59.95578 305.422912,59.6756009 306.995501,59.6756009 L307.392874,59.6756009 L307.392874,58.5226011 C307.392874,57.4136033 306.84614,56.8591127 305.752655,56.8591127 C304.873358,56.8591127 303.923619,57.1407587 302.903409,57.7040592 L302.903409,56.2694105 C304.025076,55.7941257 305.076271,55.5564869 306.057025,55.5564869 C307.082872,55.5564869 307.839563,55.7970596 308.327122,56.278212 C308.814681,56.7593645 309.058457,57.5074867 309.058457,58.5226011 L309.058457,62.8529517 C309.058457,63.8445952 309.351551,64.3404095 309.937749,64.3404095 C310.011024,64.3404095 310.118116,64.3286742 310.259029,64.3052034 L310.377395,65.2645697 C309.999749,65.4523365 309.582652,65.5462185 309.126094,65.5462185 C308.348255,65.5462185 307.852249,65.068007 307.638061,64.1115698 Z M307.392874,63.1698066 L307.392874,60.6965779 L306.834861,60.6789748 C305.921745,60.6789748 305.183372,60.8594043 304.61972,61.2202687 C304.056069,61.581133 303.774247,62.0549437 303.774247,62.641715 C303.774247,63.0583227 303.915158,63.4103802 304.196984,63.6978981 C304.47881,63.9854161 304.822632,64.1291729 305.228461,64.1291729 C305.921753,64.1291729 306.643217,63.8093873 307.392874,63.1698066 Z M315.221959,65.5462185 C314.376481,65.5462185 313.717018,65.2939106 313.243551,64.7892873 C312.770083,64.284664 312.533353,63.5834828 312.533353,62.6857227 L312.533353,57.0703493 L311.383509,57.0703493 L311.383509,55.7677235 L312.533353,55.7677235 L312.533353,54.033823 L314.198936,53.866594 L314.198936,55.7677235 L316.600081,55.7677235 L316.600081,57.0703493 L314.198936,57.0703493 L314.198936,62.3688677 C314.198936,63.6186906 314.717488,64.2435927 315.754607,64.2435927 C315.974431,64.2435927 316.242162,64.2054531 316.557807,64.1291729 L316.557807,65.3261803 C316.044884,65.4728732 315.599606,65.5462185 315.221959,65.5462185 Z M325.672012,65.018127 C324.555981,65.3701897 323.600606,65.5462185 322.805857,65.5462185 C321.453092,65.5462185 320.34976,65.0782754 319.495828,64.1423752 C318.641895,63.2064749 318.214935,61.9933434 318.214935,60.5029443 C318.214935,59.0536192 318.591167,57.8654251 319.343642,56.9383265 C320.096118,56.0112278 321.058539,55.5476854 322.230935,55.5476854 C323.341329,55.5476854 324.199476,55.9584192 324.805402,56.779899 C325.411327,57.6013788 325.714286,58.7690362 325.714286,60.2829062 L325.705831,60.8197992 L319.914337,60.8197992 C320.156707,63.0906042 321.224812,64.2259896 323.118682,64.2259896 C323.811974,64.2259896 324.663075,64.032358 325.672012,63.645089 L325.672012,65.018127 Z M319.99043,59.5171735 L324.040248,59.5171735 C324.040248,57.7392564 323.403331,56.8503112 322.129478,56.8503112 C320.849988,56.8503112 320.136979,57.7392564 319.99043,59.5171735 Z" id="Ideate" fill="#FFFFFE"></path>
                <path d="M246.05042,61.0084034 C246.05042,87.461086 224.603943,108.907563 198.151261,108.907563 C171.696325,108.907563 150.252101,87.461086 150.252101,61.0084034 C150.252101,34.5534677 171.696325,13.1092437 198.151261,13.1092437 C224.603943,13.1092437 246.05042,34.5534677 246.05042,61.0084034" id="Fill-4" fill="#39925A"></path>
                <path d="M171.428571,65.3295572 L171.428571,52.5032112 L175.595263,52.5032112 C176.837373,52.5032112 177.840926,52.6447618 178.605952,52.9278673 C179.370979,53.2109727 180.032957,53.6905115 180.591906,54.366498 C181.478321,55.4411432 181.921521,56.8566492 181.921521,58.6130585 C181.921521,60.7450158 181.371049,62.3974025 180.270088,63.5702679 C179.169128,64.7431333 177.619337,65.3295572 175.62067,65.3295572 L171.428571,65.3295572 Z M173.207037,63.9689246 L175.485168,63.9689246 C177.111202,63.9689246 178.262959,63.5211625 178.940473,62.6256248 C179.668801,61.6723106 180.03296,60.3925776 180.03296,58.7863875 C180.03296,57.2784176 179.674447,56.0940147 178.957411,55.233143 C178.522673,54.7073757 178.003253,54.3477216 177.399136,54.15417 C176.795019,53.9606183 175.886035,53.8638439 174.672155,53.8638439 L173.207037,53.8638439 L173.207037,63.9689246 Z M191.211146,65.0262315 C190.093247,65.3728912 189.136273,65.5462185 188.340193,65.5462185 C186.985165,65.5462185 185.879986,65.0854568 185.024625,64.1639197 C184.169263,63.2423826 183.741588,62.0478688 183.741588,60.5803426 C183.741588,59.1532601 184.11845,57.983301 184.872185,57.0704304 C185.625919,56.1575598 186.589951,55.7011313 187.764309,55.7011313 C188.876562,55.7011313 189.736145,56.1055616 190.343085,56.9144343 C190.950025,57.723307 191.25349,58.8730445 191.25349,60.3636814 L191.245021,60.8923348 L185.443834,60.8923348 C185.68661,63.1282901 186.756502,64.246251 188.653542,64.246251 C189.347994,64.246251 190.20052,64.055591 191.211146,63.6742653 L191.211146,65.0262315 Z M185.520054,59.6097002 L189.576651,59.6097002 C189.576651,57.8590686 188.938668,56.9837659 187.662683,56.9837659 C186.381051,56.9837659 185.666849,57.8590686 185.520054,59.6097002 Z M194.445517,65.3295572 L194.445517,57.2004271 L193.141309,57.2004271 L193.141309,55.9177925 L194.445517,55.9177925 L194.445517,54.791154 C194.445517,52.5494211 195.444836,51.4285714 197.443503,51.4285714 C198.002452,51.4285714 198.637612,51.5239014 199.349002,51.7145643 L199.349002,53.0665305 C198.59809,52.8296463 197.996805,52.711206 197.545129,52.711206 C196.997472,52.711206 196.623433,52.8455347 196.423002,53.114196 C196.222571,53.3828572 196.122356,53.8811731 196.122356,54.6091586 L196.122356,55.9177925 L201.965888,55.9177925 L201.965888,65.3295572 L200.297517,65.3295572 L200.297517,57.2004271 L196.122356,57.2004271 L196.122356,65.3295572 L194.445517,65.3295572 Z M200.297517,54.2105019 L200.297517,52.5032112 L201.965888,52.5032112 L201.965888,54.2105019 L200.297517,54.2105019 Z M205.310354,65.3295572 L205.310354,55.9177925 L206.978725,55.9177925 L206.978725,57.6857483 C207.859493,56.3684413 208.937854,55.7097977 210.213839,55.7097977 C211.009919,55.7097977 211.645079,55.9683442 212.119339,56.485445 C212.593599,57.0025458 212.830725,57.6972992 212.830725,58.5697262 L212.830725,65.3295572 L211.162355,65.3295572 L211.162355,59.124379 C211.162355,58.4252819 211.06214,57.926966 210.861709,57.6294164 C210.661278,57.3318668 210.329583,57.1830942 209.866615,57.1830942 C208.844698,57.1830942 207.882077,57.8677369 206.978725,59.2370429 L206.978725,65.3295572 L205.310354,65.3295572 Z M222.814798,65.0262315 C221.6969,65.3728912 220.739925,65.5462185 219.943846,65.5462185 C218.588818,65.5462185 217.483639,65.0854568 216.628277,64.1639197 C215.772915,63.2423826 215.345241,62.0478688 215.345241,60.5803426 C215.345241,59.1532601 215.722103,57.983301 216.475837,57.0704304 C217.229572,56.1575598 218.193604,55.7011313 219.367962,55.7011313 C220.480214,55.7011313 221.339798,56.1055616 221.946738,56.9144343 C222.553677,57.723307 222.857143,58.8730445 222.857143,60.3636814 L222.848674,60.8923348 L217.047487,60.8923348 C217.290263,63.1282901 218.360155,64.246251 220.257195,64.246251 C220.951647,64.246251 221.804173,64.055591 222.814798,63.6742653 L222.814798,65.0262315 Z M217.123707,59.6097002 L221.180303,59.6097002 C221.180303,57.8590686 220.54232,56.9837659 219.266335,56.9837659 C217.984704,56.9837659 217.270502,57.8590686 217.123707,59.6097002 Z" id="Define" fill="#FFFFFE"></path>
                <path d="M143.193277,61.0084034 C143.193277,87.461086 121.749053,108.907563 95.2941176,108.907563 C68.841435,108.907563 47.394958,87.461086 47.394958,61.0084034 C47.394958,34.5534677 68.841435,13.1092437 95.2941176,13.1092437 C121.749053,13.1092437 143.193277,34.5534677 143.193277,61.0084034" id="Fill-5" fill="#3F93A4"></path>
                <path d="M55.4621849,65.1411203 L55.4621849,52.2883196 L62.4765541,52.2883196 L62.4765541,53.6517586 L57.2433427,53.6517586 L57.2433427,57.7768129 L61.6283837,57.7768129 L61.6283837,59.1228832 L57.2433427,59.1228832 L57.2433427,63.7776813 L62.8412674,63.7776813 L62.8412674,65.1411203 L55.4621849,65.1411203 Z M64.3545391,65.1411203 L64.3545391,55.7099436 L66.0254348,55.7099436 L66.0254348,57.4815458 C66.8396824,56.1615218 67.8857488,55.5015198 69.1636652,55.5015198 C70.3963457,55.5015198 71.236026,56.1615218 71.6827313,57.4815458 C72.474361,56.1557323 73.5034641,55.4928354 74.7700716,55.4928354 C75.5843193,55.4928354 76.2147863,55.7374415 76.6614916,56.2266609 C77.1081969,56.7158803 77.3315462,57.4004877 77.3315462,58.2805037 L77.3315462,65.1411203 L75.6521688,65.1411203 L75.6521688,58.5497178 C75.6521688,57.4728561 75.2365695,56.9344333 74.4053583,56.9344333 C73.5402202,56.9344333 72.6326869,57.5625932 71.6827313,58.8189318 L71.6827313,65.1411203 L70.0033539,65.1411203 L70.0033539,58.5497178 C70.0033539,57.4670665 69.579273,56.925749 68.7310983,56.925749 C67.8885782,56.925749 66.9866994,57.5568036 66.0254348,58.8189318 L66.0254348,65.1411203 L64.3545391,65.1411203 Z M79.9983297,68.5714286 L79.9983297,55.7099436 L81.6692254,55.7099436 L81.6692254,57.4815458 C82.3534196,56.1615218 83.3796955,55.5015198 84.7480839,55.5015198 C85.8563654,55.5015198 86.7285586,55.9154684 87.3646896,56.7433782 C88.0008206,57.571288 88.3188813,58.7031337 88.3188813,60.1389492 C88.3188813,61.7021355 87.9584125,62.9627974 87.237464,63.9209726 C86.5165156,64.8791479 85.5679879,65.3582284 84.3918523,65.3582284 C83.3005343,65.3582284 82.3930011,64.929806 81.6692254,64.0729483 L81.6692254,68.5714286 L79.9983297,68.5714286 Z M81.6692254,62.8918802 C82.528709,63.6792629 83.3485989,64.0729483 84.1289195,64.0729483 C85.7347968,64.0729483 86.5377235,62.8195233 86.5377235,60.3126357 C86.5377235,58.1010166 85.8252675,56.9952236 84.4003341,56.9952236 C83.4673419,56.9952236 82.5569815,57.5133832 81.6692254,58.5497178 L81.6692254,62.8918802 Z M95.1077729,63.9426835 C94.1069268,64.8863848 93.1428495,65.3582284 92.2155118,65.3582284 C91.4521547,65.3582284 90.8188604,65.1136224 90.3156101,64.624403 C89.8123599,64.1351835 89.5607385,63.5171553 89.5607385,62.7702996 C89.5607385,61.7397546 89.9834058,60.9480416 90.8287532,60.3951368 C91.6741006,59.842232 92.8855586,59.5657838 94.4631634,59.5657838 L94.8618035,59.5657838 L94.8618035,58.4281372 C94.8618035,57.3339068 94.3133255,56.7867998 93.2163529,56.7867998 C92.3342513,56.7867998 91.3814827,57.0646954 90.3580187,57.620495 L90.3580187,56.2049501 C91.4832637,55.7359942 92.5378117,55.5015198 93.5216943,55.5015198 C94.5508128,55.5015198 95.3099177,55.7388889 95.7990318,56.2136344 C96.2881458,56.6883799 96.5326992,57.4265401 96.5326992,58.4281372 L96.5326992,62.700825 C96.5326992,63.6792638 96.8267287,64.1684759 97.4147964,64.1684759 C97.4883049,64.1684759 97.5957387,64.1568969 97.7371012,64.1337386 L97.855845,65.08033 C97.4769937,65.2655965 97.0585671,65.3582284 96.6005528,65.3582284 C95.8202321,65.3582284 95.3226438,64.8863848 95.1077729,63.9426835 Z M94.8618035,63.0134607 L94.8618035,60.5731654 L94.302011,60.5557968 C93.3859824,60.5557968 92.6452543,60.7338237 92.0798046,61.0898828 C91.5143548,61.4459419 91.2316342,61.9134433 91.2316342,62.4924012 C91.2316342,62.9034613 91.3729945,63.2508308 91.6557194,63.5345202 C91.9384443,63.8182096 92.2833634,63.9600521 92.6904873,63.9600521 C93.3859905,63.9600521 94.1097553,63.6445248 94.8618035,63.0134607 Z M102.142634,65.3582284 C101.294459,65.3582284 100.632893,65.1092802 100.157915,64.6113765 C99.6829374,64.1134727 99.4454521,63.4216284 99.4454521,62.5358228 L99.4454521,56.9952236 L98.2919403,56.9952236 L98.2919403,55.7099436 L99.4454521,55.7099436 L99.4454521,53.9991316 L101.116348,53.8341294 L101.116348,55.7099436 L103.525152,55.7099436 L103.525152,56.9952236 L101.116348,56.9952236 L101.116348,62.2231871 C101.116348,63.4563674 101.636554,64.0729483 102.676981,64.0729483 C102.897507,64.0729483 103.166091,64.0353166 103.482743,63.9600521 L103.482743,65.1411203 C102.968184,65.2858597 102.521485,65.3582284 102.142634,65.3582284 Z M105.301356,65.1411203 L105.301356,51.4285714 L106.972252,51.4285714 L106.972252,57.4815458 C107.854354,56.1615218 108.934346,55.5015198 110.212263,55.5015198 C111.009547,55.5015198 111.645668,55.7605995 112.120646,56.2787668 C112.595624,56.7969341 112.833109,57.4931205 112.833109,58.3673469 L112.833109,65.1411203 L111.162214,65.1411203 L111.162214,58.9231437 C111.162214,58.2226047 111.061848,57.723261 110.861113,57.4250977 C110.660379,57.1269344 110.328182,56.977855 109.864513,56.977855 C108.841049,56.977855 107.876972,57.6639098 106.972252,59.0360399 L106.972252,65.1411203 L105.301356,65.1411203 Z M115.508375,65.1411203 L115.508375,55.7099436 L117.17927,55.7099436 L117.17927,65.1411203 L115.508375,65.1411203 Z M115.508375,53.9991316 L115.508375,52.2883196 L117.17927,52.2883196 L117.17927,53.9991316 L115.508375,53.9991316 Z M119.32867,65.1411203 L119.32867,63.8558402 L125.028375,56.9952236 L119.591603,56.9952236 L119.591603,55.7099436 L127.089429,55.7099436 L127.089429,56.9952236 L121.389724,63.8558402 L127.199691,63.8558402 L127.199691,65.1411203 L119.32867,65.1411203 Z M136.092045,64.8371689 C134.972455,65.1845436 134.014032,65.3582284 133.216748,65.3582284 C131.859668,65.3582284 130.752817,64.8965164 129.89616,63.9730786 C129.039504,63.0496408 128.611182,61.8526633 128.611182,60.3821103 C128.611182,58.9520843 128.988614,57.7797122 129.74349,56.8649587 C130.498365,55.9502053 131.463856,55.4928354 132.639992,55.4928354 C133.753928,55.4928354 134.614812,55.8980999 135.222671,56.7086409 C135.830529,57.5191819 136.134454,58.6712908 136.134454,60.1650022 L136.125972,60.694746 L130.316005,60.694746 C130.559148,62.935313 131.630659,64.0555797 133.530571,64.0555797 C134.226074,64.0555797 135.07989,63.8645264 136.092045,63.4824142 L136.092045,64.8371689 Z M130.39234,59.4094659 L134.455076,59.4094659 C134.455076,57.6552235 133.816128,56.7781155 132.538211,56.7781155 C131.25464,56.7781155 130.539357,57.6552235 130.39234,59.4094659 Z" id="Empathize" fill="#FFFFFE"></path>
                <path d="M-30.2521008,66.242497 L-30.2521008,53.757503 L-26.8333452,53.757503 C-25.3176611,53.757503 -24.2289863,54.0119806 -23.5672884,54.5209435 C-22.9055905,55.0299064 -22.5747464,55.8664489 -22.5747464,57.030596 C-22.5747464,58.3578363 -23.0271827,59.398242 -23.9320688,60.1518445 C-24.8369548,60.905447 -26.0924654,61.2822426 -27.6986382,61.2822426 L-28.4875818,61.2822426 L-28.4875818,66.242497 L-30.2521008,66.242497 Z M-28.4875818,59.9409494 L-27.7665043,59.9409494 C-26.7089187,59.9409494 -25.8917058,59.6991253 -25.3148409,59.21547 C-24.737976,58.7318146 -24.4495479,58.0485211 -24.4495479,57.1655689 C-24.4495479,56.4175903 -24.675766,55.8833279 -25.1282091,55.5627656 C-25.5806521,55.2422034 -26.3356551,55.0819247 -27.3932407,55.0819247 L-28.4875818,55.0819247 L-28.4875818,59.9409494 Z M-20.6273282,66.242497 L-20.6273282,53.757503 L-16.8268257,53.757503 C-15.6221961,53.757503 -14.6989434,54.0218223 -14.0570399,54.5504688 C-13.4151363,55.0791154 -13.0941893,55.8467661 -13.0941893,56.8534441 C-13.0941893,58.5181183 -13.9396796,59.6991194 -15.6306854,60.3964829 L-11.4399528,66.242497 L-13.628635,66.242497 L-17.2000894,60.961682 L-18.8628092,60.961682 L-18.8628092,66.242497 L-20.6273282,66.242497 Z M-18.8628092,59.6372603 L-18.2859472,59.6372603 C-16.0463542,59.6372603 -14.9265745,58.7627571 -14.9265745,57.0137244 C-14.9265745,55.7258515 -15.8653797,55.0819247 -17.7430183,55.0819247 L-18.8628092,55.0819247 L-18.8628092,59.6372603 Z M-4.56375787,66.5546218 C-6.30566356,66.5546218 -7.70680207,65.9542796 -8.76721544,64.7535771 C-9.82762881,63.5528746 -10.3578275,61.9655528 -10.3578275,59.9915642 C-10.3578275,58.0063277 -9.82480108,56.419006 -8.75873217,55.2295513 C-7.69266327,54.0400966 -6.26890294,53.4453782 -4.48740849,53.4453782 C-2.71156957,53.4453782 -1.2892231,54.0386906 -0.220326429,55.2253334 C0.848570245,56.4119761 1.38301057,57.99508 1.38301057,59.9746926 C1.38301057,61.9936724 0.848570245,63.5950537 -0.220326429,64.7788845 C-1.2892231,65.9627153 -2.7370191,66.5546218 -4.56375787,66.5546218 Z M-4.53830807,65.2302002 C-3.25450096,65.2302002 -2.26196893,64.7704533 -1.56068222,63.8509458 C-0.859395517,62.9314382 -0.508757423,61.633743 -0.508757423,59.957821 C-0.508757423,58.3325141 -0.86080938,57.0615319 -1.56492386,56.1448363 C-2.26903833,55.2281407 -3.24319013,54.7697998 -4.48740849,54.7697998 C-5.73728237,54.7697998 -6.71284804,55.2295467 -7.41413475,56.1490542 C-8.11542145,57.0685618 -8.46605955,58.3465737 -8.46605955,59.9831284 C-8.46605955,61.6140592 -8.11824918,62.896289 -7.42261801,63.8298563 C-6.72698684,64.7634235 -5.76555981,65.2302002 -4.53830807,65.2302002 Z M3.89880749,66.242497 L3.89880749,53.757503 L7.15638107,53.757503 C8.4119105,53.757503 9.37475139,53.9937032 10.0449326,54.4661108 C10.7151139,54.9385183 11.0501995,55.6189999 11.0501995,56.507576 C11.0501995,58.0204049 10.1905706,59.0973655 8.47128707,59.73849 C10.5242474,60.3627428 11.5507121,61.4903177 11.5507121,63.1212485 C11.5507121,64.1335504 11.2113849,64.9068249 10.5327204,65.4410954 C9.8540558,65.9753658 8.87566241,66.242497 7.59751083,66.242497 L3.89880749,66.242497 Z M5.66332652,64.9180753 L6.02810689,64.9180753 C7.33453616,64.9180753 8.1800264,64.83653 8.56460298,64.6734369 C9.29982292,64.3641225 9.66742737,63.7904934 9.66742737,62.9525324 C9.66742737,62.2101777 9.33375564,61.592964 8.66640216,61.1008728 C7.99904868,60.6087816 7.16486934,60.3627397 6.16383912,60.3627397 L5.66332652,60.3627397 L5.66332652,64.9180753 Z M5.66332652,59.2407774 L6.23170524,59.2407774 C7.18183562,59.2407774 7.91845839,59.0383201 8.44159565,58.6333993 C8.96473291,58.2284786 9.22629762,57.6576613 9.22629762,56.9209305 C9.22629762,55.6949205 8.27052604,55.0819247 6.35895421,55.0819247 L5.66332652,55.0819247 L5.66332652,59.2407774 Z M13.9138103,66.242497 L13.9138103,53.757503 L15.6952958,53.757503 L15.6952958,64.9180753 L21.34515,64.9180753 L21.34515,66.242497 L13.9138103,66.242497 Z M23.1992523,66.242497 L23.1992523,53.757503 L30.214912,53.757503 L30.214912,55.0819247 L24.9807378,55.0819247 L24.9807378,59.0889329 L29.3665856,59.0889329 L29.3665856,60.3964829 L24.9807378,60.3964829 L24.9807378,64.9180753 L30.5796924,64.9180753 L30.5796924,66.242497 L23.1992523,66.242497 Z M32.6373931,66.242497 L32.6373931,53.757503 L35.106023,53.757503 L38.5841615,63.4165017 L42.1640991,53.757503 L44.3697479,53.757503 L44.3697479,66.242497 L42.7070281,66.242497 L42.7070281,56.0857857 L39.2458561,65.4073521 L37.5237534,65.4073521 L34.1643807,56.0604782 L34.1643807,66.242497 L32.6373931,66.242497 Z" id="PROBLEM" fill="#1A1919" transform="translate(7.058824, 60.000000) rotate(-270.000000) translate(-7.058824, -60.000000) "></path>
                <path d="M556.855544,70.5882353 C556.010268,70.5882353 554.92958,70.4054613 553.613445,70.0399079 L553.613445,68.28526 C555.031693,68.9376324 556.197476,69.2638136 557.110828,69.2638136 C557.814279,69.2638136 558.380151,69.0810396 558.808462,68.7154862 C559.236773,68.3499327 559.450925,67.8690966 559.450925,67.2729632 C559.450925,66.783684 559.310521,66.3675217 559.029708,66.0244638 C558.748894,65.681406 558.231242,65.2989866 557.476734,64.8771941 L556.60877,64.3794815 C555.536575,63.7721004 554.78066,63.1998772 554.341003,62.6627948 C553.901346,62.1257125 553.681521,61.5000631 553.681521,60.7858278 C553.681521,59.8241411 554.033241,59.0325891 554.736692,58.4111482 C555.440143,57.7897074 556.336463,57.4789916 557.425677,57.4789916 C558.395759,57.4789916 559.419718,57.6392703 560.497587,57.9598326 L560.497587,59.5795075 C559.170107,59.0621087 558.180185,58.8034133 557.52779,58.8034133 C556.909434,58.8034133 556.398873,58.9665039 555.99609,59.29269 C555.593308,59.6188762 555.39192,60.0294147 555.39192,60.5243178 C555.39192,60.9404864 555.539415,61.3088463 555.834411,61.6294085 C556.129406,61.9499708 556.668332,62.3323902 557.451205,62.7766782 L558.353207,63.2828266 C559.442421,63.8958317 560.202591,64.4750846 560.633738,65.0206028 C561.064886,65.5661211 561.280456,66.2212955 561.280456,66.9861458 C561.280456,68.0715584 560.876261,68.9432497 560.06786,69.6012459 C559.259459,70.2592421 558.188697,70.5882353 556.855544,70.5882353 Z M568.187471,70.5882353 C566.440189,70.5882353 565.034727,69.9878931 563.971041,68.7871906 C562.907355,67.5864881 562.37552,65.9991663 562.37552,64.0251776 C562.37552,62.0399412 562.910191,60.4526194 563.97955,59.2631647 C565.048909,58.07371 566.477063,57.4789916 568.264056,57.4789916 C570.045376,57.4789916 571.472112,58.0723041 572.544307,59.2589468 C573.616503,60.4455896 574.152593,62.0286935 574.152593,64.008306 C574.152593,66.0272859 573.616503,67.6286672 572.544307,68.812498 C571.472112,69.9963288 570.019848,70.5882353 568.187471,70.5882353 Z M568.212999,69.2638136 C569.500769,69.2638136 570.496364,68.8040668 571.199815,67.8845592 C571.903266,66.9650517 572.254986,65.6673564 572.254986,63.9914344 C572.254986,62.3661275 571.901848,61.0951453 571.19556,60.1784498 C570.489273,59.2617542 569.512114,58.8034133 568.264056,58.8034133 C567.010325,58.8034133 566.031748,59.2631601 565.328297,60.1826677 C564.624846,61.1021752 564.273126,62.3801871 564.273126,64.0167418 C564.273126,65.6476726 564.62201,66.9299024 565.319788,67.8634697 C566.017566,68.797037 566.98196,69.2638136 568.212999,69.2638136 Z M575.996487,70.2761104 L575.996487,57.7911164 L577.783471,57.7911164 L577.783471,68.9516888 L583.450762,68.9516888 L583.450762,70.2761104 L575.996487,70.2761104 Z M584.528806,57.7911164 L586.31579,57.7911164 L586.31579,65.67016 C586.31579,66.9242895 586.549797,67.8367535 587.017819,68.4075792 C587.485841,68.978405 588.23041,69.2638136 589.251549,69.2638136 C590.249995,69.2638136 590.957691,68.9952765 591.374656,68.4581941 C591.791621,67.9211117 592.0001,67.0114596 592.0001,65.7292106 L592.0001,57.7911164 L593.565838,57.7911164 L593.565838,65.7039032 C593.565838,67.4079447 593.212699,68.6479959 592.506412,69.424094 C591.800124,70.2001921 590.675471,70.5882353 589.132417,70.5882353 C587.560998,70.5882353 586.400888,70.1861325 585.652053,69.3819149 C584.903218,68.5776973 584.528806,67.3348342 584.528806,65.6532883 L584.528806,57.7911164 Z M599.043266,70.2761104 L599.043266,59.1155381 L594.575807,59.1155381 L594.575807,57.7911164 L605.297709,57.7911164 L605.297709,59.1155381 L600.83025,59.1155381 L600.83025,70.2761104 L599.043266,70.2761104 Z M606.401282,70.2761104 L606.401282,57.7911164 L608.188265,57.7911164 L608.188265,70.2761104 L606.401282,70.2761104 Z M615.844111,70.5882353 C614.09683,70.5882353 612.691367,69.9878931 611.627681,68.7871906 C610.563995,67.5864881 610.03216,65.9991663 610.03216,64.0251776 C610.03216,62.0399412 610.566832,60.4526194 611.636191,59.2631647 C612.70555,58.07371 614.133704,57.4789916 615.920697,57.4789916 C617.702016,57.4789916 619.128752,58.0723041 620.200948,59.2589468 C621.273143,60.4455896 621.809233,62.0286935 621.809233,64.008306 C621.809233,66.0272859 621.273143,67.6286672 620.200948,68.812498 C619.128752,69.9963288 617.676488,70.5882353 615.844111,70.5882353 Z M615.86964,69.2638136 C617.157409,69.2638136 618.153004,68.8040668 618.856455,67.8845592 C619.559906,66.9650517 619.911627,65.6673564 619.911627,63.9914344 C619.911627,62.3661275 619.558488,61.0951453 618.852201,60.1784498 C618.145913,59.2617542 617.168755,58.8034133 615.920697,58.8034133 C614.666965,58.8034133 613.688389,59.2631601 612.984938,60.1826677 C612.281487,61.1021752 611.929766,62.3801871 611.929766,64.0167418 C611.929766,65.6476726 612.27865,66.9299024 612.976428,67.8634697 C613.674206,68.797037 614.638601,69.2638136 615.86964,69.2638136 Z M623.653128,70.2761104 L623.653128,57.7911164 L625.406074,57.7911164 L631.745611,67.4332436 L631.745611,57.7911164 L633.277311,57.7911164 L633.277311,70.2761104 L631.532875,70.2761104 L625.184828,60.6339833 L625.184828,70.2761104 L623.653128,70.2761104 Z" id="SOLUTION" fill="#1A1919" transform="translate(593.445378, 64.033613) rotate(-270.000000) translate(-593.445378, -64.033613) "></path>
                <path d="M153.002522,11.4497968 C143.042926,7.58566694 131.564005,9.57500487 123.374373,17.0555663 L118.989521,12.1208178 C129.404036,2.60800636 144.153487,0.330852539 156.672879,5.78507986 L160.421224,0 L169.411765,18.1512605 L149.420388,16.9783528 L153.002522,11.4497968 Z" id="Combined-Shape" fill="#ADAEAD" fill-rule="nonzero"></path>
                <path d="M157.038211,114.30694 C147.078616,110.44281 135.599694,112.432148 127.410063,119.912709 L123.02521,114.977961 C133.439725,105.465149 148.189176,103.187995 160.708569,108.642223 L164.456913,102.857143 L173.447454,121.008403 L153.456077,119.835496 L157.038211,114.30694 Z" id="Combined-Shape" fill="#ADAEAD" fill-rule="nonzero" transform="translate(148.236332, 111.932773) rotate(-180.000000) translate(-148.236332, -111.932773) "></path>
                <path d="M255.859665,11.4497968 C245.900069,7.58566694 234.421148,9.57500487 226.231516,17.0555663 L221.846664,12.1208178 C232.261179,2.60800636 247.01063,0.330852539 259.530022,5.78507986 L263.278367,0 L272.268908,18.1512605 L252.277531,16.9783528 L255.859665,11.4497968 Z" id="Combined-Shape" fill="#ADAEAD" fill-rule="nonzero"></path>
                <path d="M259.895354,114.30694 C249.935758,110.44281 238.456837,112.432148 230.267205,119.912709 L225.882353,114.977961 C236.296868,105.465149 251.046319,103.187995 263.565711,108.642223 L267.314056,102.857143 L276.304597,121.008403 L256.31322,119.835496 L259.895354,114.30694 Z" id="Combined-Shape" fill="#ADAEAD" fill-rule="nonzero" transform="translate(251.093475, 111.932773) rotate(-180.000000) translate(-251.093475, -111.932773) "></path>
                <path d="M357.708405,11.4497968 C347.748809,7.58566694 336.269887,9.57500487 328.080256,17.0555663 L323.695403,12.1208178 C334.109919,2.60800636 348.859369,0.330852539 361.378762,5.78507986 L365.127106,0 L374.117647,18.1512605 L354.12627,16.9783528 L357.708405,11.4497968 Z" id="Combined-Shape" fill="#ADAEAD" fill-rule="nonzero"></path>
                <path d="M361.744094,114.30694 C351.784498,110.44281 340.305577,112.432148 332.115945,119.912709 L327.731092,114.977961 C338.145608,105.465149 352.895059,103.187995 365.414451,108.642223 L369.162795,102.857143 L378.153336,121.008403 L358.16196,119.835496 L361.744094,114.30694 Z" id="Combined-Shape" fill="#ADAEAD" fill-rule="nonzero" transform="translate(352.942214, 111.932773) rotate(-180.000000) translate(-352.942214, -111.932773) "></path>
                <path d="M460.565547,11.4497968 C450.605952,7.58566694 439.12703,9.57500487 430.937399,17.0555663 L426.552546,12.1208178 C436.967062,2.60800636 451.716512,0.330852539 464.235905,5.78507986 L467.984249,0 L476.97479,18.1512605 L456.983413,16.9783528 L460.565547,11.4497968 Z" id="Combined-Shape" fill="#ADAEAD" fill-rule="nonzero"></path>
                <path d="M464.601237,114.30694 C454.641641,110.44281 443.16272,112.432148 434.973088,119.912709 L430.588235,114.977961 C441.002751,105.465149 455.752201,103.187995 468.271594,108.642223 L472.019938,102.857143 L481.010479,121.008403 L461.019102,119.835496 L464.601237,114.30694 Z" id="Combined-Shape" fill="#ADAEAD" fill-rule="nonzero" transform="translate(455.799357, 111.932773) rotate(-180.000000) translate(-455.799357, -111.932773) "></path>
                <polyline id="Fill-38" fill="#ADAEAD" points="24.2016807 44.3697479 24.2016807 79.6638655 42.3529412 62.0178167 24.2016807 44.3697479"></polyline>
                <polyline id="Fill-39" fill="#ADAEAD" points="559.663866 41.3445378 559.663866 77.6470588 577.815126 59.4967987 559.663866 41.3445378"></polyline>
            </g>
        </g>
    </g>
</svg>