<?xml version="1.0" encoding="UTF-8"?>
<svg width="79px" height="80px" viewBox="0 0 79 80" version="1.1" xmlns="http://www.w3.org/2000/svg" xmlns:xlink="http://www.w3.org/1999/xlink">
    <!-- Generator: Sketch 46.2 (44496) - http://www.bohemiancoding.com/sketch -->
    <title>client_vw</title>
    <desc>Created with Sketch.</desc>
    <defs></defs>
    <g id="Page-1" stroke="none" stroke-width="1" fill="none" fill-rule="evenodd">
        <g id="client_vw" fill-rule="nonzero" fill="#FFFFFF">
            <path d="M39.2582496,-4.26325641e-14 C60.8604997,-4.26325641e-14 78.5185185,17.8130594 78.5185185,39.642596 C78.5185185,61.434516 60.8604997,79.2101901 39.2582496,79.2101901 C17.6581874,79.2101901 0,61.434516 0,39.642596 C0,17.813059 17.6581874,-4.26325641e-14 39.2604399,-4.26325641e-14 L39.2582496,-4.26325641e-14 Z M12.9749518,18.3330904 L27.0576221,55.1856416 L32.2168864,41.7248756 L45.7468748,41.7248756 L50.9058594,55.1856416 L65.1356009,17.8884013 C62.6282711,14.8367572 59.6059942,12.2343341 56.2142161,10.2272848 L46.3370705,37.6710087 L32.4011319,37.6710087 L22.4840581,10.1145548 C18.8361567,12.2343341 15.6291298,15.022564 12.9749518,18.3330908 L12.9749518,18.3330904 Z M70.8145844,27.5939556 L54.7777662,69.8009041 C65.543852,64.1122836 72.9512923,52.7316367 72.9512923,39.6425945 C72.9512923,35.4029221 72.2145353,31.3491698 70.8145844,27.5939536 L70.8145844,27.5939556 Z M47.7735157,72.5517501 L47.6640138,71.697491 L38.9642766,48.9384677 L30.2624024,71.697491 L30.2273053,72.403332 C33.1008822,73.2224673 36.1236068,73.6292016 39.2582496,73.6292016 C42.2062893,73.6292016 45.044936,73.2575864 47.7735203,72.5517501 L47.7735157,72.5517501 Z M23.0763273,69.4292935 L7.44495114,28.3371809 C6.19240821,31.8692027 5.52781083,35.6640726 5.52781083,39.642596 C5.52781083,52.4348004 12.6064052,63.6647636 23.0763273,69.4292935 Z M39.2582496,5.61611289 C36.3473853,5.61611289 33.5089059,5.98772628 30.8173847,6.69356353 L39.3701108,30.4949148 L47.8852681,6.73151825 C45.1196244,5.98772581 42.2085353,5.61611289 39.2582496,5.61611289 Z" id="path16"></path>
        </g>
    </g>
</svg>