<?xml version="1.0" encoding="UTF-8" standalone="no"?>
<svg width="130px" height="60px" viewBox="0 0 130 60" version="1.1" xmlns="http://www.w3.org/2000/svg" xmlns:xlink="http://www.w3.org/1999/xlink">
    <!-- Generator: Sketch 46.2 (44496) - http://www.bohemiancoding.com/sketch -->
    <title>Artboard</title>
    <desc>Created with Sketch.</desc>
    <defs></defs>
    <g id="Page-1" stroke="none" stroke-width="1" fill="none" fill-rule="evenodd">
        <g id="Artboard" fill-rule="nonzero" fill="#FFFFFF">
            <polygon id="path2651" transform="translate(13.000000, 26.500000) scale(-1, 1) rotate(-180.000000) translate(-13.000000, -26.500000) " points="7.89638615 32 10.7562968 32 13.0218179 26.1214105 15.4229635 32 18.3111784 32 20 21 17.0964535 21 16.2815264 27.3315034 16.2520428 27.3315034 13.5702131 21 12.4156347 21 9.85173952 27.3315034 9.8222559 27.3315034 8.88939432 21 6 21"></polygon>
            <polygon id="path2655" transform="translate(24.000000, 26.500000) scale(-1, 1) rotate(-180.000000) translate(-24.000000, -26.500000) " points="23.7411394 29.5783972 23.7411394 27.7398374 26.8318797 27.7398374 26.8318797 25.3182346 23.7411394 25.3182346 23.7411394 23.4216027 27 23.4216027 27 21 21 21 21 32 27 32 27 29.5783972"></polygon>
            <path d="M31.9651934,23.4216027 L32.6312178,23.4216027 C34.4004578,23.4216027 35.9143684,24.3554007 35.9143684,26.5005808 C35.9143684,28.4692219 34.5678671,29.5783972 32.6613272,29.5783972 L31.9651934,29.5783972 L31.9651934,23.4216027 Z M29,32 L33.2057089,32 C36.3828737,32 39,29.5934959 39,26.5005808 C39,23.406504 36.3684212,21 33.2057089,21 L29,21 L29,32 Z" id="path2667" transform="translate(34.000000, 26.500000) scale(-1, 1) rotate(-180.000000) translate(-34.000000, -26.500000) "></path>
            <polygon id="path2669" points="43 32 40 32 40 21 43 21"></polygon>
            <path d="M49.541671,28.6008234 L49.5138901,28.6008234 L48.3826648,25.099451 L50.6584504,25.099451 L49.541671,28.6008234 Z M47.6292557,22.9115287 L46.9036267,21 L44,21 L48.0481866,32 L51.0351549,32 L55,21 L52.0830386,21 L51.3985251,22.9115287 L47.6292557,22.9115287 Z" id="path2673" transform="translate(49.500000, 26.500000) scale(-1, 1) rotate(-180.000000) translate(-49.500000, -26.500000) "></path>
            <polygon id="path2675" points="62 28 58 28 58 26 62 26"></polygon>
            <path d="M71.4338386,29.7659916 C70.9171196,30.2195708 70.2563591,30.521556 69.5670192,30.521556 C69.0503002,30.521556 68.3609603,30.2039302 68.3609603,29.5698816 C68.3609603,28.9045518 69.1223209,28.6470824 69.61046,28.4810507 L70.3283798,28.2548627 C71.836239,27.7856426 73,26.9855625 73,25.141167 C73,24.0078203 72.7404977,22.8443954 71.8796804,22.0731903 C71.0325811,21.3176258 69.8973995,21 68.8056586,21 C67.4418409,21 66.1066025,21.4836575 65,22.2993784 L66.207202,24.6875878 C66.9102598,24.0378986 67.7436411,23.5085221 68.7050591,23.5085221 C69.365819,23.5085221 70.0700203,23.8562262 70.0700203,24.6575095 C70.0700203,25.4888711 68.9634181,25.7764187 68.3609603,25.9568879 C66.5947416,26.4862643 65.4309806,26.9699218 65.4309806,29.1764588 C65.4309806,31.4888711 66.9959991,33 69.1657617,33 C70.2563591,33 71.5915981,32.6378584 72.5541589,32.0627632 L71.4338386,29.7659916 Z" id="path2679" transform="translate(69.000000, 27.000000) scale(-1, 1) rotate(-180.000000) translate(-69.000000, -27.000000) "></path>
            <path d="M79.5416711,28.6008234 L79.5138902,28.6008234 L78.3826649,25.099451 L80.6584505,25.099451 L79.5416711,28.6008234 Z M77.6292555,22.9115287 L76.9036265,21 L74,21 L78.0481868,32 L81.0351549,32 L85,21 L82.0819276,21 L81.3985254,22.9115287 L77.6292555,22.9115287 Z" id="path2683" transform="translate(79.500000, 26.500000) scale(-1, 1) rotate(-180.000000) translate(-79.500000, -26.500000) "></path>
            <polygon id="path2687" transform="translate(88.000000, 26.500000) scale(-1, 1) rotate(-180.000000) translate(-88.000000, -26.500000) " points="89.5076551 21 86.4923455 21 86.4923455 29.5774915 84 29.5774915 84 32 92 32 92 29.5774915 89.5076551 29.5774915"></polygon>
            <path d="M103,32 L103,25.9744935 C103,24.5953924 102.939511,23.2309986 101.799903,22.1935617 C100.841761,21.3122493 99.3380112,21 97.9999997,21 C96.6631988,21 95.1582383,21.3122493 94.2013066,22.1935617 C93.0604889,23.2309986 93,24.5953924 93,25.9744935 L93,32 L95.9784657,32 L95.9784657,26.3580171 C95.9784657,24.96534 96.0861358,23.4448216 97.9999997,23.4448216 C99.9150736,23.4448216 100.021534,24.96534 100.021534,26.3580171 L100.021534,32 L103,32 Z" id="path2691" transform="translate(98.000000, 26.500000) scale(-1, 1) rotate(-180.000000) translate(-98.000000, -26.500000) "></path>
            <path d="M106.814142,27.0690456 L107.086073,27.0690456 C108.004697,27.0690456 109.038721,27.2444047 109.038721,28.4405616 C109.038721,29.6367187 108.004697,29.8120778 107.086073,29.8120778 L106.814142,29.8120778 L106.814142,27.0690456 Z M113,21 L109.498032,21 L106.842706,25.2306799 L106.814142,25.2306799 L106.814142,21 L104,21 L104,32 L108.205789,32 C110.344675,32 111.965977,30.9641048 111.965977,28.6159207 C111.965977,27.0980786 111.134188,25.7857897 109.598578,25.5082348 L113,21 Z" id="path2695" transform="translate(108.500000, 26.500000) scale(-1, 1) rotate(-180.000000) translate(-108.500000, -26.500000) "></path>
            <polygon id="path2699" transform="translate(119.500000, 26.500000) scale(-1, 1) rotate(-180.000000) translate(-119.500000, -26.500000) " points="114 32 116.863093 32 122.107834 25.27481 122.136907 25.27481 122.136907 32 125 32 125 21 122.136907 21 116.892166 27.7402872 116.863093 27.7402872 116.863093 21 114 21"></polygon>
            <polygon id="path2701" points="125 39 6 39 6 35 125 35"></polygon>
        </g>
    </g>
</svg>