<?xml version="1.0" encoding="UTF-8" standalone="no"?>
<svg width="200px" height="37px" viewBox="0 0 200 37" version="1.1" xmlns="http://www.w3.org/2000/svg" xmlns:xlink="http://www.w3.org/1999/xlink">
    <!-- Generator: Sketch 46.2 (44496) - http://www.bohemiancoding.com/sketch -->
    <title>client_zalando</title>
    <desc>Created with Sketch.</desc>
    <defs></defs>
    <g id="Page-1" stroke="none" stroke-width="1" fill="none" fill-rule="evenodd">
        <g id="client_zalando" fill-rule="nonzero" fill="#FFFFFF">
            <g id="Page-1">
                <g id="client_zalando2">
                    <g id="logo_zalando2">
                        <g id="Page-1">
                            <g id="logo_zalando">
                                <g id="Page-1">
                                    <g id="Artboard">
                                        <g id="Group">
                                            <path d="M82.8251534,9.7294018 C81.3096344,8.89588036 79.0565304,8.49040632 75.9366094,8.48927766 C71.6677042,8.49085778 67.7049504,9.37641084 66.2052326,9.93538374 C65.866632,10.0440181 65.5043296,10.3363431 65.498404,10.8366253 L65.499307,10.9469526 L65.9194538,13.0699774 L65.9298826,13.1094808 C66.0613724,13.5417607 66.4214176,13.7356095 66.7492958,13.7356095 L66.7508758,13.7356095 C66.8564064,13.7310948 66.938517,13.7107788 67.0149842,13.6913093 L67.7254808,13.525395 C69.5849616,13.0598194 72.3956276,12.3566591 75.5341716,12.3566591 C77.4379526,12.3566591 78.7178624,12.5225734 79.5759322,12.8848758 C80.9678624,13.4119639 80.9766094,14.3117946 80.9907178,15.8013544 L80.9907178,18.0293454 C80.8312934,18.0265237 80.562106,18.023702 80.1476028,18.023702 C78.6103566,18.023702 75.5877832,18.0950903 72.6151534,18.5716704 C68.0790362,19.2683409 64.3256502,20.3541196 64.3493522,26.6041196 C64.3509322,34.5380926 71.7099616,34.5530474 75.2463612,34.5603838 L75.2468126,34.5603838 C77.6474898,34.5599322 79.8625012,34.2054176 81.3091716,33.9063206 C84.610526,33.1396726 85.453359,32.0914222 85.4090586,28.810948 L85.4090586,15.6179458 C85.4138668,13.6058126 85.419781,11.1015801 82.824973,9.7294018 L82.8251534,9.7294018 Z M81.012614,30.109763 C79.2555598,30.6800226 77.3331558,30.9686794 75.2970384,30.9686794 L75.2970384,31.1540632 L75.2945102,30.9686794 C72.0411242,30.9438488 68.8639232,30.5716704 68.859973,26.4218398 C68.8808532,23.1213318 70.6418578,22.7285554 72.8709774,22.2308126 L73.025605,22.1963882 C75.008675,21.7725734 79.9863838,21.6930022 81.0131896,21.6811512 L81.0127382,30.109763 L81.012614,30.109763 Z M122.19574,15.6179458 L122.19574,28.810948 C122.240041,32.0914222 121.396926,33.1396726 118.095853,33.9063206 C116.649183,34.2054176 114.434172,34.5598194 112.033212,34.5603838 L112.032986,34.5603838 C108.496587,34.5530474 101.13767,34.5381038 101.135695,26.6041196 C101.112275,20.3541196 104.865661,19.2683409 109.401779,18.5716704 C112.374409,18.0950903 115.396982,18.023702 116.933946,18.023702 C117.348731,18.023702 117.617637,18.0265237 117.777343,18.0293454 L117.777343,15.8013544 C117.763235,14.3117946 117.754488,13.4119639 116.362558,12.8848758 C115.504488,12.5225734 114.224578,12.3566591 112.320797,12.3566591 C109.181971,12.3566591 106.371587,13.0598194 104.512106,13.525395 L103.801609,13.6913093 C103.725142,13.7107901 103.643032,13.7310948 103.537219,13.7356095 L103.535865,13.7356095 C103.207986,13.7356095 102.847941,13.5417607 102.716451,13.1094808 L102.706,13.0699774 L102.285853,10.9469526 L102.28495,10.8366253 C102.290887,10.3363431 102.653178,10.0440181 102.991779,9.93538374 C104.491214,9.37641084 108.454251,8.49097066 112.723156,8.48927766 C115.843077,8.49040632 118.096181,8.89588036 119.6117,9.7294018 C122.206226,11.1015801 122.200582,13.6058126 122.195786,15.6179458 L122.19574,15.6179458 Z M117.799905,21.6811512 C116.772817,21.6930022 111.795108,21.7725734 109.812038,22.1963882 L109.657693,22.2308126 C107.428573,22.7285554 105.667569,23.1213318 105.646688,26.4218398 C105.650639,30.5716704 108.82784,30.9438488 112.081226,30.9686794 L112.083777,31.1540632 L112.083777,30.9686794 C114.119894,30.9686794 116.042298,30.6800226 117.799352,30.109763 L117.799804,21.6811512 L117.799905,21.6811512 Z M188.832354,8.48927766 C178.584047,8.50309256 177.714973,15.2367381 177.705379,21.5482506 C177.714973,27.8366252 178.584047,34.5465576 188.832354,34.5603838 L188.833032,34.5603838 C199.073438,34.5465462 199.946463,27.854684 199.960853,21.547404 C199.950131,14.9475169 199.081339,8.50310384 188.832467,8.48927766 L188.832354,8.48927766 Z M188.832693,30.876693 C182.616835,30.8493228 182.304476,27.6585778 182.262151,21.5493792 C182.304476,15.4066027 182.616271,12.1997743 188.832129,12.1726862 C195.049397,12.1997743 195.36091,15.4066027 195.403235,21.5465576 C195.36091,27.6585778 195.048551,30.8493228 188.832693,30.876693 L188.832693,30.876693 Z M170.440481,33.631772 L170.172704,33.699492 C168.739578,34.0629232 166.775977,34.5603838 163.334668,34.5603838 L163.334442,34.5603838 L163.327106,34.5603838 C153.842343,34.5465462 151.980887,29.7621332 151.970447,21.5022574 C151.982027,12.0284989 154.98512,8.50197516 163.050865,8.48927766 C165.896237,8.48927766 167.856734,8.85722348 169.263336,9.1969526 L169.254871,1.56630926 C169.24302,1.23165914 169.394544,0.793453724 170.186587,0.642494356 L172.705797,0 L172.843212,0 C173.421937,0.0144018059 173.62679,0.530191874 173.627919,0.967268624 L173.627919,29.638544 C173.666858,31.4489278 173.453822,33.0022574 170.44056,33.631772 L170.440481,33.631772 Z M169.257151,12.8690745 C168.416011,12.6551919 166.068099,12.126693 163.424194,12.126693 C158.568099,12.1712754 156.531418,13.4904063 156.480628,21.549097 C156.537625,30.3978556 159.172501,30.8761286 163.467648,30.9226862 L163.470199,31.10807 L163.470199,30.9226862 C166.143449,30.9226862 168.436903,30.3654064 169.254905,30.1399548 L169.257163,12.8690745 L169.257151,12.8690745 Z M146.617761,33.962754 L144.364657,33.962754 C143.761102,33.961851 143.305966,33.5059256 143.304555,32.9026524 L143.304555,15.8933409 C143.263641,13.0160835 142.403878,12.2158578 139.305684,12.1726862 C135.800323,12.1726862 132.252354,13.0522009 131.082208,13.3710497 L131.082208,32.902088 C131.081079,33.5160836 130.654725,33.9619074 130.068381,33.962754 L127.769567,33.962754 C127.165729,33.961851 126.710029,33.5059256 126.709183,32.9026524 L126.709183,13.8247743 C126.675605,12.0589729 126.841519,10.8383183 129.35337,10.025395 C131.757998,9.19497742 136.360424,8.49097066 139.40021,8.48927766 C145.194228,8.496614 147.669115,10.5869074 147.677016,15.4794018 L147.677016,32.902088 C147.676113,33.5059256 147.22047,33.9619074 146.617761,33.962754 L146.617761,33.962754 Z M95.5853116,34.422404 L95.5873432,34.422404 C96.8822076,34.397009 97.8398826,34.1410836 98.2148826,33.7200902 C98.3480654,33.570824 98.4095778,33.3984198 98.39293,33.2282732 C98.3841942,33.0883182 98.3841942,33.0883182 98.0289346,31.4243792 L98.0204696,31.3845936 C97.943438,30.949492 97.6330542,30.751693 97.3771286,30.751693 C97.3531444,30.751693 97.3297246,30.7530474 97.3424222,30.7548082 C97.3424222,30.7548082 97.0170836,30.7390068 96.6959774,30.7390068 L96.6928848,30.7390068 C95.7699164,30.7096614 95.0049616,30.5753498 94.9891602,29.2246162 L94.9891602,0.967562076 C94.9882574,0.496331828 94.7041038,0.012979684 94.158675,0 L93.9978398,0.00135440181 L91.4744198,0.648081264 C91.0443972,0.692099322 90.5968804,0.99768623 90.6160678,1.56568849 L90.6160678,29.3168172 C90.6208758,32.6032168 92.3846908,34.4164222 95.5833364,34.4223476 L95.585368,34.4223476 L95.5853116,34.422404 Z M59.9447924,33.962754 L41.8652212,33.962754 C41.261666,33.961851 40.8059662,33.5059256 40.8048374,32.9026524 L40.8048374,30.6955418 C40.7924222,30.1546276 40.9656726,29.9136568 41.298912,29.5008466 L55.6894312,12.7705982 L41.589544,12.7705982 C40.9857066,12.7692438 40.5300068,12.3134876 40.5291602,11.7104966 L40.5291602,10.1472912 C40.5300632,9.54401806 40.9857066,9.08831828 41.5892618,9.08718962 L59.8528058,9.08718962 C60.456079,9.08831828 60.9117788,9.54401806 60.9129074,10.147009 L60.9129074,12.3998307 C60.9216434,12.8069977 60.7805712,13.1523702 60.4555146,13.5146727 L46.028596,30.278781 L59.9445102,30.278781 C60.5480654,30.280587 61.0037652,30.7358916 61.004894,31.3391648 L61.004894,32.902088 C61.0037652,33.5059256 60.5480654,33.9619074 59.9447924,33.962754 L59.9447924,33.962754 Z" id="path6289"></path>
                                            <path d="M4.57816028,6.29937924 C1.45344251,6.29937924 -0.153216704,14.8312641 0.0141083521,22.8414222 C0.00962848758,22.8402934 0.00447955982,22.8425508 0,22.8414222 C0.167042889,29.8721784 1.72178336,36.6111738 4.8038939,36.6111738 C16.6314898,36.6111738 30.1072234,25.4571106 30.1072234,21.4588036 C30.1072234,20.4585214 29.0883182,18.53386 27.722912,17.0146727 C27.721106,17.0157111 27.7176072,17.0136343 27.715869,17.0146727 C27.6230248,16.9068849 27.5245486,16.7993792 27.4266366,16.6901806 C23.2133182,11.9892777 14.4723476,6.29937924 4.57816028,6.29937924 Z" id="path6315"></path>
                                        </g>
                                    </g>
                                </g>
                            </g>
                        </g>
                    </g>
                </g>
            </g>
        </g>
    </g>
</svg>