<?xml version="1.0" encoding="UTF-8"?>
<svg width="57px" height="80px" viewBox="0 0 57 80" version="1.1" xmlns="http://www.w3.org/2000/svg" xmlns:xlink="http://www.w3.org/1999/xlink">
    <!-- Generator: Sketch 46.2 (44496) - http://www.bohemiancoding.com/sketch -->
    <title>Artboard</title>
    <desc>Created with Sketch.</desc>
    <defs></defs>
    <g id="Page-1" stroke="none" stroke-width="1" fill="none" fill-rule="evenodd">
        <g id="Artboard" fill-rule="nonzero" fill="#FFFFFF">
            <path d="M48.4946625,40.6896183 C48.4946625,40.6896183 51.8326352,40.7469442 54.178411,38.409322 C54.178411,38.409322 56.2804143,36.5366765 56.2675842,31.2266012 C56.2675842,31.2266012 56.2312322,29.1841012 55.1641929,24.3644806 C55.1321175,24.2264738 54.9781559,23.9865544 54.6787862,23.9865544 L50.1027058,23.9865544 C49.6921415,23.9865544 49.5296265,24.3729733 49.6087457,24.627755 C49.6087457,24.627755 50.1604414,26.2307566 50.5004399,28.1670975 C50.5004399,28.1670975 51.3215683,33.583332 49.6279909,35.3009852 C49.6279909,35.3009852 48.6935296,36.7574873 46.1766854,36.2500471 L46.1766854,24.4685164 C46.1766854,24.3411256 46.0825977,23.9865544 45.6463732,23.9865544 L40.7773381,23.9865544 C40.5100437,23.9865544 40.2684095,24.2073652 40.2684095,24.4663933 L40.2684095,40.1545767 C40.2684095,40.415728 40.4138177,40.6896183 40.8158285,40.6896183 L48.4946625,40.6896183 Z" id="path588" transform="translate(48.268026, 32.338149) scale(-1, 1) rotate(-180.000000) translate(-48.268026, -32.338149) "></path>
            <path d="M26.0551893,58.4524875 C29.4551742,58.4524875 32.0383075,55.2931943 30.9712682,50.4735738 C30.9391929,50.3334438 30.7852313,50.0956476 30.4858615,50.0956476 L25.9097811,50.0956476 C25.5013552,50.0956476 25.3238717,50.3844002 25.415821,50.7368482 C25.5847511,51.3886647 26.095818,54.736921 23.7372121,54.0129163 L23.7372121,42.2313856 C23.7372121,42.1039948 23.6431244,41.7494236 23.2068999,41.7494236 L18.3378648,41.7494236 C18.0705704,41.7494236 17.8289363,41.9702344 17.8289363,42.2292624 L17.8289363,57.9174459 C17.8289363,58.1785972 17.9743444,58.4524875 18.3763552,58.4524875 L26.0551893,58.4524875 Z" id="path592" transform="translate(24.521923, 50.100956) scale(-1, 1) rotate(-180.000000) translate(-24.521923, -50.100956) "></path>
            <path d="M34.7005599,57.1847362 C36.554514,57.1847362 37.6771505,58.4522752 37.6771505,58.4522752 L37.6771505,44.4371582 C37.6771505,44.3012746 37.5809245,43.9233485 37.1468384,43.9233485 L32.2778033,43.9233485 C32.0083705,43.9233485 31.7667364,44.1590215 31.7667364,44.4329119 L31.7667364,58.3928261 C31.7667364,58.3928261 32.8466058,57.1847362 34.7005599,57.1847362" id="path596" transform="translate(34.721943, 51.187812) scale(-1, 1) rotate(-180.000000) translate(-34.721943, -51.187812) "></path>
            <path d="M20.9860041,28.4280874 C21.0138027,33.9802054 16.6836331,35.5662215 16.6836331,35.5662215 C12.8666688,37.1501144 10.195863,36.2774871 10.195863,36.2774871 L10.195863,40.8699273 L4.24695846,40.8699273 L4.24695846,23.1965698 C4.24695846,19.0860916 10.0525932,19.548945 10.0525932,19.548945 C15.4305569,19.548945 18.1312997,22.2007979 18.1312997,22.2007979 C21.1463807,24.9630562 20.9860041,28.4280874 20.9860041,28.4280874 M14.8296791,28.035299 C14.8296791,26.1244362 13.3435221,24.5511592 11.6050392,24.5745141 C11.0725887,24.5830069 10.6064273,24.7061514 10.2065548,24.9078535 L10.2086932,31.1712371 C10.6278108,31.3856784 11.098249,31.5045765 11.5943474,31.5024533 C12.2187472,31.5003302 14.6436421,31.0863099 14.8296791,28.035299" id="path600" transform="translate(12.617223, 30.201617) scale(-1, 1) rotate(-180.000000) translate(-12.617223, -30.201617) "></path>
            <path d="M17.283228,53.1974025 C17.283228,53.1974025 17.3537937,56.2632757 14.6316673,58.4183043 C12.6622421,59.9979508 11.0028783,60.8811941 6.53157731,60.8811941 C6.53157731,60.8811941 1.66468055,60.8811941 0.83927539,60.8811941 C0.670345318,60.8811941 0.544182353,60.7835278 0.544182353,60.6157965 L0.544182353,41.7492112 L6.49308691,41.7492112 L6.49308691,45.3480028 C6.49308691,45.3480028 10.098354,44.4201728 12.980857,46.0592684 C15.7179519,47.6176832 17.3174417,50.0784498 17.283228,53.1974025 M11.1269029,52.9872076 C10.940866,49.9383199 8.51597107,49.5221764 7.89157131,49.5200532 C7.39547287,49.5179301 6.92503469,49.6368282 6.50591705,49.8512694 L6.50377869,56.114653 C6.90365114,56.3184784 7.36981261,56.4416229 7.90226309,56.4479924 C9.64074598,56.4713474 11.1269029,54.8980704 11.1269029,52.9872076" id="path604" transform="translate(8.913974, 51.315203) scale(-1, 1) rotate(-180.000000) translate(-8.913974, -51.315203) "></path>
            <path d="M30.62571,35.7741556 C32.4005449,35.7741556 33.839658,34.2433422 33.839658,32.3537112 C33.839658,30.4640803 32.4005449,28.9332668 30.62571,28.9332668 C28.850875,28.9332668 27.4117619,30.4640803 27.4117619,32.3537112 C27.4117619,34.2433422 28.850875,35.7741556 30.62571,35.7741556 M34.6928618,27.6827133 C35.7256875,27.6827133 36.6708405,27.3026639 37.3936046,26.6763255 C38.8605164,28.1774144 39.7564873,30.1689581 39.7564873,32.3537112 C39.7564873,37.0247092 35.6679519,40.8124638 30.62571,40.8124638 C25.5834681,40.8124638 21.4949327,37.0247092 21.4949327,32.3537112 C21.4949327,27.6933292 25.5642229,23.9140672 30.5893579,23.8949586 C30.7433195,26.0117699 32.5202928,27.6827133 34.6928618,27.6827133" id="path608" transform="translate(30.625710, 32.353711) scale(-1, 1) rotate(-180.000000) translate(-30.625710, -32.353711) "></path>
            <path d="M49.7282797,50.1018048 C49.7304181,49.987153 49.7689085,49.8788708 49.8309208,49.7960667 C53.5602125,44.9339825 54.1033548,42.8936057 54.188889,42.3691801 C54.2273794,42.1483692 54.0948014,41.7492112 53.671407,41.7492112 L49.0867731,41.7492112 C48.7638815,41.7492112 48.6334418,42.1080288 48.6334418,42.1080288 C47.7075339,44.4966073 46.3732002,45.8596894 46.3732002,45.8596894 C46.3154646,45.9106457 46.2555907,45.9276312 46.2042701,45.925508 L46.2021318,45.925508 C46.1508113,45.9276312 46.0909373,45.9106457 46.0332017,45.8596894 C46.0332017,45.8596894 44.6967296,44.4966073 43.7729601,42.1080288 C43.7729601,42.1080288 43.6425204,41.7492112 43.3174904,41.7492112 L38.7328566,41.7492112 C38.3116006,41.7492112 38.1790225,42.1483692 38.2153746,42.3691801 C38.3030471,42.8936057 38.8461894,44.9339825 42.5754811,49.7960667 C42.6374934,49.8788708 42.6759838,49.987153 42.6781222,50.1018048 L42.6781222,50.103928 C42.6759838,50.2185797 42.6374934,50.3289851 42.5754811,50.409666 C38.8461894,55.2717502 38.3030471,57.312127 38.2153746,57.8386759 C38.1790225,58.0594867 38.3116006,58.4565215 38.7328566,58.4565215 L43.3174904,58.4565215 C43.6425204,58.4565215 43.7729601,58.097704 43.7729601,58.097704 C44.6967296,55.7091255 46.0332017,54.3481665 46.0332017,54.3481665 C46.0909373,54.295087 46.1508113,54.2802248 46.2021318,54.2802248 L46.2042701,54.2802248 C46.2555907,54.2802248 46.3154646,54.295087 46.3732002,54.3481665 C46.3732002,54.3481665 47.7075339,55.7091255 48.6334418,58.097704 C48.6334418,58.097704 48.7638815,58.4565215 49.0867731,58.4565215 L53.671407,58.4565215 C54.0948014,58.4565215 54.2273794,58.0594867 54.188889,57.8386759 C54.1033548,57.312127 53.5602125,55.2717502 49.8309208,50.409666 C49.7689085,50.3289851 49.7304181,50.2185797 49.7282797,50.103928 L49.7282797,50.1018048 Z" id="path612" transform="translate(46.202436, 50.102866) scale(-1, 1) rotate(-180.000000) translate(-46.202436, -50.102866) "></path>
        </g>
    </g>
</svg>