<?xml version="1.0" encoding="UTF-8" standalone="no"?>
<svg width="100px" height="100px" viewBox="0 0 100 100" version="1.1" xmlns="http://www.w3.org/2000/svg" xmlns:xlink="http://www.w3.org/1999/xlink">
    <!-- Generator: Sketch 46.2 (44496) - http://www.bohemiancoding.com/sketch -->
    <title>client_tk</title>
    <desc>Created with Sketch.</desc>
    <defs></defs>
    <g id="Page-1" stroke="none" stroke-width="1" fill="none" fill-rule="evenodd" opacity="0.5">
        <g id="client_tk" fill-rule="nonzero" fill="#FFFFFF">
            <g id="logo_tk" transform="translate(23.000000, 23.000000)">
                <g id="Page-1">
                    <g id="Artboard">
                        <path d="M5.5005796e-15,54.000027 L-5.14104063e-15,2.69999989e-05 L54,2.69999989e-05 L54,54.000027 L5.5005796e-15,54.000027 Z M23.9463387,17.1603592 L29.5717639,17.1603592 L29.5717639,10.8494734 L10.8006917,10.8494734 L10.8006917,17.1603592 L16.4368893,17.1603592 L16.4368893,26.1768011 L23.9463387,26.1768011 L23.9463387,17.1603592 Z M33.4679463,17.1524004 L24.9237861,26.1767799 L33.9447637,35.2028602 L43.6449653,35.2028602 L34.1432015,26.1767799 L43.1783533,17.1524004 L33.4679463,17.1524004 Z M10.9225721,31.2171285 C10.8692774,31.2171285 10.8001077,31.273825 10.8001077,31.3452626 L10.8001077,36.3356872 L12.5253818,36.3356872 C12.9472036,36.3356872 13.3004227,36.2795577 13.585606,36.1667317 C13.8707893,36.0544726 14.0970083,35.8957225 14.2648299,35.6921821 C14.4326515,35.4886417 14.5522811,35.2465477 14.6242856,34.9659001 C14.6962901,34.6858195 14.7325759,34.3756897 14.7325759,34.0355108 L14.7325759,33.5105014 C14.7325759,33.1793939 14.698558,32.8743668 14.6316562,32.5937192 C14.5641873,32.3136386 14.4473926,32.0715446 14.279571,31.8680042 C14.1117494,31.6638968 13.8860974,31.5045797 13.6037489,31.3894859 C13.3208335,31.274392 12.9636456,31.2182625 12.5327523,31.2182625 C12.5327523,31.2182625 10.9611257,31.2171285 10.9225721,31.2171285 Z M11.698747,35.5878606 L11.698747,31.9643882 L12.4607478,31.9643882 C12.6903686,31.9643882 12.8893732,31.9899016 13.0571948,32.0403615 C13.2250164,32.0902544 13.3650567,32.177 13.4778827,32.2988975 C13.5901418,32.4213619 13.6740525,32.5852147 13.7296151,32.7915899 C13.7846107,32.9973982 13.811825,33.2542332 13.811825,33.5603943 L13.811825,33.9850509 C13.811825,34.2917789 13.7834768,34.548047 13.7256463,34.7538552 C13.6683829,34.9602305 13.5833381,35.1240833 13.4705122,35.2465477 C13.3576861,35.3690121 13.2165119,35.4563247 13.0464225,35.5090524 C12.876333,35.5617802 12.6784623,35.5878606 12.4533772,35.5878606 L11.698747,35.5878606 Z M15.7457478,32.6691199 L15.7457478,36.3356815 L16.6228424,36.3356815 L16.6228424,32.5466555 L15.7457478,32.6691199 Z M16.1845786,31.1093996 C15.9974802,31.1093996 15.8619756,31.151355 15.7780647,31.2352657 C15.694154,31.3191766 15.6527655,31.4376722 15.6527655,31.5907527 C15.6527655,31.7444002 15.694154,31.8628959 15.7780647,31.9468066 C15.8619756,32.0307174 15.9974802,32.0726728 16.1845786,32.0726728 C16.37111,32.0726728 16.5066146,32.0307174 16.5905254,31.9468066 C16.6744362,31.8628959 16.7163916,31.7444002 16.7163916,31.5907527 C16.7163916,31.4376722 16.6744362,31.3191766 16.5905254,31.2352657 C16.5066146,31.151355 16.37111,31.1093996 16.1845786,31.1093996 Z M20.4617557,32.8993133 C20.1935813,32.645313 19.8125809,32.5183129 19.3187546,32.5183129 C19.021665,32.5183129 18.7665308,32.5614022 18.553352,32.6475809 C18.3401733,32.7337595 18.1638472,32.8562239 18.0249408,33.0144071 C17.8860344,33.1725903 17.7839807,33.3619566 17.7193468,33.5825059 C17.6547128,33.8024883 17.6223957,34.0474171 17.6223957,34.3155915 L17.6223957,34.6172167 C17.6223957,34.9148733 17.6518779,35.1745432 17.7119762,35.3973604 C17.7720745,35.6207445 17.8724273,35.8084099 18.0141684,35.9620574 C18.1553427,36.1151379 18.3401733,36.2302317 18.5675262,36.306772 C18.795446,36.3838792 19.0766606,36.4218658 19.4123038,36.4218658 C19.5177592,36.4218658 19.6254825,36.4184641 19.7360407,36.4110935 C19.8460319,36.40429 19.9537552,36.3929507 20.0592107,36.3787765 C20.1646661,36.3646024 20.2616171,36.3475935 20.3506306,36.3283167 C20.4390771,36.3096068 20.5167513,36.2880622 20.5842201,36.2636827 L20.699314,35.6383204 C20.4974745,35.6768741 20.3205815,35.7029544 20.167501,35.7176955 C20.0138535,35.7318697 19.8579381,35.7392402 19.699755,35.7392402 C19.3454019,35.7392402 19.0789285,35.6984187 18.9020354,35.6167758 C18.7245754,35.5351328 18.6049458,35.3894229 18.5425797,35.178512 L20.7996668,34.1789529 C20.8427561,34.1596761 20.8643008,34.1262252 20.8643008,34.0786002 L20.8643008,33.9776804 C20.8643008,33.5127692 20.730497,33.1533135 20.4617557,32.8993133 Z M18.6684459,33.420354 C18.795446,33.2502645 19.005223,33.1652197 19.2972099,33.1652197 C19.5415717,33.1652197 19.7212996,33.2219162 19.8363935,33.3341753 C19.9452507,33.4407647 20.0127195,33.5938452 20.0399338,33.7928499 L18.4779457,34.4879488 L18.4779457,34.257761 C18.4779457,33.8699571 18.5408788,33.5904434 18.6684459,33.420354 Z M14.7819132,38.0813379 L10.7989851,38.0813379 L10.705436,38.821794 L12.2946384,38.821794 L12.2946384,43.2004635 L13.1932777,43.2004635 L13.1932777,38.821794 L14.6815604,38.821794 L14.7819132,38.0813379 Z M21.1801002,43.1352683 L21.2878235,42.5031025 C21.1727296,42.526915 21.0496983,42.5473257 20.9175955,42.5637677 C20.7860596,42.5807767 20.6528228,42.5892811 20.5184522,42.5892811 C20.1306482,42.5892811 19.8539694,42.5042364 19.6884157,42.3341469 C19.5228619,42.1634905 19.4400851,41.8726376 19.4400851,41.4604541 L19.4400851,41.1582618 C19.4400851,40.7659222 19.5171922,40.4875424 19.6702728,40.3242566 C19.8239202,40.1615377 20.0898268,40.0798947 20.4685593,40.0798947 C20.6074657,40.0798947 20.7344658,40.0895331 20.8495597,40.1088099 C20.9646535,40.1280867 21.070109,40.1518993 21.165926,40.1808145 L21.3099351,39.5480817 C21.1704618,39.5049923 21.0185152,39.4687066 20.8529615,39.4403584 C20.6879747,39.4114432 20.5116486,39.397269 20.3245502,39.397269 C20.0127195,39.397269 19.7456791,39.4380905 19.5228619,39.5191665 C19.3000447,39.6008094 19.1169151,39.7181712 18.973473,39.8712516 C18.8294639,40.0248991 18.7228745,40.2097296 18.6531378,40.4251763 C18.5834012,40.640623 18.5488163,40.8804491 18.5488163,41.1440878 L18.5488163,41.510914 C18.5488163,41.7739857 18.5765976,42.0138118 18.6315932,42.2298254 C18.6865888,42.4452721 18.779004,42.6312365 18.908272,42.7871519 C19.03754,42.9425002 19.2104643,43.0621298 19.4259109,43.1466076 C19.6419245,43.2299514 19.9123668,43.2719068 20.2383715,43.2719068 C20.4061932,43.2719068 20.5655103,43.2611345 20.7163229,43.2395898 C20.8671355,43.2180451 21.021917,43.1834603 21.1801002,43.1352683 Z M22.1938446,43.2004976 L23.0709393,43.2004976 L23.0709393,41.0216517 C23.0709393,40.6962139 23.1367072,40.4586556 23.26881,40.3101108 C23.4003459,40.161566 23.607288,40.0872936 23.8902035,40.0872936 C24.1493064,40.0872936 24.33357,40.1507937 24.4441282,40.2777938 C24.5541193,40.4047939 24.6091149,40.6191066 24.6091149,40.9212989 L24.6091149,43.2004976 L25.4862095,43.2004976 L25.4862095,40.6837406 C25.4862095,40.4637583 25.4527586,40.2721242 25.3858567,40.1088383 C25.3183879,39.9461194 25.2254057,39.8106148 25.1052092,39.7028914 C24.9855796,39.5946012 24.8432714,39.5146591 24.6777176,39.4619314 C24.5121639,39.4092036 24.3290343,39.3825563 24.1277618,39.3825563 C23.9072124,39.3825563 23.7059399,39.4177081 23.5239442,39.4868778 C23.3413815,39.5566145 23.1905689,39.6581012 23.0709393,39.7924719 L23.0709393,37.8012914 L22.1938446,37.9231888 L22.1938446,43.2004976 Z M26.6150252,43.2004976 L27.4921198,43.2004976 L27.4921198,41.0216517 C27.4921198,40.6962139 27.5578877,40.4586556 27.6899906,40.3101108 C27.8215264,40.161566 28.0290356,40.0872936 28.311384,40.0872936 C28.570487,40.0872936 28.7547505,40.1507937 28.8653087,40.2777938 C28.9752999,40.4047939 29.0302955,40.6191066 29.0302955,40.9212989 L29.0302955,43.2004976 L29.9073901,43.2004976 L29.9073901,40.6837406 C29.9073901,40.4637583 29.8739391,40.2721242 29.8070373,40.1088383 C29.7395685,39.9461194 29.6465862,39.8106148 29.5263897,39.7028914 C29.4067601,39.5946012 29.2644519,39.5146591 29.0988982,39.4619314 C28.9333445,39.4092036 28.7502148,39.3825563 28.5489423,39.3825563 C28.3045804,39.3825563 28.0874329,39.4245117 27.8980667,39.5084225 C27.7087004,39.5923333 27.5544859,39.7130968 27.4348564,39.87128 L27.3696554,39.4114715 L26.6150252,39.5191948 L26.6150252,43.2004976 Z M31.0362341,39.5339132 L31.0362341,43.2004749 L31.9133287,43.2004749 L31.9133287,39.4114488 L31.0362341,39.5339132 Z M31.4750649,37.973626 C31.2879665,37.973626 31.1524619,38.0155814 31.0685511,38.0994922 C30.9846403,38.183403 30.9426849,38.3018986 30.9426849,38.4555461 C30.9426849,38.6086266 30.9846403,38.7276892 31.0685511,38.811033 C31.1524619,38.8949439 31.2879665,38.9368993 31.4750649,38.9368993 C31.6615963,38.9368993 31.7971009,38.8949439 31.8810117,38.811033 C31.9649225,38.7276892 32.0068779,38.6086266 32.0068779,38.4555461 C32.0068779,38.3018986 31.9649225,38.183403 31.8810117,38.0994922 C31.7971009,38.0155814 31.6615963,37.973626 31.4750649,37.973626 Z M33.9334188,41.4854119 L35.4001568,43.2004805 L36.4280641,43.2004805 L34.6166114,41.1333267 L36.3634301,39.4687179 L35.3712417,39.4687179 L33.9334188,40.838505 L33.9334188,37.8012743 L33.0920429,37.9231718 L33.0920429,43.2004805 L33.9334188,43.2004805 L33.9334188,41.4854119 Z M43.1641749,40.230713 L43.3223581,39.4976275 C43.2407152,39.4687123 43.163041,39.4488685 43.0887686,39.4363953 C43.0139292,39.424489 42.9294515,39.4188193 42.8336344,39.4188193 C42.5841699,39.4188193 42.3709911,39.4607748 42.1935311,39.5441186 C42.0160711,39.6285964 41.8675263,39.7516277 41.7478967,39.9149136 L41.6832627,39.4114488 L40.9286325,39.5191721 L40.9286325,43.2004749 L41.8051602,43.2004749 L41.8051602,41.1730086 C41.8051602,40.8328297 41.8760308,40.5799634 42.017205,40.4144096 C42.1589463,40.2488559 42.3874331,40.166646 42.7037995,40.166646 C42.7899781,40.166646 42.8738889,40.1734496 42.9555318,40.1876237 C43.0371748,40.2023648 43.1063445,40.2165389 43.1641749,40.230713 Z M17.3916524,39.7641066 C17.123478,39.5101064 16.7424776,39.3831062 16.2486512,39.3831062 C15.9509947,39.3831062 15.6964275,39.4261956 15.4826818,39.5118073 C15.2695029,39.5985529 15.0931769,39.7204503 14.9542705,39.8786335 C14.8153641,40.0368167 14.7133104,40.226183 14.6492434,40.4467323 C14.5840424,40.6672816 14.5517254,40.9116435 14.5517254,41.1798178 L14.5517254,41.4820101 C14.5517254,41.7790997 14.5817746,42.0393366 14.6418729,42.2621538 C14.7014042,42.4849709 14.8023239,42.6732033 14.9434982,42.8262838 C15.0852394,42.9799313 15.2695029,43.0950251 15.4974228,43.1715654 C15.7247758,43.2481056 16.0065573,43.2866593 16.3422005,43.2866593 C16.4476559,43.2866593 16.5553792,43.2826905 16.6653704,43.27532 C16.7759286,43.2685163 16.8836519,43.257744 16.9891073,43.2435699 C17.0945628,43.2288288 17.1915138,43.2123868 17.2799603,43.19311 C17.3689738,43.1738332 17.446648,43.1522886 17.5141168,43.128476 L17.6292107,42.5031138 C17.4273712,42.5411005 17.2504781,42.5671809 17.0968307,42.5819219 C16.9431832,42.596663 16.7878348,42.6034666 16.6296516,42.6034666 C16.2747316,42.6034666 16.0088251,42.5626451 15.8313651,42.4810022 C15.6544721,42.3999262 15.5342755,42.2536493 15.4719094,42.0427384 L17.7295634,41.0437463 C17.7726527,41.0244695 17.7941975,40.9904516 17.7941975,40.9428266 L17.7941975,40.8424738 C17.7941975,40.3775626 17.6598268,40.0181069 17.3916524,39.7641066 Z M39.663174,39.7641066 C39.3949997,39.5101064 39.0139993,39.3831062 38.5201729,39.3831062 C38.2225164,39.3831062 37.9673822,39.4261956 37.7542034,39.5118073 C37.5410246,39.5985529 37.3646985,39.7204503 37.2257922,39.8786335 C37.0868858,40.0368167 36.9848321,40.226183 36.9201981,40.4467323 C36.8555641,40.6672816 36.8232471,40.9116435 36.8232471,41.1798178 L36.8232471,41.4820101 C36.8232471,41.7790997 36.8532962,42.0393366 36.9133945,42.2621538 C36.9729258,42.4849709 37.0738456,42.6732033 37.2150198,42.8262838 C37.356761,42.9799313 37.5410246,43.0950251 37.7689445,43.1715654 C37.9962974,43.2481056 38.278079,43.2866593 38.6137221,43.2866593 C38.7186106,43.2866593 38.8269009,43.2826905 38.9368921,43.27532 C39.0474502,43.2685163 39.1551736,43.257744 39.260629,43.2435699 C39.3655175,43.2288288 39.4630355,43.2123868 39.551482,43.19311 C39.6404954,43.1738332 39.7181696,43.1522886 39.7856385,43.128476 L39.9001654,42.5031138 C39.6988928,42.5411005 39.5219998,42.5671809 39.3683523,42.5819219 C39.2147049,42.596663 39.0593565,42.6034666 38.9011733,42.6034666 C38.5462533,42.6034666 38.2803468,42.5626451 38.1028868,42.4810022 C37.9259938,42.3999262 37.8057972,42.2536493 37.7434311,42.0427384 L40.0010851,41.0437463 C40.0441744,41.0244695 40.0657191,40.9904516 40.0657191,40.9428266 L40.0657191,40.8424738 C40.0657191,40.3775626 39.9313484,40.0181069 39.663174,39.7641066 Z M15.5977756,40.2851473 C15.7247758,40.1150579 15.9345527,40.0300132 16.2271066,40.0300132 C16.4714684,40.0300132 16.6511963,40.0861426 16.7662902,40.1989687 C16.8751474,40.305558 16.9426162,40.4586386 16.9698305,40.6570763 L15.4072754,41.3527421 L15.4072754,41.1225544 C15.4072754,40.7341835 15.4707755,40.4552368 15.5977756,40.2851473 Z M37.8692973,40.2851473 C37.9962974,40.1150579 38.2060744,40.0300132 38.4986282,40.0300132 C38.7429901,40.0300132 38.9227179,40.0861426 39.0378118,40.1989687 C39.1466691,40.305558 39.2141379,40.4586386 39.2413522,40.6570763 L37.6787971,41.3527421 L37.6787971,41.1225544 C37.6787971,40.7341835 37.7422972,40.4552368 37.8692973,40.2851473 Z" id="Combined-Shape"></path>
                    </g>
                </g>
            </g>
        </g>
    </g>
</svg>