<?xml version="1.0" encoding="UTF-8" standalone="no"?>
<svg width="130px" height="60px" viewBox="0 0 130 60" version="1.1" xmlns="http://www.w3.org/2000/svg" xmlns:xlink="http://www.w3.org/1999/xlink">
    <!-- Generator: Sketch 46.2 (44496) - http://www.bohemiancoding.com/sketch -->
    <title>Artboard</title>
    <desc>Created with Sketch.</desc>
    <defs></defs>
    <g id="Page-1" stroke="none" stroke-width="1" fill="none" fill-rule="evenodd">
        <g id="Artboard" fill-rule="nonzero" fill="#FFFFFF">
            <path d="M85.7408127,30.999865 C85.7408127,30.999865 89.2875787,31.0616416 91.7800849,28.5425298 C91.7800849,28.5425298 94.0135705,26.5244949 93.9999378,20.8021533 C93.9999378,20.8021533 93.961312,18.6010766 92.8275284,13.4072678 C92.7934467,13.2585464 92.6298546,13 92.3117591,13 L87.4494406,13 C87.0131951,13 86.8405147,13.4164199 86.9245829,13.6909825 C86.9245829,13.6909825 87.5107876,15.4184387 87.8720533,17.5051143 C87.8720533,17.5051143 88.7445441,23.3418572 86.9450319,25.1928664 C86.9450319,25.1928664 85.9521191,26.7624492 83.277844,26.2156121 L83.277844,13.5193808 C83.277844,13.3820996 83.177871,13 82.7143603,13 L77.5407626,13 C77.2567486,13 77,13.2379542 77,13.5170929 L77,30.4232835 C77,30.7047102 77.1545036,30.999865 77.5816606,30.999865 L85.7408127,30.999865 Z" id="path588" transform="translate(85.500000, 22.000000) scale(-1, 1) rotate(-180.000000) translate(-85.500000, -22.000000) "></path>
            <path d="M62.6035989,50 C66.1595443,50 68.8611684,46.5953984 67.745183,41.4015508 C67.7116364,41.2505402 67.5506124,40.9942799 67.2375102,40.9942799 L62.4515207,40.9942799 C62.0243599,40.9942799 61.8387351,41.3054532 61.9349022,41.6852676 C62.1115813,42.3876954 62.6460913,45.9959324 60.179294,45.2157112 L60.179294,32.5193847 C60.179294,32.3821024 60.0808904,32 59.6246558,32 L54.5322735,32 C54.2527181,32 54,32.237956 54,32.5170967 L54,49.4234142 C54,49.704843 54.1520781,50 54.5725295,50 L62.6035989,50 Z" id="path592" transform="translate(61.000000, 41.000000) scale(-1, 1) rotate(-180.000000) translate(-61.000000, -41.000000) "></path>
            <path d="M71.9782923,47.6913634 C73.8603474,47.6913634 75,49 75,49 L75,34.530469 C75,34.3901796 74.9023155,34 74.4616498,34 L69.5188133,34 C69.2452966,34 69,34.2433143 69,34.526085 L69,48.9386234 C69,48.9386234 70.0962373,47.6913634 71.9782923,47.6913634" id="path596" transform="translate(72.000000, 41.500000) scale(-1, 1) rotate(-180.000000) translate(-72.000000, -41.500000) "></path>
            <path d="M57.9984057,18.1713293 C58.0282957,23.8960689 53.3723463,25.531396 53.3723463,25.531396 C49.2682132,27.1645339 46.3964696,26.2647757 46.3964696,26.2647757 L46.3964696,31 L40,31 L40,12.777158 C40,8.53888039 46.242421,9.01612442 46.242421,9.01612442 C52.0249951,9.01612442 54.9289279,11.7504264 54.9289279,11.7504264 C58.1708482,14.5985664 57.9984057,18.1713293 57.9984057,18.1713293 M51.3789103,17.7663287 C51.3789103,15.796055 49.7809425,14.1738631 47.911665,14.1979441 C47.3391557,14.206701 46.8379227,14.3336742 46.4079658,14.5416474 L46.4102651,20.9997666 C46.860915,21.2208752 47.3667465,21.3434699 47.9001688,21.3412807 C48.5715453,21.3390916 51.1788769,20.9121989 51.3789103,17.7663287" id="path600" transform="translate(49.000000, 20.000000) scale(-1, 1) rotate(-180.000000) translate(-49.000000, -20.000000) "></path>
            <path d="M53.9994215,43.9675952 C53.9994215,43.9675952 54.0753005,47.1725669 51.1482101,49.425369 C49.0304959,51.076684 47.2461894,52 42.4382192,52 C42.4382192,52 37.2048667,52 36.3173122,52 C36.1356625,52 36,51.8979026 36,51.7225613 L36,32 L42.3968307,32 L42.3968307,35.7620686 C42.3968307,35.7620686 46.2735584,34.792143 49.3731011,36.5056043 C52.3162871,38.1347243 54.0362114,40.7071357 53.9994215,43.9675952 M47.3795525,43.7478637 C47.1795078,40.5606481 44.572029,40.1256242 43.9006148,40.1234047 C43.3671623,40.1211853 42.8613022,40.2454778 42.4106269,40.4696482 L42.4083275,47.0172012 C42.8383086,47.2302741 43.3395699,47.3590057 43.9121116,47.3656642 C45.7814945,47.3900788 47.3795525,45.7454223 47.3795525,43.7478637" id="path604" transform="translate(45.000000, 42.000000) scale(-1, 1) rotate(-180.000000) translate(-45.000000, -42.000000) "></path>
            <path d="M67.5,25.6393072 C69.3466042,25.6393072 70.8439109,24.0105422 70.8439109,22 C70.8439109,19.9894579 69.3466042,18.3606928 67.5,18.3606928 C65.6533957,18.3606928 64.156089,19.9894579 64.156089,22 C64.156089,24.0105422 65.6533957,25.6393072 67.5,25.6393072 M71.7316159,17.0301205 C72.8062061,17.0301205 73.7895784,16.625753 74.541569,15.9593373 C76.0677986,17.5564759 77,19.6754518 77,22 C77,26.9698796 72.7461358,31 67.5,31 C62.2538642,31 58,26.9698796 58,22 C58,17.0414157 62.2338407,13.0203313 67.4621779,13 C67.6223653,15.252259 69.4711943,17.0301205 71.7316159,17.0301205" id="path608" transform="translate(67.500000, 22.000000) scale(-1, 1) rotate(-180.000000) translate(-67.500000, -22.000000) "></path>
            <path d="M88.2495896,40.9988563 C88.2518637,40.8753336 88.2927967,40.7586733 88.3587442,40.6694624 C92.3246924,35.4311857 92.9023018,33.2329394 92.9932639,32.6679376 C93.0341969,32.4300419 92.8932057,32 92.4429431,32 L87.5673738,32 C87.2239918,32 87.0852746,32.3865803 87.0852746,32.3865803 C86.1006097,34.9599696 84.6816007,36.428517 84.6816007,36.428517 C84.6202013,36.4834159 84.5565279,36.5017156 84.5019505,36.4994282 L84.4996765,36.4994282 C84.4450993,36.5017156 84.3814257,36.4834159 84.3200263,36.428517 C84.3200263,36.428517 82.8987433,34.9599696 81.9163524,32.3865803 C81.9163524,32.3865803 81.7776352,32 81.4319792,32 L76.5564099,32 C76.1084215,32 75.9674301,32.4300419 76.0060891,32.6679376 C76.0993252,33.2329394 76.6769346,35.4311857 80.6428828,40.6694624 C80.7088303,40.7586733 80.7497633,40.8753336 80.7520374,40.9988563 L80.7520374,41.0011438 C80.7497633,41.1246664 80.7088303,41.2436142 80.6428828,41.3305376 C76.6769346,46.5688143 76.0993252,48.7670606 76.0060891,49.33435 C75.9674301,49.5722455 76.1084215,50 76.5564099,50 L81.4319792,50 C81.7776352,50 81.9163524,49.6134198 81.9163524,49.6134198 C82.8987433,47.0400306 84.3200263,45.5737705 84.3200263,45.5737705 C84.3814257,45.5165841 84.4450993,45.500572 84.4996765,45.500572 L84.5019505,45.500572 C84.5565279,45.500572 84.6202013,45.5165841 84.6816007,45.5737705 C84.6816007,45.5737705 86.1006097,47.0400306 87.0852746,49.6134198 C87.0852746,49.6134198 87.2239918,50 87.5673738,50 L92.4429431,50 C92.8932057,50 93.0341969,49.5722455 92.9932639,49.33435 C92.9023018,48.7670606 92.3246924,46.5688143 88.3587442,41.3305376 C88.2927967,41.2436142 88.2518637,41.1246664 88.2495896,41.0011438 L88.2495896,40.9988563 Z" id="path612" transform="translate(84.500000, 41.000000) scale(-1, 1) rotate(-180.000000) translate(-84.500000, -41.000000) "></path>
        </g>
    </g>
</svg>