<?xml version="1.0" encoding="UTF-8"?>
<svg width="100px" height="30px" viewBox="0 0 100 30" version="1.1" xmlns="http://www.w3.org/2000/svg" xmlns:xlink="http://www.w3.org/1999/xlink">
    <!-- Generator: Sketch 46.2 (44496) - http://www.bohemiancoding.com/sketch -->
    <title>Artboard Copy</title>
    <desc>Created with Sketch.</desc>
    <defs></defs>
    <g id="Page-1" stroke="none" stroke-width="1" fill="none" fill-rule="evenodd">
        <g id="Artboard-Copy" fill-rule="nonzero" fill="#FFFFFF">
            <path d="M0,1 L100,1 L100,29.2937371 L9.56758637e-15,29.2937371 L0,1 Z M12.9931387,5.27966064 C7.30662452,5.27966064 15.9975571,5.27966064 12.9931387,5.27966064 C7.30662452,5.27966064 4.20037562,9.70471592 4.20037562,15.6444376 C4.20037562,21.264757 7.64914503,25.2115404 13.2750659,25.2115404 C17.1067514,25.2115404 18.2563412,24.1152578 18.2563412,24.0753325 L18.2563412,18.9524161 C17.147147,20.8264103 15.3933072,21.7031036 13.4972414,21.7031036 C10.311043,21.7031036 8.4149772,19.2718186 8.4149772,15.3250352 C8.4149772,11.2593078 10.311043,8.94696682 13.6588236,8.94696682 C15.4934544,8.94696682 17.0469997,9.92347338 18.2563412,11.6976544 L18.2563412,6.57556968 C17.147147,5.97752178 15.9975571,5.27966064 12.9931387,5.27966064 Z M59.69796,20.8264103 L62.904356,20.8264103 L62.904356,5.75793255 L59.69796,5.75793255 L59.69796,20.8264103 Z M23.3790009,9.38531344 C19.8292427,9.38531344 17.8128318,11.8174303 17.8128318,15.3250352 C17.8128318,19.2718186 20.0514181,21.1449811 23.943697,21.1449811 C27.4926137,21.1449811 29.6100134,19.0522294 29.6100134,15.1062778 C29.6100134,11.3790836 27.4926137,9.38531344 23.3790009,9.38531344 Z M53.507343,9.38531344 C50.7848515,9.38531344 48.1633493,11.8174303 48.1633493,15.3250352 C48.1633493,18.8334719 50.683863,21.264757 53.910457,21.264757 C57.116853,21.264757 58.7907435,18.8334719 59.2342525,17.7571521 L55.8267205,17.7571521 C54.9994535,18.6138827 54.3337685,18.7336586 53.8498635,18.7336586 C52.740669,18.7336586 51.6718705,17.8561336 51.3899435,16.2025603 L59.2342525,16.2025603 L59.2342525,15.6444376 C59.2342525,11.8174303 57.3390285,9.38531344 53.507343,9.38531344 Z M68.0270153,9.50508936 C65.4459089,9.50508936 63.6912275,10.8209611 63.6912275,13.2322835 C63.6912275,15.3250352 65.3449197,16.0628217 68.6725032,16.6409069 C71.1324229,17.059291 70.4675796,19.072192 68.2289936,18.8334719 C67.240986,18.7336586 66.6358943,18.5140694 66.3531255,17.6373762 L63.4093005,17.6373762 L63.4093005,18.0757227 C63.4093005,19.7101652 65.6672433,21.1449811 68.4503274,21.1449811 C69.0150236,21.1449811 70.2050083,21.1050557 71.3545987,20.6068211 C72.463793,20.1085865 73.3710096,19.2718186 73.3710096,17.1990296 C73.3710096,15.4248485 72.3426057,14.2287527 68.571514,13.7904061 C65.6268478,13.43191 66.6358943,11.6178038 68.3493382,11.6976544 C69.0150236,11.7375797 69.8624879,12.076113 70.1444153,12.8937501 L73.0284892,12.8937501 L73.0284892,12.674161 C73.0284892,10.8209611 71.1324229,9.50508936 68.0270153,9.50508936 Z M35.9622124,9.60490261 C34.6114864,9.88354803 33.9458016,10.2828011 33.2801167,11.5978411 L33.2801167,9.88354803 L30.2151049,9.88354803 L30.2151049,20.8264103 L33.4013033,20.8264103 C33.5628855,17.0992162 33.5628855,15.2052593 33.5628855,15.2052593 C33.5830833,14.7868752 33.5830833,14.3485287 33.7244677,14.0099953 C34.1477793,13.0135261 35.1559847,12.2557769 37.1723955,12.4554035 C37.0512089,12.136001 37.2733844,11.9172435 36.5067106,10.3817827 C36.2853767,9.92347338 36.1843879,9.60490261 35.9622124,9.60490261 L35.9622124,9.60490261 Z M43.7265723,9.50508936 C42.3960441,9.50508936 40.9434877,10.5015586 40.7221538,11.0397185 L40.6211649,9.88354803 L37.6159049,9.88354803 L37.6159049,20.8264103 L40.7221538,20.8264103 L40.7221538,14.1289395 C40.7221538,13.2322835 41.5081837,12.2557769 42.7385646,12.2557769 C43.7265723,12.2557769 44.4528505,13.0725822 44.4528505,14.2287527 L44.4528505,20.8264103 L47.5582578,20.8264103 L47.5582578,13.4718354 C47.5582578,10.8209611 46.0661474,9.50508936 43.7265723,9.50508936 L43.7265723,9.50508936 Z M53.910457,11.8174303 C54.8984645,11.8174303 55.967263,12.7939368 55.967263,13.910182 L51.51113,13.910182 C51.611277,12.3555902 52.8012625,11.8174303 53.910457,11.8174303 Z M23.761917,11.9172435 C25.375214,11.9172435 26.3834194,12.8937501 26.3834194,15.4248485 C26.3834194,17.5375629 25.375214,18.6138827 23.8831036,18.6138827 C22.0476312,18.6138827 21.0394258,17.7571521 21.0394258,15.2052593 C21.0394258,13.2322835 21.765704,11.9172435 23.761917,11.9172435 Z M19.32514,24.4537911 L95.1904936,24.4537911 L95.1904936,21.8628049 L19.32514,21.8628049 L19.32514,24.4537911 Z M78.9169803,9.38531344 C76.2550828,9.38531344 73.5931847,11.8174303 73.5931847,15.3250352 C73.5931847,18.8334719 76.1338962,21.264757 79.3402924,21.264757 C82.5668866,21.264757 84.2003809,18.8334719 84.7044834,17.7571521 L81.2565561,17.7571521 C80.4696847,18.6138827 79.7636038,18.7336586 79.2393032,18.7336586 C78.1301089,18.7336586 77.1421013,17.8561336 76.7995809,16.2025603 L84.7044834,16.2025603 L84.7044834,15.6444376 C84.7044834,11.8174303 82.7486662,9.38531344 78.9169803,9.38531344 Z M79.3402924,11.8174303 C80.3686955,11.8174303 81.3567032,12.7939368 81.3567032,13.910182 L76.9207675,13.910182 C77.0209153,12.3555902 78.2512962,11.8174303 79.3402924,11.8174303 Z M91.3192541,9.50508936 C90.0484777,9.50508936 88.5361688,10.5015586 88.3139936,11.0397185 L88.1936484,9.88354803 L85.1883885,9.88354803 L85.1883885,20.8264103 L88.3139936,20.8264103 L88.3139936,14.1289395 C88.3139936,13.2322835 89.0806675,12.2557769 90.3110484,12.2557769 C91.3192541,12.2557769 92.1456796,13.0725822 92.1456796,14.2287527 L92.1456796,20.8264103 L95.191335,20.8264103 L95.191335,13.4718354 C95.191335,10.8209611 93.6588293,9.50508936 91.3192541,9.50508936 Z" id="Combined-Shape"></path>
        </g>
    </g>
</svg>