<?xml version="1.0" encoding="UTF-8"?>
<svg width="100px" height="80px" viewBox="0 0 100 80" version="1.1" xmlns="http://www.w3.org/2000/svg" xmlns:xlink="http://www.w3.org/1999/xlink">
    <!-- Generator: Sketch 46.2 (44496) - http://www.bohemiancoding.com/sketch -->
    <title>Artboard</title>
    <desc>Created with Sketch.</desc>
    <defs></defs>
    <g id="Page-1" stroke="none" stroke-width="1" fill="none" fill-rule="evenodd">
        <g id="Artboard" fill-rule="nonzero" fill="#FFFFFF">
            <path d="M10.0989362,30.1585106 L0.443617021,39.8132979 L10.0984043,49.3930851 L19.7531915,39.8132979 L10.0989362,30.1585106 Z M12.987766,40.7255319 C11.9994681,41.1058511 11.1632979,41.1058511 10.6308511,41.1058511 C9.87074468,41.1819149 8.57819149,40.8781915 8.57819149,40.8781915 L8.50212766,40.8781915 L6.82978723,43.2345745 L5.6893617,43.2345745 L7.51382979,40.4978723 L7.21010638,40.3462766 L7.21010638,39.9659575 L6.44946809,39.9659575 L6.44946809,41.0297872 L5.53723404,41.4101064 L5.53723404,38.9771277 L7.81808511,38.9771277 L9.26223404,36.3164894 L8.04574468,36.3164894 L8.04574468,36.8484043 L7.13351064,36.8484043 L7.13351064,36.3164894 L6.525,36.3164894 L6.525,36.8484043 L5.53670213,36.8484043 L5.53670213,35.3281915 L10.8585106,35.3281915 L10.6303191,35.9367021 L10.9345745,35.9367021 L11.162766,35.556383 L11.3148936,35.3281915 L12.987234,35.3281915 C12.8351064,36.6207447 11.0867021,36.9244681 10.1744681,36.9244681 L10.1744681,38.9010638 C11.3909574,39.3569149 12.531383,38.825 12.8351064,38.7489362 C13.1393617,38.5968085 13.4430851,38.5968085 13.4430851,38.5968085 L14.431383,39.9659575 C14.2792553,40.0420213 14.1276596,40.193617 13.9755319,40.2691489 L15.8760638,43.3101064 L14.7356383,43.3101064 L12.987766,40.7255319 Z" id="Shape"></path>
            <path d="M21.5021277,41.9420213 L21.806383,41.9420213 C22.4904255,41.7904255 23.0228723,41.5617021 23.0228723,40.7255319 L23.0228723,34.8723404 L24.3154255,34.8723404 L24.3154255,40.7255319 C24.3154255,42.0946809 23.631383,43.0069149 22.1106383,43.0069149 C22.1106383,43.0069149 21.806383,43.0829787 21.6547872,43.0069149 L21.5021277,41.9420213 L21.5021277,41.9420213 Z M29.8648936,39.5095745 L27.4324468,39.5095745 L28.5728723,36.7728723 L29.8648936,39.5095745 Z M24.8473404,42.8542553 L25.987766,42.8542553 L27.0521277,40.5739362 L30.3212766,40.5739362 L31.3856383,42.8542553 L32.6021277,42.8542553 L29.0287234,34.8723404 L28.1925532,34.8723404 L24.8473404,42.8542553 L24.8473404,42.8542553 Z M90.1510638,39.5095745 L87.7180851,39.5095745 L88.8590426,36.7728723 L90.1510638,39.5095745 Z M85.1335106,42.8542553 L86.2744681,42.8542553 L87.3382979,40.5739362 L90.6074468,40.5739362 L91.6712766,42.8542553 L92.887766,42.8542553 L89.3148936,34.8723404 L88.4787234,34.8723404 L85.1335106,42.8542553 Z M33.0579787,34.8723404 L33.9702128,34.8723404 L39.2920213,40.8026596 L39.2920213,34.8723404 L40.4319149,34.8723404 L40.4319149,42.8542553 L39.5196809,42.8542553 L34.2744681,36.925 L34.2744681,42.8542553 L33.0579787,42.8542553 L33.0579787,34.8723404 L33.0579787,34.8723404 Z M57.3095745,34.8723404 L58.2218085,34.8723404 L63.5430851,40.8026596 L63.6191489,40.8026596 L63.6191489,34.8723404 L64.6835106,34.8723404 L64.6835106,42.8542553 L63.8473404,42.8542553 L58.525,36.925 L58.525,42.8542553 L57.3095745,42.8542553 L57.3095745,34.8723404 Z M41.4962766,40.8026596 C42.1808511,41.4106383 42.6367021,41.8664894 43.625,41.8664894 C44.3090426,41.8664894 44.9175532,41.562234 44.9175532,40.8026596 C44.9175532,39.0537234 41.4207447,39.2819149 41.4207447,36.7728723 C41.4207447,35.6324468 42.4851064,34.7962766 43.7776596,34.7962766 C44.6138298,34.7962766 45.1457447,35.0244681 45.6781915,35.3281915 L45.6781915,36.6207447 C45.2984043,36.1648936 44.6138298,35.7845745 43.7776596,35.7845745 C43.0930851,35.7845745 42.5611702,36.0888298 42.5611702,36.7728723 C42.5611702,38.1409575 45.9824468,38.2930851 45.9824468,40.65 C45.9824468,41.9425532 45.0702128,42.8547872 43.5494681,42.8547872 C42.637234,42.8547872 42.0292553,42.7031915 41.4968085,42.1712766 L41.4968085,40.8026596 L41.4962766,40.8026596 L41.4962766,40.8026596 Z M46.5138298,40.8026596 C47.1218085,41.4106383 47.6542553,41.8664894 48.5664894,41.8664894 C49.3265957,41.8664894 49.8590426,41.562234 49.8590426,40.8026596 C49.8590426,39.0537234 46.437766,39.2819149 46.437766,36.7728723 C46.437766,35.6324468 47.5021277,34.7962766 48.7946809,34.7962766 C49.5547872,34.7962766 50.087234,35.0244681 50.6952128,35.3281915 L50.6952128,36.6207447 C50.3154255,36.1648936 49.5547872,35.7845745 48.718617,35.7845745 C48.1106383,35.7845745 47.5781915,36.0888298 47.5781915,36.7728723 C47.5781915,38.1409575 50.9994681,38.2930851 50.9994681,40.65 C50.9994681,41.9425532 50.087234,42.8547872 48.5664894,42.8547872 C47.6542553,42.8547872 47.0462766,42.7031915 46.5138298,42.1712766 L46.5138298,40.8026596 L46.5138298,40.8026596 Z M51.9117021,34.8723404 L56.3962766,34.8723404 L56.3962766,36.012766 L52.9755319,36.012766 L52.9755319,38.3691489 L56.2446809,38.3691489 L56.2446809,39.4335106 L52.9755319,39.4335106 L52.9755319,41.7904255 L56.4734043,41.7904255 L56.4734043,42.8542553 L51.9117021,42.8542553 L51.9117021,34.8723404 Z M66.1276596,38.2930851 L68.9409574,38.2930851 L68.9409574,39.3574468 L66.1276596,39.3574468 L66.1276596,38.2930851 Z M77.3031915,42.2462766 C76.162234,42.7781915 75.0984043,42.9308511 74.3382979,42.9308511 C71.7537234,42.9308511 70.1569149,41.1053191 70.1569149,38.825 C70.1569149,36.6202128 71.9824468,34.8718085 74.4898936,34.8718085 C75.706383,34.8718085 76.5425532,35.1760638 77.1515957,35.5558511 L77.1515957,36.6962766 C76.2393617,36.1643617 75.706383,35.9361702 74.4143617,35.9361702 C72.8946809,35.9361702 71.2978723,36.9244681 71.2978723,38.9010638 C71.2978723,40.5734043 72.5143617,41.9414894 74.187234,41.9414894 C75.4797872,41.9414894 76.3159574,41.637234 77.3037234,41.0292553 L77.3037234,42.2462766 L77.3031915,42.2462766 L77.3031915,42.2462766 Z M78.3680851,34.8723404 L79.5079787,34.8723404 L79.5079787,42.8542553 L78.3680851,42.8542553 L78.3680851,34.8723404 Z M80.8760638,34.8723404 L82.0164894,34.8723404 L82.0164894,41.7904255 L84.9058511,41.7904255 L84.9058511,42.8542553 L80.8760638,42.8542553 L80.8760638,34.8723404 Z M98.8175532,39.8132979 L97.2207447,39.8132979 L97.2207447,38.7494681 L99.9579787,38.7494681 L99.9579787,42.0952128 C99.1218085,42.5510638 98.2095745,42.8547872 96.9170213,42.8547872 C94.3324468,42.8547872 92.6595745,41.0303191 92.6595745,38.8260638 C92.6595745,36.5452128 94.4079787,34.7207447 97.068617,34.7207447 C98.1324468,34.7207447 98.968617,34.9489362 99.6531915,35.4053192 L99.6531915,36.5457447 C98.8925532,36.0138298 97.9047872,35.7851064 96.6882979,35.7851064 C95.6244681,35.7851064 93.8760638,36.6212766 93.8760638,38.8260638 C93.8760638,40.4228723 95.0914894,41.7909574 96.8409574,41.7909574 C97.2968085,41.7909574 98.2851064,41.7148936 98.8170213,41.3351064 L98.8170213,39.8132979 L98.8175532,39.8132979 L98.8175532,39.8132979 Z" id="Shape"></path>
        </g>
    </g>
</svg>