<?xml version="1.0" encoding="UTF-8" standalone="no"?>
<svg width="57px" height="42px" viewBox="0 0 57 42" version="1.1" xmlns="http://www.w3.org/2000/svg" xmlns:xlink="http://www.w3.org/1999/xlink">
    <!-- Generator: Sketch 46.2 (44496) - http://www.bohemiancoding.com/sketch -->
    <title>client_bonprix</title>
    <desc>Created with Sketch.</desc>
    <defs></defs>
    <g id="Page-1" stroke="none" stroke-width="1" fill="none" fill-rule="evenodd">
        <g id="client_bonprix" fill-rule="nonzero" fill="#FFFFFF">
            <g id="Page-1">
                <g id="client_bonprix">
                    <g id="logo_bonprix">
                        <g id="Page-1">
                            <g id="Artboard">
                                <g id="Group">
                                    <path d="M48.4946625,21.6896183 C48.4946625,21.6896183 51.8326352,21.7469442 54.178411,19.409322 C54.178411,19.409322 56.2804143,17.5366765 56.2675842,12.2266012 C56.2675842,12.2266012 56.2312322,10.1841012 55.1641929,5.36448058 C55.1321175,5.22647382 54.9781559,4.98655439 54.6787862,4.98655439 L50.1027058,4.98655439 C49.6921415,4.98655439 49.5296265,5.3729733 49.6087457,5.62775501 C49.6087457,5.62775501 50.1604414,7.23075657 50.5004399,9.16709752 C50.5004399,9.16709752 51.3215683,14.583332 49.6279909,16.3009852 C49.6279909,16.3009852 48.6935296,17.7574873 46.1766854,17.2500471 L46.1766854,5.46851644 C46.1766854,5.34112559 46.0825977,4.98655439 45.6463732,4.98655439 L40.7773381,4.98655439 C40.5100437,4.98655439 40.2684095,5.2073652 40.2684095,5.46639326 L40.2684095,21.1545767 C40.2684095,21.415728 40.4138177,21.6896183 40.8158285,21.6896183 L48.4946625,21.6896183 Z" id="path588" transform="translate(48.268026, 13.338149) scale(-1, 1) rotate(-180.000000) translate(-48.268026, -13.338149) "></path>
                                    <path d="M26.0551893,39.4524884 C29.4551742,39.4524884 32.0383075,36.2931952 30.9712682,31.4735747 C30.9391929,31.3334447 30.7852313,31.0956485 30.4858615,31.0956485 L25.9097811,31.0956485 C25.5013552,31.0956485 25.3238717,31.3844011 25.415821,31.7368491 C25.5847511,32.3886656 26.095818,35.7369219 23.7372121,35.0129172 L23.7372121,23.2313865 C23.7372121,23.1039957 23.6431244,22.7494245 23.2068999,22.7494245 L18.3378648,22.7494245 C18.0705704,22.7494245 17.8289363,22.9702353 17.8289363,23.2292633 L17.8289363,38.9174468 C17.8289363,39.1785981 17.9743444,39.4524884 18.3763552,39.4524884 L26.0551893,39.4524884 Z" id="path592" transform="translate(24.521923, 31.100956) scale(-1, 1) rotate(-180.000000) translate(-24.521923, -31.100956) "></path>
                                    <path d="M34.7005599,38.1847365 C36.554514,38.1847365 37.6771505,39.4522755 37.6771505,39.4522755 L37.6771505,25.4371585 C37.6771505,25.3012749 37.5809245,24.9233488 37.1468384,24.9233488 L32.2778033,24.9233488 C32.0083705,24.9233488 31.7667364,25.1590218 31.7667364,25.4329122 L31.7667364,39.3928264 C31.7667364,39.3928264 32.8466058,38.1847365 34.7005599,38.1847365" id="path596" transform="translate(34.721943, 32.187812) scale(-1, 1) rotate(-180.000000) translate(-34.721943, -32.187812) "></path>
                                    <path d="M20.9860041,9.42808733 C21.0138027,14.9802053 16.6836331,16.5662214 16.6836331,16.5662214 C12.8666688,18.1501143 10.195863,17.277487 10.195863,17.277487 L10.195863,21.8699272 L4.24695846,21.8699272 L4.24695846,4.19656965 C4.24695846,0.0860914813 10.0525932,0.548944912 10.0525932,0.548944912 C15.4305569,0.548944912 18.1312997,3.20079782 18.1312997,3.20079782 C21.1463807,5.96305614 20.9860041,9.42808733 20.9860041,9.42808733 M14.8296791,9.03529886 C14.8296791,7.12443608 13.3435221,5.55115905 11.6050392,5.57451404 C11.0725887,5.58300676 10.6064273,5.70615125 10.2065548,5.90785344 L10.2086932,12.171237 C10.6278108,12.3856783 11.098249,12.5045764 11.5943474,12.5024532 C12.2187472,12.5003301 14.6436421,12.0863098 14.8296791,9.03529886" id="path600" transform="translate(12.617223, 11.201617) scale(-1, 1) rotate(-180.000000) translate(-12.617223, -11.201617) "></path>
                                    <path d="M17.283228,34.1974032 C17.283228,34.1974032 17.3537937,37.2632764 14.6316673,39.418305 C12.6622421,40.9979515 11.0028783,41.8811948 6.53157731,41.8811948 C6.53157731,41.8811948 1.66468055,41.8811948 0.83927539,41.8811948 C0.670345318,41.8811948 0.544182353,41.7835285 0.544182353,41.6157972 L0.544182353,22.7492119 L6.49308691,22.7492119 L6.49308691,26.3480035 C6.49308691,26.3480035 10.098354,25.4201735 12.980857,27.0592691 C15.7179519,28.6176839 17.3174417,31.0784505 17.283228,34.1974032 M11.1269029,33.9872083 C10.940866,30.9383206 8.51597107,30.5221771 7.89157131,30.5200539 C7.39547287,30.5179308 6.92503469,30.6368289 6.50591705,30.8512701 L6.50377869,37.1146537 C6.90365114,37.3184791 7.36981261,37.4416236 7.90226309,37.4479931 C9.64074598,37.4713481 11.1269029,35.8980711 11.1269029,33.9872083" id="path604" transform="translate(8.913974, 32.315203) scale(-1, 1) rotate(-180.000000) translate(-8.913974, -32.315203) "></path>
                                    <path d="M30.62571,16.7741552 C32.4005449,16.7741552 33.839658,15.2433418 33.839658,13.3537108 C33.839658,11.4640799 32.4005449,9.93326641 30.62571,9.93326641 C28.850875,9.93326641 27.4117619,11.4640799 27.4117619,13.3537108 C27.4117619,15.2433418 28.850875,16.7741552 30.62571,16.7741552 M34.6928618,8.68271288 C35.7256875,8.68271288 36.6708405,8.3026635 37.3936046,7.67632514 C38.8605164,9.17741402 39.7564873,11.1689577 39.7564873,13.3537108 C39.7564873,18.0247088 35.6679519,21.8124634 30.62571,21.8124634 C25.5834681,21.8124634 21.4949327,18.0247088 21.4949327,13.3537108 C21.4949327,8.69332878 25.5642229,4.91406683 30.5893579,4.8949582 C30.7433195,7.01176953 32.5202928,8.68271288 34.6928618,8.68271288" id="path608" transform="translate(30.625710, 13.353711) scale(-1, 1) rotate(-180.000000) translate(-30.625710, -13.353711) "></path>
                                    <path d="M49.7282797,31.1018041 C49.7304181,30.9871523 49.7689085,30.8788701 49.8309208,30.796066 C53.5602125,25.9339818 54.1033548,23.893605 54.188889,23.3691794 C54.2273794,23.1483685 54.0948014,22.7492105 53.671407,22.7492105 L49.0867731,22.7492105 C48.7638815,22.7492105 48.6334418,23.1080281 48.6334418,23.1080281 C47.7075339,25.4966066 46.3732002,26.8596887 46.3732002,26.8596887 C46.3154646,26.910645 46.2555907,26.9276305 46.2042701,26.9255073 L46.2021318,26.9255073 C46.1508113,26.9276305 46.0909373,26.910645 46.0332017,26.8596887 C46.0332017,26.8596887 44.6967296,25.4966066 43.7729601,23.1080281 C43.7729601,23.1080281 43.6425204,22.7492105 43.3174904,22.7492105 L38.7328566,22.7492105 C38.3116006,22.7492105 38.1790225,23.1483685 38.2153746,23.3691794 C38.3030471,23.893605 38.8461894,25.9339818 42.5754811,30.796066 C42.6374934,30.8788701 42.6759838,30.9871523 42.6781222,31.1018041 L42.6781222,31.1039273 C42.6759838,31.218579 42.6374934,31.3289844 42.5754811,31.4096653 C38.8461894,36.2717495 38.3030471,38.3121263 38.2153746,38.8386752 C38.1790225,39.059486 38.3116006,39.4565208 38.7328566,39.4565208 L43.3174904,39.4565208 C43.6425204,39.4565208 43.7729601,39.0977033 43.7729601,39.0977033 C44.6967296,36.7091248 46.0332017,35.3481658 46.0332017,35.3481658 C46.0909373,35.2950863 46.1508113,35.2802241 46.2021318,35.2802241 L46.2042701,35.2802241 C46.2555907,35.2802241 46.3154646,35.2950863 46.3732002,35.3481658 C46.3732002,35.3481658 47.7075339,36.7091248 48.6334418,39.0977033 C48.6334418,39.0977033 48.7638815,39.4565208 49.0867731,39.4565208 L53.671407,39.4565208 C54.0948014,39.4565208 54.2273794,39.059486 54.188889,38.8386752 C54.1033548,38.3121263 53.5602125,36.2717495 49.8309208,31.4096653 C49.7689085,31.3289844 49.7304181,31.218579 49.7282797,31.1039273 L49.7282797,31.1018041 Z" id="path612" transform="translate(46.202436, 31.102866) scale(-1, 1) rotate(-180.000000) translate(-46.202436, -31.102866) "></path>
                                </g>
                            </g>
                        </g>
                    </g>
                </g>
            </g>
        </g>
    </g>
</svg>