<?xml version="1.0" encoding="UTF-8" standalone="no"?>
<svg width="54px" height="54px" viewBox="0 0 54 54" version="1.1" xmlns="http://www.w3.org/2000/svg" xmlns:xlink="http://www.w3.org/1999/xlink">
    <!-- Generator: Sketch 46.2 (44496) - http://www.bohemiancoding.com/sketch -->
    <title>client_bmw</title>
    <desc>Created with Sketch.</desc>
    <defs></defs>
    <g id="Page-1" stroke="none" stroke-width="1" fill="none" fill-rule="evenodd">
        <g id="client_bmw" fill-rule="nonzero" fill="#FFFFFF">
            <g id="Page-1">
                <g id="client_bmw">
                    <g id="logo_bmw">
                        <g id="Page-1">
                            <g id="Artboard">
                                <g id="Group">
                                    <path d="M53.9446111,26.9915555 C53.9446111,41.8756667 41.8764444,53.9433889 26.9922222,53.9433889 C12.1078333,53.9433889 0.0409444445,41.8756667 0.0409444445,26.9915555 C0.0409444445,12.1066111 12.1078333,0.0397222222 26.9922222,0.0397222222 C41.8764444,0.0397222222 53.9446111,12.1066111 53.9446111,26.9915555 Z M44.9264444,26.9915555 C44.9264444,17.0866667 36.897,9.05733333 26.9922778,9.05733333 C17.0873333,9.05733333 9.05788888,17.0866111 9.05788888,26.9915555 C9.05788888,36.8960556 17.0873333,44.9250555 26.9922778,44.9250555 C36.897,44.9250555 44.9264444,36.896 44.9264444,26.9915555 Z M27.7255556,8.29944446 L29.5884444,3.36194445 L29.5884444,8.29944446 L31.0035,8.29944446 L31.0035,1.22794444 L28.8768889,1.22794444 L26.9429445,6.29088887 L26.9612778,6.29088887 L25.0272778,1.22794444 L22.9006667,1.22794444 L22.9006667,8.29944446 L24.3157222,8.29944446 L24.3157222,3.36194445 L26.1787778,8.29944446 L27.7255556,8.29944446 Z M47.1423889,11.2691111 L46.0377778,9.94361114 L42.1343889,11.6845555 L44.6572222,8.28688887 L43.6272778,7.05166668 L39.5977222,12.3868333 L40.8177778,13.8396666 L44.6722222,12.1897778 L44.6858333,12.2075 L42.3691667,15.6997778 L43.5766667,17.1622778 L49.5518889,14.1616111 L48.5229444,12.9259445 L44.7259444,14.7940556 L47.1423889,11.2691111 Z M14.2148889,10.2535 C13.6465556,9.70066665 12.7666111,9.53388889 11.9417778,10.0455556 C12.0986667,9.63644445 12.0345556,9.22000001 11.951,8.99022224 C11.5946111,8.34122221 11.4708889,8.26038891 11.1775,8.01411111 C10.2277222,7.21783332 9.22977779,7.89772221 8.51711112,8.74916667 L5.06494444,12.8611667 L10.4901111,17.4126111 L14.1289444,13.076 C14.9596667,12.0849444 15.0890556,11.1031111 14.2148889,10.2535 Z M7.19727779,12.2367222 L9.26988889,9.76711111 C9.50944444,9.48072222 10.0524445,9.49216666 10.4018889,9.78483332 C10.7857222,10.1073889 10.7868889,10.5638889 10.5278889,10.8703889 L8.47938888,13.3125556 L7.19727779,12.2367222 Z M12.9168333,12.6474444 L10.7559444,15.2225556 L9.40049998,14.0853333 L11.5786667,11.4897222 C11.8249445,11.197 12.3726111,11.1116111 12.7427222,11.4221667 C13.162,11.7732778 13.2032778,12.3055 12.9168333,12.6474444 Z" id="Combined-Shape"></path>
                                    <path d="M10.1268889,26.9917778 L26.9922222,26.9917778 L26.9922222,10.1265 C17.6772778,10.1265 10.1268889,17.6769444 10.1268889,26.9917778 Z" id="Shape"></path>
                                    <path d="M26.9922222,26.9917778 L26.9922222,43.8572778 C36.3070556,43.8572778 43.8575556,36.3054444 43.8575556,26.9917778 L26.9922222,26.9917778 Z" id="Shape"></path>
                                </g>
                            </g>
                        </g>
                    </g>
                </g>
            </g>
        </g>
    </g>
</svg>