<?xml version="1.0" encoding="UTF-8" standalone="no"?>
<svg width="200px" height="53px" viewBox="0 0 200 53" version="1.1" xmlns="http://www.w3.org/2000/svg" xmlns:xlink="http://www.w3.org/1999/xlink">
    <!-- Generator: Sketch 46.2 (44496) - http://www.bohemiancoding.com/sketch -->
    <title>client_media-saturn2</title>
    <desc>Created with Sketch.</desc>
    <defs></defs>
    <g id="Page-1" stroke="none" stroke-width="1" fill="none" fill-rule="evenodd" opacity="0.5">
        <g id="client_media-saturn2" fill-rule="nonzero" fill="#FFFFFF">
            <g id="logo_media-saturn2" transform="translate(0.000000, 11.000000)">
                <g id="Page-1">
                    <g id="logo_media-saturn">
                        <g id="Page-1">
                            <g id="Artboard">
                                <g id="Group">
                                    <polygon id="path2651" transform="translate(11.561299, 9.715674) scale(-1, 1) rotate(-180.000000) translate(-11.561299, -9.715674) " points="3.15463192 18.9158991 7.86547359 18.9158991 11.5972373 9.08238132 15.5524017 18.9158991 20.3098661 18.9158991 23.091691 0.5154486 18.3089725 0.5154486 16.9666255 11.1065863 16.9180601 11.1065863 12.5005533 0.5154486 10.5987331 0.5154486 6.37548779 11.1065863 6.32692241 11.1065863 4.79031386 0.5154486 0.030906793 0.5154486"></polygon>
                                    <polygon id="path2655" transform="translate(30.351624, 9.715294) scale(-1, 1) rotate(-180.000000) translate(-30.351624, -9.715294) " points="29.8999665 14.8641955 29.8999665 11.7890357 35.2926661 11.7890357 35.2926661 7.73868313 29.8999665 7.73868313 29.8999665 4.56639264 35.5860009 4.56639264 35.5860009 0.5160401 25.117248 0.5160401 25.117248 18.9145481 35.5860009 18.9145481 35.5860009 14.8641955"></polygon>
                                    <path d="M43.3216964,4.56657984 L44.3959626,4.56657984 C47.2496642,4.56657984 49.6915314,6.1284424 49.6915314,9.71645256 C49.6915314,13.0091852 47.5196877,14.8643827 44.4445279,14.8643827 L43.3216964,14.8643827 L43.3216964,4.56657984 Z M38.5389779,18.9147352 L45.32259,18.9147352 C50.4472087,18.9147352 54.6685113,14.8896366 54.6685113,9.71645256 C54.6685113,4.54132584 50.4238973,0.5162273 45.32259,0.5162273 L38.5389779,0.5162273 L38.5389779,18.9147352 Z" id="path2667" transform="translate(46.603745, 9.715481) scale(-1, 1) rotate(-180.000000) translate(-46.603745, -9.715481) "></path>
                                    <polygon id="path2669" points="61.6722138 18.9147342 56.8894954 18.9147342 56.8894954 0.514283718 61.6722138 0.514283718"></polygon>
                                    <path d="M72.824379,13.2294765 L72.7758133,13.2294765 L70.7982313,7.37249189 L74.7767072,7.37249189 L72.824379,13.2294765 Z M69.4811385,3.712605 L68.2126108,0.5150605 L63.1365574,0.5150605 L70.2135041,18.915511 L75.4352533,18.915511 L82.3665041,0.5150605 L77.2671395,0.5150605 L76.0704887,3.712605 L69.4811385,3.712605 Z" id="path2673" transform="translate(72.751531, 9.715286) scale(-1, 1) rotate(-180.000000) translate(-72.751531, -9.715286) "></path>
                                    <polygon id="path2675" points="94.0556082 12.9120535 87.0757918 12.9120535 87.0757918 9.25216656 94.0556082 9.25216656"></polygon>
                                    <path d="M110.501788,14.181746 C109.623726,14.9141119 108.500894,15.4017083 107.329497,15.4017083 C106.451435,15.4017083 105.280038,14.8888579 105.280038,13.8650997 C105.280038,12.7908335 106.57382,12.3751139 107.403316,12.107033 L108.623279,11.7418214 C111.185588,10.9842015 113.16317,9.69236244 113.16317,6.71433347 C113.16317,4.88439002 112.722197,3.0058812 111.259408,1.7606649 C109.81993,0.540702593 107.890913,0.0278522 106.035715,0.0278522 C103.718176,0.0278522 101.449202,0.80878348 99.5687497,2.12587654 L101.620151,5.98196757 C102.814859,4.9329554 104.231026,4.07820475 105.864766,4.07820475 C106.987597,4.07820475 108.184248,4.63962052 108.184248,5.93340219 C108.184248,7.27574926 106.303796,7.74003424 105.280038,8.03142655 C102.278698,8.88617721 100.301116,9.66710849 100.301116,13.2298646 C100.301116,16.9635709 102.960556,19.4034954 106.647639,19.4034954 C108.500894,19.4034954 110.769869,18.8187683 112.405551,17.8901982 L110.501788,14.181746 Z" id="path2679" transform="translate(106.365960, 9.715674) scale(-1, 1) rotate(-180.000000) translate(-106.365960, -9.715674) "></path>
                                    <path d="M123.460383,13.2294765 L123.411817,13.2294765 L121.434235,7.37249189 L125.412711,7.37249189 L123.460383,13.2294765 Z M120.117142,3.712605 L118.848614,0.5150605 L113.772561,0.5150605 L120.849508,18.915511 L126.071257,18.915511 L133.002508,0.5150605 L127.901201,0.5150605 L126.706493,3.712605 L120.117142,3.712605 Z" id="path2683" transform="translate(123.387535, 9.715286) scale(-1, 1) rotate(-180.000000) translate(-123.387535, -9.715286) "></path>
                                    <polygon id="path2687" transform="translate(137.960062, 9.715286) scale(-1, 1) rotate(-180.000000) translate(-137.960062, -9.715286) " points="140.351422 0.5150605 135.568703 0.5150605 135.568703 14.8632159 131.615481 14.8632159 131.615481 18.915511 144.304643 18.915511 144.304643 14.8632159 140.351422 14.8632159"></polygon>
                                    <path d="M161.99663,19.4034965 L161.99663,9.05712831 C161.99663,6.68908046 161.899499,4.34628663 160.069555,2.56490856 C158.531004,1.05161137 156.116334,0.5154496 153.967801,0.5154496 C151.821212,0.5154496 149.404598,1.05161137 147.86799,2.56490856 C146.036104,4.34628663 145.938973,6.68908046 145.938973,9.05712831 L145.938973,19.4034965 L150.721691,19.4034965 L150.721691,9.71567482 C150.721691,7.32431564 150.894584,4.71344089 153.967801,4.71344089 C157.042961,4.71344089 157.213911,7.32431564 157.213911,9.71567482 L157.213911,19.4034965 L161.99663,19.4034965 Z" id="path2691" transform="translate(153.967802, 9.959473) scale(-1, 1) rotate(-180.000000) translate(-153.967802, -9.959473) "></path>
                                    <path d="M169.806129,10.6675553 L170.268471,10.6675553 C171.830334,10.6675553 173.588401,10.9608902 173.588401,12.9617837 C173.588401,14.9626773 171.830334,15.2560122 170.268471,15.2560122 L169.806129,15.2560122 L169.806129,10.6675553 Z M180.323447,0.5154486 L174.369332,0.5154486 L169.854694,7.59239552 L169.806129,7.59239552 L169.806129,0.5154486 L165.021468,0.5154486 L165.021468,18.9158991 L172.172234,18.9158991 C175.80881,18.9158991 178.565381,17.1830864 178.565381,13.2551186 C178.565381,10.7161207 177.151157,8.52096552 174.540282,8.05668055 L180.323447,0.5154486 Z" id="path2695" transform="translate(172.672458, 9.715674) scale(-1, 1) rotate(-180.000000) translate(-172.672458, -9.715674) "></path>
                                    <polygon id="path2699" transform="translate(190.804454, 9.715674) scale(-1, 1) rotate(-180.000000) translate(-190.804454, -9.715674) " points="181.616856 18.9158991 186.399574 18.9158991 195.160769 7.66621491 195.209334 7.66621491 195.209334 18.9158991 199.992052 18.9158991 199.992052 0.5154486 195.209334 0.5154486 186.448139 11.7903868 186.399574 11.7903868 186.399574 0.5154486 181.616856 0.5154486"></polygon>
                                    <polygon id="path2701" points="199.992052 30.7413751 1.14420431e-05 30.7413751 1.14420431e-05 23.4468553 199.992052 23.4468553"></polygon>
                                </g>
                            </g>
                        </g>
                    </g>
                </g>
            </g>
        </g>
    </g>
</svg>