<?xml version="1.0" encoding="UTF-8" standalone="no"?>
<svg width="53px" height="54px" viewBox="0 0 53 54" version="1.1" xmlns="http://www.w3.org/2000/svg" xmlns:xlink="http://www.w3.org/1999/xlink">
    <!-- Generator: Sketch 46.2 (44496) - http://www.bohemiancoding.com/sketch -->
    <title>client_axa</title>
    <desc>Created with Sketch.</desc>
    <defs></defs>
    <g id="Page-1" stroke="none" stroke-width="1" fill="none" fill-rule="evenodd">
        <g id="client_axa" fill-rule="nonzero" fill="#FFFFFF">
            <g id="Page-1">
                <g id="client_axa">
                    <g id="logo_axa">
                        <g id="Page-1">
                            <g id="Artboard">
                                <path d="M6.01026159e-08,0 L0,0 L53,0 L53,53.556328 L6.01026159e-08,53.556328 L6.01026159e-08,0 Z M40.4940473,38.0292386 L38.0589901,29.5378614 L37.9988634,29.1739454 L37.9086795,28.688724 L37.8786162,28.2338287 L37.8786162,28.0518704 L34.0005674,28.0518704 C33.2159398,29.8987451 31.6206302,31.6960866 30.4532032,33.3286549 C29.2096261,35.0137886 27.9374822,36.6776943 26.6653444,38.3325018 C26.4418829,37.6127569 26.2640092,36.8697614 26.0340326,36.1490052 C28.0998194,33.6273696 30.3264407,30.2343569 32.6477598,28.0518704 L28.6795271,28.0518704 C28.5818243,29.3538817 27.4519794,30.2358727 26.7555284,31.2361371 C26.1407568,32.0600025 25.4703662,32.875276 24.861599,33.6925708 C24.5709968,32.7767153 24.3610584,31.827501 24.0799765,30.9025473 C23.8439896,29.8911633 23.4291254,29.1234016 23.4787281,28.0518704 L18.7288717,28.0518704 C20.1262718,30.6609471 21.009104,34.9405005 21.795236,36.9374903 L20.4123656,38.6964183 L20.4123656,38.6660916 L20.3823035,38.5751128 L20.3221786,38.4234812 L20.2620538,38.241523 L20.201929,37.9989119 L20.1117414,37.7563015 L19.9313675,37.0891219 L19.8111178,36.7252054 C19.4628953,35.6167777 19.1367178,34.4997574 18.7889966,33.3893077 C18.2358482,31.3412683 17.6120534,30.2232367 17.526376,28.0518704 L13.4679526,28.0518704 C12.0575253,31.3341922 9.17303818,34.3637939 7.0947248,37.3014062 C5.59461126,39.323668 4.07846464,41.325207 2.5252412,43.3060225 C1.98010932,44.0191975 1.4344768,44.7308556 0.871809391,45.428867 C0.654358145,45.6381186 0.510559649,45.908023 0.300623637,46.1263728 L0.24049879,46.2173522 L0.120249094,46.3386571 L0.120249094,46.3689837 L0.0901869709,46.3689837 L0,46.4599626 L0,47.9762801 L2.34486666,47.9762801 C3.11446374,46.4897836 4.30844187,45.1276253 5.32104344,43.7912446 C5.99544337,42.8319207 6.74900739,41.9302175 7.42541119,40.9708943 L7.66591057,40.6979573 L7.87634723,40.3946935 L8.05672175,40.1520825 L8.20703357,39.9397982 L8.32728331,39.7578405 L8.5076572,39.5758823 L8.5076572,39.5455556 L16.3840051,39.5455556 L17.3159393,42.7601484 C15.9586216,44.532218 14.6243527,46.4675444 12.9869545,47.9762801 L16.6846287,47.9762801 C17.3049159,46.6308012 17.6330971,46.3841468 18.4583102,45.2469088 C18.8671588,46.3437118 18.9538382,46.864314 19.149745,47.9762801 L22.8774796,47.9762801 C23.3529693,46.8961564 23.9186431,46.2249334 24.7112883,45.3682143 C25.0074019,46.3406791 25.2103263,46.9588313 25.3125368,47.9762801 L30.0924553,47.9762801 C29.2061161,46.380609 29.199601,46.2881132 28.6795271,44.6100558 C28.4400242,43.8968807 28.2265818,43.1498419 27.9880886,42.4265585 L27.8678413,42.0626426 L27.7776513,41.7593789 L27.6874674,41.5167685 L27.6574041,41.3651363 L27.6273407,41.3348102 L28.8899584,39.5455556 L36.8264358,39.5455556 L36.8264358,39.5758823 L36.8564931,39.6668611 L36.9166198,39.8184927 L36.9767464,40.0611037 L37.0669304,40.3037147 L37.1571204,40.6069778 L37.2473043,40.9708943 C37.5895166,41.9327446 37.8250046,42.9036931 38.1491801,43.8518967 C38.5229522,45.2140556 39.0856208,46.5367897 39.0811131,47.9762801 L44.0714688,47.9762801 C43.3349414,47.059919 42.702127,44.745008 42.2977867,43.6092863 C41.6749975,41.7634223 41.1433899,39.8538735 40.4940473,38.0292386 Z M34.6018159,31.8729902 L34.6018159,31.8729902 L34.6619425,31.8123374 L34.6619425,31.8426641 L34.6920058,31.9033168 L34.6920058,32.6918014 L34.7821898,33.2983283 L34.8423164,33.5409393 L34.9325004,33.8442031 L35.0527537,34.2081189 L35.173001,34.6326876 C35.4410587,35.4848582 35.7276519,36.3623002 35.9846868,37.2104274 L30.6937038,37.2104274 C31.9828807,35.5394455 33.5907157,33.7001527 34.6018159,31.8729902 Z M14.2796372,31.8729902 L14.2796372,31.8729902 L14.3096993,31.8123374 L14.339762,31.8426641 L14.339762,32.1762539 L14.3698242,32.6918014 L14.4600117,33.2983283 L14.5201366,33.5409393 L14.6103235,33.8442031 L14.7305732,34.2081189 L14.8508229,34.6326876 C15.1123655,35.4702003 15.3804219,36.3865614 15.6625075,37.2104274 L10.3715257,37.2104274 L10.3715257,37.1801007 L10.4617132,37.0891219 L10.5519002,36.9678164 L10.702212,36.8161848 L10.8525245,36.6039005 L11.0328984,36.3612895 C11.4247115,35.8401816 11.8551051,35.3438406 12.2353942,34.8146458 C12.9423619,33.9311385 13.7309983,32.8651671 14.2796372,31.8729902 Z M22.246172,44.3371187 L21.3442999,41.4864418 L22.7572323,39.636535 C23.0408204,40.5357111 23.3354314,41.4313489 23.6891654,42.305253 L22.246172,44.3371187 Z M32.8581971,26.4445741 L53,0 L50.023827,0 L29.7918341,26.4445741 L32.8581971,26.4445741 Z" id="Combined-Shape"></path>
                            </g>
                        </g>
                    </g>
                </g>
            </g>
        </g>
    </g>
</svg>