<?xml version="1.0" encoding="UTF-8" standalone="no"?>
<svg width="130px" height="60px" viewBox="0 0 130 60" version="1.1" xmlns="http://www.w3.org/2000/svg" xmlns:xlink="http://www.w3.org/1999/xlink">
    <!-- Generator: Sketch 46.2 (44496) - http://www.bohemiancoding.com/sketch -->
    <title>Artboard</title>
    <desc>Created with Sketch.</desc>
    <defs></defs>
    <g id="Page-1" stroke="none" stroke-width="1" fill="none" fill-rule="evenodd">
        <g id="Artboard" fill-rule="nonzero" fill="#FFFFFF">
            <path d="M38,58 L38,2 L94,2 L94,58 L38,58 Z M62.8332401,19.7959001 L68.6670144,19.7959001 L68.6670144,13.2512777 L49.2007173,13.2512777 L49.2007173,19.7959001 L55.045663,19.7959001 L55.045663,29.1462843 L62.8332401,29.1462843 L62.8332401,19.7959001 Z M72.7074999,19.7876465 L63.8468893,29.1462623 L73.2019772,38.5066418 L83.2614455,38.5066418 L73.4077645,29.1462623 L82.7775516,19.7876465 L72.7074999,19.7876465 Z M49.3271118,34.3732904 C49.2718432,34.3732904 49.2001117,34.4320868 49.2001117,34.5061703 L49.2001117,39.6814254 L50.9892848,39.6814254 C51.4267297,39.6814254 51.7930309,39.623217 52.0887766,39.5062123 C52.3845222,39.3897954 52.6191197,39.2251657 52.7931569,39.0140868 C52.9671941,38.8030078 53.0912545,38.5519474 53.1659258,38.2609054 C53.2405971,37.9704515 53.2782269,37.6488354 53.2782269,37.2960573 L53.2782269,36.7516031 C53.2782269,36.4082323 53.242949,36.0919079 53.1735694,35.800866 C53.1036016,35.510412 52.9824812,35.2593516 52.808444,35.0482727 C52.6344068,34.8366057 52.4003973,34.671388 52.1075915,34.5520315 C51.8141977,34.4326748 51.4437806,34.3744664 50.9969283,34.3744664 C50.9969283,34.3744664 49.3670933,34.3732904 49.3271118,34.3732904 Z M50.1320339,38.9059015 L50.1320339,35.1482264 L50.922257,35.1482264 C51.1603823,35.1482264 51.3667574,35.1746848 51.5407946,35.2270136 C51.7148318,35.2787543 51.8600588,35.3687127 51.9770635,35.495125 C52.0934804,35.6221251 52.1804989,35.7920465 52.2381194,36.0060652 C52.2951518,36.2194961 52.3233741,36.4858435 52.3233741,36.8033439 L52.3233741,37.2437285 C52.3233741,37.5618168 52.2939759,37.8275763 52.2340036,38.041007 C52.1746193,38.2550259 52.0864247,38.4249473 51.9694201,38.5519474 C51.8524152,38.6789475 51.7060123,38.7694939 51.5296233,38.8241745 C51.3532342,38.8788552 51.148035,38.9059015 50.9146134,38.9059015 L50.1320339,38.9059015 Z M54.3289236,35.8790593 L54.3289236,39.6814195 L55.2385032,39.6814195 L55.2385032,35.7520592 L54.3289236,35.8790593 Z M54.7840074,34.2615716 C54.5899795,34.2615716 54.4494562,34.3050809 54.3624375,34.3920994 C54.275419,34.4791181 54.2324976,34.6020024 54.2324976,34.7607526 C54.2324976,34.9200907 54.275419,35.0429752 54.3624375,35.1299937 C54.4494562,35.2170123 54.5899795,35.2605216 54.7840074,35.2605216 C54.9774474,35.2605216 55.1179707,35.2170123 55.2049893,35.1299937 C55.2920079,35.0429752 55.3355172,34.9200907 55.3355172,34.7607526 C55.3355172,34.6020024 55.2920079,34.4791181 55.2049893,34.3920994 C55.1179707,34.3050809 54.9774474,34.2615716 54.7840074,34.2615716 Z M59.2195985,36.1177784 C58.9414917,35.8543707 58.5463802,35.7226669 58.034264,35.7226669 C57.7261711,35.7226669 57.4615875,35.7673521 57.2405132,35.8567226 C57.019439,35.946093 56.8365823,36.0730931 56.6925312,36.2371349 C56.5484801,36.4011768 56.4426467,36.5975566 56.3756189,36.8262744 C56.3085911,37.0544043 56.275077,37.3084045 56.275077,37.5865113 L56.275077,37.8993078 C56.275077,38.2079888 56.3056512,38.4772761 56.3679753,38.7083457 C56.4302995,38.9400033 56.5343691,39.1346193 56.6813598,39.2939575 C56.8277628,39.4527076 57.019439,39.5720641 57.2552124,39.6514393 C57.4915736,39.7314023 57.7832036,39.7707958 58.131278,39.7707958 C58.2406392,39.7707958 58.3523522,39.7672681 58.4670052,39.7596245 C58.5810701,39.752569 58.6927832,39.7408098 58.8021444,39.7261106 C58.9115056,39.7114115 59.0120474,39.6937727 59.1043577,39.6737819 C59.19608,39.6543791 59.276631,39.6320365 59.3465986,39.6067541 L59.4659553,38.9582302 C59.2566402,38.9982118 59.0731956,39.025258 58.9144455,39.0405451 C58.7551073,39.0552443 58.5934173,39.0628878 58.4293756,39.0628878 C58.0618983,39.0628878 57.7855555,39.0205544 57.6021108,38.9358876 C57.4180782,38.8512208 57.2940179,38.7001143 57.2293419,38.4813919 L59.5700248,37.444812 C59.61471,37.4248213 59.6370527,37.3901315 59.6370527,37.3407426 L59.6370527,37.236085 C59.6370527,36.7539549 59.4982932,36.381186 59.2195985,36.1177784 Z M57.3598698,36.6581169 C57.4915736,36.4817278 57.7091201,36.3935332 58.0119214,36.3935332 C58.2653336,36.3935332 58.4517181,36.4523295 58.5710747,36.5687464 C58.6839637,36.6792835 58.7539313,36.8380337 58.7821536,37.0444089 L57.1623141,37.7652522 L57.1623141,37.526539 C57.1623141,37.124372 57.227578,36.8345059 57.3598698,36.6581169 Z M53.3293915,41.4917298 L49.1989475,41.4917298 L49.1019336,42.2596102 L50.7499954,42.2596102 L50.7499954,46.8004527 L51.6819176,46.8004527 L51.6819176,42.2596102 L53.2253219,42.2596102 L53.3293915,41.4917298 Z M59.9645484,46.7328428 L60.0762614,46.0772635 C59.9569048,46.1019579 59.8293168,46.1231246 59.6923213,46.1401755 C59.5559137,46.1578145 59.4177422,46.1666339 59.2783949,46.1666339 C58.8762278,46.1666339 58.5893016,46.0784394 58.4176163,45.9020503 C58.2459309,45.7250733 58.1600883,45.423448 58.1600883,44.9959985 L58.1600883,44.6826139 C58.1600883,44.2757432 58.2400512,43.987053 58.3988014,43.8177196 C58.5581395,43.6489741 58.8338945,43.5643072 59.2266541,43.5643072 C59.3707052,43.5643072 59.502409,43.5743026 59.6217656,43.5942934 C59.7411221,43.6142841 59.8504834,43.6389787 59.9498492,43.6689648 L60.099192,43.0127975 C59.954553,42.9681122 59.7969787,42.9304825 59.6252934,42.9010844 C59.454196,42.8710983 59.2713393,42.8563991 59.0773113,42.8563991 C58.7539313,42.8563991 58.4770005,42.8987325 58.2459309,42.9828113 C58.0148612,43.067478 57.824949,43.1891866 57.6761942,43.3479366 C57.5268515,43.5072748 57.4163143,43.6989508 57.3439948,43.9223771 C57.2716753,44.1458033 57.2358095,44.3945118 57.2358095,44.6679149 L57.2358095,45.0483273 C57.2358095,45.3211424 57.2646197,45.5698509 57.3216522,45.793865 C57.3786847,46.0172912 57.4745227,46.2101432 57.6085784,46.3718332 C57.7426341,46.5329352 57.921963,46.6569955 58.1453891,46.7446021 C58.3694032,46.8310327 58.6498619,46.874542 58.9879408,46.874542 C59.1619781,46.874542 59.3271959,46.8633707 59.4835941,46.8410281 C59.6399924,46.8186854 59.8005065,46.7828197 59.9645484,46.7328428 Z M61.0158388,46.800488 L61.9254185,46.800488 L61.9254185,44.5409441 C61.9254185,44.2034531 61.9936223,43.9570963 62.1306178,43.8030499 C62.2670254,43.6490034 62.481632,43.5719802 62.7750259,43.5719802 C63.0437252,43.5719802 63.2348133,43.6378321 63.3494663,43.7695359 C63.4635311,43.9012397 63.5205636,44.12349 63.5205636,44.4368746 L63.5205636,46.800488 L64.4301432,46.800488 L64.4301432,44.1905178 C64.4301432,43.962388 64.3954534,43.7636564 64.3260736,43.5943228 C64.256106,43.4255773 64.15968,43.285054 64.0350318,43.1733409 C63.9109714,43.0610399 63.7633926,42.978137 63.5917071,42.9234564 C63.4200218,42.8687757 63.2301096,42.8411415 63.0213826,42.8411415 C62.7926647,42.8411415 62.5839377,42.8775952 62.3952014,42.9493268 C62.2058771,43.0216463 62.0494789,43.1268918 61.9254185,43.2662392 L61.9254185,41.2013112 L61.0158388,41.3277233 L61.0158388,46.800488 Z M65.6007669,46.800488 L66.5103465,46.800488 L66.5103465,44.5409441 C66.5103465,44.2034531 66.5785502,43.9570963 66.7155458,43.8030499 C66.8519533,43.6490034 67.067148,43.5719802 67.3599538,43.5719802 C67.6286532,43.5719802 67.8197413,43.6378321 67.9343942,43.7695359 C68.0484592,43.9012397 68.1054916,44.12349 68.1054916,44.4368746 L68.1054916,46.800488 L69.0150712,46.800488 L69.0150712,44.1905178 C69.0150712,43.962388 68.9803813,43.7636564 68.9110016,43.5943228 C68.841034,43.4255773 68.7446079,43.285054 68.6199597,43.1733409 C68.4958994,43.0610399 68.3483205,42.978137 68.1766352,42.9234564 C68.0049499,42.8687757 67.8150376,42.8411415 67.6063105,42.8411415 C67.3528982,42.8411415 67.1277082,42.8846508 66.9313284,42.9716694 C66.7349486,43.058688 66.5750224,43.1839242 66.4509622,43.3479661 L66.3833463,42.8711276 L65.6007669,42.9828407 L65.6007669,46.800488 Z M70.1857243,42.9981042 L70.1857243,46.8004645 L71.0953038,46.8004645 L71.0953038,42.8711041 L70.1857243,42.9981042 Z M70.640808,41.3800286 C70.4467801,41.3800286 70.3062568,41.4235379 70.2192382,41.5105565 C70.1322196,41.5975751 70.0887103,41.7204594 70.0887103,41.8797976 C70.0887103,42.0385477 70.1322196,42.1620201 70.2192382,42.2484507 C70.3062568,42.3354694 70.4467801,42.3789787 70.640808,42.3789787 C70.834248,42.3789787 70.9747713,42.3354694 71.0617899,42.2484507 C71.1488085,42.1620201 71.1923178,42.0385477 71.1923178,41.8797976 C71.1923178,41.7204594 71.1488085,41.5975751 71.0617899,41.5105565 C70.9747713,41.4235379 70.834248,41.3800286 70.640808,41.3800286 Z M73.1902121,45.0218806 L74.7112737,46.8004703 L75.7772517,46.8004703 L73.8987081,44.6567552 L75.7102238,42.9304943 L74.6812877,42.9304943 L73.1902121,44.3510142 L73.1902121,41.2012935 L72.3176741,41.3277057 L72.3176741,46.8004703 L73.1902121,46.8004703 L73.1902121,45.0218806 Z M82.762848,43.7207114 L82.9268899,42.9604746 C82.8422232,42.9304885 82.7616721,42.9099097 82.6846489,42.8969745 C82.6070377,42.8846273 82.5194312,42.8787476 82.4200653,42.8787476 C82.1613614,42.8787476 81.9402871,42.922257 81.7562545,43.0086876 C81.5722219,43.0962942 81.4181754,43.2238822 81.2941151,43.3932157 L81.2270872,42.8711041 L80.4445078,42.9828171 L80.4445078,46.8004645 L81.3534995,46.8004645 L81.3534995,44.6979068 C81.3534995,44.3451287 81.4269949,44.082897 81.5733978,43.9112116 C81.7203888,43.7395263 81.957338,43.6542716 82.2854217,43.6542716 C82.3747921,43.6542716 82.4618107,43.6613271 82.5464774,43.6760262 C82.6311442,43.6913133 82.7028758,43.7060123 82.762848,43.7207114 Z M56.0357877,43.2368233 C55.7576809,42.9734157 55.3625694,42.8417118 54.8504531,42.8417118 C54.5417723,42.8417118 54.2777767,42.8863971 54.0561145,42.9751796 C53.83504,43.065138 53.6521835,43.1915501 53.5081324,43.3555919 C53.3640813,43.5196338 53.2582478,43.7160136 53.191808,43.9447314 C53.1241921,44.1734492 53.0906782,44.4268616 53.0906782,44.7049682 L53.0906782,45.0183528 C53.0906782,45.3264458 53.1218403,45.5963211 53.1841645,45.8273908 C53.2459007,46.0584603 53.3505581,46.2536643 53.4969611,46.4124145 C53.643952,46.5717526 53.83504,46.6911091 54.0714014,46.7704843 C54.3071749,46.8498593 54.5993928,46.8898409 54.9474672,46.8898409 C55.0568283,46.8898409 55.1685414,46.8857251 55.2826063,46.8780816 C55.3972593,46.8710259 55.5089723,46.8598547 55.6183335,46.8451556 C55.7276948,46.8298685 55.8282365,46.8128176 55.9199588,46.7928268 C56.0122691,46.7728361 56.0928201,46.7504935 56.1627878,46.725799 L56.2821444,46.0772752 C56.0728294,46.1166688 55.8893847,46.1437152 55.7300467,46.1590021 C55.5707085,46.1742892 55.4096065,46.1813448 55.2455646,46.1813448 C54.8774994,46.1813448 54.6017445,46.1390114 54.417712,46.0543447 C54.2342674,45.9702658 54.109619,45.8185713 54.0449431,45.5998489 L56.3862139,44.5638571 C56.4308991,44.5438663 56.4532419,44.5085885 56.4532419,44.4591996 L56.4532419,44.35513 C56.4532419,43.8729999 56.3138945,43.500231 56.0357877,43.2368233 Z M79.1321804,43.2368233 C78.8540738,42.9734157 78.4589622,42.8417118 77.946846,42.8417118 C77.6381652,42.8417118 77.3735815,42.8863971 77.1525072,42.9751796 C76.9314329,43.065138 76.7485762,43.1915501 76.6045252,43.3555919 C76.4604742,43.5196338 76.3546407,43.7160136 76.2876128,43.9447314 C76.220585,44.1734492 76.1870711,44.4268616 76.1870711,44.7049682 L76.1870711,45.0183528 C76.1870711,45.3264458 76.2182331,45.5963211 76.2805573,45.8273908 C76.3422934,46.0584603 76.446951,46.2536643 76.5933539,46.4124145 C76.7403447,46.5717526 76.9314329,46.6911091 77.1677943,46.7704843 C77.4035677,46.8498593 77.6957856,46.8898409 78.04386,46.8898409 C78.1526332,46.8898409 78.2649343,46.8857251 78.3789992,46.8780816 C78.4936521,46.8710259 78.6053652,46.8598547 78.7147264,46.8451556 C78.8234996,46.8298685 78.9246294,46.8128176 79.0163517,46.7928268 C79.1086619,46.7728361 79.1892129,46.7504935 79.2591807,46.725799 L79.3779493,46.0772752 C79.1692222,46.1166688 78.9857776,46.1437152 78.8264394,46.1590021 C78.6671014,46.1742892 78.5059993,46.1813448 78.3419575,46.1813448 C77.9738923,46.1813448 77.6981374,46.1390114 77.5141048,46.0543447 C77.3306602,45.9702658 77.2060119,45.8185713 77.141336,45.5998489 L79.4826068,44.5638571 C79.527292,44.5438663 79.5496346,44.5085885 79.5496346,44.4591996 L79.5496346,44.35513 C79.5496346,43.8729999 79.4102872,43.500231 79.1321804,43.2368233 Z M54.175471,43.7771618 C54.3071749,43.6007728 54.5247213,43.5125783 54.8281105,43.5125783 C55.0815228,43.5125783 55.2679073,43.5707865 55.3872639,43.6877914 C55.5001529,43.7983284 55.5701205,43.9570787 55.5983427,44.1628659 L53.9779152,44.8842971 L53.9779152,44.645584 C53.9779152,44.242829 54.0437672,43.9535509 54.175471,43.7771618 Z M77.2718639,43.7771618 C77.4035677,43.6007728 77.6211142,43.5125783 77.9245033,43.5125783 C78.1779157,43.5125783 78.3643,43.5707865 78.4836567,43.6877914 C78.5965457,43.7983284 78.6665134,43.9570787 78.6947356,44.1628659 L77.0743081,44.8842971 L77.0743081,44.645584 C77.0743081,44.242829 77.1401601,43.9535509 77.2718639,43.7771618 Z" id="Combined-Shape"></path>
        </g>
    </g>
</svg>