<?xml version="1.0" encoding="UTF-8" standalone="no"?>
<svg width="130px" height="60px" viewBox="0 0 130 60" version="1.1" xmlns="http://www.w3.org/2000/svg" xmlns:xlink="http://www.w3.org/1999/xlink">
    <!-- Generator: Sketch 46.2 (44496) - http://www.bohemiancoding.com/sketch -->
    <title>Artboard</title>
    <desc>Created with Sketch.</desc>
    <defs></defs>
    <g id="Page-1" stroke="none" stroke-width="1" fill="none" fill-rule="evenodd">
        <g id="Artboard" fill-rule="nonzero" fill="#FFFFFF">
            <path d="M64.9992799,2 C80.4061677,2 93,14.5934722 93,30.0265124 C93,45.4329585 80.4061677,58 64.9992799,58 C49.5939525,58 37,45.4329585 37,30.0265124 C37,14.5934719 49.5939525,2 65.000842,2 L64.9992799,2 Z M46.2538336,14.9611236 L56.2977003,41.0151308 L59.9773265,31.4986419 L69.6270164,31.4986419 L73.3064431,41.0151308 L83.4552022,14.6467374 C81.6669556,12.4892868 79.5114449,10.6494264 77.0924032,9.2304832 L70.0479484,28.6326401 L60.1087318,28.6326401 L53.0357999,9.15078537 C50.4340891,10.6494264 48.1468133,12.6206485 46.2538336,14.9611239 L46.2538336,14.9611236 Z M87.5054961,21.5083677 L76.0679163,51.3478254 C83.7463699,47.3260859 89.0294123,39.2801991 89.0294123,30.0265114 C89.0294123,27.0291488 88.5039516,24.1632281 87.5054961,21.5083663 L87.5054961,21.5083677 Z M71.072432,53.2926178 L70.9943344,52.6886739 L64.7896161,36.5985054 L58.5833738,52.6886739 L58.5583423,53.1876892 C60.607799,53.7668013 62.763629,54.0543542 64.9992799,54.0543542 C67.1018441,54.0543542 69.1263883,53.7916298 71.0724352,53.2926178 L71.072432,53.2926178 Z M53.4582108,51.0851042 L42.3097953,22.0338129 C41.4164723,24.5308808 40.9424764,27.213777 40.9424764,30.0265124 C40.9424764,39.0703418 45.9909833,47.0096983 53.4582108,51.0851042 Z M64.9992799,5.97047806 C62.9232295,5.97047806 60.8988046,6.2332012 58.9791914,6.73221384 L65.0790602,23.5592871 L71.1521346,6.75904706 C69.1796567,6.23320087 67.1034459,5.97047806 64.9992799,5.97047806 Z" id="path16"></path>
        </g>
    </g>
</svg>