<?xml version="1.0" encoding="UTF-8" standalone="no"?>
<svg width="130px" height="60px" viewBox="0 0 130 60" version="1.1" xmlns="http://www.w3.org/2000/svg" xmlns:xlink="http://www.w3.org/1999/xlink">
    <!-- Generator: Sketch 46.2 (44496) - http://www.bohemiancoding.com/sketch -->
    <title>Artboard</title>
    <desc>Created with Sketch.</desc>
    <defs></defs>
    <g id="Page-1" stroke="none" stroke-width="1" fill="none" fill-rule="evenodd">
        <g id="Artboard" fill-rule="nonzero" fill="#FFFFFF">
            <path d="M93,29.9999999 C93,45.4629596 80.4624979,58 64.9994228,58 C49.5361746,58 37,45.4629596 37,29.9999999 C37,14.5361746 49.5361746,2 64.9994228,2 C80.4624979,2 93,14.5361746 93,29.9999999 Z M83.6311135,29.9999999 C83.6311135,19.7099064 75.289401,11.3683093 64.9994806,11.3683093 C54.7093292,11.3683093 46.3676167,19.7098486 46.3676167,29.9999999 C46.3676167,40.2896897 54.7093292,48.6309403 64.9994806,48.6309403 C75.289401,48.6309403 83.6311135,40.2896319 83.6311135,29.9999999 Z M65.7612758,10.5809459 L67.696613,5.45142466 L67.696613,10.5809459 L69.1667007,10.5809459 L69.1667007,3.23443262 L66.9573849,3.23443262 L64.9482287,8.4942768 L64.967275,8.4942768 L62.958061,3.23443262 L60.7487452,3.23443262 L60.7487452,10.5809459 L62.2188327,10.5809459 L62.2188327,5.45142466 L64.1543432,10.5809459 L65.7612758,10.5809459 Z M85.9332368,13.6661039 L84.7856671,12.2890548 L80.7304739,14.0977051 L83.3514211,10.567902 L82.2814218,9.28464154 L78.0951553,14.8272947 L79.3626593,16.3366293 L83.3670045,14.6225757 L83.3811449,14.6409871 L80.9743823,18.2690809 L82.2288424,19.788458 L88.4364432,16.6710943 L87.3674827,15.3873722 L83.422816,17.3281348 L85.9332368,13.6661039 Z M51.7251744,12.6109954 C51.1347383,12.0366621 50.2205725,11.8633983 49.3636611,12.3949639 C49.5266515,11.9699423 49.4600471,11.5373022 49.373242,11.2985883 C49.002993,10.6243483 48.8744592,10.5403714 48.5696603,10.2845158 C47.5829452,9.45727047 46.5461905,10.1636005 45.8058079,11.0481579 L42.2193852,15.3200751 L47.8555385,20.0485269 L51.6358874,15.5432634 C52.4989168,14.5136653 52.6333377,13.4936481 51.7251744,12.6109954 Z M44.4346458,14.6713457 L46.5878615,12.1056906 C46.8367334,11.8081639 47.400851,11.8200534 47.7638854,12.1241021 C48.1626461,12.4592019 48.1638581,12.9334554 47.8947855,13.2518753 L45.7666186,15.7890187 L44.4346458,14.6713457 Z M50.3766369,15.0980411 L48.1317102,17.7732993 L46.723552,16.59185 L48.9864285,13.8952947 C49.2422841,13.5911884 49.8112497,13.5024787 50.1957546,13.8251119 C50.6313382,14.1898778 50.6742213,14.7427984 50.3766369,15.0980411 Z" id="Combined-Shape"></path>
            <path d="M47.440678,30.4745763 L65.4745763,30.4745763 L65.4745763,12.440678 C55.5142181,12.440678 47.440678,20.514304 47.440678,30.4745763 Z" id="Shape"></path>
            <path d="M64.5254237,29.5254237 L64.5254237,47.559322 C74.4856631,47.559322 82.559322,39.4843171 82.559322,29.5254237 L64.5254237,29.5254237 Z" id="Shape"></path>
        </g>
    </g>
</svg>