<?xml version="1.0" encoding="UTF-8" standalone="no"?>
<svg width="130px" height="60px" viewBox="0 0 130 60" version="1.1" xmlns="http://www.w3.org/2000/svg" xmlns:xlink="http://www.w3.org/1999/xlink">
    <!-- Generator: Sketch 46.2 (44496) - http://www.bohemiancoding.com/sketch -->
    <title>Artboard</title>
    <desc>Created with Sketch.</desc>
    <defs></defs>
    <g id="Page-1" stroke="none" stroke-width="1" fill="none" fill-rule="evenodd">
        <g id="Artboard" fill-rule="nonzero" fill="#FFFFFF">
            <path d="M38.0000001,2 L38,2 L94,2 L94,58 L38.0000001,58 L38.0000001,2 Z M80.7861632,41.7644394 L78.2132725,32.8856171 L78.1497424,32.5050963 L78.0544538,31.9977352 L78.0226888,31.5220839 L78.0226888,31.3318232 L73.9251279,31.3318232 C73.0960873,33.2629672 71.4104772,35.1423179 70.1769694,36.8493772 C68.8630011,38.6114003 67.5188491,40.3512268 66.1747035,42.08154 C65.9385933,41.3289545 65.7506513,40.5520575 65.5076571,39.7984147 C67.6903752,37.1617216 70.0430317,33.6138924 72.4957462,31.3318232 L68.3028966,31.3318232 C68.1996634,32.6932427 67.005865,33.6154773 66.2699923,34.6613819 C65.6204223,35.5228386 64.9120851,36.3753115 64.2688593,37.2298979 C63.9618079,36.2722536 63.7399862,35.2797285 63.4429941,34.312571 C63.1936494,33.2550395 62.7553023,32.4522463 62.8077127,31.3318232 L57.7889965,31.3318232 C59.2654948,34.059947 60.1982986,38.5347682 61.0289286,40.6228768 L59.5677825,42.4620613 L59.5677825,42.4303509 L59.5360188,42.3352209 L59.4724906,42.1766706 L59.4089625,41.98641 L59.3454344,41.732729 L59.2501418,41.4790488 L59.0595582,40.7814271 L58.9325018,40.4009057 C58.5645687,39.2419026 58.2199282,38.0739148 57.8525247,36.9127974 C57.268066,34.77131 56.6089621,33.6022648 56.518435,31.3318232 L52.2302896,31.3318232 C50.7400267,34.763911 47.6922668,37.9317476 45.496313,41.0033975 C43.9112874,43.1179312 42.3093211,45.2107966 40.6681794,47.2819929 C40.092191,48.0277086 39.5156736,48.7718383 38.9211571,49.5016987 C38.6913973,49.720498 38.5394593,50.0027176 38.3176401,50.2310303 L38.2541119,50.3261609 L38.1270556,50.4530007 L38.1270556,50.4847111 L38.0952919,50.4847111 L38,50.5798411 L38,52.1653453 L40.477595,52.1653453 C41.2907541,50.6110228 42.5523159,49.1867119 43.6222346,47.7893547 C44.3348081,46.7862587 45.1310267,45.8434125 45.8457175,44.8403173 L46.09983,44.5549267 L46.3221782,44.2378255 L46.5127626,43.9841447 L46.6715827,43.7621742 L46.798639,43.5719141 L46.9892227,43.3816535 L46.9892227,43.3499431 L55.3114016,43.3499431 L56.2960868,46.7112116 C54.8619398,48.5641373 53.4521463,50.5877689 51.7220651,52.1653453 L55.6290416,52.1653453 C56.2844394,50.7584748 56.6311969,50.500566 57.5031202,49.3114381 C57.9351112,50.458286 58.026697,51.0026423 58.2336928,52.1653453 L62.1724313,52.1653453 C62.6748355,51.0359377 63.2725286,50.334088 64.1100405,49.4382785 C64.4229152,50.455115 64.6373259,51.1014723 64.7453219,52.1653453 L69.7958019,52.1653453 C68.8592925,50.4968668 68.8524086,50.4001506 68.3028966,48.6455267 C68.0498369,47.8998108 67.8243128,47.118686 67.5723201,46.3624006 L67.4452663,45.9818799 L67.3499712,45.6647789 L67.2546825,45.4110986 L67.2229175,45.2525477 L67.1911524,45.220838 L68.5252391,43.3499431 L76.9109511,43.3499431 L76.9109511,43.3816535 L76.9427097,43.4767835 L77.0062398,43.6353338 L77.0697698,43.8890147 L77.1650586,44.1426956 L77.2603537,44.4597959 L77.3556423,44.8403173 C77.7172251,45.8460549 77.9660426,46.8613059 78.3085677,47.8527742 C78.7034967,49.2770858 79.2980144,50.6601737 79.2932516,52.1653453 L84.5660803,52.1653453 C83.7878626,51.2071724 83.1192286,48.7866365 82.692001,47.599094 C82.0339596,45.6690067 81.472261,43.672329 80.7861632,41.7644394 Z M74.5604093,35.3272933 L74.5604093,35.3272933 L74.6239392,35.263873 L74.6239392,35.2955835 L74.6557042,35.3590036 L74.6557042,36.1834653 L74.750993,36.8176668 L74.814523,37.0713477 L74.9098117,37.3884488 L75.0368719,37.7689695 L75.1639256,38.2129104 C75.4471563,39.1039639 75.7499719,40.0214419 76.0215559,40.9082675 L70.4310833,40.9082675 C71.7932325,39.1610419 73.492077,37.2378257 74.5604093,35.3272933 Z M53.0879186,35.3272933 L53.0879186,35.3272933 L53.1196823,35.263873 L53.1514467,35.2955835 L53.1514467,35.6443944 L53.1832104,36.1834653 L53.278503,36.8176668 L53.3420311,37.0713477 L53.4373229,37.3884488 L53.5643792,37.7689695 L53.6914355,38.2129104 C53.9677824,39.0886372 54.2510118,40.0468101 54.5490645,40.9082675 L48.9585932,40.9082675 L48.9585932,40.8765571 L49.0538857,40.7814271 L49.1491775,40.6545866 L49.3079976,40.4960364 L49.4668184,40.2740659 L49.6574021,40.020385 C50.0713933,39.4755 50.5261488,38.9565119 50.9279637,38.403171 C51.6749484,37.4793509 52.5082246,36.3647413 53.0879186,35.3272933 Z M61.5053893,48.360136 L60.5524678,45.3793882 L62.0453775,43.4450737 C62.3450178,44.3852775 62.6563049,45.3217815 63.0300616,46.2355602 L61.5053893,48.360136 Z M72.718095,29.651189 L94,2 L90.8553644,2 L69.4781643,29.651189 L72.718095,29.651189 Z" id="Combined-Shape"></path>
        </g>
    </g>
</svg>