<?xml version="1.0" encoding="UTF-8"?>
<svg width="200px" height="53px" viewBox="0 0 200 53" version="1.1" xmlns="http://www.w3.org/2000/svg" xmlns:xlink="http://www.w3.org/1999/xlink">
    <!-- Generator: Sketch 46.2 (44496) - http://www.bohemiancoding.com/sketch -->
    <title>Artboard</title>
    <desc>Created with Sketch.</desc>
    <defs></defs>
    <g id="Page-1" stroke="none" stroke-width="1" fill="none" fill-rule="evenodd">
        <g id="Artboard" fill-rule="nonzero" fill="#FFFFFF">
            <polygon id="path2651" transform="translate(11.561299, 20.715674) scale(-1, 1) rotate(-180.000000) translate(-11.561299, -20.715674) " points="3.15463192 29.9158991 7.86547359 29.9158991 11.5972373 20.0823813 15.5524017 29.9158991 20.3098661 29.9158991 23.091691 11.5154486 18.3089725 11.5154486 16.9666255 22.1065863 16.9180601 22.1065863 12.5005533 11.5154486 10.5987331 11.5154486 6.37548779 22.1065863 6.32692241 22.1065863 4.79031386 11.5154486 0.030906793 11.5154486"></polygon>
            <polygon id="path2655" transform="translate(30.351624, 20.715294) scale(-1, 1) rotate(-180.000000) translate(-30.351624, -20.715294) " points="29.8999665 25.8641955 29.8999665 22.7890357 35.2926661 22.7890357 35.2926661 18.7386831 29.8999665 18.7386831 29.8999665 15.5663926 35.5860009 15.5663926 35.5860009 11.5160401 25.117248 11.5160401 25.117248 29.9145481 35.5860009 29.9145481 35.5860009 25.8641955"></polygon>
            <path d="M43.3216964,15.5665798 L44.3959626,15.5665798 C47.2496642,15.5665798 49.6915314,17.1284424 49.6915314,20.7164526 C49.6915314,24.0091852 47.5196877,25.8643827 44.4445279,25.8643827 L43.3216964,25.8643827 L43.3216964,15.5665798 Z M38.5389779,29.9147352 L45.32259,29.9147352 C50.4472087,29.9147352 54.6685113,25.8896366 54.6685113,20.7164526 C54.6685113,15.5413258 50.4238973,11.5162273 45.32259,11.5162273 L38.5389779,11.5162273 L38.5389779,29.9147352 Z" id="path2667" transform="translate(46.603745, 20.715481) scale(-1, 1) rotate(-180.000000) translate(-46.603745, -20.715481) "></path>
            <polygon id="path2669" points="61.6722138 29.9147342 56.8894954 29.9147342 56.8894954 11.5142837 61.6722138 11.5142837"></polygon>
            <path d="M72.824379,24.2294765 L72.7758133,24.2294765 L70.7982313,18.3724919 L74.7767072,18.3724919 L72.824379,24.2294765 Z M69.4811385,14.712605 L68.2126108,11.5150605 L63.1365574,11.5150605 L70.2135041,29.915511 L75.4352533,29.915511 L82.3665041,11.5150605 L77.2671395,11.5150605 L76.0704887,14.712605 L69.4811385,14.712605 Z" id="path2673" transform="translate(72.751531, 20.715286) scale(-1, 1) rotate(-180.000000) translate(-72.751531, -20.715286) "></path>
            <polygon id="path2675" points="94.0556082 23.9120535 87.0757918 23.9120535 87.0757918 20.2521666 94.0556082 20.2521666"></polygon>
            <path d="M110.501788,25.181746 C109.623726,25.9141119 108.500894,26.4017083 107.329497,26.4017083 C106.451435,26.4017083 105.280038,25.8888579 105.280038,24.8650997 C105.280038,23.7908335 106.57382,23.3751139 107.403316,23.107033 L108.623279,22.7418214 C111.185588,21.9842015 113.16317,20.6923624 113.16317,17.7143335 C113.16317,15.88439 112.722197,14.0058812 111.259408,12.7606649 C109.81993,11.5407026 107.890913,11.0278522 106.035715,11.0278522 C103.718176,11.0278522 101.449202,11.8087835 99.5687497,13.1258765 L101.620151,16.9819676 C102.814859,15.9329554 104.231026,15.0782047 105.864766,15.0782047 C106.987597,15.0782047 108.184248,15.6396205 108.184248,16.9334022 C108.184248,18.2757493 106.303796,18.7400342 105.280038,19.0314265 C102.278698,19.8861772 100.301116,20.6671085 100.301116,24.2298646 C100.301116,27.9635709 102.960556,30.4034954 106.647639,30.4034954 C108.500894,30.4034954 110.769869,29.8187683 112.405551,28.8901982 L110.501788,25.181746 Z" id="path2679" transform="translate(106.365960, 20.715674) scale(-1, 1) rotate(-180.000000) translate(-106.365960, -20.715674) "></path>
            <path d="M123.460383,24.2294765 L123.411817,24.2294765 L121.434235,18.3724919 L125.412711,18.3724919 L123.460383,24.2294765 Z M120.117142,14.712605 L118.848614,11.5150605 L113.772561,11.5150605 L120.849508,29.915511 L126.071257,29.915511 L133.002508,11.5150605 L127.901201,11.5150605 L126.706493,14.712605 L120.117142,14.712605 Z" id="path2683" transform="translate(123.387535, 20.715286) scale(-1, 1) rotate(-180.000000) translate(-123.387535, -20.715286) "></path>
            <polygon id="path2687" transform="translate(137.960062, 20.715286) scale(-1, 1) rotate(-180.000000) translate(-137.960062, -20.715286) " points="140.351422 11.5150605 135.568703 11.5150605 135.568703 25.8632159 131.615481 25.8632159 131.615481 29.915511 144.304643 29.915511 144.304643 25.8632159 140.351422 25.8632159"></polygon>
            <path d="M161.99663,30.4034965 L161.99663,20.0571283 C161.99663,17.6890805 161.899499,15.3462866 160.069555,13.5649086 C158.531004,12.0516114 156.116334,11.5154496 153.967801,11.5154496 C151.821212,11.5154496 149.404598,12.0516114 147.86799,13.5649086 C146.036104,15.3462866 145.938973,17.6890805 145.938973,20.0571283 L145.938973,30.4034965 L150.721691,30.4034965 L150.721691,20.7156748 C150.721691,18.3243156 150.894584,15.7134409 153.967801,15.7134409 C157.042961,15.7134409 157.213911,18.3243156 157.213911,20.7156748 L157.213911,30.4034965 L161.99663,30.4034965 Z" id="path2691" transform="translate(153.967802, 20.959473) scale(-1, 1) rotate(-180.000000) translate(-153.967802, -20.959473) "></path>
            <path d="M169.806129,21.6675553 L170.268471,21.6675553 C171.830334,21.6675553 173.588401,21.9608902 173.588401,23.9617837 C173.588401,25.9626773 171.830334,26.2560122 170.268471,26.2560122 L169.806129,26.2560122 L169.806129,21.6675553 Z M180.323447,11.5154486 L174.369332,11.5154486 L169.854694,18.5923955 L169.806129,18.5923955 L169.806129,11.5154486 L165.021468,11.5154486 L165.021468,29.9158991 L172.172234,29.9158991 C175.80881,29.9158991 178.565381,28.1830864 178.565381,24.2551186 C178.565381,21.7161207 177.151157,19.5209655 174.540282,19.0566805 L180.323447,11.5154486 Z" id="path2695" transform="translate(172.672458, 20.715674) scale(-1, 1) rotate(-180.000000) translate(-172.672458, -20.715674) "></path>
            <polygon id="path2699" transform="translate(190.804454, 20.715674) scale(-1, 1) rotate(-180.000000) translate(-190.804454, -20.715674) " points="181.616856 29.9158991 186.399574 29.9158991 195.160769 18.6662149 195.209334 18.6662149 195.209334 29.9158991 199.992052 29.9158991 199.992052 11.5154486 195.209334 11.5154486 186.448139 22.7903868 186.399574 22.7903868 186.399574 11.5154486 181.616856 11.5154486"></polygon>
            <polygon id="path2701" points="199.992052 41.7413751 1.14420431e-05 41.7413751 1.14420431e-05 34.4468553 199.992052 34.4468553"></polygon>
        </g>
    </g>
</svg>