<?xml version="1.0" encoding="UTF-8"?>
<svg width="100px" height="30px" viewBox="0 0 100 30" version="1.1" xmlns="http://www.w3.org/2000/svg" xmlns:xlink="http://www.w3.org/1999/xlink">
    <!-- Generator: Sketch 46.2 (44496) - http://www.bohemiancoding.com/sketch -->
    <title>Artboard Copy 2</title>
    <desc>Created with Sketch.</desc>
    <defs></defs>
    <g id="Page-1" stroke="none" stroke-width="1" fill="none" fill-rule="evenodd">
        <g id="Artboard-Copy-2" fill-rule="nonzero" fill="#FFFFFF">
            <polygon id="path2651" transform="translate(5.780649, 11.857837) scale(-1, 1) rotate(-180.000000) translate(-5.780649, -11.857837) " points="1.57731596 16.4579497 3.93273679 16.4579497 5.79861865 11.5411908 7.77620085 16.4579497 10.154933 16.4579497 11.5458455 7.25772445 9.15448625 7.25772445 8.48331275 12.5532933 8.45903005 12.5532933 6.25027665 7.25772445 5.29936655 7.25772445 3.18774389 12.5532933 3.1634612 12.5532933 2.39515693 7.25772445 0.0154533965 7.25772445"></polygon>
            <polygon id="path2655" transform="translate(15.175812, 11.857647) scale(-1, 1) rotate(-180.000000) translate(-15.175812, -11.857647) " points="14.9499833 14.4320977 14.9499833 12.8945178 17.646333 12.8945178 17.646333 10.8693415 14.9499833 10.8693415 14.9499833 9.2831962 17.7930005 9.2831962 17.7930005 7.25801995 12.558624 7.25801995 12.558624 16.457274 17.7930005 16.457274 17.7930005 14.4320977"></polygon>
            <path d="M21.6608482,9.28328965 L22.1979813,9.28328965 C23.6248321,9.28328965 24.8457657,10.064221 24.8457657,11.8582261 C24.8457657,13.5045924 23.7598438,14.4321911 22.2222639,14.4321911 L21.6608482,14.4321911 L21.6608482,9.28328965 Z M19.2694889,16.4573674 L22.661295,16.4573674 C25.2236043,16.4573674 27.3342556,14.4448181 27.3342556,11.8582261 C27.3342556,9.27066265 25.2119487,7.2581134 22.661295,7.2581134 L19.2694889,7.2581134 L19.2694889,16.4573674 Z" id="path2667" transform="translate(23.301872, 11.857740) scale(-1, 1) rotate(-180.000000) translate(-23.301872, -11.857740) "></path>
            <polygon id="path2669" points="30.8361069 16.4573671 28.4447477 16.4573671 28.4447477 7.25714185 30.8361069 7.25714185"></polygon>
            <path d="M36.4121895,13.6147385 L36.3879066,13.6147385 L35.3991156,10.6862462 L37.3883536,10.6862462 L36.4121895,13.6147385 Z M34.7405693,8.85630275 L34.1063054,7.2575305 L31.5682787,7.2575305 L35.106752,16.4577558 L37.7176266,16.4577558 L41.1832521,7.2575305 L38.6335697,7.2575305 L38.0352443,8.85630275 L34.7405693,8.85630275 Z" id="path2673" transform="translate(36.375765, 11.857643) scale(-1, 1) rotate(-180.000000) translate(-36.375765, -11.857643) "></path>
            <polygon id="path2675" points="47.0278041 13.4560268 43.5378959 13.4560268 43.5378959 11.6260833 47.0278041 11.6260833"></polygon>
            <path d="M55.250894,14.0908732 C54.811863,14.4570561 54.250447,14.7008543 53.6647485,14.7008543 C53.2257175,14.7008543 52.640019,14.4444291 52.640019,13.93255 C52.640019,13.3954169 53.28691,13.1875571 53.701658,13.0535167 L54.3116395,12.8709109 C55.592794,12.4921009 56.581585,11.8461814 56.581585,10.3571669 C56.581585,9.4421952 56.3610985,8.5029408 55.629704,7.88033265 C54.909965,7.2703515 53.9454565,7.0139263 53.0178575,7.0139263 C51.859088,7.0139263 50.724601,7.40439195 49.7843748,8.06293845 L50.8100755,9.990984 C51.4074295,9.4664779 52.115513,9.03910255 52.932383,9.03910255 C53.4937985,9.03910255 54.092124,9.31981045 54.092124,9.9667013 C54.092124,10.6378748 53.151898,10.8700173 52.640019,11.0157134 C51.139349,11.4430888 50.150558,11.8335544 50.150558,13.6149325 C50.150558,15.4817856 51.480278,16.7017479 53.3238195,16.7017479 C54.250447,16.7017479 55.3849345,16.4093843 56.2027755,15.9450993 L55.250894,14.0908732 Z" id="path2679" transform="translate(53.182980, 11.857837) scale(-1, 1) rotate(-180.000000) translate(-53.182980, -11.857837) "></path>
            <path d="M61.7301915,13.6147385 L61.7059085,13.6147385 L60.7171175,10.6862462 L62.7063555,10.6862462 L61.7301915,13.6147385 Z M60.058571,8.85630275 L59.424307,7.2575305 L56.8862805,7.2575305 L60.424754,16.4577558 L63.0356285,16.4577558 L66.501254,7.2575305 L63.9506005,7.2575305 L63.3532465,8.85630275 L60.058571,8.85630275 Z" id="path2683" transform="translate(61.693767, 11.857643) scale(-1, 1) rotate(-180.000000) translate(-61.693767, -11.857643) "></path>
            <polygon id="path2687" transform="translate(68.980031, 11.857643) scale(-1, 1) rotate(-180.000000) translate(-68.980031, -11.857643) " points="70.175711 7.2575305 67.7843515 7.2575305 67.7843515 14.4316082 65.8077405 14.4316082 65.8077405 16.4577558 72.1523215 16.4577558 72.1523215 14.4316082 70.175711 14.4316082"></polygon>
            <path d="M80.998315,16.7017482 L80.998315,11.5285641 C80.998315,10.3445402 80.9497495,9.17314325 80.0347775,8.28245425 C79.265502,7.52580565 78.058167,7.25772475 76.9839005,7.25772475 C75.910606,7.25772475 74.702299,7.52580565 73.933995,8.28245425 C73.018052,9.17314325 72.9694865,10.3445402 72.9694865,11.5285641 L72.9694865,16.7017482 L75.3608455,16.7017482 L75.3608455,11.8578374 C75.3608455,10.6621578 75.447292,9.3567204 76.9839005,9.3567204 C78.5214805,9.3567204 78.6069555,10.6621578 78.6069555,11.8578374 L78.6069555,16.7017482 L80.998315,16.7017482 Z" id="path2691" transform="translate(76.983901, 11.979736) scale(-1, 1) rotate(-180.000000) translate(-76.983901, -11.979736) "></path>
            <path d="M84.9030645,12.3337778 L85.1342355,12.3337778 C85.915167,12.3337778 86.7942005,12.4804453 86.7942005,13.480892 C86.7942005,14.4813388 85.915167,14.6280063 85.1342355,14.6280063 L84.9030645,14.6280063 L84.9030645,12.3337778 Z M90.1617235,7.25772445 L87.184666,7.25772445 L84.927347,10.7961979 L84.9030645,10.7961979 L84.9030645,7.25772445 L82.510734,7.25772445 L82.510734,16.4579497 L86.086117,16.4579497 C87.904405,16.4579497 89.2826905,15.5915434 89.2826905,13.6275595 C89.2826905,12.3580605 88.5755785,11.2604829 87.270141,11.0283404 L90.1617235,7.25772445 Z" id="path2695" transform="translate(86.336229, 11.857837) scale(-1, 1) rotate(-180.000000) translate(-86.336229, -11.857837) "></path>
            <polygon id="path2699" transform="translate(95.402227, 11.857837) scale(-1, 1) rotate(-180.000000) translate(-95.402227, -11.857837) " points="90.808428 16.4579497 93.199787 16.4579497 97.5803845 10.8331076 97.604667 10.8331076 97.604667 16.4579497 99.996026 16.4579497 99.996026 7.25772445 97.604667 7.25772445 93.2240695 12.8951936 93.199787 12.8951936 93.199787 7.25772445 90.808428 7.25772445"></polygon>
            <polygon id="path2701" points="99.996026 22.3706876 5.72102155e-06 22.3706876 5.72102155e-06 18.7234277 99.996026 18.7234277"></polygon>
        </g>
    </g>
</svg>