<?xml version="1.0" encoding="UTF-8" standalone="no"?>
<svg width="130px" height="60px" viewBox="0 0 130 60" version="1.1" xmlns="http://www.w3.org/2000/svg" xmlns:xlink="http://www.w3.org/1999/xlink">
    <!-- Generator: Sketch 46.2 (44496) - http://www.bohemiancoding.com/sketch -->
    <title>Artboard</title>
    <desc>Created with Sketch.</desc>
    <defs></defs>
    <g id="Page-1" stroke="none" stroke-width="1" fill="none" fill-rule="evenodd">
        <g id="Artboard" fill-rule="nonzero" fill="#FFFFFF">
            <path d="M89.2843244,37.0433094 L89.2843244,35.9831527 L90.1368081,35.9831527 C90.4430986,35.9831527 91.1643149,35.9831527 91.4917289,35.6580966 C91.7542637,35.4316208 91.9730427,34.8808673 91.9730427,34.3539806 C91.9730427,34.0789929 91.8412724,33.5764918 91.7326373,33.2514356 L88.2349398,21.9759036 L91.7326373,21.9759036 L93.787148,30.7205114 L95.6676413,21.9759036 L98.9337349,21.9759036 L95.3394728,34.8551844 C95.110402,35.6424479 94.7658873,36.8687606 94.2601585,37.6511116 C99.6548077,38.422542 102.5,39.2229101 102.5,39.2229101 L102.402887,39.546207 C99.6470475,38.9329922 96.8067718,38.4497749 93.9180136,38.0784821 C93.3446681,38.6501979 92.5788806,38.9156627 90.1368081,38.9156627 C89.7648837,38.9156627 89.6127443,38.8894611 89.2843244,38.8650753 L89.2843244,37.5793098 C60.3280948,35.0334923 28.5,42.4819277 28.5,42.4819277 L29.0272206,40.9063423 C56.1942046,35.3561595 76.8870988,35.7711815 89.2843244,37.0433094 Z M48.7158993,22.2791876 L48.7158993,24.0461241 C48.8738602,23.6924234 49.0746667,23.2128113 49.6135922,22.7587996 C50.19717,22.2543711 51.0499524,21.9759036 51.881054,21.9759036 C52.3061546,21.9759036 52.732804,22.0527042 53.1581627,22.2039544 C54.4822469,22.7083828 54.8639857,23.7679178 55.0209142,24.2216684 C56.0538546,22.2794489 57.6910214,22.0025487 58.5657428,22.0025487 C59.6420451,22.0025487 60.5851647,22.4069274 61.2133949,23.0372671 C62.3348656,24.1472188 62.3795181,25.3566978 62.3795181,28.3858811 L62.3795181,35.3493976 L59.0827292,35.3493976 L59.0827292,29.1672096 C59.0827292,27.0724339 59.0378188,26.6434999 58.7007324,26.0896995 C58.3419649,25.4839151 57.8252365,25.3564366 57.3312216,25.3564366 C56.4345611,25.3564366 55.9862308,26.0126377 55.9186071,26.1142548 C55.5588072,26.7448558 55.5588072,27.8299909 55.5588072,28.8895259 L55.5588072,35.3488752 L52.2617603,35.3488752 L52.2617603,28.7638758 C52.2617603,27.3509014 52.2617603,26.7200392 51.9246738,26.1390714 C51.6781826,25.7111823 51.1841675,25.3564366 50.5789089,25.3564366 C50.2877652,25.3564366 49.995331,25.4327148 49.7258683,25.5850098 C48.7608097,26.1390714 48.7388707,27.0985566 48.7388707,29.5715884 L48.7388707,35.3491363 L45.439759,35.3491363 L45.439759,22.2791876 L48.7158993,22.2791876 Z M75.0362206,21.9759036 L78.4277108,21.9759036 L75.0362206,35.3493976 L71.9358755,35.3493976 L69.9678484,26.313896 L68.0240184,35.3493976 L64.8807431,35.3493976 L61.4879518,21.9759036 L64.8807431,21.9759036 L66.6674223,30.3410198 L68.4991133,21.9759036 L71.4389252,21.9759036 L73.2495413,30.3410198 L75.0362206,21.9759036 Z M85.1218442,35.0773398 L85.121347,33.6713245 C84.7327383,34.2637208 83.9982855,35.3493976 82.1827896,35.3493976 C79.523941,35.3493976 77.5361446,32.8817182 77.5361446,28.8846395 C77.5361446,23.8514421 80.3033959,21.9759036 82.4207285,21.9759036 C83.6529384,21.9759036 84.6258275,22.6916839 85.1867366,23.9250127 L85.1867366,22.2722295 L88.2349398,22.2722295 L88.2349398,35.0773398 L85.1218442,35.0773398 Z M84.9584944,28.5387557 C84.9584944,26.8859725 84.5691399,26.0227956 84.1589004,25.5532724 C83.8344383,25.1578305 83.3585607,24.9125953 82.883926,24.9125953 C82.2993971,24.9125953 81.6942318,25.28147 81.3056232,25.8498537 C80.7665935,26.6634726 80.6353168,27.6753234 80.6353168,28.6621397 C80.6353168,29.451746 80.7225859,30.2170843 80.9809125,30.8580167 C81.4140259,31.9689834 82.1270965,32.3641697 82.7536439,32.3641697 C82.9485699,32.3641697 83.5748687,32.3138453 84.137021,31.6486449 C84.8073274,30.8094806 84.9584944,29.6992803 84.9584944,28.5387557 Z M35.7182456,17.5180723 L39.7777397,17.5180723 L45.439759,35.3493976 L41.4248357,35.3493976 L40.3870437,31.5608997 L35.2897575,31.5608997 L34.2755171,35.3493976 L30.2831325,35.3493976 L35.7182456,17.5180723 Z M37.7702781,21.4338883 L36.1254612,28.303329 L39.5072756,28.303329 L37.7702781,21.4338883 Z" id="Combined-Shape"></path>
        </g>
    </g>
</svg>