<?xml version="1.0" encoding="UTF-8" standalone="no"?>
<svg width="200px" height="31px" viewBox="0 0 200 31" version="1.1" xmlns="http://www.w3.org/2000/svg" xmlns:xlink="http://www.w3.org/1999/xlink">
    <!-- Generator: Sketch 46.2 (44496) - http://www.bohemiancoding.com/sketch -->
    <title>client_media-saturn</title>
    <desc>Created with Sketch.</desc>
    <defs></defs>
    <g id="Page-1" stroke="none" stroke-width="1" fill="none" fill-rule="evenodd">
        <g id="client_media-saturn" fill-rule="nonzero" fill="#FFFFFF">
            <g id="Page-1">
                <g id="client_media-saturn2">
                    <g id="logo_media-saturn2">
                        <g id="Page-1">
                            <g id="logo_media-saturn">
                                <g id="Page-1">
                                    <g id="Artboard">
                                        <g id="Group">
                                            <polygon id="path2651" transform="translate(11.561299, 9.715674) scale(-1, 1) rotate(-180.000000) translate(-11.561299, -9.715674) " points="3.15463192 18.9158994 7.86547359 18.9158994 11.5972373 9.08238162 15.5524017 18.9158994 20.3098661 18.9158994 23.091691 0.5154489 18.3089725 0.5154489 16.9666255 11.1065866 16.9180601 11.1065866 12.5005533 0.5154489 10.5987331 0.5154489 6.37548779 11.1065866 6.32692241 11.1065866 4.79031386 0.5154489 0.030906793 0.5154489"></polygon>
                                            <polygon id="path2655" transform="translate(30.351624, 9.715294) scale(-1, 1) rotate(-180.000000) translate(-30.351624, -9.715294) " points="29.8999665 14.8641953 29.8999665 11.7890355 35.2926661 11.7890355 35.2926661 7.73868293 29.8999665 7.73868293 29.8999665 4.56639244 35.5860009 4.56639244 35.5860009 0.5160399 25.117248 0.5160399 25.117248 18.9145479 35.5860009 18.9145479 35.5860009 14.8641953"></polygon>
                                            <path d="M43.3216964,4.56657934 L44.3959626,4.56657934 C47.2496642,4.56657934 49.6915314,6.1284419 49.6915314,9.71645206 C49.6915314,13.0091847 47.5196877,14.8643822 44.4445279,14.8643822 L43.3216964,14.8643822 L43.3216964,4.56657934 Z M38.5389779,18.9147347 L45.32259,18.9147347 C50.4472087,18.9147347 54.6685113,14.8896361 54.6685113,9.71645206 C54.6685113,4.54132534 50.4238973,0.5162268 45.32259,0.5162268 L38.5389779,0.5162268 L38.5389779,18.9147347 Z" id="path2667" transform="translate(46.603745, 9.715481) scale(-1, 1) rotate(-180.000000) translate(-46.603745, -9.715481) "></path>
                                            <polygon id="path2669" points="61.6722138 18.9147342 56.8894954 18.9147342 56.8894954 0.514283718 61.6722138 0.514283718"></polygon>
                                            <path d="M72.824379,13.229477 L72.7758133,13.229477 L70.7982313,7.37249239 L74.7767072,7.37249239 L72.824379,13.229477 Z M69.4811385,3.7126055 L68.2126108,0.515061 L63.1365574,0.515061 L70.2135041,18.9155115 L75.4352533,18.9155115 L82.3665041,0.515061 L77.2671395,0.515061 L76.0704887,3.7126055 L69.4811385,3.7126055 Z" id="path2673" transform="translate(72.751531, 9.715286) scale(-1, 1) rotate(-180.000000) translate(-72.751531, -9.715286) "></path>
                                            <polygon id="path2675" points="94.0556082 12.9120535 87.0757918 12.9120535 87.0757918 9.25216656 94.0556082 9.25216656"></polygon>
                                            <path d="M110.501788,14.1817464 C109.623726,14.9141123 108.500894,15.4017087 107.329497,15.4017087 C106.451435,15.4017087 105.280038,14.8888583 105.280038,13.8651001 C105.280038,12.7908339 106.57382,12.3751143 107.403316,12.1070334 L108.623279,11.7418218 C111.185588,10.9842019 113.16317,9.69236284 113.16317,6.71433387 C113.16317,4.88439042 112.722197,3.0058816 111.259408,1.7606653 C109.81993,0.540702993 107.890913,0.0278526 106.035715,0.0278526 C103.718176,0.0278526 101.449202,0.80878388 99.5687497,2.12587694 L101.620151,5.98196797 C102.814859,4.9329558 104.231026,4.07820515 105.864766,4.07820515 C106.987597,4.07820515 108.184248,4.63962092 108.184248,5.93340259 C108.184248,7.27574966 106.303796,7.74003464 105.280038,8.03142695 C102.278698,8.88617761 100.301116,9.66710889 100.301116,13.229865 C100.301116,16.9635713 102.960556,19.4034958 106.647639,19.4034958 C108.500894,19.4034958 110.769869,18.8187687 112.405551,17.8901986 L110.501788,14.1817464 Z" id="path2679" transform="translate(106.365960, 9.715674) scale(-1, 1) rotate(-180.000000) translate(-106.365960, -9.715674) "></path>
                                            <path d="M123.460383,13.229477 L123.411817,13.229477 L121.434235,7.37249239 L125.412711,7.37249239 L123.460383,13.229477 Z M120.117142,3.7126055 L118.848614,0.515061 L113.772561,0.515061 L120.849508,18.9155115 L126.071257,18.9155115 L133.002508,0.515061 L127.901201,0.515061 L126.706493,3.7126055 L120.117142,3.7126055 Z" id="path2683" transform="translate(123.387535, 9.715286) scale(-1, 1) rotate(-180.000000) translate(-123.387535, -9.715286) "></path>
                                            <polygon id="path2687" transform="translate(137.960062, 9.715286) scale(-1, 1) rotate(-180.000000) translate(-137.960062, -9.715286) " points="140.351422 0.515061 135.568703 0.515061 135.568703 14.8632164 131.615481 14.8632164 131.615481 18.9155115 144.304643 18.9155115 144.304643 14.8632164 140.351422 14.8632164"></polygon>
                                            <path d="M161.99663,19.4034964 L161.99663,9.05712821 C161.99663,6.68908036 161.899499,4.34628653 160.069555,2.56490846 C158.531004,1.05161127 156.116334,0.5154495 153.967801,0.5154495 C151.821212,0.5154495 149.404598,1.05161127 147.86799,2.56490846 C146.036104,4.34628653 145.938973,6.68908036 145.938973,9.05712821 L145.938973,19.4034964 L150.721691,19.4034964 L150.721691,9.71567472 C150.721691,7.32431554 150.894584,4.71344079 153.967801,4.71344079 C157.042961,4.71344079 157.213911,7.32431554 157.213911,9.71567472 L157.213911,19.4034964 L161.99663,19.4034964 Z" id="path2691" transform="translate(153.967802, 9.959473) scale(-1, 1) rotate(-180.000000) translate(-153.967802, -9.959473) "></path>
                                            <path d="M169.806129,10.6675556 L170.268471,10.6675556 C171.830334,10.6675556 173.588401,10.9608905 173.588401,12.961784 C173.588401,14.9626776 171.830334,15.2560125 170.268471,15.2560125 L169.806129,15.2560125 L169.806129,10.6675556 Z M180.323447,0.5154489 L174.369332,0.5154489 L169.854694,7.59239582 L169.806129,7.59239582 L169.806129,0.5154489 L165.021468,0.5154489 L165.021468,18.9158994 L172.172234,18.9158994 C175.80881,18.9158994 178.565381,17.1830867 178.565381,13.2551189 C178.565381,10.716121 177.151157,8.52096582 174.540282,8.05668085 L180.323447,0.5154489 Z" id="path2695" transform="translate(172.672458, 9.715674) scale(-1, 1) rotate(-180.000000) translate(-172.672458, -9.715674) "></path>
                                            <polygon id="path2699" transform="translate(190.804454, 9.715674) scale(-1, 1) rotate(-180.000000) translate(-190.804454, -9.715674) " points="181.616856 18.9158994 186.399574 18.9158994 195.160769 7.66621521 195.209334 7.66621521 195.209334 18.9158994 199.992052 18.9158994 199.992052 0.5154489 195.209334 0.5154489 186.448139 11.7903871 186.399574 11.7903871 186.399574 0.5154489 181.616856 0.5154489"></polygon>
                                            <polygon id="path2701" points="199.992052 30.7413751 1.14420431e-05 30.7413751 1.14420431e-05 23.4468553 199.992052 23.4468553"></polygon>
                                        </g>
                                    </g>
                                </g>
                            </g>
                        </g>
                    </g>
                </g>
            </g>
        </g>
    </g>
</svg>