<?xml version="1.0" encoding="UTF-8" standalone="no"?>
<svg width="100px" height="100px" viewBox="0 0 100 100" version="1.1" xmlns="http://www.w3.org/2000/svg" xmlns:xlink="http://www.w3.org/1999/xlink">
    <!-- Generator: Sketch 46.2 (44496) - http://www.bohemiancoding.com/sketch -->
    <title>client_jc</title>
    <desc>Created with Sketch.</desc>
    <defs></defs>
    <g id="Page-1" stroke="none" stroke-width="1" fill="none" fill-rule="evenodd" opacity="0.497901119">
        <g id="client_jc" fill-rule="nonzero" fill="#FFFFFF">
            <g id="logo_jc" transform="translate(0.000000, 40.000000)">
                <g id="Page-1">
                    <g id="Artboard">
                        <g id="Group">
                            <path d="M10.0989362,0.158510638 L0.443617021,9.81329787 L10.0984043,19.3930851 L19.7531915,9.81329787 L10.0989362,0.158510638 Z M12.987766,10.7255319 C11.9994681,11.1058511 11.1632979,11.1058511 10.6308511,11.1058511 C9.87074468,11.1819149 8.57819149,10.8781915 8.57819149,10.8781915 L8.50212766,10.8781915 L6.82978723,13.2345745 L5.6893617,13.2345745 L7.51382979,10.4978723 L7.21010638,10.3462766 L7.21010638,9.96595745 L6.44946809,9.96595745 L6.44946809,11.0297872 L5.53723404,11.4101064 L5.53723404,8.97712766 L7.81808511,8.97712766 L9.26223404,6.31648936 L8.04574468,6.31648936 L8.04574468,6.84840426 L7.13351064,6.84840426 L7.13351064,6.31648936 L6.525,6.31648936 L6.525,6.84840426 L5.53670213,6.84840426 L5.53670213,5.32819149 L10.8585106,5.32819149 L10.6303191,5.93670213 L10.9345745,5.93670213 L11.162766,5.55638298 L11.3148936,5.32819149 L12.987234,5.32819149 C12.8351064,6.62074468 11.0867021,6.92446809 10.1744681,6.92446809 L10.1744681,8.90106383 C11.3909574,9.35691489 12.531383,8.825 12.8351064,8.74893617 C13.1393617,8.59680851 13.4430851,8.59680851 13.4430851,8.59680851 L14.431383,9.96595745 C14.2792553,10.0420213 14.1276596,10.193617 13.9755319,10.2691489 L15.8760638,13.3101064 L14.7356383,13.3101064 L12.987766,10.7255319 Z" id="Shape"></path>
                            <path d="M21.5021277,11.9420213 L21.806383,11.9420213 C22.4904255,11.7904255 23.0228723,11.5617021 23.0228723,10.7255319 L23.0228723,4.87234043 L24.3154255,4.87234043 L24.3154255,10.7255319 C24.3154255,12.0946809 23.631383,13.0069149 22.1106383,13.0069149 C22.1106383,13.0069149 21.806383,13.0829787 21.6547872,13.0069149 L21.5021277,11.9420213 L21.5021277,11.9420213 Z M29.8648936,9.50957447 L27.4324468,9.50957447 L28.5728723,6.77287234 L29.8648936,9.50957447 Z M24.8473404,12.8542553 L25.987766,12.8542553 L27.0521277,10.5739362 L30.3212766,10.5739362 L31.3856383,12.8542553 L32.6021277,12.8542553 L29.0287234,4.87234043 L28.1925532,4.87234043 L24.8473404,12.8542553 L24.8473404,12.8542553 Z M90.1510638,9.50957447 L87.7180851,9.50957447 L88.8590426,6.77287234 L90.1510638,9.50957447 Z M85.1335106,12.8542553 L86.2744681,12.8542553 L87.3382979,10.5739362 L90.6074468,10.5739362 L91.6712766,12.8542553 L92.887766,12.8542553 L89.3148936,4.87234043 L88.4787234,4.87234043 L85.1335106,12.8542553 Z M33.0579787,4.87234043 L33.9702128,4.87234043 L39.2920213,10.8026596 L39.2920213,4.87234043 L40.4319149,4.87234043 L40.4319149,12.8542553 L39.5196809,12.8542553 L34.2744681,6.925 L34.2744681,12.8542553 L33.0579787,12.8542553 L33.0579787,4.87234043 L33.0579787,4.87234043 Z M57.3095745,4.87234043 L58.2218085,4.87234043 L63.5430851,10.8026596 L63.6191489,10.8026596 L63.6191489,4.87234043 L64.6835106,4.87234043 L64.6835106,12.8542553 L63.8473404,12.8542553 L58.525,6.925 L58.525,12.8542553 L57.3095745,12.8542553 L57.3095745,4.87234043 Z M41.4962766,10.8026596 C42.1808511,11.4106383 42.6367021,11.8664894 43.625,11.8664894 C44.3090426,11.8664894 44.9175532,11.562234 44.9175532,10.8026596 C44.9175532,9.0537234 41.4207447,9.28191489 41.4207447,6.77287234 C41.4207447,5.63244681 42.4851064,4.7962766 43.7776596,4.7962766 C44.6138298,4.7962766 45.1457447,5.02446809 45.6781915,5.32819149 L45.6781915,6.62074468 C45.2984043,6.16489362 44.6138298,5.78457447 43.7776596,5.78457447 C43.0930851,5.78457447 42.5611702,6.08882979 42.5611702,6.77287234 C42.5611702,8.14095745 45.9824468,8.29308511 45.9824468,10.65 C45.9824468,11.9425532 45.0702128,12.8547872 43.5494681,12.8547872 C42.637234,12.8547872 42.0292553,12.7031915 41.4968085,12.1712766 L41.4968085,10.8026596 L41.4962766,10.8026596 L41.4962766,10.8026596 Z M46.5138298,10.8026596 C47.1218085,11.4106383 47.6542553,11.8664894 48.5664894,11.8664894 C49.3265957,11.8664894 49.8590426,11.562234 49.8590426,10.8026596 C49.8590426,9.0537234 46.437766,9.28191489 46.437766,6.77287234 C46.437766,5.63244681 47.5021277,4.7962766 48.7946809,4.7962766 C49.5547872,4.7962766 50.087234,5.02446809 50.6952128,5.32819149 L50.6952128,6.62074468 C50.3154255,6.16489362 49.5547872,5.78457447 48.718617,5.78457447 C48.1106383,5.78457447 47.5781915,6.08882979 47.5781915,6.77287234 C47.5781915,8.14095745 50.9994681,8.29308511 50.9994681,10.65 C50.9994681,11.9425532 50.087234,12.8547872 48.5664894,12.8547872 C47.6542553,12.8547872 47.0462766,12.7031915 46.5138298,12.1712766 L46.5138298,10.8026596 L46.5138298,10.8026596 Z M51.9117021,4.87234043 L56.3962766,4.87234043 L56.3962766,6.01276596 L52.9755319,6.01276596 L52.9755319,8.36914894 L56.2446809,8.36914894 L56.2446809,9.43351064 L52.9755319,9.43351064 L52.9755319,11.7904255 L56.4734043,11.7904255 L56.4734043,12.8542553 L51.9117021,12.8542553 L51.9117021,4.87234043 Z M66.1276596,8.29308511 L68.9409574,8.29308511 L68.9409574,9.35744681 L66.1276596,9.35744681 L66.1276596,8.29308511 Z M77.3031915,12.2462766 C76.162234,12.7781915 75.0984043,12.9308511 74.3382979,12.9308511 C71.7537234,12.9308511 70.1569149,11.1053191 70.1569149,8.825 C70.1569149,6.62021277 71.9824468,4.87180851 74.4898936,4.87180851 C75.706383,4.87180851 76.5425532,5.17606383 77.1515957,5.55585106 L77.1515957,6.6962766 C76.2393617,6.1643617 75.706383,5.93617021 74.4143617,5.93617021 C72.8946809,5.93617021 71.2978723,6.92446809 71.2978723,8.90106383 C71.2978723,10.5734043 72.5143617,11.9414894 74.187234,11.9414894 C75.4797872,11.9414894 76.3159574,11.637234 77.3037234,11.0292553 L77.3037234,12.2462766 L77.3031915,12.2462766 L77.3031915,12.2462766 Z M78.3680851,4.87234043 L79.5079787,4.87234043 L79.5079787,12.8542553 L78.3680851,12.8542553 L78.3680851,4.87234043 Z M80.8760638,4.87234043 L82.0164894,4.87234043 L82.0164894,11.7904255 L84.9058511,11.7904255 L84.9058511,12.8542553 L80.8760638,12.8542553 L80.8760638,4.87234043 Z M98.8175532,9.81329787 L97.2207447,9.81329787 L97.2207447,8.74946809 L99.9579787,8.74946809 L99.9579787,12.0952128 C99.1218085,12.5510638 98.2095745,12.8547872 96.9170213,12.8547872 C94.3324468,12.8547872 92.6595745,11.0303191 92.6595745,8.82606383 C92.6595745,6.54521277 94.4079787,4.72074468 97.068617,4.72074468 C98.1324468,4.72074468 98.968617,4.94893617 99.6531915,5.40531915 L99.6531915,6.54574468 C98.8925532,6.01382979 97.9047872,5.78510638 96.6882979,5.78510638 C95.6244681,5.78510638 93.8760638,6.6212766 93.8760638,8.82606383 C93.8760638,10.4228723 95.0914894,11.7909574 96.8409574,11.7909574 C97.2968085,11.7909574 98.2851064,11.7148936 98.8170213,11.3351064 L98.8170213,9.81329787 L98.8175532,9.81329787 L98.8175532,9.81329787 Z" id="Shape"></path>
                        </g>
                    </g>
                </g>
            </g>
        </g>
    </g>
</svg>