<?xml version="1.0" encoding="UTF-8" standalone="no"?>
<svg width="130px" height="60px" viewBox="0 0 130 60" version="1.1" xmlns="http://www.w3.org/2000/svg" xmlns:xlink="http://www.w3.org/1999/xlink">
    <!-- Generator: Sketch 46.2 (44496) - http://www.bohemiancoding.com/sketch -->
    <title>Artboard</title>
    <desc>Created with Sketch.</desc>
    <defs></defs>
    <g id="Page-1" stroke="none" stroke-width="1" fill="none" fill-rule="evenodd">
        <g id="Artboard" fill-rule="nonzero" fill="#FFFFFF">
            <path d="M15,16 L115,16 L115,44.2937371 L15,44.2937371 L15,16 Z M27.9931387,20.2796606 C22.3066245,20.2796606 30.9975571,20.2796606 27.9931387,20.2796606 C22.3066245,20.2796606 19.2003756,24.7047159 19.2003756,30.6444376 C19.2003756,36.264757 22.649145,40.2115404 28.2750659,40.2115404 C32.1067514,40.2115404 33.2563412,39.1152578 33.2563412,39.0753325 L33.2563412,33.9524161 C32.147147,35.8264103 30.3933072,36.7031036 28.4972414,36.7031036 C25.311043,36.7031036 23.4149772,34.2718186 23.4149772,30.3250352 C23.4149772,26.2593078 25.311043,23.9469668 28.6588236,23.9469668 C30.4934544,23.9469668 32.0469997,24.9234734 33.2563412,26.6976544 L33.2563412,21.5755697 C32.147147,20.9775218 30.9975571,20.2796606 27.9931387,20.2796606 Z M74.69796,35.8264103 L77.904356,35.8264103 L77.904356,20.7579325 L74.69796,20.7579325 L74.69796,35.8264103 Z M38.3790009,24.3853134 C34.8292427,24.3853134 32.8128318,26.8174303 32.8128318,30.3250352 C32.8128318,34.2718186 35.0514181,36.1449811 38.943697,36.1449811 C42.4926137,36.1449811 44.6100134,34.0522294 44.6100134,30.1062778 C44.6100134,26.3790836 42.4926137,24.3853134 38.3790009,24.3853134 Z M68.507343,24.3853134 C65.7848515,24.3853134 63.1633493,26.8174303 63.1633493,30.3250352 C63.1633493,33.8334719 65.683863,36.264757 68.910457,36.264757 C72.116853,36.264757 73.7907435,33.8334719 74.2342525,32.7571521 L70.8267205,32.7571521 C69.9994535,33.6138827 69.3337685,33.7336586 68.8498635,33.7336586 C67.740669,33.7336586 66.6718705,32.8561336 66.3899435,31.2025603 L74.2342525,31.2025603 L74.2342525,30.6444376 C74.2342525,26.8174303 72.3390285,24.3853134 68.507343,24.3853134 Z M83.0270153,24.5050894 C80.4459089,24.5050894 78.6912275,25.8209611 78.6912275,28.2322835 C78.6912275,30.3250352 80.3449197,31.0628217 83.6725032,31.6409069 C86.1324229,32.059291 85.4675796,34.072192 83.2289936,33.8334719 C82.240986,33.7336586 81.6358943,33.5140694 81.3531255,32.6373762 L78.4093005,32.6373762 L78.4093005,33.0757227 C78.4093005,34.7101652 80.6672433,36.1449811 83.4503274,36.1449811 C84.0150236,36.1449811 85.2050083,36.1050557 86.3545987,35.6068211 C87.463793,35.1085865 88.3710096,34.2718186 88.3710096,32.1990296 C88.3710096,30.4248485 87.3426057,29.2287527 83.571514,28.7904061 C80.6268478,28.43191 81.6358943,26.6178038 83.3493382,26.6976544 C84.0150236,26.7375797 84.8624879,27.076113 85.1444153,27.8937501 L88.0284892,27.8937501 L88.0284892,27.674161 C88.0284892,25.8209611 86.1324229,24.5050894 83.0270153,24.5050894 Z M50.9622124,24.6049026 C49.6114864,24.883548 48.9458016,25.2828011 48.2801167,26.5978411 L48.2801167,24.883548 L45.2151049,24.883548 L45.2151049,35.8264103 L48.4013033,35.8264103 C48.5628855,32.0992162 48.5628855,30.2052593 48.5628855,30.2052593 C48.5830833,29.7868752 48.5830833,29.3485287 48.7244677,29.0099953 C49.1477793,28.0135261 50.1559847,27.2557769 52.1723955,27.4554035 C52.0512089,27.136001 52.2733844,26.9172435 51.5067106,25.3817827 C51.2853767,24.9234734 51.1843879,24.6049026 50.9622124,24.6049026 L50.9622124,24.6049026 Z M58.7265723,24.5050894 C57.3960441,24.5050894 55.9434877,25.5015586 55.7221538,26.0397185 L55.6211649,24.883548 L52.6159049,24.883548 L52.6159049,35.8264103 L55.7221538,35.8264103 L55.7221538,29.1289395 C55.7221538,28.2322835 56.5081837,27.2557769 57.7385646,27.2557769 C58.7265723,27.2557769 59.4528505,28.0725822 59.4528505,29.2287527 L59.4528505,35.8264103 L62.5582578,35.8264103 L62.5582578,28.4718354 C62.5582578,25.8209611 61.0661474,24.5050894 58.7265723,24.5050894 L58.7265723,24.5050894 Z M68.910457,26.8174303 C69.8984645,26.8174303 70.967263,27.7939368 70.967263,28.910182 L66.51113,28.910182 C66.611277,27.3555902 67.8012625,26.8174303 68.910457,26.8174303 Z M38.761917,26.9172435 C40.375214,26.9172435 41.3834194,27.8937501 41.3834194,30.4248485 C41.3834194,32.5375629 40.375214,33.6138827 38.8831036,33.6138827 C37.0476312,33.6138827 36.0394258,32.7571521 36.0394258,30.2052593 C36.0394258,28.2322835 36.765704,26.9172435 38.761917,26.9172435 Z M34.32514,39.4537911 L110.190494,39.4537911 L110.190494,36.8628049 L34.32514,36.8628049 L34.32514,39.4537911 Z M93.9169803,24.3853134 C91.2550828,24.3853134 88.5931847,26.8174303 88.5931847,30.3250352 C88.5931847,33.8334719 91.1338962,36.264757 94.3402924,36.264757 C97.5668866,36.264757 99.2003809,33.8334719 99.7044834,32.7571521 L96.2565561,32.7571521 C95.4696847,33.6138827 94.7636038,33.7336586 94.2393032,33.7336586 C93.1301089,33.7336586 92.1421013,32.8561336 91.7995809,31.2025603 L99.7044834,31.2025603 L99.7044834,30.6444376 C99.7044834,26.8174303 97.7486662,24.3853134 93.9169803,24.3853134 Z M94.3402924,26.8174303 C95.3686955,26.8174303 96.3567032,27.7939368 96.3567032,28.910182 L91.9207675,28.910182 C92.0209153,27.3555902 93.2512962,26.8174303 94.3402924,26.8174303 Z M106.319254,24.5050894 C105.048478,24.5050894 103.536169,25.5015586 103.313994,26.0397185 L103.193648,24.883548 L100.188389,24.883548 L100.188389,35.8264103 L103.313994,35.8264103 L103.313994,29.1289395 C103.313994,28.2322835 104.080668,27.2557769 105.311048,27.2557769 C106.319254,27.2557769 107.14568,28.0725822 107.14568,29.2287527 L107.14568,35.8264103 L110.191335,35.8264103 L110.191335,28.4718354 C110.191335,25.8209611 108.658829,24.5050894 106.319254,24.5050894 Z" id="Combined-Shape"></path>
        </g>
    </g>
</svg>