<?xml version="1.0" encoding="UTF-8"?>
<svg width="100px" height="30px" viewBox="0 0 100 30" version="1.1" xmlns="http://www.w3.org/2000/svg" xmlns:xlink="http://www.w3.org/1999/xlink">
    <!-- Generator: Sketch 46.2 (44496) - http://www.bohemiancoding.com/sketch -->
    <title>Artboard Copy 3</title>
    <desc>Created with Sketch.</desc>
    <defs></defs>
    <g id="Page-1" stroke="none" stroke-width="1" fill="none" fill-rule="evenodd">
        <g id="Artboard-Copy-3" fill-rule="nonzero" fill="#FFFFFF">
            <g id="client_amway" transform="translate(16.294118, 3.500000)">
                <path d="M0.206195674,22.9181726 C0.206195674,22.9181726 38.8203456,13.4320093 67.4301698,20.1148878 L67.5185061,19.8061755 C67.5185061,19.8061755 42.5546493,12.4342733 0.68576915,21.4136648" id="Shape"></path>
                <path d="M18.6903477,4.30291083 L18.6903477,5.87529818 C18.8326157,5.56054176 19.0134728,5.13373759 19.4988579,4.72971499 C20.0244593,4.28082677 20.7925207,4.03302003 21.5410552,4.03302003 C21.9239236,4.03302003 22.3081868,4.10136446 22.6912876,4.23596121 C23.8838286,4.68484937 24.227643,5.62772388 24.3689812,6.03151405 C25.2993026,4.30314333 26.7738225,4.05673134 27.5616434,4.05673134 C28.5310188,4.05673134 29.3804427,4.41658582 29.9462604,4.97752173 C30.9563169,5.9652618 30.9965333,7.04157068 30.9965333,9.7372246 L30.9965333,15.9340206 L28.027269,15.9340206 L28.027269,10.4325247 C28.027269,8.56839497 27.9868203,8.18668893 27.6832222,7.69386496 C27.360097,7.15478067 26.8947038,7.04133818 26.4497676,7.04133818 C25.6421872,7.04133818 25.238397,7.62528802 25.1774914,7.71571658 C24.8534364,8.27688499 24.8534364,9.24254094 24.8534364,10.1854154 L24.8534364,15.9335557 L21.8839397,15.9335557 L21.8839397,10.0736001 C21.8839397,8.81620171 21.8839397,8.25480086 21.5803416,7.73780071 C21.3583384,7.35702448 20.913402,7.04133818 20.3682737,7.04133818 C20.1060542,7.04133818 19.8426723,7.10921774 19.5999798,7.24474429 C18.7307964,7.73780071 18.711037,8.59164141 18.711037,10.7923792 L18.711037,15.9337881 L15.7396806,15.9337881 L15.7396806,4.30291083" id="Shape"></path>
                <polyline id="Shape" points="42.8103598 4.30291083 45.8405296 4.30291083 42.8103598 15.9335557 40.0403174 15.9335557 38.2819587 8.07557106 36.5452193 15.9335557 33.7368203 15.9335557 30.7054881 4.30291083 33.7368203 4.30291083 35.3331514 11.5778755 36.9696988 4.30291083 39.5963109 4.30291083 41.2140287 11.5778755"></polyline>
                <path d="M52.2321306,15.9335557 L55.1428138,15.9335557 L55.1428138,4.28082677 L52.2928037,4.28082677 L52.2928037,5.78486962 C51.7683647,4.66253287 50.8587325,4.01116841 49.7066404,4.01116841 C47.726976,4.01116841 45.1396503,5.71791994 45.1396503,10.2981605 C45.1396503,13.9355266 46.9982009,16.18113 49.4841722,16.18113 C51.1816252,16.18113 51.8683242,15.1931575 52.2316657,14.6540732 L52.2321306,15.9335557 Z M52.0794017,9.98340408 C52.0794017,11.0394886 51.9380635,12.0497777 51.3113402,12.8134223 C50.7857388,13.4187588 50.2001617,13.4645543 50.0179098,13.4645543 C49.4321002,13.4645543 48.7653932,13.1049323 48.3604407,12.0939458 C48.1189104,11.5106934 48.0373155,10.8142309 48.0373155,10.0956843 C48.0373155,9.19767538 48.1600566,8.27688499 48.6640388,7.53648678 C49.0273802,7.01925412 49.5931979,6.68357589 50.139721,6.68357589 C50.5834951,6.68357589 51.0284313,6.90674144 51.331797,7.26659592 C51.7153629,7.69386496 52.0794017,8.47936123 52.0794017,9.98340408 Z" id="Shape"></path>
                <path d="M62.0025975,4.30291083 L65.0218415,4.30291083 L61.6992318,15.8438245 C61.4565394,16.6523347 61.0736709,17.9776127 60.4869315,18.6285122 C59.9408732,19.2124621 59.2943905,19.4823529 56.8897817,19.4823529 C56.5459672,19.4823529 56.4053264,19.4588741 56.1017283,19.4370224 L56.1017283,16.8545785 L56.8897817,16.8545785 C57.172923,16.8545785 57.8396301,16.8545785 58.1422983,16.563301 C58.3849909,16.3603598 58.5872347,15.8668385 58.5872347,15.3947039 C58.5872347,15.1482919 58.4654235,14.6980089 58.364999,14.4067313 L55.1316556,4.30291083 L58.364999,4.30291083 L60.2642309,12.1388114" id="Shape"></path>
                <path d="M7.22173036,0.045563 L2.2325854,15.9335557 L5.89738225,15.9335557 L6.82840107,12.5579442 L11.5074389,12.5579442 L12.4600768,15.9335557 L16.145563,15.9335557 L10.9481302,0.045563 L7.22173036,0.045563 Z M9.10538713,3.53461693 L10.6998585,9.65539723 L7.59553265,9.65539723 L9.10538713,3.53461693 Z" id="Shape"></path>
            </g>
        </g>
    </g>
</svg>