<?xml version="1.0" encoding="UTF-8" standalone="no"?>
<svg width="100px" height="100px" viewBox="0 0 100 100" version="1.1" xmlns="http://www.w3.org/2000/svg" xmlns:xlink="http://www.w3.org/1999/xlink">
    <!-- Generator: Sketch 46.2 (44496) - http://www.bohemiancoding.com/sketch -->
    <title>client_amway</title>
    <desc>Created with Sketch.</desc>
    <defs></defs>
    <g id="Page-1" stroke="none" stroke-width="1" fill="none" fill-rule="evenodd" opacity="0.5">
        <g id="client_amway" fill-rule="nonzero" fill="#FFFFFF">
            <g id="logo_amway" transform="translate(0.000000, 33.000000)">
                <g id="Page-1">
                    <g id="Artboard">
                        <g id="Group">
                            <path d="M0.304810997,33.8790378 C0.304810997,33.8790378 57.3865979,19.8560137 99.6793814,29.7350515 L99.8099656,29.2786942 C99.8099656,29.2786942 62.9068729,18.3810997 1.0137457,31.6549828" id="Shape"></path>
                            <path d="M27.6292096,6.36082474 L27.6292096,8.68522337 C27.8395189,8.21993127 28.1068729,7.58900344 28.8243986,6.99175258 C29.6013746,6.32817869 30.7367698,5.96185567 31.843299,5.96185567 C32.4092784,5.96185567 32.9773196,6.0628866 33.5436426,6.26185567 C35.3065292,6.92542955 35.8147766,8.31924399 36.0237113,8.9161512 C37.3989691,6.36116838 39.5786942,5.99690722 40.743299,5.99690722 C42.1762887,5.99690722 43.4319588,6.52886598 44.2683849,7.3580756 C45.761512,8.81821306 45.8209622,10.4092784 45.8209622,14.3941581 L45.8209622,23.5546392 L41.4316151,23.5546392 L41.4316151,15.4219931 C41.4316151,12.666323 41.3718213,12.1020619 40.9230241,11.3735395 C40.4453608,10.5766323 39.7573883,10.4089347 39.0996564,10.4089347 C37.9058419,10.4089347 37.3089347,11.2721649 37.2189003,11.4058419 C36.7398625,12.2353952 36.7398625,13.6628866 36.7398625,15.056701 L36.7398625,23.5539519 L32.3501718,23.5539519 L32.3501718,14.8914089 C32.3501718,13.032646 32.3501718,12.2027491 31.9013746,11.438488 C31.5731959,10.8756014 30.9154639,10.4089347 30.109622,10.4089347 C29.7219931,10.4089347 29.332646,10.5092784 28.9738832,10.709622 C27.6890034,11.438488 27.6597938,12.7006873 27.6597938,15.9539519 L27.6597938,23.5542955 L23.267354,23.5542955 L23.267354,6.36082474" id="Shape"></path>
                            <polyline id="Shape" points="63.2848797 6.36082474 67.7642612 6.36082474 63.2848797 23.5539519 59.1900344 23.5539519 56.5907216 11.9378007 54.0233677 23.5539519 49.8718213 23.5539519 45.3907216 6.36082474 49.8718213 6.36082474 52.2316151 17.1151203 54.6508591 6.36082474 58.533677 6.36082474 60.9250859 17.1151203"></polyline>
                            <path d="M77.2127148,23.5539519 L81.5154639,23.5539519 L81.5154639,6.32817869 L77.3024055,6.32817869 L77.3024055,8.55154639 C76.5271478,6.89243986 75.1824742,5.92955326 73.4793814,5.92955326 C70.552921,5.92955326 66.7281787,8.45257732 66.7281787,15.2233677 C66.7281787,20.6003436 69.4756014,23.9199313 73.1505155,23.9199313 C75.6597938,23.9199313 76.6749141,22.4594502 77.2120275,21.662543 L77.2127148,23.5539519 Z M76.9869416,14.7580756 C76.9869416,16.319244 76.7780069,17.8127148 75.8515464,18.9415808 C75.0745704,19.8364261 74.2089347,19.9041237 73.9395189,19.9041237 C73.0735395,19.9041237 72.0879725,19.3725086 71.4893471,17.8780069 C71.1323024,17.0158076 71.0116838,15.9862543 71.0116838,14.924055 C71.0116838,13.5965636 71.1931271,12.2353952 71.9381443,11.1408935 C72.4752577,10.3762887 73.3116838,9.88006873 74.1195876,9.88006873 C74.7756014,9.88006873 75.4333333,10.2099656 75.8817869,10.7419244 C76.4487973,11.3735395 76.9869416,12.5347079 76.9869416,14.7580756 Z" id="Shape"></path>
                            <path d="M91.6560137,6.36082474 L96.119244,6.36082474 L91.2075601,23.4213058 C90.8487973,24.6164948 90.2828179,26.5756014 89.4154639,27.5378007 C88.6082474,28.4010309 87.6525773,28.8 84.0979381,28.8 C83.5896907,28.8 83.3817869,28.7652921 82.9329897,28.7329897 L82.9329897,24.9154639 L84.0979381,24.9154639 C84.5164948,24.9154639 85.5020619,24.9154639 85.9494845,24.4848797 C86.3082474,24.1848797 86.6072165,23.4553265 86.6072165,22.7573883 C86.6072165,22.3931271 86.4271478,21.7274914 86.2786942,21.2969072 L81.4989691,6.36082474 L86.2786942,6.36082474 L89.0862543,17.9443299" id="Shape"></path>
                            <path d="M10.6756014,0.0673539519 L3.30034364,23.5539519 L8.71786942,23.5539519 L10.0941581,18.5639175 L17.0109966,18.5639175 L18.419244,23.5539519 L23.867354,23.5539519 L16.1841924,0.0673539519 L10.6756014,0.0673539519 Z M13.4601375,5.22508591 L15.8171821,14.2731959 L11.2281787,14.2731959 L13.4601375,5.22508591 Z" id="Shape"></path>
                        </g>
                    </g>
                </g>
            </g>
        </g>
    </g>
</svg>