<?xml version="1.0" encoding="UTF-8"?>
<svg width="157px" height="53px" viewBox="0 0 157 53" version="1.1" xmlns="http://www.w3.org/2000/svg" xmlns:xlink="http://www.w3.org/1999/xlink">
    <!-- Generator: Sketch 46.2 (44496) - http://www.bohemiancoding.com/sketch -->
    <title>Artboard</title>
    <desc>Created with Sketch.</desc>
    <defs></defs>
    <g id="Page-1" stroke="none" stroke-width="1" fill="none" fill-rule="evenodd">
        <g id="Artboard" fill-rule="nonzero" fill="#FFFFFF">
            <path d="M0,4 L157,4 L157,48.4211672 L1.50211106e-14,48.4211672 L0,4 Z M20.3992278,10.7190672 C11.4714005,10.7190672 25.1161646,10.7190672 20.3992278,10.7190672 C11.4714005,10.7190672 6.59458972,17.666404 6.59458972,26.9917671 C6.59458972,35.8156685 12.0091577,42.0121184 20.8418535,42.0121184 C26.8575997,42.0121184 28.6624557,40.2909548 28.6624557,40.2282721 L28.6624557,32.1852932 C26.9210208,35.1274642 24.1674923,36.5038727 21.190669,36.5038727 C16.1883375,36.5038727 13.2115142,32.6867552 13.2115142,26.4903053 C13.2115142,20.1071132 16.1883375,16.4767379 21.4443531,16.4767379 C24.3247234,16.4767379 26.7637895,18.0098532 28.6624557,20.7953174 L28.6624557,12.7536444 C26.9210208,11.8147092 25.1161646,10.7190672 20.3992278,10.7190672 Z M93.7257972,35.1274642 L98.7598389,35.1274642 L98.7598389,11.4699541 L93.7257972,11.4699541 L93.7257972,35.1274642 Z M36.7050314,17.1649421 C31.131911,17.1649421 27.9661459,20.9833656 27.9661459,26.4903053 C27.9661459,32.6867552 31.4807264,35.6276203 37.5916043,35.6276203 C43.1634035,35.6276203 46.487721,32.3420001 46.487721,26.1468561 C46.487721,20.2951613 43.1634035,17.1649421 36.7050314,17.1649421 Z M84.0065285,17.1649421 C79.7322169,17.1649421 75.6164584,20.9833656 75.6164584,26.4903053 C75.6164584,31.9985509 79.5736649,35.8156685 84.6394175,35.8156685 C89.6734592,35.8156685 92.3014673,31.9985509 92.9977764,30.3087288 L87.6479512,30.3087288 C86.349142,31.6537958 85.3040165,31.841844 84.5442857,31.841844 C82.8028503,31.841844 81.1248367,30.4641298 80.6822113,27.8680196 L92.9977764,27.8680196 L92.9977764,26.9917671 C92.9977764,20.9833656 90.0222747,17.1649421 84.0065285,17.1649421 Z M106.802414,17.3529903 C102.750077,17.3529903 99.9952272,19.4189089 99.9952272,23.2046851 C99.9952272,26.4903053 102.591524,27.6486301 107.81583,28.5562238 C111.677904,29.2130868 110.6341,32.3733415 107.11952,31.9985509 C105.568348,31.841844 104.618354,31.4970889 104.174407,30.1206806 L99.5526018,30.1206806 L99.5526018,30.8088847 C99.5526018,33.3749594 103.097572,35.6276203 107.467014,35.6276203 C108.353587,35.6276203 110.221863,35.5649375 112.02672,34.7827092 C113.768155,34.0004808 115.192485,32.6867552 115.192485,29.4324764 C115.192485,26.6470121 113.577891,24.7691417 107.657277,24.0809375 C103.034151,23.5180987 104.618354,20.6699519 107.308461,20.7953174 C108.353587,20.8580001 109.684106,21.3894974 110.126732,22.6731877 L114.654728,22.6731877 L114.654728,22.3284327 C114.654728,19.4189089 111.677904,17.3529903 106.802414,17.3529903 Z M56.4606735,17.5096971 C54.3400336,17.9471704 53.2949085,18.5739978 52.2497832,20.6386105 L52.2497832,17.9471704 L47.4377147,17.9471704 L47.4377147,35.1274642 L52.4400462,35.1274642 C52.6937302,29.2757694 52.6937302,26.3022571 52.6937302,26.3022571 C52.7254408,25.6453941 52.7254408,24.9571901 52.9474143,24.4256926 C53.6120135,22.8612359 55.194896,21.6715698 58.3606609,21.9849835 C58.170398,21.4835215 58.5192135,21.1400723 57.3155356,18.7293988 C56.9680414,18.0098532 56.809489,17.5096971 56.4606735,17.5096971 L56.4606735,17.5096971 Z M68.6507185,17.3529903 C66.5617892,17.3529903 64.2812757,18.917447 63.9337815,19.7623581 L63.7752289,17.9471704 L59.0569707,17.9471704 L59.0569707,35.1274642 L63.9337815,35.1274642 L63.9337815,24.612435 C63.9337815,23.2046851 65.1678484,21.6715698 67.0995464,21.6715698 C68.6507185,21.6715698 69.7909753,22.9539541 69.7909753,24.7691417 L69.7909753,35.1274642 L74.6664647,35.1274642 L74.6664647,23.5807816 C74.6664647,19.4189089 72.3238514,17.3529903 68.6507185,17.3529903 L68.6507185,17.3529903 Z M84.6394175,20.9833656 C86.1905893,20.9833656 87.8686029,22.5164808 87.8686029,24.2689858 L80.8724741,24.2689858 C81.0297049,21.8282766 82.8979821,20.9833656 84.6394175,20.9833656 Z M37.3062097,21.1400723 C39.839086,21.1400723 41.4219685,22.6731877 41.4219685,26.6470121 C41.4219685,29.9639737 39.839086,31.6537958 37.4964727,31.6537958 C34.614781,31.6537958 33.0318985,30.3087288 33.0318985,26.3022571 C33.0318985,23.2046851 34.1721553,21.1400723 37.3062097,21.1400723 Z M30.3404698,40.8224521 L149.449075,40.8224521 L149.449075,36.7546037 L30.3404698,36.7546037 L30.3404698,40.8224521 Z M123.899659,17.1649421 C119.72048,17.1649421 115.5413,20.9833656 115.5413,26.4903053 C115.5413,31.9985509 119.530217,35.8156685 124.564259,35.8156685 C129.630012,35.8156685 132.194598,31.9985509 132.986039,30.3087288 L127.572793,30.3087288 C126.337405,31.6537958 125.228858,31.841844 124.405706,31.841844 C122.664271,31.841844 121.113099,30.4641298 120.575342,27.8680196 L132.986039,27.8680196 L132.986039,26.9917671 C132.986039,20.9833656 129.915406,17.1649421 123.899659,17.1649421 Z M124.564259,20.9833656 C126.178852,20.9833656 127.730024,22.5164808 127.730024,24.2689858 L120.765605,24.2689858 C120.922837,21.8282766 122.854535,20.9833656 124.564259,20.9833656 Z M143.371229,17.3529903 C141.37611,17.3529903 139.001785,18.917447 138.65297,19.7623581 L138.464028,17.9471704 L133.74577,17.9471704 L133.74577,35.1274642 L138.65297,35.1274642 L138.65297,24.612435 C138.65297,23.2046851 139.856648,21.6715698 141.788346,21.6715698 C143.371229,21.6715698 144.668717,22.9539541 144.668717,24.7691417 L144.668717,35.1274642 L149.450396,35.1274642 L149.450396,23.5807816 C149.450396,19.4189089 147.044362,17.3529903 143.371229,17.3529903 Z" id="Combined-Shape"></path>
        </g>
    </g>
</svg>