<?xml version="1.0" encoding="UTF-8"?>
<svg width="100px" height="30px" viewBox="0 0 100 30" version="1.1" xmlns="http://www.w3.org/2000/svg" xmlns:xlink="http://www.w3.org/1999/xlink">
    <!-- Generator: Sketch 46.2 (44496) - http://www.bohemiancoding.com/sketch -->
    <title>Artboard</title>
    <desc>Created with Sketch.</desc>
    <defs></defs>
    <g id="Page-1" stroke="none" stroke-width="1" fill="none" fill-rule="evenodd">
        <g id="Artboard" fill-rule="nonzero" fill="#FFFFFF">
            <path d="M41.4125767,10.8647009 C40.6548172,10.4479402 39.5282652,10.2452032 37.9683047,10.2446389 C35.8338521,10.2454289 33.8524752,10.6882054 33.1026163,10.9676919 C32.933316,11.0220091 32.7521648,11.1681716 32.749202,11.4183127 L32.7496535,11.4734763 L32.9597269,12.5349887 L32.9649413,12.5547404 C33.0306862,12.7708804 33.2107088,12.8678048 33.3746479,12.8678048 L33.3754379,12.8678048 C33.4282032,12.8655474 33.4692585,12.8553894 33.5074921,12.8456547 L33.8627404,12.7626975 C34.7924808,12.5299097 36.1978138,12.1783296 37.7670858,12.1783296 C38.7189763,12.1783296 39.3589312,12.2612867 39.7879661,12.4424379 C40.4839312,12.705982 40.4883047,13.1558973 40.4953589,13.9006772 L40.4953589,15.0146727 C40.4156467,15.0132618 40.281053,15.011851 40.0738014,15.011851 C39.3051783,15.011851 37.7938916,15.0475452 36.3075767,15.2858352 C34.0395181,15.6341704 32.1628251,16.1770598 32.1746761,19.3020598 C32.1754661,23.2690463 35.8549808,23.2765237 37.6231806,23.2801919 L37.6234063,23.2801919 C38.8237449,23.2799661 39.9312506,23.1027088 40.6545858,22.9531603 C42.305263,22.5698363 42.7266795,22.0457111 42.7045293,20.405474 L42.7045293,13.8089729 C42.7069334,12.8029063 42.7098905,11.55079 41.4124865,10.8647009 L41.4125767,10.8647009 Z M40.506307,21.0548815 C39.6277799,21.3400113 38.6665779,21.4843397 37.6485192,21.4843397 L37.6485192,21.5770316 L37.6472551,21.4843397 C36.0205621,21.4719244 34.4319616,21.2858352 34.4299865,19.2109199 C34.4404266,17.5606659 35.3209289,17.3642777 36.4354887,17.1154063 L36.5128025,17.0981941 C37.5043375,16.8862867 39.9931919,16.8465011 40.5065948,16.8405756 L40.5063691,21.0548815 L40.506307,21.0548815 Z M61.09787,13.8089729 L61.09787,20.405474 C61.1200205,22.0457111 60.698463,22.5698363 59.0479265,22.9531603 C58.3245915,23.1027088 57.217086,23.2799097 56.016606,23.2801919 L56.016493,23.2801919 C54.2482935,23.2765237 50.568835,23.2690519 50.5678475,19.3020598 C50.5561375,16.1770598 52.4328305,15.6341704 54.7008895,15.2858352 C56.1872045,15.0475452 57.698491,15.011851 58.466973,15.011851 C58.6743655,15.011851 58.8088185,15.0132618 58.8886715,15.0146727 L58.8886715,13.9006772 C58.8816175,13.1558973 58.877244,12.705982 58.181279,12.4424379 C57.752244,12.2612867 57.112289,12.1783296 56.1603985,12.1783296 C54.5909855,12.1783296 53.1857935,12.5299097 52.256053,12.7626975 L51.9008045,12.8456547 C51.862571,12.8553951 51.821516,12.8655474 51.7686095,12.8678048 L51.7679325,12.8678048 C51.603993,12.8678048 51.4239705,12.7708804 51.3582255,12.5547404 L51.353,12.5349887 L51.1429265,11.4734763 L51.142475,11.4183127 C51.1454435,11.1681716 51.326589,11.0220091 51.4958895,10.9676919 C52.245607,10.6882054 54.2271255,10.2454853 56.361578,10.2446389 C57.9215385,10.2452032 59.0480905,10.4479402 59.80585,10.8647009 C61.103113,11.55079 61.100291,12.8029063 61.097893,13.8089729 L61.09787,13.8089729 Z M58.8999525,16.8405756 C58.3864085,16.8465011 55.897554,16.8862867 54.906019,17.0981941 L54.8288465,17.1154063 C53.7142865,17.3642777 52.8337845,17.5606659 52.823344,19.2109199 C52.8253195,21.2858352 54.41392,21.4719244 56.040613,21.4843397 L56.0418885,21.5770316 L56.0418885,21.4843397 C57.059947,21.4843397 58.021149,21.3400113 58.899676,21.0548815 L58.899902,16.8405756 L58.8999525,16.8405756 Z M94.416177,10.2446389 C89.2920235,10.2515463 88.8574865,13.6183691 88.8526895,16.7741253 C88.8574865,19.9183126 89.2920235,23.2732788 94.416177,23.2801919 L94.416516,23.2801919 C99.536719,23.2732731 99.9732315,19.927342 99.9804265,16.773702 C99.9750655,13.4737585 99.5406695,10.2515519 94.4162335,10.2446389 L94.416177,10.2446389 Z M94.4163465,21.4383465 C91.3084175,21.4246614 91.152238,19.8292889 91.1310755,16.7746896 C91.152238,13.7033014 91.3081355,12.0998872 94.4160645,12.0863431 C97.5246985,12.0998872 97.680455,13.7033014 97.7016175,16.7732788 C97.680455,19.8292889 97.5242755,21.4246614 94.4163465,21.4383465 L94.4163465,21.4383465 Z M85.2202405,22.815886 L85.086352,22.849746 C84.369789,23.0314616 83.3879885,23.2801919 81.667334,23.2801919 L81.667221,23.2801919 L81.663553,23.2801919 C76.9211715,23.2732731 75.9904435,20.8810666 75.9852235,16.7511287 C75.9910135,12.0142494 77.49256,10.2509876 81.5254325,10.2446388 C82.9481185,10.2446388 83.928367,10.4286117 84.631668,10.5984763 L84.6274355,6.78315463 C84.62151,6.61582957 84.697272,6.39672686 85.0932935,6.32124718 L86.3528985,6 L86.421606,6 C86.7109685,6.00720091 86.813395,6.26509593 86.8139595,6.48363431 L86.8139595,20.819272 C86.833429,21.7244639 86.726911,22.5011287 85.22028,22.815886 L85.2202405,22.815886 Z M84.6285755,12.4345372 C84.2080055,12.3275959 83.0340495,12.0633465 81.712097,12.0633465 C79.2840495,12.0856377 78.265709,12.7452031 78.240314,16.7745485 C78.2688125,21.1989278 79.5862505,21.4380643 81.733824,21.4613431 L81.7350995,21.554035 L81.7350995,21.4613431 C83.0717245,21.4613431 84.2184515,21.1827032 84.6274525,21.0699774 L84.6285815,12.4345372 L84.6285755,12.4345372 Z M73.3088805,22.981377 L72.1823285,22.981377 C71.880551,22.9809255 71.652983,22.7529628 71.6522775,22.4513262 L71.6522775,13.9466704 C71.6318205,12.5080418 71.201939,12.1079289 69.652842,12.0863431 C67.9001615,12.0863431 66.126177,12.5261004 65.541104,12.6855249 L65.541104,22.451044 C65.5405395,22.7580418 65.3273625,22.9809537 65.0341905,22.981377 L63.8847835,22.981377 C63.5828645,22.9809255 63.3550145,22.7529628 63.3545915,22.4513262 L63.3545915,12.9123872 C63.3378025,12.0294865 63.4207595,11.4191591 64.676685,11.0126975 C65.878999,10.5974887 68.180212,10.2454853 69.700105,10.2446388 C72.597114,10.248307 73.8345575,11.2934537 73.838508,13.7397009 L73.838508,22.451044 C73.8380565,22.7529628 73.610235,22.9809537 73.3088805,22.981377 L73.3088805,22.981377 Z M47.7926558,23.211202 L47.7936716,23.211202 C48.4411038,23.1985045 48.9199413,23.0705418 49.1074413,22.8600451 C49.1740327,22.785412 49.2047889,22.6992099 49.196465,22.6141366 C49.1920971,22.5441591 49.1920971,22.5441591 49.0144673,21.7121896 L49.0102348,21.6922968 C48.971719,21.474746 48.8165271,21.3758465 48.6885643,21.3758465 C48.6765722,21.3758465 48.6648623,21.3765237 48.6712111,21.3774041 C48.6712111,21.3774041 48.5085418,21.3695034 48.3479887,21.3695034 L48.3464424,21.3695034 C47.8849582,21.3548307 47.5024808,21.2876749 47.4945801,20.6123081 L47.4945801,6.48378104 C47.4941287,6.24816592 47.3520519,6.00648984 47.0793375,6 L46.9989199,6.0006772 L45.7372099,6.32404063 C45.5221986,6.34604966 45.2984402,6.49884311 45.3080339,6.78284424 L45.3080339,20.6584086 C45.3104379,22.3016084 46.1923454,23.2082111 47.7916682,23.2111738 L47.792684,23.2111738 L47.7926558,23.211202 Z M29.9723962,22.981377 L20.9326106,22.981377 C20.630833,22.9809255 20.4029831,22.7529628 20.4024187,22.4513262 L20.4024187,21.3477709 C20.3962111,21.0773138 20.4828363,20.9568284 20.649456,20.7504233 L27.8447156,12.3852991 L20.794772,12.3852991 C20.4928533,12.3846219 20.2650034,12.1567438 20.2645801,11.8552483 L20.2645801,11.0736456 C20.2650316,10.772009 20.4928533,10.5441591 20.7946309,10.5435948 L29.9264029,10.5435948 C30.2280395,10.5441591 30.4558894,10.772009 30.4564537,11.0735045 L30.4564537,12.1999153 C30.4608217,12.4034988 30.3902856,12.5761851 30.2277573,12.7573363 L23.014298,21.1393905 L29.9722551,21.1393905 C30.2740327,21.1402935 30.5018826,21.3679458 30.502447,21.6695824 L30.502447,22.451044 C30.5018826,22.7529628 30.2740327,22.9809537 29.9723962,22.981377 L29.9723962,22.981377 Z" id="path6289"></path>
            <path d="M2.28908014,9.1496896 C0.726721255,9.1496896 -0.076608352,13.415632 0.00705417605,17.4207111 C0.00481424379,17.4201467 0.00223977991,17.4212754 0,17.4207111 C0.0835214445,20.9360892 0.86089168,24.3055869 2.40194695,24.3055869 C8.3157449,24.3055869 15.0536117,18.7285553 15.0536117,16.7294018 C15.0536117,16.2292607 14.5441591,15.26693 13.861456,14.5073363 C13.860553,14.5078555 13.8588036,14.5068171 13.8579345,14.5073363 C13.8115124,14.4534424 13.7622743,14.3996896 13.7133183,14.3450903 C11.6066591,11.9946388 7.2361738,9.1496896 2.28908014,9.1496896 Z" id="path6315"></path>
        </g>
    </g>
</svg>