<?xml version="1.0" encoding="UTF-8" standalone="no"?>
<svg width="53px" height="54px" viewBox="0 0 53 54" version="1.1" xmlns="http://www.w3.org/2000/svg" xmlns:xlink="http://www.w3.org/1999/xlink">
    <!-- Generator: Sketch 46.2 (44496) - http://www.bohemiancoding.com/sketch -->
    <title>client_vw</title>
    <desc>Created with Sketch.</desc>
    <defs></defs>
    <g id="Page-1" stroke="none" stroke-width="1" fill="none" fill-rule="evenodd">
        <g id="client_vw" fill-rule="nonzero" fill="#FFFFFF">
            <g id="Page-1">
                <g id="client_vw">
                    <g id="logo_volkswagen">
                        <g id="Page-1">
                            <g id="Artboard">
                                <path d="M26.4993185,-4.26325641e-14 C41.0808373,-4.26325641e-14 53,12.0238151 53,26.7587523 C53,41.4682983 41.0808373,53.4668783 26.4993185,53.4668783 C11.9192765,53.4668783 0,41.4682983 0,26.7587523 C0,12.0238148 11.9192765,-4.26325641e-14 26.5007969,-4.26325641e-14 L26.4993185,-4.26325641e-14 Z M8.75809248,12.374836 L18.2638949,37.2503081 L21.7463983,28.164291 L30.8791405,28.164291 L34.3614551,37.2503081 L43.9665306,12.0746709 C42.274083,10.0148111 40.2340461,8.25817552 37.9445959,6.90341721 L31.2775226,25.4279309 L21.870764,25.4279309 L15.1767392,6.82732452 C12.7144058,8.25817552 10.5496626,10.1402307 8.75809248,12.3748363 L8.75809248,12.374836 Z M47.7998445,18.62592 L36.9749922,47.1156103 C44.2421001,43.2757914 49.2421223,35.5938548 49.2421223,26.7587513 C49.2421223,23.8969724 48.7448113,21.1606896 47.7998445,18.6259187 L47.7998445,18.62592 Z M32.2471231,48.9724313 L32.1732093,48.3958064 L26.3008867,33.0334657 L20.4271216,48.3958064 L20.4034311,48.8722491 C22.3430955,49.4251654 24.3834346,49.6997111 26.4993185,49.6997111 C28.4892453,49.6997111 30.4053318,49.4488708 32.2471262,48.9724313 L32.2471231,48.9724313 Z M15.5765209,46.8647731 L5.02534202,19.1275971 C4.17987554,21.5117118 3.73127231,24.073249 3.73127231,26.7587523 C3.73127231,35.3934903 8.50932352,42.9737154 15.5765209,46.8647731 Z M26.4993185,3.7908762 C24.5344851,3.7908762 22.6185115,4.04171524 20.8017347,4.51815538 L26.5748248,20.5840675 L32.322556,4.54377482 C30.4557465,4.04171492 28.4907613,3.7908762 26.4993185,3.7908762 Z" id="path16"></path>
                            </g>
                        </g>
                    </g>
                </g>
            </g>
        </g>
    </g>
</svg>