<?xml version="1.0" encoding="UTF-8" standalone="no"?>
<svg width="100px" height="100px" viewBox="0 0 100 100" version="1.1" xmlns="http://www.w3.org/2000/svg" xmlns:xlink="http://www.w3.org/1999/xlink">
    <!-- Generator: Sketch 46.2 (44496) - http://www.bohemiancoding.com/sketch -->
    <title>client_bonprix</title>
    <desc>Created with Sketch.</desc>
    <defs></defs>
    <g id="Page-1" stroke="none" stroke-width="1" fill="none" fill-rule="evenodd" opacity="0.499766791">
        <g id="client_bonprix" fill-rule="nonzero" fill="#FFFFFF">
            <g id="logo_bonprix" transform="translate(22.000000, 29.000000)">
                <g id="Page-1">
                    <g id="Artboard">
                        <g id="Group">
                            <path d="M48.4946625,21.6896183 C48.4946625,21.6896183 51.8326352,21.7469442 54.178411,19.409322 C54.178411,19.409322 56.2804143,17.5366765 56.2675842,12.2266012 C56.2675842,12.2266012 56.2312322,10.1841012 55.1641929,5.3644806 C55.1321175,5.22647384 54.9781559,4.98655441 54.6787862,4.98655441 L50.1027058,4.98655441 C49.6921415,4.98655441 49.5296265,5.37297332 49.6087457,5.62775503 C49.6087457,5.62775503 50.1604414,7.23075659 50.5004399,9.16709754 C50.5004399,9.16709754 51.3215683,14.583332 49.6279909,16.3009852 C49.6279909,16.3009852 48.6935296,17.7574873 46.1766854,17.2500471 L46.1766854,5.46851646 C46.1766854,5.34112561 46.0825977,4.98655441 45.6463732,4.98655441 L40.7773381,4.98655441 C40.5100437,4.98655441 40.2684095,5.20736522 40.2684095,5.46639328 L40.2684095,21.1545767 C40.2684095,21.415728 40.4138177,21.6896183 40.8158285,21.6896183 L48.4946625,21.6896183 Z" id="path588" transform="translate(48.268026, 13.338149) scale(-1, 1) rotate(-180.000000) translate(-48.268026, -13.338149) "></path>
                            <path d="M26.0551893,39.4524875 C29.4551742,39.4524875 32.0383075,36.2931943 30.9712682,31.4735738 C30.9391929,31.3334438 30.7852313,31.0956476 30.4858615,31.0956476 L25.9097811,31.0956476 C25.5013552,31.0956476 25.3238717,31.3844002 25.415821,31.7368482 C25.5847511,32.3886647 26.095818,35.736921 23.7372121,35.0129163 L23.7372121,23.2313856 C23.7372121,23.1039948 23.6431244,22.7494236 23.2068999,22.7494236 L18.3378648,22.7494236 C18.0705704,22.7494236 17.8289363,22.9702344 17.8289363,23.2292624 L17.8289363,38.9174459 C17.8289363,39.1785972 17.9743444,39.4524875 18.3763552,39.4524875 L26.0551893,39.4524875 Z" id="path592" transform="translate(24.521923, 31.100956) scale(-1, 1) rotate(-180.000000) translate(-24.521923, -31.100956) "></path>
                            <path d="M34.7005599,38.1847362 C36.554514,38.1847362 37.6771505,39.4522752 37.6771505,39.4522752 L37.6771505,25.4371582 C37.6771505,25.3012746 37.5809245,24.9233485 37.1468384,24.9233485 L32.2778033,24.9233485 C32.0083705,24.9233485 31.7667364,25.1590215 31.7667364,25.4329119 L31.7667364,39.3928261 C31.7667364,39.3928261 32.8466058,38.1847362 34.7005599,38.1847362" id="path596" transform="translate(34.721943, 32.187812) scale(-1, 1) rotate(-180.000000) translate(-34.721943, -32.187812) "></path>
                            <path d="M20.9860041,9.42808744 C21.0138027,14.9802054 16.6836331,16.5662215 16.6836331,16.5662215 C12.8666688,18.1501144 10.195863,17.2774871 10.195863,17.2774871 L10.195863,21.8699273 L4.24695846,21.8699273 L4.24695846,4.19656976 C4.24695846,0.0860915933 10.0525932,0.548945024 10.0525932,0.548945024 C15.4305569,0.548945024 18.1312997,3.20079793 18.1312997,3.20079793 C21.1463807,5.96305625 20.9860041,9.42808744 20.9860041,9.42808744 M14.8296791,9.03529897 C14.8296791,7.12443619 13.3435221,5.55115916 11.6050392,5.57451415 C11.0725887,5.58300687 10.6064273,5.70615136 10.2065548,5.90785355 L10.2086932,12.1712371 C10.6278108,12.3856784 11.098249,12.5045765 11.5943474,12.5024533 C12.2187472,12.5003302 14.6436421,12.0863099 14.8296791,9.03529897" id="path600" transform="translate(12.617223, 11.201617) scale(-1, 1) rotate(-180.000000) translate(-12.617223, -11.201617) "></path>
                            <path d="M17.283228,34.1974025 C17.283228,34.1974025 17.3537937,37.2632757 14.6316673,39.4183043 C12.6622421,40.9979508 11.0028783,41.8811941 6.53157731,41.8811941 C6.53157731,41.8811941 1.66468055,41.8811941 0.83927539,41.8811941 C0.670345318,41.8811941 0.544182353,41.7835278 0.544182353,41.6157965 L0.544182353,22.7492112 L6.49308691,22.7492112 L6.49308691,26.3480028 C6.49308691,26.3480028 10.098354,25.4201728 12.980857,27.0592684 C15.7179519,28.6176832 17.3174417,31.0784498 17.283228,34.1974025 M11.1269029,33.9872076 C10.940866,30.9383199 8.51597107,30.5221764 7.89157131,30.5200532 C7.39547287,30.5179301 6.92503469,30.6368282 6.50591705,30.8512694 L6.50377869,37.114653 C6.90365114,37.3184784 7.36981261,37.4416229 7.90226309,37.4479924 C9.64074598,37.4713474 11.1269029,35.8980704 11.1269029,33.9872076" id="path604" transform="translate(8.913974, 32.315203) scale(-1, 1) rotate(-180.000000) translate(-8.913974, -32.315203) "></path>
                            <path d="M30.62571,16.7741556 C32.4005449,16.7741556 33.839658,15.2433422 33.839658,13.3537112 C33.839658,11.4640803 32.4005449,9.93326685 30.62571,9.93326685 C28.850875,9.93326685 27.4117619,11.4640803 27.4117619,13.3537112 C27.4117619,15.2433422 28.850875,16.7741556 30.62571,16.7741556 M34.6928618,8.68271332 C35.7256875,8.68271332 36.6708405,8.30266394 37.3936046,7.67632558 C38.8605164,9.17741446 39.7564873,11.1689581 39.7564873,13.3537112 C39.7564873,18.0247092 35.6679519,21.8124638 30.62571,21.8124638 C25.5834681,21.8124638 21.4949327,18.0247092 21.4949327,13.3537112 C21.4949327,8.69332922 25.5642229,4.91406727 30.5893579,4.89495864 C30.7433195,7.01176997 32.5202928,8.68271332 34.6928618,8.68271332" id="path608" transform="translate(30.625710, 13.353711) scale(-1, 1) rotate(-180.000000) translate(-30.625710, -13.353711) "></path>
                            <path d="M49.7282797,31.1018048 C49.7304181,30.987153 49.7689085,30.8788708 49.8309208,30.7960667 C53.5602125,25.9339825 54.1033548,23.8936057 54.188889,23.3691801 C54.2273794,23.1483692 54.0948014,22.7492112 53.671407,22.7492112 L49.0867731,22.7492112 C48.7638815,22.7492112 48.6334418,23.1080288 48.6334418,23.1080288 C47.7075339,25.4966073 46.3732002,26.8596894 46.3732002,26.8596894 C46.3154646,26.9106457 46.2555907,26.9276312 46.2042701,26.925508 L46.2021318,26.925508 C46.1508113,26.9276312 46.0909373,26.9106457 46.0332017,26.8596894 C46.0332017,26.8596894 44.6967296,25.4966073 43.7729601,23.1080288 C43.7729601,23.1080288 43.6425204,22.7492112 43.3174904,22.7492112 L38.7328566,22.7492112 C38.3116006,22.7492112 38.1790225,23.1483692 38.2153746,23.3691801 C38.3030471,23.8936057 38.8461894,25.9339825 42.5754811,30.7960667 C42.6374934,30.8788708 42.6759838,30.987153 42.6781222,31.1018048 L42.6781222,31.103928 C42.6759838,31.2185797 42.6374934,31.3289851 42.5754811,31.409666 C38.8461894,36.2717502 38.3030471,38.312127 38.2153746,38.8386759 C38.1790225,39.0594867 38.3116006,39.4565215 38.7328566,39.4565215 L43.3174904,39.4565215 C43.6425204,39.4565215 43.7729601,39.097704 43.7729601,39.097704 C44.6967296,36.7091255 46.0332017,35.3481665 46.0332017,35.3481665 C46.0909373,35.295087 46.1508113,35.2802248 46.2021318,35.2802248 L46.2042701,35.2802248 C46.2555907,35.2802248 46.3154646,35.295087 46.3732002,35.3481665 C46.3732002,35.3481665 47.7075339,36.7091255 48.6334418,39.097704 C48.6334418,39.097704 48.7638815,39.4565215 49.0867731,39.4565215 L53.671407,39.4565215 C54.0948014,39.4565215 54.2273794,39.0594867 54.188889,38.8386759 C54.1033548,38.312127 53.5602125,36.2717502 49.8309208,31.409666 C49.7689085,31.3289851 49.7304181,31.2185797 49.7282797,31.103928 L49.7282797,31.1018048 Z" id="path612" transform="translate(46.202436, 31.102866) scale(-1, 1) rotate(-180.000000) translate(-46.202436, -31.102866) "></path>
                        </g>
                    </g>
                </g>
            </g>
        </g>
    </g>
</svg>