<?xml version="1.0" encoding="UTF-8" standalone="no"?>
<svg width="130px" height="60px" viewBox="0 0 130 60" version="1.1" xmlns="http://www.w3.org/2000/svg" xmlns:xlink="http://www.w3.org/1999/xlink">
    <!-- Generator: Sketch 46.2 (44496) - http://www.bohemiancoding.com/sketch -->
    <title>Artboard</title>
    <desc>Created with Sketch.</desc>
    <defs></defs>
    <g id="Page-1" stroke="none" stroke-width="1" fill="none" fill-rule="evenodd">
        <g id="Artboard" fill-rule="nonzero" fill="#FFFFFF">
            <path d="M56.4125767,25.8647009 C55.6548172,25.4479402 54.5282652,25.2452032 52.9683047,25.2446389 C50.8338521,25.2454289 48.8524752,25.6882054 48.1026163,25.9676919 C47.933316,26.0220091 47.7521648,26.1681716 47.749202,26.4183127 L47.7496535,26.4734763 L47.9597269,27.5349887 L47.9649413,27.5547404 C48.0306862,27.7708804 48.2107088,27.8678048 48.3746479,27.8678048 L48.3754379,27.8678048 C48.4282032,27.8655474 48.4692585,27.8553894 48.5074921,27.8456547 L48.8627404,27.7626975 C49.7924808,27.5299097 51.1978138,27.1783296 52.7670858,27.1783296 C53.7189763,27.1783296 54.3589312,27.2612867 54.7879661,27.4424379 C55.4839312,27.705982 55.4883047,28.1558973 55.4953589,28.9006772 L55.4953589,30.0146727 C55.4156467,30.0132618 55.281053,30.011851 55.0738014,30.011851 C54.3051783,30.011851 52.7938916,30.0475452 51.3075767,30.2858352 C49.0395181,30.6341704 47.1628251,31.1770598 47.1746761,34.3020598 C47.1754661,38.2690463 50.8549808,38.2765237 52.6231806,38.2801919 L52.6234063,38.2801919 C53.8237449,38.2799661 54.9312506,38.1027088 55.6545858,37.9531603 C57.305263,37.5698363 57.7266795,37.0457111 57.7045293,35.405474 L57.7045293,28.8089729 C57.7069334,27.8029063 57.7098905,26.55079 56.4124865,25.8647009 L56.4125767,25.8647009 Z M55.506307,36.0548815 C54.6277799,36.3400113 53.6665779,36.4843397 52.6485192,36.4843397 L52.6485192,36.5770316 L52.6472551,36.4843397 C51.0205621,36.4719244 49.4319616,36.2858352 49.4299865,34.2109199 C49.4404266,32.5606659 50.3209289,32.3642777 51.4354887,32.1154063 L51.5128025,32.0981941 C52.5043375,31.8862867 54.9931919,31.8465011 55.5065948,31.8405756 L55.5063691,36.0548815 L55.506307,36.0548815 Z M76.09787,28.8089729 L76.09787,35.405474 C76.1200205,37.0457111 75.698463,37.5698363 74.0479265,37.9531603 C73.3245915,38.1027088 72.217086,38.2799097 71.016606,38.2801919 L71.016493,38.2801919 C69.2482935,38.2765237 65.568835,38.2690519 65.5678475,34.3020598 C65.5561375,31.1770598 67.4328305,30.6341704 69.7008895,30.2858352 C71.1872045,30.0475452 72.698491,30.011851 73.466973,30.011851 C73.6743655,30.011851 73.8088185,30.0132618 73.8886715,30.0146727 L73.8886715,28.9006772 C73.8816175,28.1558973 73.877244,27.705982 73.181279,27.4424379 C72.752244,27.2612867 72.112289,27.1783296 71.1603985,27.1783296 C69.5909855,27.1783296 68.1857935,27.5299097 67.256053,27.7626975 L66.9008045,27.8456547 C66.862571,27.8553951 66.821516,27.8655474 66.7686095,27.8678048 L66.7679325,27.8678048 C66.603993,27.8678048 66.4239705,27.7708804 66.3582255,27.5547404 L66.353,27.5349887 L66.1429265,26.4734763 L66.142475,26.4183127 C66.1454435,26.1681716 66.326589,26.0220091 66.4958895,25.9676919 C67.245607,25.6882054 69.2271255,25.2454853 71.361578,25.2446389 C72.9215385,25.2452032 74.0480905,25.4479402 74.80585,25.8647009 C76.103113,26.55079 76.100291,27.8029063 76.097893,28.8089729 L76.09787,28.8089729 Z M73.8999525,31.8405756 C73.3864085,31.8465011 70.897554,31.8862867 69.906019,32.0981941 L69.8288465,32.1154063 C68.7142865,32.3642777 67.8337845,32.5606659 67.823344,34.2109199 C67.8253195,36.2858352 69.41392,36.4719244 71.040613,36.4843397 L71.0418885,36.5770316 L71.0418885,36.4843397 C72.059947,36.4843397 73.021149,36.3400113 73.899676,36.0548815 L73.899902,31.8405756 L73.8999525,31.8405756 Z M109.416177,25.2446389 C104.292023,25.2515463 103.857486,28.6183691 103.852689,31.7741253 C103.857486,34.9183126 104.292023,38.2732788 109.416177,38.2801919 L109.416516,38.2801919 C114.536719,38.2732731 114.973231,34.927342 114.980426,31.773702 C114.975065,28.4737585 114.540669,25.2515519 109.416233,25.2446389 L109.416177,25.2446389 Z M109.416346,36.4383465 C106.308417,36.4246614 106.152238,34.8292889 106.131075,31.7746896 C106.152238,28.7033014 106.308135,27.0998872 109.416064,27.0863431 C112.524698,27.0998872 112.680455,28.7033014 112.701617,31.7732788 C112.680455,34.8292889 112.524275,36.4246614 109.416346,36.4383465 L109.416346,36.4383465 Z M100.22024,37.815886 L100.086352,37.849746 C99.369789,38.0314616 98.3879885,38.2801919 96.667334,38.2801919 L96.667221,38.2801919 L96.663553,38.2801919 C91.9211715,38.2732731 90.9904435,35.8810666 90.9852235,31.7511287 C90.9910135,27.0142494 92.49256,25.2509876 96.5254325,25.2446388 C97.9481185,25.2446388 98.928367,25.4286117 99.631668,25.5984763 L99.6274355,21.7831546 C99.62151,21.6158296 99.697272,21.3967269 100.093293,21.3212472 L101.352898,21 L101.421606,21 C101.710968,21.0072009 101.813395,21.2650959 101.813959,21.4836343 L101.813959,35.819272 C101.833429,36.7244639 101.726911,37.5011287 100.22028,37.815886 L100.22024,37.815886 Z M99.6285755,27.4345372 C99.2080055,27.3275959 98.0340495,27.0633465 96.712097,27.0633465 C94.2840495,27.0856377 93.265709,27.7452031 93.240314,31.7745485 C93.2688125,36.1989278 94.5862505,36.4380643 96.733824,36.4613431 L96.7350995,36.554035 L96.7350995,36.4613431 C98.0717245,36.4613431 99.2184515,36.1827032 99.6274525,36.0699774 L99.6285815,27.4345372 L99.6285755,27.4345372 Z M88.3088805,37.981377 L87.1823285,37.981377 C86.880551,37.9809255 86.652983,37.7529628 86.6522775,37.4513262 L86.6522775,28.9466704 C86.6318205,27.5080418 86.201939,27.1079289 84.652842,27.0863431 C82.9001615,27.0863431 81.126177,27.5261004 80.541104,27.6855249 L80.541104,37.451044 C80.5405395,37.7580418 80.3273625,37.9809537 80.0341905,37.981377 L78.8847835,37.981377 C78.5828645,37.9809255 78.3550145,37.7529628 78.3545915,37.4513262 L78.3545915,27.9123872 C78.3378025,27.0294865 78.4207595,26.4191591 79.676685,26.0126975 C80.878999,25.5974887 83.180212,25.2454853 84.700105,25.2446388 C87.597114,25.248307 88.8345575,26.2934537 88.838508,28.7397009 L88.838508,37.451044 C88.8380565,37.7529628 88.610235,37.9809537 88.3088805,37.981377 L88.3088805,37.981377 Z M62.7926558,38.211202 L62.7936716,38.211202 C63.4411038,38.1985045 63.9199413,38.0705418 64.1074413,37.8600451 C64.1740327,37.785412 64.2047889,37.6992099 64.196465,37.6141366 C64.1920971,37.5441591 64.1920971,37.5441591 64.0144673,36.7121896 L64.0102348,36.6922968 C63.971719,36.474746 63.8165271,36.3758465 63.6885643,36.3758465 C63.6765722,36.3758465 63.6648623,36.3765237 63.6712111,36.3774041 C63.6712111,36.3774041 63.5085418,36.3695034 63.3479887,36.3695034 L63.3464424,36.3695034 C62.8849582,36.3548307 62.5024808,36.2876749 62.4945801,35.6123081 L62.4945801,21.483781 C62.4941287,21.2481659 62.3520519,21.0064898 62.0793375,21 L61.9989199,21.0006772 L60.7372099,21.3240406 C60.5221986,21.3460497 60.2984402,21.4988431 60.3080339,21.7828442 L60.3080339,35.6584086 C60.3104379,37.3016084 61.1923454,38.2082111 62.7916682,38.2111738 L62.792684,38.2111738 L62.7926558,38.211202 Z M44.9723962,37.981377 L35.9326106,37.981377 C35.630833,37.9809255 35.4029831,37.7529628 35.4024187,37.4513262 L35.4024187,36.3477709 C35.3962111,36.0773138 35.4828363,35.9568284 35.649456,35.7504233 L42.8447156,27.3852991 L35.794772,27.3852991 C35.4928533,27.3846219 35.2650034,27.1567438 35.2645801,26.8552483 L35.2645801,26.0736456 C35.2650316,25.772009 35.4928533,25.5441591 35.7946309,25.5435948 L44.9264029,25.5435948 C45.2280395,25.5441591 45.4558894,25.772009 45.4564537,26.0735045 L45.4564537,27.1999153 C45.4608217,27.4034988 45.3902856,27.5761851 45.2277573,27.7573363 L38.014298,36.1393905 L44.9722551,36.1393905 C45.2740327,36.1402935 45.5018826,36.3679458 45.502447,36.6695824 L45.502447,37.451044 C45.5018826,37.7529628 45.2740327,37.9809537 44.9723962,37.981377 L44.9723962,37.981377 Z" id="path6289"></path>
            <path d="M17.2890801,24.1496896 C15.7267213,24.1496896 14.9233916,28.415632 15.0070542,32.4207111 C15.0048142,32.4201467 15.0022398,32.4212754 15,32.4207111 C15.0835214,35.9360892 15.8608917,39.3055869 17.4019469,39.3055869 C23.3157449,39.3055869 30.0536117,33.7285553 30.0536117,31.7294018 C30.0536117,31.2292607 29.5441591,30.26693 28.861456,29.5073363 C28.860553,29.5078555 28.8588036,29.5068171 28.8579345,29.5073363 C28.8115124,29.4534424 28.7622743,29.3996896 28.7133183,29.3450903 C26.6066591,26.9946388 22.2361738,24.1496896 17.2890801,24.1496896 Z" id="path6315"></path>
        </g>
    </g>
</svg>