<?xml version="1.0" encoding="UTF-8" standalone="no"?>
<svg width="130px" height="60px" viewBox="0 0 130 60" version="1.1" xmlns="http://www.w3.org/2000/svg" xmlns:xlink="http://www.w3.org/1999/xlink">
    <!-- Generator: Sketch 46.2 (44496) - http://www.bohemiancoding.com/sketch -->
    <title>Artboard</title>
    <desc>Created with Sketch.</desc>
    <defs></defs>
    <g id="Page-1" stroke="none" stroke-width="1" fill="none" fill-rule="evenodd">
        <g id="Artboard" fill-rule="nonzero" fill="#FFFFFF">
            <path d="M13.5006887,18 L1,30.5487404 L13.5000001,43 L26,30.5487404 L13.5006887,18 Z M17.2408408,31.73441 C15.9612969,32.2287272 14.8787119,32.2287272 14.189356,32.2287272 C13.2052504,32.3275905 11.5317889,31.9328282 11.5317889,31.9328282 L11.4333095,31.9328282 L9.26813949,34.9955201 L7.79163682,34.9955201 L10.1537656,31.4385111 L9.7605366,31.2414757 L9.7605366,30.7471586 L8.77574239,30.7471586 L8.77574239,32.1298636 L7.59467797,32.6241808 L7.59467797,29.4619342 L10.5476833,29.4619342 L12.417415,26.0037887 L10.8424329,26.0037887 L10.8424329,26.6951413 L9.66136852,26.6951413 L9.66136852,26.0037887 L8.87353313,26.0037887 L8.87353313,26.6951413 L7.59398931,26.6951413 L7.59398931,24.7192556 L14.4841055,24.7192556 L14.1886672,25.5101629 L14.582585,25.5101629 L14.8780233,25.0158459 L15.0749821,24.7192556 L17.240152,24.7192556 C17.0431932,26.3992423 14.7795438,26.7940046 13.5984794,26.7940046 L13.5984794,29.3630707 C15.1734614,29.9555599 16.6499642,29.2642073 17.0431932,29.1653439 C17.4371109,28.9676171 17.8303399,28.9676171 17.8303399,28.9676171 L19.1098838,30.7471586 C18.9129249,30.846022 18.7166548,31.0430574 18.5196959,31.1412295 L20.9803041,35.0936921 L19.5038014,35.0936921 L17.2408408,31.73441 Z" id="Shape"></path>
            <path d="M28,33.547388 L28.3955606,33.547388 C29.2848803,33.3469603 29.9771113,33.0445608 29.9771113,31.9390441 L29.9771113,24.2004276 L31.6575523,24.2004276 L31.6575523,31.9390441 C31.6575523,33.7492222 30.7682326,34.9553043 28.7911211,34.9553043 C28.7911211,34.9553043 28.3955606,35.0558697 28.1984717,34.9553043 L28,33.547388 L28,33.547388 Z M38.8723838,30.3314036 L35.7099737,30.3314036 L37.1926343,26.7131572 L38.8723838,30.3314036 Z M32.3490918,34.7534701 L33.8317525,34.7534701 L35.215523,31.7386165 L39.4657247,31.7386165 L40.8494952,34.7534701 L42.4310461,34.7534701 L37.7852837,24.2004276 L36.6981837,24.2004276 L32.3490918,34.7534701 L32.3490918,34.7534701 Z M117.250086,30.3314036 L114.086985,30.3314036 L115.570337,26.7131572 L117.250086,30.3314036 Z M110.726794,34.7534701 L112.210147,34.7534701 L113.593226,31.7386165 L117.843427,31.7386165 L119.226506,34.7534701 L120.808057,34.7534701 L116.162986,24.2004276 L115.075886,24.2004276 L110.726794,34.7534701 Z M43.0236953,24.2004276 L44.2096856,24.2004276 L51.1285382,32.0410161 L51.1285382,24.2004276 L52.6105073,24.2004276 L52.6105073,34.7534701 L51.4245171,34.7534701 L44.6052462,26.9142881 L44.6052462,34.7534701 L43.0236953,34.7534701 L43.0236953,24.2004276 L43.0236953,24.2004276 Z M74.5530553,24.2004276 L75.7390455,24.2004276 L82.6572066,32.0410161 L82.7560967,32.0410161 L82.7560967,24.2004276 L84.1398672,24.2004276 L84.1398672,34.7534701 L83.0527671,34.7534701 L76.133223,26.9142881 L76.133223,34.7534701 L74.5530553,34.7534701 L74.5530553,24.2004276 Z M53.9942778,32.0410161 C54.8842892,32.8448364 55.4769384,33.4475259 56.7618189,33.4475259 C57.6511387,33.4475259 58.4422598,33.045264 58.4422598,32.0410161 C58.4422598,29.7287141 53.8960792,30.0304104 53.8960792,26.7131572 C53.8960792,25.2053788 55.2798498,24.0998622 56.9602907,24.0998622 C58.0473908,24.0998622 58.7389303,24.4015585 59.4311613,24.803117 L59.4311613,26.5120264 C58.9374021,25.9093369 58.0473908,25.4065097 56.9602907,25.4065097 C56.0702794,25.4065097 55.3787399,25.8087715 55.3787399,26.7131572 C55.3787399,28.5219288 59.8267219,28.7230596 59.8267219,31.839182 C59.8267219,33.5480913 58.6407317,34.7541733 56.6636203,34.7541733 C55.47763,34.7541733 54.6872004,34.5537457 53.9949693,33.8504909 L53.9949693,32.0410161 L53.9942778,32.0410161 L53.9942778,32.0410161 Z M60.5175698,32.0410161 C61.3079994,32.8448364 62.0002305,33.4475259 63.1862208,33.4475259 C64.1744306,33.4475259 64.8666617,33.045264 64.8666617,32.0410161 C64.8666617,29.7287141 60.4186797,30.0304104 60.4186797,26.7131572 C60.4186797,25.2053788 61.8024502,24.0998622 63.4828912,24.0998622 C64.471101,24.0998622 65.1633321,24.4015585 65.9537618,24.803117 L65.9537618,26.5120264 C65.4600025,25.9093369 64.471101,25.4065097 63.384001,25.4065097 C62.5935714,25.4065097 61.9013404,25.8087715 61.9013404,26.7131572 C61.9013404,28.5219288 66.3493224,28.7230596 66.3493224,31.839182 C66.3493224,33.5480913 65.1633321,34.7541733 63.1862208,34.7541733 C62.0002305,34.7541733 61.2098009,34.5537457 60.5175698,33.8504909 L60.5175698,32.0410161 L60.5175698,32.0410161 Z M67.5353125,24.2004276 L73.365682,24.2004276 L73.365682,25.7082061 L68.9183915,25.7082061 L68.9183915,28.823625 L73.1685933,28.823625 L73.1685933,30.230838 L68.9183915,30.230838 L68.9183915,33.3469603 L73.4659553,33.3469603 L73.4659553,34.7534701 L67.5353125,34.7534701 L67.5353125,24.2004276 Z M86.017397,28.7230596 L89.6749493,28.7230596 L89.6749493,30.1302726 L86.017397,30.1302726 L86.017397,28.7230596 Z M100.546642,33.9496498 C99.0632894,34.6529047 97.6802105,34.8547389 96.6920006,34.8547389 C93.3318101,34.8547389 91.2558086,32.441168 91.2558086,29.4263145 C91.2558086,26.5113231 93.6291721,24.1997243 96.8890893,24.1997243 C98.4706401,24.1997243 99.5577402,24.6019861 100.349553,25.1041102 L100.349553,26.6118885 C99.1635627,25.9086337 98.4706401,25.6069373 96.7908907,25.6069373 C94.8151624,25.6069373 92.7391607,26.9135849 92.7391607,29.5268799 C92.7391607,31.7379133 94.3207116,33.5466848 96.4956032,33.5466848 C98.1760442,33.5466848 99.2631443,33.1444229 100.547333,32.3406026 L100.547333,33.9496498 L100.546642,33.9496498 L100.546642,33.9496498 Z M101.931104,24.2004276 L103.413073,24.2004276 L103.413073,34.7534701 L101.931104,34.7534701 L101.931104,24.2004276 Z M105.191712,24.2004276 L106.674373,24.2004276 L106.674373,33.3469603 L110.430816,33.3469603 L110.430816,34.7534701 L105.191712,34.7534701 L105.191712,24.2004276 Z M128.517339,30.7329621 L126.441338,30.7329621 L126.441338,29.3264523 L130,29.3264523 L130,33.7499255 C128.9129,34.3526148 127.72691,34.7541733 126.046469,34.7541733 C122.686278,34.7541733 120.511387,32.3420091 120.511387,29.427721 C120.511387,26.4121642 122.784477,24 126.243557,24 C127.626636,24 128.713737,24.3016964 129.603748,24.9050891 L129.603748,26.4128674 C128.614846,25.7096126 127.330658,25.407213 125.749107,25.407213 C124.366028,25.407213 122.092937,26.5127296 122.092937,29.427721 C122.092937,31.5388921 123.673105,33.3476636 125.947579,33.3476636 C126.540228,33.3476636 127.825108,33.2470982 128.516648,32.7449742 L128.516648,30.7329621 L128.517339,30.7329621 L128.517339,30.7329621 Z" id="Shape"></path>
        </g>
    </g>
</svg>