<?xml version="1.0" encoding="UTF-8"?>
<svg width="80px" height="80px" viewBox="0 0 80 80" version="1.1" xmlns="http://www.w3.org/2000/svg" xmlns:xlink="http://www.w3.org/1999/xlink">
    <!-- Generator: Sketch 46.2 (44496) - http://www.bohemiancoding.com/sketch -->
    <title>client_bmw</title>
    <desc>Created with Sketch.</desc>
    <defs></defs>
    <g id="Page-1" stroke="none" stroke-width="1" fill="none" fill-rule="evenodd">
        <g id="client_bmw" fill-rule="nonzero" fill="#FFFFFF">
            <path d="M79.9179424,39.9874896 C79.9179424,62.0380247 62.0391769,79.9161317 39.9884773,79.9161317 C17.9375308,79.9161317 0.0606584363,62.0380247 0.0606584363,39.9874896 C0.0606584363,17.9357201 17.9375308,0.0588477366 39.9884773,0.0588477366 C62.0391769,0.0588477366 79.9179424,17.9357201 79.9179424,39.9874896 Z M66.5576954,39.9874896 C66.5576954,25.3135803 54.6622222,13.4182716 39.9885597,13.4182716 C25.3145679,13.4182716 13.4190946,25.3134979 13.4190946,39.9874896 C13.4190946,54.6608231 25.3145679,66.5556378 39.9885597,66.5556378 C54.6622222,66.5556378 66.5576954,54.6607407 66.5576954,39.9874896 Z M41.0748972,12.2954733 L43.8347324,4.98065844 L43.8347324,12.2954733 L45.9311111,12.2954733 L45.9311111,1.81917695 L42.7805761,1.81917695 L39.9154733,9.31983536 L39.9426338,9.31983536 L37.0774486,1.81917695 L33.9269136,1.81917695 L33.9269136,12.2954733 L36.0232921,12.2954733 L36.0232921,4.98065844 L38.7833745,12.2954733 L41.0748972,12.2954733 Z M69.8405761,16.6949794 L68.2041153,14.7312758 L62.4213169,17.3104526 L66.1588477,12.2768724 L64.6330041,10.4469136 L58.6632921,18.3508641 L60.4707819,20.5032098 L66.1810699,18.0589301 L66.2012345,18.0851852 L62.7691359,23.2589301 L64.5580247,25.4255967 L73.4102058,20.9801646 L71.8858436,19.1495474 L66.2606584,21.9171194 L69.8405761,16.6949794 Z M21.0590947,15.1903704 C20.2171194,14.371358 18.9134979,14.1242798 17.6915227,14.8823046 C17.9239507,14.276214 17.8289713,13.6592593 17.7051852,13.3188478 C17.1772016,12.3573662 16.9939095,12.2376132 16.5592593,11.8727572 C15.152181,10.6930864 13.6737449,11.7003292 12.6179424,12.9617284 L7.50362139,19.0535803 L15.5409053,25.7964609 L20.9317695,19.3718519 C22.1624692,17.9036213 22.3541564,16.4490535 21.0590947,15.1903704 Z M10.6626338,18.1284773 L13.7331687,14.4697942 C14.0880658,14.0455144 14.8925104,14.0624691 15.4102058,14.4960494 C15.9788477,14.9739095 15.9805761,15.6502058 15.5968724,16.1042799 L12.5620576,19.7223046 L10.6626338,18.1284773 Z M19.1360493,18.7369547 L15.9347324,22.5519342 L13.9266666,20.8671604 L17.1535803,17.0218107 C17.5184363,16.5881481 18.3297942,16.4616461 18.878107,16.9217284 C19.4992593,17.441893 19.5604116,18.2303704 19.1360493,18.7369547 Z" id="Combined-Shape"></path>
            <path d="M15.0027984,39.987819 L39.9884773,39.987819 L39.9884773,15.0022222 C26.1885597,15.0022222 15.0027984,26.1880658 15.0027984,39.987819 Z" id="Shape"></path>
            <path d="M39.9884773,39.987819 L39.9884773,64.9737449 C53.7882305,64.9737449 64.9741564,53.7858436 64.9741564,39.987819 L39.9884773,39.987819 Z" id="Shape"></path>
        </g>
    </g>
</svg>