<?xml version="1.0" encoding="UTF-8"?>
<svg width="79px" height="80px" viewBox="0 0 79 80" version="1.1" xmlns="http://www.w3.org/2000/svg" xmlns:xlink="http://www.w3.org/1999/xlink">
    <!-- Generator: Sketch 46.2 (44496) - http://www.bohemiancoding.com/sketch -->
    <title>client_axa</title>
    <desc>Created with Sketch.</desc>
    <defs></defs>
    <g id="Page-1" stroke="none" stroke-width="1" fill="none" fill-rule="evenodd">
        <g id="client_axa" fill-rule="nonzero" fill="#FFFFFF">
            <path d="M8.90409124e-08,0 L0,0 L78.5185185,0 L78.5185185,79.3427081 L8.90409124e-08,79.3427081 L8.90409124e-08,0 Z M59.9911812,56.3396127 L56.383689,43.7597947 L56.2946124,43.2206599 L56.1610067,42.5018133 L56.1164684,41.8278944 L56.1164684,41.5583265 L50.371211,41.5583265 C49.2087997,44.2944372 46.8453781,46.9571653 45.1158566,49.375785 C43.2735201,51.8722794 41.3888625,54.3373249 39.5042139,56.7888916 C39.1731599,55.7226028 38.9096433,54.6218687 38.5689372,53.5540818 C41.6293621,49.8183253 44.9280603,44.7916399 48.3670516,41.5583265 L42.4881883,41.5583265 C42.3434434,43.4872321 40.6695991,44.7938855 39.6378199,46.2757587 C38.7270471,47.4963 37.7338759,48.7041126 36.8319985,49.9149197 C36.4014767,48.5580967 36.0904569,47.1518533 35.6740393,45.7815516 C35.324429,44.2832049 34.7098154,43.1457801 34.7833009,41.5583265 L27.7464766,41.5583265 C29.816699,45.4236253 31.1245985,51.7637044 32.2892385,54.7222079 L30.2405416,57.3280271 L30.2405416,57.2830987 L30.1960052,57.1483153 L30.1069313,56.9236759 L30.0178575,56.6541081 L29.9287837,56.2946843 L29.7951724,55.9352615 L29.5279519,54.9468473 L29.3498041,54.4077117 C28.833919,52.7655966 28.350693,51.1107517 27.8355505,49.465641 C27.0160714,46.4315086 26.091931,44.7751655 25.9650015,41.5583265 L19.9525224,41.5583265 C17.8630004,46.4210255 13.5896862,50.9093243 10.5107034,55.2613425 C8.28831298,58.2572859 6.04216984,61.2225289 3.74109807,64.1570704 C2.93349529,65.2136259 2.12515081,66.2679342 1.29156947,67.3020252 C0.969419474,67.6120276 0.756384665,68.0118859 0.445368351,68.3353671 L0.356294504,68.4701514 L0.178146806,68.6498624 L0.178146806,68.6947907 L0.133610327,68.6947907 L0,68.8295742 L0,71.0759705 L3.47387653,71.0759705 C4.61402036,68.8737535 6.38287684,66.8557412 7.88302732,64.8759179 C8.88213833,63.4546973 9.99852947,62.1188407 11.0006092,60.6976212 L11.3569045,60.2932701 L11.6686626,59.8439904 L11.9358841,59.4845667 L12.1585683,59.1700714 L12.336716,58.9005044 L12.6039366,58.6309367 L12.6039366,58.5860083 L24.2726001,58.5860083 L25.6532434,63.348368 C23.6424024,65.9736563 21.6657077,68.8408065 19.2399326,71.0759705 L24.7179684,71.0759705 C25.6369124,69.0826684 26.1231068,68.7172545 27.3456447,67.0324575 C27.9513464,68.6573508 28.0797603,69.4286133 28.3699926,71.0759705 L33.8925624,71.0759705 C34.5969916,69.4757873 35.4350268,68.4813828 36.609316,67.2121693 C37.0480028,68.6528579 37.3486316,69.568639 37.5000545,71.0759705 L44.5814153,71.0759705 C43.2683201,68.7120133 43.2586681,68.5749825 42.4881883,66.0889716 C42.1333692,65.0324159 41.8171582,63.9256917 41.463835,62.8541607 L41.2856908,62.3150261 L41.152076,61.8657465 L41.0184702,61.5063237 L40.973932,61.2816834 L40.9293936,61.2367559 L42.7999384,58.5860083 L54.5576827,58.5860083 L54.5576827,58.6309367 L54.602212,58.7657201 L54.6912886,58.9903596 L54.780365,59.3497833 L54.913971,59.709207 L55.0475858,60.1584856 L55.1811916,60.6976212 C55.6881727,62.1225846 56.0370439,63.5610268 56.5173039,64.9657729 C57.0710403,66.9837861 57.9046234,68.9433921 57.8979453,71.0759705 L65.2910649,71.0759705 C64.1999132,69.7183985 63.2624104,66.2889007 62.6633877,64.6063501 C61.740737,61.8717367 60.9531702,59.0427756 59.9911812,56.3396127 Z M51.2619495,47.2192447 L51.2619495,47.2192447 L51.3510259,47.1293887 L51.3510259,47.1743172 L51.3955641,47.264173 L51.3955641,48.4322984 L51.5291701,49.3308567 L51.6182465,49.6902804 L51.7518524,50.1395601 L51.9300055,50.6786947 L52.1081496,51.3076853 C52.5052721,52.5701603 52.9298547,53.8700744 53.3106471,55.1265591 L45.4721538,55.1265591 C47.3820455,52.6510304 49.7640233,49.9261521 51.2619495,47.2192447 Z M21.1550181,47.2192447 L21.1550181,47.2192447 L21.1995545,47.1293887 L21.2440919,47.1743172 L21.2440919,47.6685243 L21.2886284,48.4322984 L21.4222396,49.3308567 L21.5113135,49.6902804 L21.6449237,50.1395601 L21.8230714,50.6786947 L22.0012191,51.3076853 C22.3886896,52.5484449 22.7858102,53.9060169 23.2037148,55.1265591 L15.3652233,55.1265591 L15.3652233,55.0816307 L15.4988344,54.9468473 L15.6324447,54.7671354 L15.8551289,54.542496 L16.0778141,54.2280007 L16.3450347,53.868577 C16.9254985,53.0965653 17.5631187,52.3612453 18.1265099,51.577253 C19.1738695,50.2683533 20.3422197,48.6891364 21.1550181,47.2192447 Z M32.9572919,65.6846203 L31.621185,61.4613953 L33.7144182,58.7207926 C34.1345487,60.0529053 34.5710095,61.3797761 35.0950599,62.6744489 L32.9572919,65.6846203 Z M48.6788105,39.1771468 L78.5185185,0 L74.1093733,0 L44.1360505,39.1771468 L48.6788105,39.1771468 Z" id="Combined-Shape"></path>
        </g>
    </g>
</svg>