<?xml version="1.0" encoding="UTF-8"?>
<svg width="54px" height="80px" viewBox="0 0 54 80" version="1.1" xmlns="http://www.w3.org/2000/svg" xmlns:xlink="http://www.w3.org/1999/xlink">
    <!-- Generator: Sketch 46.2 (44496) - http://www.bohemiancoding.com/sketch -->
    <title>interaction-design</title>
    <desc>Created with Sketch.</desc>
    <defs></defs>
    <g id="Page-1" stroke="none" stroke-width="1" fill="none" fill-rule="evenodd">
        <g id="interaction-design">
            <path d="M40.7032558,3.7172093 L12.7962791,3.7172093 C11.5144186,3.7172093 10.4706977,4.76093023 10.4706977,6.0427907 L10.4706977,63.7209302 C10.4706977,65.0037209 11.5144186,66.0465116 12.7962791,66.0465116 L31.1953488,66.0465116 L31.1953488,61.0660465 C31.1953488,58.7990698 32.2474419,55.627907 34.1981395,54.1469767 L36.7367442,51.7274419 L29.8269767,51.7274419 C26.2409302,51.7274419 23.3227907,48.8093023 23.3227907,45.2232558 L23.3227907,44.2790698 C23.3227907,40.6930233 26.24,37.7748837 29.8260465,37.7748837 L43.027907,37.7748837 L43.027907,6.0427907 C43.0288372,4.76093023 41.9860465,3.7172093 40.7032558,3.7172093 Z" id="Shape"></path>
            <path d="M40.7032558,3.7172093 L12.7962791,3.7172093 C11.5144186,3.7172093 10.4706977,4.76093023 10.4706977,6.0427907 L10.4706977,63.7209302 C10.4706977,65.0037209 11.5144186,66.0465116 12.7962791,66.0465116 L31.1953488,66.0465116 L31.1953488,61.0660465 C31.1953488,58.7990698 32.2474419,55.627907 34.1981395,54.1469767 L36.7367442,51.7274419 L29.8269767,51.7274419 C26.2409302,51.7274419 23.3227907,48.8093023 23.3227907,45.2232558 L23.3227907,44.2790698 C23.3227907,40.6930233 26.24,37.7748837 29.8260465,37.7748837 L43.027907,37.7748837 L43.027907,6.0427907 C43.0288372,4.76093023 41.9860465,3.7172093 40.7032558,3.7172093 Z" id="Shape"></path>
            <path d="M40.7032558,3.7172093 L12.7962791,3.7172093 C11.5144186,3.7172093 10.4706977,4.76093023 10.4706977,6.0427907 L10.4706977,63.7209302 C10.4706977,65.0037209 11.5144186,66.0465116 12.7962791,66.0465116 L31.1953488,66.0465116 L31.1953488,61.0660465 C31.1953488,58.7990698 32.2474419,55.627907 34.1981395,54.1469767 L36.7367442,51.7274419 L29.8269767,51.7274419 C26.2409302,51.7274419 23.3227907,48.8093023 23.3227907,45.2232558 L23.3227907,44.2790698 C23.3227907,40.6930233 26.24,37.7748837 29.8260465,37.7748837 L43.027907,37.7748837 L43.027907,6.0427907 C43.0288372,4.76093023 41.9860465,3.7172093 40.7032558,3.7172093 Z" id="Shape"></path>
            <path d="M18.9004651,79.4837209 L18.9004651,74 C18.9004651,73.7265116 18.8204651,73.4595349 18.6697674,73.2325581 L15.7683721,68.8372093 L32.5906977,68.8372093 C33.3609302,68.8372093 33.9860465,68.212093 33.9860465,67.4418605 C33.9860465,67.4251163 33.9804651,67.4093023 33.9804651,67.3925581 C33.9804651,67.375814 33.9860465,67.36 33.9860465,67.3432558 L33.9860465,61.0660465 C33.9860465,59.2986047 34.8893023,57.0911628 35.9172093,56.3423256 L41.187907,51.3423256 C41.1897674,51.3386047 41.1916279,51.3367442 41.1934884,51.3330233 C41.3218605,51.2093023 41.424186,51.064186 41.4986047,50.8986047 C41.5004651,50.892093 41.504186,50.8874419 41.5060465,50.8818605 C41.5711628,50.7302326 41.6065116,50.5637209 41.6148837,50.3906977 C41.6148837,50.3767442 41.6186047,50.3665116 41.6186047,50.3544186 C41.6186047,50.3460465 41.6204651,50.3386047 41.6204651,50.332093 C41.6204651,50.1683721 41.587907,50.0139535 41.5367442,49.8688372 C41.5302326,49.8539535 41.5274419,49.84 41.5218605,49.8251163 C41.4586047,49.6613953 41.3627907,49.5144186 41.2455814,49.3860465 C41.24,49.3804651 41.2381395,49.3739535 41.2344186,49.3683721 C41.2306977,49.3646512 41.2288372,49.3646512 41.2251163,49.3627907 C41.1013953,49.2334884 40.9562791,49.1302326 40.7906977,49.0576744 C40.7851163,49.055814 40.7804651,49.052093 40.7739535,49.0483721 C40.6232558,48.984186 40.455814,48.9488372 40.2827907,48.9413953 C40.2688372,48.9395349 40.2586047,48.9376744 40.2465116,48.9376744 C40.2381395,48.935814 40.2306977,48.9339535 40.224186,48.9339535 L29.8251163,48.9339535 C27.7786047,48.9339535 26.1125581,47.267907 26.1125581,45.2204651 L26.1125581,44.2790698 C26.1125581,42.2316279 27.7786047,40.5674419 29.8251163,40.5674419 L44.8651163,40.5674419 L45.6902326,40.5674419 L45.8223256,40.5674419 C48.692093,42.5823256 52.4037209,50.9906977 49.0474419,63.7851163 C49.0465116,63.787907 49.0465116,63.7925581 49.0455814,63.7944186 C49.0455814,63.7962791 49.0446512,63.7981395 49.0446512,63.7981395 C48.787907,64.8195349 48.264186,65.1553488 47.0037209,65.88 L48.3972093,68.2986047 C49.7023256,67.5460465 51.1804651,66.692093 51.744186,64.5051163 C51.7460465,64.5013953 51.747907,64.4976744 51.7497674,64.4939535 C56.1683721,49.3553488 50.3860465,39.0390698 45.8204651,37.3944186 L45.8204651,37.0353488 L45.8204651,6.0427907 C45.8204651,3.22139535 43.5237209,0.926511628 40.704186,0.926511628 L12.7972093,0.926511628 C9.97581395,0.926511628 7.68093023,3.22139535 7.68093023,6.0427907 L7.68093023,16.8074419 L5.91069767,16.8074419 C2.99627907,16.8074419 0.625116279,19.1786047 0.625116279,22.0930233 C0.625116279,24.784186 2.64744186,27.0065116 5.25116279,27.332093 C2.64744186,27.6586047 0.625116279,29.8809302 0.625116279,32.572093 C0.625116279,35.4855814 2.99627907,37.8567442 5.91069767,37.8567442 C2.99627907,37.8567442 0.625116279,40.227907 0.625116279,43.1423256 C0.625116279,46.0576744 2.99627907,48.4288372 5.91069767,48.4288372 C2.99627907,48.4288372 0.625116279,50.8 0.625116279,53.7144186 C0.625116279,56.6288372 2.99627907,59 5.91069767,59 L7.68093023,59 L7.68093023,63.7209302 C7.68093023,66.412093 9.77116279,68.6213953 12.4130233,68.8176744 L16.1097674,74.4186047 L16.1097674,79.4837209 L18.9004651,79.4837209 Z M7.68,56.5590698 L5.90976744,56.5590698 C4.34046512,56.5590698 3.06325581,55.2818605 3.06325581,53.7125581 C3.06325581,52.1432558 4.34046512,50.8660465 5.90976744,50.8660465 L7.68,50.8660465 L7.68,56.5590698 Z M7.68,45.9869767 L5.90976744,45.9869767 C4.34046512,45.9869767 3.06325581,44.7097674 3.06325581,43.1395349 C3.06325581,41.5693023 4.34046512,40.292093 5.90976744,40.292093 L7.68,40.292093 L7.68,45.9869767 Z M7.68,35.4139535 L5.90976744,35.4139535 C4.34046512,35.4139535 3.06325581,34.1367442 3.06325581,32.5683721 C3.06325581,30.9981395 4.34046512,29.7218605 5.90976744,29.7218605 L7.68,29.7218605 L7.68,35.4139535 Z M7.68,24.9386047 L5.90976744,24.9386047 C4.34046512,24.9386047 3.06325581,23.6613953 3.06325581,22.0930233 C3.06325581,20.5246512 4.34046512,19.2474419 5.90976744,19.2474419 L7.68,19.2474419 L7.68,24.9386047 Z M43.0288372,37.7748837 L29.8260465,37.7748837 C26.24,37.7748837 23.3227907,40.692093 23.3227907,44.2790698 L23.3227907,45.224186 C23.3227907,48.8102326 26.2409302,51.7283721 29.8269767,51.7283721 L36.7367442,51.7283721 L34.1981395,54.147907 C32.2474419,55.6297674 31.1953488,58.8009302 31.1953488,61.0669767 L31.1953488,66.0465116 L12.7962791,66.0465116 C11.5144186,66.0465116 10.4706977,65.0037209 10.4706977,63.7209302 L10.4706977,6.0427907 C10.4706977,4.76093023 11.5144186,3.7172093 12.7962791,3.7172093 L40.7032558,3.7172093 C41.9860465,3.7172093 43.0288372,4.76093023 43.0288372,6.0427907 L43.0288372,37.7748837 Z" id="Shape" fill="#FFFFFF" fill-rule="nonzero"></path>
            <path d="M40.8660465,9.86046512 C40.8660465,7.91069767 39.2790698,6.32372093 37.3293023,6.32372093 L16.172093,6.32372093 C14.2223256,6.32372093 12.6353488,7.90976744 12.6353488,9.86046512 L12.6353488,59.4837209 C12.6353488,61.4344186 14.2223256,63.0223256 16.172093,63.0223256 L27.9944186,63.0223256 L27.9953488,61.0930233 L16.172093,61.0930233 C15.2846512,61.0930233 14.5637209,60.3711628 14.5637209,59.4846512 L14.5637209,9.86046512 C14.5637209,8.97395349 15.2855814,8.25302326 16.172093,8.25302326 L37.3293023,8.25302326 C38.215814,8.25302326 38.9376744,8.97395349 38.9376744,9.86046512 L38.9376744,34.3832558 L40.8660465,34.3832558 L40.8660465,9.86046512 L40.8660465,9.86046512 Z" id="Shape" fill="#FFFFFF" fill-rule="nonzero"></path>
            <path d="M34.4037209,13.64 L19.5497674,13.64 C18.624186,13.64 18.4065116,13.8567442 18.4065116,14.7832558 L18.4065116,24.2074419 C18.4065116,25.1330233 18.6232558,25.3497674 19.5497674,25.3497674 L34.4046512,25.3497674 C35.3311628,25.3497674 35.547907,25.1330233 35.547907,24.2074419 L35.547907,14.7823256 C35.5469767,13.8567442 35.3302326,13.64 34.4037209,13.64 Z M33.867907,14.72 C33.9460465,14.72 34.0223256,14.7367442 34.0911628,14.7646512 L27.1469767,20.2018605 L20.1386047,14.72 L33.867907,14.72 L33.867907,14.72 Z M20.3488372,24.2688372 L24.9906977,20.9953488 C25.1544186,20.8809302 25.1934884,20.655814 25.0790698,20.4939535 C24.9637209,20.3311628 24.7395349,20.292093 24.5767442,20.4065116 L19.5572093,23.9451163 C19.5134884,23.8623256 19.4874419,23.7702326 19.4874419,23.6706977 L19.4874419,15.3181395 C19.4874419,15.2586047 19.5004651,15.2009302 19.5153488,15.1460465 L26.7051163,20.7683721 C26.8353488,20.8697674 26.9925581,20.9218605 27.1497674,20.9218605 C27.3060465,20.9218605 27.4632558,20.8706977 27.5934884,20.7683721 L34.4688372,15.3851163 L34.4688372,23.6697674 C34.4688372,23.6818605 34.4660465,23.6930233 34.4651163,23.7051163 L29.7860465,20.4055814 C29.6223256,20.2911628 29.3990698,20.3302326 29.2846512,20.4930233 C29.1702326,20.6548837 29.2083721,20.88 29.372093,20.9944186 L33.9962791,24.2548837 C33.9562791,24.2632558 33.9153488,24.267907 33.8725581,24.267907 L20.3488372,24.2688372 L20.3488372,24.2688372 Z" id="Shape" fill="#FFFFFF" fill-rule="nonzero"></path>
        </g>
    </g>
</svg>