<?xml version="1.0" encoding="UTF-8"?>
<svg width="77px" height="80px" viewBox="0 0 77 80" version="1.1" xmlns="http://www.w3.org/2000/svg" xmlns:xlink="http://www.w3.org/1999/xlink">
    <!-- Generator: Sketch 46.2 (44496) - http://www.bohemiancoding.com/sketch -->
    <title>Shape</title>
    <desc>Created with Sketch.</desc>
    <defs></defs>
    <g id="Page-1" stroke="none" stroke-width="1" fill="none" fill-rule="evenodd">
        <path d="M53.81,22.657931 C49.41,18.4551724 43.6334483,16.3006897 37.5272414,16.5765517 C26.1989655,17.0993103 16.9713793,26.3875862 16.5203448,37.7241379 C16.2775862,43.8455172 18.4941379,49.6275862 22.7603448,54.0055172 C25.8417241,57.1655172 27.5368966,61.5006897 27.5368966,66.2068966 C27.5368966,66.9682759 28.1534483,67.5862069 28.9162069,67.5862069 L48.2265517,67.5862069 C48.9893103,67.5862069 49.6058621,66.9641379 49.6058621,66.2027586 C49.6058621,61.5682759 51.3589655,57.1765517 54.5465517,53.8372414 C58.4775862,49.7172414 60.6403448,44.3131034 60.6403448,38.6206897 C60.6403448,32.5324138 58.2141379,26.8634483 53.81,22.657931 Z M35.8127586,44.137931 L32.3644828,44.137931 C30.4624138,44.137931 28.9162069,42.5903448 28.9162069,40.6896552 C28.9162069,38.7889655 30.4624138,37.2413793 32.3644828,37.2413793 C34.2665517,37.2413793 35.8127586,38.7889655 35.8127586,40.6896552 L35.8127586,44.137931 Z M39.9506897,64.8275862 L37.192069,64.8275862 L37.192069,45.5172414 L39.9506897,45.5172414 L39.9506897,64.8275862 Z M52.5506897,51.9310345 C49.1906897,55.4551724 47.2113793,59.9889655 46.8913793,64.8275862 L41.33,64.8275862 L41.33,45.5172414 L44.7782759,45.5172414 C47.4403448,45.5172414 49.6058621,43.3517241 49.6058621,40.6896552 C49.6058621,38.0275862 47.4403448,35.862069 44.7782759,35.862069 C42.1162069,35.862069 39.9506897,38.0275862 39.9506897,40.6896552 L39.9506897,44.137931 L37.192069,44.137931 L37.192069,40.6896552 C37.192069,38.0275862 35.0265517,35.862069 32.3644828,35.862069 C29.7024138,35.862069 27.5368966,38.0275862 27.5368966,40.6896552 C27.5368966,43.3517241 29.7024138,45.5172414 32.3644828,45.5172414 L35.8127586,45.5172414 L35.8127586,64.8275862 L30.2527586,64.8275862 C29.9465517,59.9310345 28.0155172,55.4468966 24.7355172,52.08 C21.0031034,48.2496552 19.0637931,43.1903448 19.2762069,37.8317241 C19.6706897,27.9158621 27.7451724,19.7889655 37.6541379,19.3310345 C43.0003448,19.0882759 48.0527586,20.9737931 51.9051724,24.6524138 C55.7589655,28.3337931 57.8817241,33.2937931 57.8817241,38.6206897 C57.8817241,43.5986207 55.987931,48.3282759 52.5506897,51.9310345 Z M41.33,44.137931 L41.33,40.6896552 C41.33,38.7889655 42.8762069,37.2413793 44.7782759,37.2413793 C46.6803448,37.2413793 48.2265517,38.7889655 48.2265517,40.6896552 C48.2265517,42.5903448 46.6803448,44.137931 44.7782759,44.137931 L41.33,44.137931 Z M48.2265517,70.3448276 C48.2265517,71.1062069 47.61,71.7241379 46.8472414,71.7241379 L30.2955172,71.7241379 C29.5327586,71.7241379 28.9162069,71.1062069 28.9162069,70.3448276 C28.9162069,69.5834483 29.5327586,68.9655172 30.2955172,68.9655172 L46.8472414,68.9655172 C47.61,68.9655172 48.2265517,69.5834483 48.2265517,70.3448276 Z M48.2265517,74.4827586 C48.2265517,75.2441379 47.61,75.862069 46.8472414,75.862069 L30.2955172,75.862069 C29.5327586,75.862069 28.9162069,75.2441379 28.9162069,74.4827586 C28.9162069,73.7213793 29.5327586,73.1034483 30.2955172,73.1034483 L46.8472414,73.1034483 C47.61,73.1034483 48.2265517,73.7213793 48.2265517,74.4827586 Z M45.467931,78.6206897 C45.467931,79.382069 44.8513793,80 44.0886207,80 L33.0541379,80 C32.2913793,80 31.6748276,79.382069 31.6748276,78.6206897 C31.6748276,77.8593103 32.2913793,77.2413793 33.0541379,77.2413793 L44.0886207,77.2413793 C44.8513793,77.2413793 45.467931,77.8593103 45.467931,78.6206897 Z M20.2362069,56.9558621 C20.7755172,57.4951724 20.7755172,58.3668966 20.2362069,58.9062069 L13.3396552,65.8027586 C12.8017241,66.342069 11.9272414,66.342069 11.3893103,65.8027586 C10.85,65.2634483 10.85,64.3917241 11.3893103,63.8524138 L18.2858621,56.9558621 C18.8251724,56.4165517 19.6968966,56.4165517 20.2362069,56.9558621 Z M11.2624138,40 L1.50931034,40 C0.746551724,40 0.13,39.382069 0.13,38.6206897 C0.13,37.8593103 0.746551724,37.2413793 1.50931034,37.2413793 L11.2624138,37.2413793 C12.0251724,37.2413793 12.6417241,37.8593103 12.6417241,38.6206897 C12.6417241,39.382069 12.0251724,40 11.2624138,40 Z M11.3893103,13.3889655 C10.85,12.8496552 10.85,11.977931 11.3893103,11.4386207 C11.9286207,10.8993103 12.8003448,10.8993103 13.3396552,11.4386207 L20.2362069,18.3351724 C20.7755172,18.8744828 20.7755172,19.7462069 20.2362069,20.2855172 C19.6968966,20.8248276 18.8251724,20.8248276 18.2858621,20.2855172 L11.3893103,13.3889655 Z M37.192069,11.3117241 L37.192069,1.37931034 C37.192069,0.617931034 37.8086207,0 38.5713793,0 C39.3341379,0 39.9506897,0.617931034 39.9506897,1.37931034 L39.9506897,11.3117241 C39.9506897,12.0731034 39.3341379,12.6910345 38.5713793,12.6910345 C37.8086207,12.6910345 37.192069,12.0731034 37.192069,11.3117241 Z M56.9065517,20.2855172 C56.3672414,19.7462069 56.3672414,18.8744828 56.9065517,18.3351724 L63.8031034,11.4386207 C64.3424138,10.8993103 65.2141379,10.8993103 65.7534483,11.4386207 C66.2927586,11.977931 66.2927586,12.8496552 65.7534483,13.3889655 L58.8568966,20.2855172 C58.3162069,20.8248276 57.4472414,20.8248276 56.9065517,20.2855172 Z M77.0127586,38.6206897 C77.0127586,39.382069 76.3962069,40 75.6334483,40 L65.8803448,40 C65.1175862,40 64.5010345,39.382069 64.5010345,38.6206897 C64.5010345,37.8593103 65.1175862,37.2413793 65.8803448,37.2413793 L75.6334483,37.2413793 C76.3962069,37.2413793 77.0127586,37.8593103 77.0127586,38.6206897 Z M65.7534483,63.8524138 C66.2927586,64.3917241 66.2927586,65.2634483 65.7534483,65.8027586 C65.2141379,66.342069 64.3424138,66.342069 63.8031034,65.8027586 L56.9065517,58.9062069 C56.3672414,58.3668966 56.3672414,57.4951724 56.9065517,56.9558621 C57.4458621,56.4165517 58.3175862,56.4165517 58.8568966,56.9558621 L65.7534483,63.8524138 Z" id="Shape" fill="#FFFFFF" fill-rule="nonzero"></path>
    </g>
</svg>