<?xml version="1.0" encoding="UTF-8" standalone="no"?>
<svg
   xmlns:dc="http://purl.org/dc/elements/1.1/"
   xmlns:cc="http://creativecommons.org/ns#"
   xmlns:rdf="http://www.w3.org/1999/02/22-rdf-syntax-ns#"
   xmlns:svg="http://www.w3.org/2000/svg"
   xmlns="http://www.w3.org/2000/svg"
   viewBox="0 0 225 225"
   height="225"
   width="225"
   xml:space="preserve"
   version="1.1"
   id="svg2"><metadata
     id="metadata8"><rdf:RDF><cc:Work
         rdf:about=""><dc:format>image/svg+xml</dc:format><dc:type
           rdf:resource="http://purl.org/dc/dcmitype/StillImage" /></cc:Work></rdf:RDF></metadata><defs
     id="defs6" /><g
     transform="matrix(1.25,0,0,-1.25,0,225)"
     id="g10"><g
       transform="scale(0.1,0.1)"
       id="g12"><path
         id="path14"
         style="fill:#7c7f80;fill-opacity:1;fill-rule:nonzero;stroke:none"
         d="m 1800,900 c 0,60.227 -6.04,119.02 -17.31,175.93 -34.87,24.16 -77.12,38.41 -122.76,38.41 -59.81,0 -113.92,-24.34 -153.03,-63.64 11.95,-48.28 18.4,-98.727 18.4,-150.7 0,-345.34 -279.96,-625.301 -625.3,-625.301 -140.715,0 -270.551,46.5 -375.035,124.942 l -192,-51.45 L 382.32,164 C 528.766,60.8086 707.227,0 900,0 c 497.06,0 900,402.941 900,900" /><path
         id="path16"
         style="fill:#969998;fill-opacity:1;fill-rule:nonzero;stroke:none"
         d="m 900,1800 c -164.258,0 -318.102,-44.22 -450.66,-121.08 l 137.336,-237.87 c 92.148,53.48 199.109,84.25 313.324,84.25 345.34,0 625.3,-279.95 625.3,-625.3 0,-26.387 -1.82,-52.332 -5,-77.859 l 139.7,-139.7 136.16,136.172 c 2.4,26.825 3.84,53.938 3.84,81.387 0,497.05 -402.94,900 -900,900" /><path
         id="path18"
         style="fill:#b2b4b3;fill-opacity:1;fill-rule:nonzero;stroke:none"
         d="M 0,900 C 0,502.648 257.613,165.68 614.844,46.3906 c 37.312,18.1992 69.797,47.2891 92.054,85.9184 30.332,52.582 35.973,112.55 20.7,166.652 C 466.133,373.84 274.695,614.48 274.695,900 c 0,258.96 157.414,481.14 381.77,576.1 l 50.433,188.48 -188.628,50.49 C 212.105,1571.44 0,1260.56 0,900" /><path
         id="path20"
         style="fill:#7c7f80;fill-opacity:1;fill-rule:nonzero;stroke:none"
         d="M 1349.22,120.25 1211.88,358.121 C 1120.06,305.16 1013.61,274.699 900,274.699 c -140.715,0 -270.551,46.5 -375.035,124.942 l -192,-51.45 L 382.32,164 C 528.766,60.8086 707.227,0 900,0 c 163.66,0 316.98,43.9102 449.22,120.25" /><g
         transform="scale(10,10)"
         id="g22"><text
           id="text24"
           style="font-variant:normal;font-weight:normal;font-size:11.99999809px;font-family:Roboto;-inkscape-font-specification:Roboto-Regular;writing-mode:lr-tb;fill:#ffffff;fill-opacity:1;fill-rule:nonzero;stroke:none"
           transform="matrix(0.823327,-0.567567,-0.567567,-0.823327,126.571,149.745)"><tspan
             id="tspan26"
             y="0"
             x="0">B</tspan></text>
<text
           id="text28"
           style="font-variant:normal;font-weight:normal;font-size:12.00000191px;font-family:Roboto;-inkscape-font-specification:Roboto-Regular;writing-mode:lr-tb;fill:#ffffff;fill-opacity:1;fill-rule:nonzero;stroke:none"
           transform="matrix(0.751185,-0.660092,-0.660092,-0.751185,133.223,145.125)"><tspan
             id="tspan30"
             y="0"
             x="0">U</tspan></text>
<text
           id="text32"
           style="font-variant:normal;font-weight:normal;font-size:11.99999523px;font-family:Roboto;-inkscape-font-specification:Roboto-Regular;writing-mode:lr-tb;fill:#ffffff;fill-opacity:1;fill-rule:nonzero;stroke:none"
           transform="matrix(0.690592,-0.723244,-0.723244,-0.690592,139.464,139.472)"><tspan
             id="tspan34"
             y="0"
             x="0">I</tspan></text>
<text
           id="text36"
           style="font-variant:normal;font-weight:normal;font-size:11.99999619px;font-family:Roboto;-inkscape-font-specification:Roboto-Regular;writing-mode:lr-tb;fill:#ffffff;fill-opacity:1;fill-rule:nonzero;stroke:none"
           transform="matrix(0.631309,-0.775531,-0.775531,-0.631309,142.229,136.627)"><tspan
             id="tspan38"
             y="0"
             x="0">L</tspan></text>
<text
           id="text40"
           style="font-variant:normal;font-weight:normal;font-size:12px;font-family:Roboto;-inkscape-font-specification:Roboto-Regular;writing-mode:lr-tb;fill:#ffffff;fill-opacity:1;fill-rule:nonzero;stroke:none"
           transform="matrix(0.541602,-0.840635,-0.840635,-0.541602,146.705,131.137)"><tspan
             id="tspan42"
             y="0"
             x="0">D</tspan></text>
<text
           id="text44"
           style="font-variant:normal;font-weight:normal;font-size:11.99999905px;font-family:Roboto;-inkscape-font-specification:Roboto-Regular;writing-mode:lr-tb;fill:#ffffff;fill-opacity:1;fill-rule:nonzero;stroke:none"
           transform="matrix(0.0419421,0.99912,0.99912,-0.0419421,19.9867,89.7574)"><tspan
             id="tspan46"
             y="0"
             x="0">L</tspan></text>
<text
           id="text48"
           style="font-variant:normal;font-weight:normal;font-size:11.99999809px;font-family:Roboto;-inkscape-font-specification:Roboto-Regular;writing-mode:lr-tb;fill:#ffffff;fill-opacity:1;fill-rule:nonzero;stroke:none"
           transform="matrix(0.144826,0.989457,0.989457,-0.144826,20.3074,96.8422)"><tspan
             id="tspan50"
             y="0"
             x="0">E</tspan></text>
<text
           id="text52"
           style="font-variant:normal;font-weight:normal;font-size:12.00000191px;font-family:Roboto;-inkscape-font-specification:Roboto-Regular;writing-mode:lr-tb;fill:#ffffff;fill-opacity:1;fill-rule:nonzero;stroke:none"
           transform="matrix(0.256701,0.966491,0.966491,-0.256701,21.3938,104.218)"><tspan
             id="tspan54"
             y="0"
             x="0">A</tspan></text>
<text
           id="text56"
           style="font-variant:normal;font-weight:normal;font-size:12.00000095px;font-family:Roboto;-inkscape-font-specification:Roboto-Regular;writing-mode:lr-tb;fill:#ffffff;fill-opacity:1;fill-rule:nonzero;stroke:none"
           transform="matrix(0.368976,0.929439,0.929439,-0.368976,23.607,112.361)"><tspan
             id="tspan58"
             y="0"
             x="0">R</tspan></text>
<text
           id="text60"
           style="font-variant:normal;font-weight:normal;font-size:12.00000191px;font-family:Roboto;-inkscape-font-specification:Roboto-Regular;writing-mode:lr-tb;fill:#ffffff;fill-opacity:1;fill-rule:nonzero;stroke:none"
           transform="matrix(0.480014,0.877261,0.877261,-0.480014,26.5492,119.771)"><tspan
             id="tspan62"
             y="0"
             x="0">N</tspan></text>
<text
           id="text64"
           style="font-variant:normal;font-weight:normal;font-size:12px;font-family:Roboto;-inkscape-font-specification:Roboto-Regular;writing-mode:lr-tb;fill:#ffffff;fill-opacity:1;fill-rule:nonzero;stroke:none"
           transform="matrix(0.995866,-0.0908349,-0.0908349,-0.995866,77.5684,12.3699)"><tspan
             id="tspan66"
             y="0"
             x="0">M</tspan></text>
<text
           id="text68"
           style="font-variant:normal;font-weight:normal;font-size:12.00000191px;font-family:Roboto;-inkscape-font-specification:Roboto-Regular;writing-mode:lr-tb;fill:#ffffff;fill-opacity:1;fill-rule:nonzero;stroke:none"
           transform="matrix(0.999337,0.0364132,0.0364132,-0.999337,89.4988,11.4961)"><tspan
             id="tspan70"
             y="0"
             x="0">E</tspan></text>
<text
           id="text72"
           style="font-variant:normal;font-weight:normal;font-size:11.99999428px;font-family:Roboto;-inkscape-font-specification:Roboto-Regular;writing-mode:lr-tb;fill:#ffffff;fill-opacity:1;fill-rule:nonzero;stroke:none"
           transform="matrix(0.989229,0.146373,0.146373,-0.989229,97.707,11.8441)"><tspan
             id="tspan74"
             y="0"
             x="0">A</tspan></text>
<text
           id="text76"
           style="font-variant:normal;font-weight:normal;font-size:11.99999714px;font-family:Roboto;-inkscape-font-specification:Roboto-Regular;writing-mode:lr-tb;fill:#ffffff;fill-opacity:1;fill-rule:nonzero;stroke:none"
           transform="matrix(0.966088,0.258212,0.258212,-0.966088,106.867,13.302)"><tspan
             id="tspan78"
             y="0"
             x="0">S</tspan></text>
<text
           id="text80"
           style="font-variant:normal;font-weight:normal;font-size:12.00000286px;font-family:Roboto;-inkscape-font-specification:Roboto-Regular;writing-mode:lr-tb;fill:#ffffff;fill-opacity:1;fill-rule:nonzero;stroke:none"
           transform="matrix(0.930573,0.366107,0.366107,-0.930573,115.083,15.5609)"><tspan
             id="tspan82"
             y="0"
             x="0">U</tspan></text>
<text
           id="text84"
           style="font-variant:normal;font-weight:normal;font-size:12.00000668px;font-family:Roboto;-inkscape-font-specification:Roboto-Regular;writing-mode:lr-tb;fill:#ffffff;fill-opacity:1;fill-rule:nonzero;stroke:none"
           transform="matrix(0.882128,0.471011,0.471011,-0.882128,123.631,19.0262)"><tspan
             id="tspan86"
             y="0"
             x="0">R</tspan></text>
<text
           id="text88"
           style="font-variant:normal;font-weight:normal;font-size:11.99999714px;font-family:Roboto;-inkscape-font-specification:Roboto-Regular;writing-mode:lr-tb;fill:#ffffff;fill-opacity:1;fill-rule:nonzero;stroke:none"
           transform="matrix(0.826098,0.563526,0.563526,-0.826098,131.328,23.2391)"><tspan
             id="tspan90"
             y="0"
             x="0">E</tspan></text>
</g><path
         id="path92"
         style="fill:#494ba8;fill-opacity:1;fill-rule:nonzero;stroke:none"
         d="m 1191.17,667.852 0,504.288 L 1443.33,920 1191.17,667.852 Z m -18.64,504.298 0,-504.291 L 920.383,920 1172.53,1172.15 Z m -545.065,-504.298 0,504.288 L 879.605,920 627.465,667.852 Z m -18.649,504.298 0,-504.291 L 356.672,920 608.816,1172.15 Z m 581.824,35.68 c -4.86,4.87 -12.71,4.87 -17.57,0 L 899.984,934.766 626.918,1207.83 c -4.863,4.87 -12.715,4.87 -17.578,0 L 330.309,928.789 c -2.336,-2.324 -3.645,-5.484 -3.645,-8.789 0,-3.305 1.309,-6.465 3.645,-8.789 L 609.355,632.172 c 2.34,-2.352 5.485,-3.641 8.79,-3.641 3.304,0 6.46,1.289 8.785,3.641 L 900,905.242 1173.08,632.172 c 2.34,-2.352 5.48,-3.641 8.79,-3.641 3.31,0 6.46,1.289 8.78,3.641 l 279.04,279.039 c 4.86,4.863 4.86,12.715 0,17.578 l -279.05,279.041" /></g></g></svg>