<?xml version="1.0" encoding="UTF-8" standalone="no"?>
<svg
   xmlns:dc="http://purl.org/dc/elements/1.1/"
   xmlns:cc="http://creativecommons.org/ns#"
   xmlns:rdf="http://www.w3.org/1999/02/22-rdf-syntax-ns#"
   xmlns:svg="http://www.w3.org/2000/svg"
   xmlns="http://www.w3.org/2000/svg"
   viewBox="0 0 225 225"
   height="225"
   width="225"
   xml:space="preserve"
   version="1.1"
   id="svg2"><metadata
     id="metadata8"><rdf:RDF><cc:Work
         rdf:about=""><dc:format>image/svg+xml</dc:format><dc:type
           rdf:resource="http://purl.org/dc/dcmitype/StillImage" /></cc:Work></rdf:RDF></metadata><defs
     id="defs6" /><g
     transform="matrix(1.25,0,0,-1.25,0,225)"
     id="g10"><g
       transform="scale(0.1,0.1)"
       id="g12"><path
         id="path14"
         style="fill:#7c7f80;fill-opacity:1;fill-rule:nonzero;stroke:none"
         d="m 1800,900 c 0,60.227 -6.04,119.02 -17.31,175.93 -34.87,24.16 -77.12,38.41 -122.76,38.41 -59.81,0 -113.92,-24.34 -153.03,-63.64 11.95,-48.28 18.4,-98.727 18.4,-150.7 0,-345.34 -279.96,-625.301 -625.3,-625.301 -140.715,0 -270.551,46.5 -375.035,124.942 l -192,-51.45 L 382.32,164 C 528.766,60.8086 707.227,0 900,0 c 497.06,0 900,402.941 900,900" /><path
         id="path16"
         style="fill:#969998;fill-opacity:1;fill-rule:nonzero;stroke:none"
         d="m 900,1800 c -164.258,0 -318.102,-44.22 -450.66,-121.08 l 137.336,-237.87 c 92.148,53.48 199.109,84.25 313.324,84.25 345.34,0 625.3,-279.95 625.3,-625.3 0,-26.387 -1.82,-52.332 -5,-77.859 l 139.7,-139.7 136.16,136.172 c 2.4,26.825 3.84,53.938 3.84,81.387 0,497.05 -402.94,900 -900,900" /><path
         id="path18"
         style="fill:#b2b4b3;fill-opacity:1;fill-rule:nonzero;stroke:none"
         d="M 0,900 C 0,502.648 257.613,165.68 614.844,46.3906 c 37.312,18.1992 69.797,47.2891 92.054,85.9184 30.332,52.582 35.973,112.55 20.7,166.652 C 466.133,373.84 274.695,614.48 274.695,900 c 0,258.96 157.414,481.14 381.77,576.1 l 50.433,188.48 -188.628,50.49 C 212.105,1571.44 0,1260.56 0,900" /><path
         id="path20"
         style="fill:#7c7f80;fill-opacity:1;fill-rule:nonzero;stroke:none"
         d="M 1349.22,120.25 1211.88,358.121 C 1120.06,305.16 1013.61,274.699 900,274.699 c -140.715,0 -270.551,46.5 -375.035,124.942 l -192,-51.45 L 382.32,164 C 528.766,60.8086 707.227,0 900,0 c 163.66,0 316.98,43.9102 449.22,120.25" /><g
         transform="scale(10,10)"
         id="g22"><text
           id="text24"
           style="font-variant:normal;font-weight:normal;font-size:11.99999809px;font-family:Roboto;-inkscape-font-specification:Roboto-Regular;writing-mode:lr-tb;fill:#ffffff;fill-opacity:1;fill-rule:nonzero;stroke:none"
           transform="matrix(0.823327,-0.567567,-0.567567,-0.823327,126.571,149.745)"><tspan
             id="tspan26"
             y="0"
             x="0">B</tspan></text>
<text
           id="text28"
           style="font-variant:normal;font-weight:normal;font-size:12.00000191px;font-family:Roboto;-inkscape-font-specification:Roboto-Regular;writing-mode:lr-tb;fill:#ffffff;fill-opacity:1;fill-rule:nonzero;stroke:none"
           transform="matrix(0.751185,-0.660092,-0.660092,-0.751185,133.223,145.125)"><tspan
             id="tspan30"
             y="0"
             x="0">U</tspan></text>
<text
           id="text32"
           style="font-variant:normal;font-weight:normal;font-size:11.99999523px;font-family:Roboto;-inkscape-font-specification:Roboto-Regular;writing-mode:lr-tb;fill:#ffffff;fill-opacity:1;fill-rule:nonzero;stroke:none"
           transform="matrix(0.690592,-0.723244,-0.723244,-0.690592,139.464,139.472)"><tspan
             id="tspan34"
             y="0"
             x="0">I</tspan></text>
<text
           id="text36"
           style="font-variant:normal;font-weight:normal;font-size:11.99999619px;font-family:Roboto;-inkscape-font-specification:Roboto-Regular;writing-mode:lr-tb;fill:#ffffff;fill-opacity:1;fill-rule:nonzero;stroke:none"
           transform="matrix(0.631309,-0.775531,-0.775531,-0.631309,142.229,136.627)"><tspan
             id="tspan38"
             y="0"
             x="0">L</tspan></text>
<text
           id="text40"
           style="font-variant:normal;font-weight:normal;font-size:12px;font-family:Roboto;-inkscape-font-specification:Roboto-Regular;writing-mode:lr-tb;fill:#ffffff;fill-opacity:1;fill-rule:nonzero;stroke:none"
           transform="matrix(0.541602,-0.840635,-0.840635,-0.541602,146.705,131.137)"><tspan
             id="tspan42"
             y="0"
             x="0">D</tspan></text>
<text
           id="text44"
           style="font-variant:normal;font-weight:normal;font-size:11.99999905px;font-family:Roboto;-inkscape-font-specification:Roboto-Regular;writing-mode:lr-tb;fill:#ffffff;fill-opacity:1;fill-rule:nonzero;stroke:none"
           transform="matrix(0.0419421,0.99912,0.99912,-0.0419421,19.9867,89.7574)"><tspan
             id="tspan46"
             y="0"
             x="0">L</tspan></text>
<text
           id="text48"
           style="font-variant:normal;font-weight:normal;font-size:11.99999809px;font-family:Roboto;-inkscape-font-specification:Roboto-Regular;writing-mode:lr-tb;fill:#ffffff;fill-opacity:1;fill-rule:nonzero;stroke:none"
           transform="matrix(0.144826,0.989457,0.989457,-0.144826,20.3074,96.8422)"><tspan
             id="tspan50"
             y="0"
             x="0">E</tspan></text>
<text
           id="text52"
           style="font-variant:normal;font-weight:normal;font-size:12.00000191px;font-family:Roboto;-inkscape-font-specification:Roboto-Regular;writing-mode:lr-tb;fill:#ffffff;fill-opacity:1;fill-rule:nonzero;stroke:none"
           transform="matrix(0.256701,0.966491,0.966491,-0.256701,21.3938,104.218)"><tspan
             id="tspan54"
             y="0"
             x="0">A</tspan></text>
<text
           id="text56"
           style="font-variant:normal;font-weight:normal;font-size:12.00000095px;font-family:Roboto;-inkscape-font-specification:Roboto-Regular;writing-mode:lr-tb;fill:#ffffff;fill-opacity:1;fill-rule:nonzero;stroke:none"
           transform="matrix(0.368976,0.929439,0.929439,-0.368976,23.607,112.361)"><tspan
             id="tspan58"
             y="0"
             x="0">R</tspan></text>
<text
           id="text60"
           style="font-variant:normal;font-weight:normal;font-size:12.00000191px;font-family:Roboto;-inkscape-font-specification:Roboto-Regular;writing-mode:lr-tb;fill:#ffffff;fill-opacity:1;fill-rule:nonzero;stroke:none"
           transform="matrix(0.480014,0.877261,0.877261,-0.480014,26.5492,119.771)"><tspan
             id="tspan62"
             y="0"
             x="0">N</tspan></text>
<text
           id="text64"
           style="font-variant:normal;font-weight:normal;font-size:12px;font-family:Roboto;-inkscape-font-specification:Roboto-Regular;writing-mode:lr-tb;fill:#ffffff;fill-opacity:1;fill-rule:nonzero;stroke:none"
           transform="matrix(0.995866,-0.0908349,-0.0908349,-0.995866,77.5684,12.3699)"><tspan
             id="tspan66"
             y="0"
             x="0">M</tspan></text>
<text
           id="text68"
           style="font-variant:normal;font-weight:normal;font-size:12.00000191px;font-family:Roboto;-inkscape-font-specification:Roboto-Regular;writing-mode:lr-tb;fill:#ffffff;fill-opacity:1;fill-rule:nonzero;stroke:none"
           transform="matrix(0.999337,0.0364132,0.0364132,-0.999337,89.4988,11.4961)"><tspan
             id="tspan70"
             y="0"
             x="0">E</tspan></text>
<text
           id="text72"
           style="font-variant:normal;font-weight:normal;font-size:11.99999428px;font-family:Roboto;-inkscape-font-specification:Roboto-Regular;writing-mode:lr-tb;fill:#ffffff;fill-opacity:1;fill-rule:nonzero;stroke:none"
           transform="matrix(0.989229,0.146373,0.146373,-0.989229,97.707,11.8441)"><tspan
             id="tspan74"
             y="0"
             x="0">A</tspan></text>
<text
           id="text76"
           style="font-variant:normal;font-weight:normal;font-size:11.99999714px;font-family:Roboto;-inkscape-font-specification:Roboto-Regular;writing-mode:lr-tb;fill:#ffffff;fill-opacity:1;fill-rule:nonzero;stroke:none"
           transform="matrix(0.966088,0.258212,0.258212,-0.966088,106.867,13.302)"><tspan
             id="tspan78"
             y="0"
             x="0">S</tspan></text>
<text
           id="text80"
           style="font-variant:normal;font-weight:normal;font-size:12.00000286px;font-family:Roboto;-inkscape-font-specification:Roboto-Regular;writing-mode:lr-tb;fill:#ffffff;fill-opacity:1;fill-rule:nonzero;stroke:none"
           transform="matrix(0.930573,0.366107,0.366107,-0.930573,115.083,15.5609)"><tspan
             id="tspan82"
             y="0"
             x="0">U</tspan></text>
<text
           id="text84"
           style="font-variant:normal;font-weight:normal;font-size:12.00000668px;font-family:Roboto;-inkscape-font-specification:Roboto-Regular;writing-mode:lr-tb;fill:#ffffff;fill-opacity:1;fill-rule:nonzero;stroke:none"
           transform="matrix(0.882128,0.471011,0.471011,-0.882128,123.631,19.0262)"><tspan
             id="tspan86"
             y="0"
             x="0">R</tspan></text>
<text
           id="text88"
           style="font-variant:normal;font-weight:normal;font-size:11.99999714px;font-family:Roboto;-inkscape-font-specification:Roboto-Regular;writing-mode:lr-tb;fill:#ffffff;fill-opacity:1;fill-rule:nonzero;stroke:none"
           transform="matrix(0.826098,0.563526,0.563526,-0.826098,131.328,23.2391)"><tspan
             id="tspan90"
             y="0"
             x="0">E</tspan></text>
</g><path
         id="path92"
         style="fill:#494ba8;fill-opacity:1;fill-rule:nonzero;stroke:none"
         d="m 1131.77,592.352 -197.688,197.687 113.718,113.727 29.01,-29.008 -56.48,-56.477 c -5.35,-5.343 -5.35,-14.504 0,-20.609 3.05,-3.051 6.87,-4.57 9.92,-4.57 3.05,0 7.63,1.519 9.93,4.57 l 56.47,56.476 35.88,-35.867 -56.49,-56.48 c -5.34,-5.34 -5.34,-14.512 0,-20.61 3.06,-3.062 6.88,-4.582 9.93,-4.582 3.82,0 7.63,1.52 9.92,4.582 l 56.48,56.481 35.87,-35.871 -56.47,-56.492 c -5.34,-5.34 -5.34,-14.5 0,-20.598 3.04,-3.063 6.86,-4.582 9.92,-4.582 3.05,0 7.63,1.519 9.92,4.582 l 56.48,56.48 35.87,-35.882 -112.19,-112.957 z m -401.481,34.347 c -0.762,-0.758 -2.293,-1.519 -3.055,-2.289 l -42.742,42.738 468.638,468.652 42.75,-42.75 -465.591,-466.351 z m -108.387,-30.527 -27.472,27.469 15.261,76.328 87.774,-87.77 -75.563,-16.027 z m 3.055,135.859 465.593,465.589 42.74,-42.74 -468.642,-468.65 -42.746,42.739 c 0.766,1.543 2.293,2.301 3.055,3.062 z m -34.348,401.479 113.727,113.72 35.875,-35.87 -56.481,-56.48 c -5.347,-5.34 -5.347,-14.5 0,-20.61 3.051,-3.06 6.872,-4.58 9.922,-4.58 3.051,0 7.633,1.52 9.922,4.58 l 56.481,56.48 35.875,-35.87 -56.481,-56.48 c -5.344,-5.35 -5.344,-14.51 0,-20.61 3.051,-3.06 6.867,-4.58 9.922,-4.58 3.813,0 7.633,1.52 9.922,4.58 l 56.477,56.48 35.875,-35.87 -56.477,-56.49 c -5.344,-5.34 -5.344,-14.5 0,-20.6 3.051,-3.06 6.867,-4.58 9.922,-4.58 3.051,0 7.629,1.52 9.922,4.58 l 56.476,56.48 29.004,-29 L 786.77,935.059 590.609,1133.51 Z m 523.601,88.54 c 10.68,10.68 24.42,16.02 38.16,16.02 13.74,0 27.48,-5.34 38.17,-16.02 l 29.76,-29.78 c 20.61,-20.6 20.61,-54.95 0,-76.32 l -3.05,-3.06 -105.33,105.34 2.29,3.82 z m 161.82,-506.038 -207.61,207.597 171.73,171.731 c 32.06,32.06 32.06,84.72 0,116.79 l -29.77,29.76 c -32.06,32.06 -84.73,32.06 -116.78,0 L 921.863,1070.16 714.258,1277.77 c -5.34,5.34 -14.5,5.34 -20.606,0 L 559.316,1143.43 c -5.339,-5.34 -5.339,-14.5 0,-20.61 L 766.926,915.215 604.352,752.641 C 593.66,741.949 586.797,728.969 583.738,714.469 L 557.027,582.43 c -1.523,-6.871 0.766,-12.981 5.34,-18.321 3.821,-3.82 9.16,-6.097 13.742,-6.097 1.528,0 2.289,0 3.817,0.758 l 132.043,26.71 c 14.5,3.059 28.242,9.93 38.164,20.61 l 162.57,162.57 207.607,-207.609 c 3.06,-3.039 6.88,-4.582 9.92,-4.582 3.82,0 7.64,1.543 9.93,4.582 l 134.33,134.34 c 7.64,6.109 7.64,15.257 1.54,20.621" /></g></g></svg>