<?xml version="1.0" encoding="UTF-8"?>
<svg width="81px" height="81px" viewBox="0 0 81 81" version="1.1" xmlns="http://www.w3.org/2000/svg" xmlns:xlink="http://www.w3.org/1999/xlink">
    <!-- Generator: Sketch 46.2 (44496) - http://www.bohemiancoding.com/sketch -->
    <title>Shape</title>
    <desc>Created with Sketch.</desc>
    <defs></defs>
    <g id="Page-1" stroke="none" stroke-width="1" fill="none" fill-rule="evenodd">
        <path d="M79.9698698,62.9796304 L57.0706327,40.0803933 L76.0130163,21.1380097 C79.5489279,17.6020981 79.5489279,11.7931005 76.0130163,8.2571889 L72.7296698,4.97384241 C69.1937582,1.43793081 63.3847606,1.43793081 59.848849,4.97384241 L40.9064654,23.916226 L18.0072284,1.01698895 C17.4179098,0.42767035 16.4076493,0.42767035 15.7341423,1.01698895 L0.91698895,15.8341423 C0.32767035,16.4234609 0.32767035,17.4337214 0.91698895,18.1072284 L23.816226,41.0064654 L5.88410287,58.9385885 C4.70546567,60.1172257 3.94777032,61.548428 3.61101684,63.1480071 L0.664423836,77.7125954 C0.496047093,78.4702907 0.748612207,79.1437977 1.25374244,79.7331163 C1.67468429,80.1540581 2.26400289,80.4066233 2.76913312,80.4066233 C2.93750987,80.4066233 3.02169824,80.4066233 3.19007498,80.3224349 L17.7546632,77.3758419 C19.3542423,77.0390884 20.869633,76.2813931 21.9640818,75.1027559 L39.8962049,57.1706327 L62.795442,80.0698698 C63.1321955,80.4066233 63.5531373,80.575 63.8898908,80.575 C64.3108327,80.575 64.7317745,80.4066233 64.9843396,80.0698698 L79.801493,65.2527164 C80.6433767,64.5792094 80.6433767,63.568949 79.9698698,62.9796304 Z M62.121935,7.16274007 C63.3005722,5.98410287 64.8159629,5.39478427 66.3313536,5.39478427 C67.8467443,5.39478427 69.362135,5.98410287 70.5407722,7.16274007 L73.8241187,10.4460866 C76.0972047,12.7191726 76.0972047,16.5076493 73.8241187,18.8649237 L73.4873652,19.2016772 L61.8693699,7.58368193 L62.121935,7.16274007 Z M4.36871218,16.9285912 L16.9127795,4.38452381 L20.869633,8.34137727 L14.6396935,14.5713168 C14.0503749,15.1606354 14.0503749,16.1708958 14.6396935,16.8444028 C14.976447,17.1811563 15.3973888,17.349533 15.7341423,17.349533 C16.0708958,17.349533 16.576026,17.1811563 16.8285912,16.8444028 L23.0585306,10.6144633 L27.0153841,14.5713168 L20.7854446,20.8012562 C20.196126,21.3905748 20.196126,22.4008353 20.7854446,23.0743423 C21.1221981,23.4110958 21.54314,23.5794725 21.8798934,23.5794725 C22.3008353,23.5794725 22.7217772,23.4110958 22.9743423,23.0743423 L29.2042818,16.8444028 L33.1611352,20.8012562 L26.9311957,27.0311957 C26.3418771,27.6205143 26.3418771,28.6307748 26.9311957,29.3042818 C27.2679492,29.6410353 27.6888911,29.809412 28.0256446,29.809412 C28.3623981,29.809412 28.8675283,29.6410353 29.1200934,29.3042818 L35.3500329,23.0743423 L38.549191,26.2735004 L26.0051237,38.8175677 L4.36871218,16.9285912 Z M8.1571889,61.2116746 L59.5120955,9.85676796 L64.2266443,14.5713168 L12.5349842,66.2629768 L7.82043541,61.548428 C7.90462378,61.3800513 8.07300053,61.2958629 8.1571889,61.2116746 Z M7.82043541,76.1972047 L4.78965404,73.1664233 L6.47342147,64.7475862 L16.1550842,74.4292489 L7.82043541,76.1972047 Z M19.7751842,72.8296698 C19.6909958,72.9138582 19.522619,72.9980466 19.4384307,73.0822349 L14.7238819,68.3676861 L66.415542,16.676026 L71.1300908,21.3905748 L19.7751842,72.8296698 Z M64.0582676,76.6181465 L42.2534793,54.8133583 L54.7975467,42.269291 L57.9967048,45.4684491 L51.7667653,51.6983886 C51.1774467,52.2877072 51.1774467,53.2979676 51.7667653,53.9714746 C52.1035188,54.3082281 52.5244607,54.4766048 52.8612142,54.4766048 C53.1979676,54.4766048 53.7030979,54.3082281 53.955663,53.9714746 L60.1856025,47.7415351 L64.1424559,51.6983886 L57.9125164,57.9283281 C57.3231978,58.5176467 57.3231978,59.5279071 57.9125164,60.2014141 C58.2492699,60.5381676 58.6702118,60.7065443 59.0069653,60.7065443 C59.4279071,60.7065443 59.848849,60.5381676 60.1014141,60.2014141 L66.3313536,53.9714746 L70.2882071,57.9283281 L64.0582676,64.1582676 C63.468949,64.7475862 63.468949,65.7578466 64.0582676,66.4313536 C64.395021,66.7681071 64.8159629,66.9364838 65.1527164,66.9364838 C65.4894699,66.9364838 65.9946001,66.7681071 66.2471652,66.4313536 L72.4771047,60.2014141 L76.4339582,64.1582676 L64.0582676,76.6181465 Z" id="Shape" fill="#FFFFFF" fill-rule="nonzero"></path>
    </g>
</svg>