<?xml version="1.0" encoding="UTF-8"?>
<svg width="140px" height="32px" viewBox="0 0 140 32" version="1.1" xmlns="http://www.w3.org/2000/svg" xmlns:xlink="http://www.w3.org/1999/xlink">
    <!-- Generator: Sketch 46.2 (44496) - http://www.bohemiancoding.com/sketch -->
    <title>logo</title>
    <desc>Created with Sketch.</desc>
    <defs></defs>
    <g id="Page-1" stroke="none" stroke-width="1" fill="none" fill-rule="evenodd">
        <g id="Artboard" fill-rule="nonzero" fill="#FFFFFF">
            <g id="logo">
                <path d="M5.81335182,16.3211365 C4.12658262,16.284774 2.77421528,15.7393446 1.7562092,14.684832 C0.738203128,13.6303193 0.162332417,12.2194753 0.0285797934,10.4522576 C-0.0457272194,9.57955748 0.0248633839,8.55233221 0.240353721,7.37055078 C0.455844058,6.18876939 0.838519438,5.09972871 1.38839133,4.10339609 C1.93826323,3.10706346 2.62559278,2.2780108 3.45040063,1.61621322 C4.83251106,0.503520581 6.42265728,-0.0346364125 8.22088703,0.00172609199 C9.32806148,0.0235435947 10.2958958,0.272623014 11.124419,0.748971823 C11.9529422,1.22532063 12.6161223,1.91074356 13.1139794,2.80526117 C13.6118363,3.69977878 13.9016293,4.71791364 13.9833671,5.85969627 C14.0428126,6.66694387 13.9926561,7.58508333 13.8328961,8.61414221 C13.673136,9.64320109 13.3796277,10.624974 12.9523623,11.5594904 C12.525097,12.4940067 11.9733758,13.3176051 11.2971819,14.0303102 C10.6209882,14.7430152 9.82405737,15.3084437 8.90636577,15.7266125 C7.98867417,16.1447813 6.95767981,16.342954 5.81335182,16.3211365 Z M10.1602903,5.82697018 C10.0859833,4.00884496 9.36521608,3.06343403 7.99796706,2.99070901 C6.94280749,2.93980151 6.06971318,3.34887355 5.37865797,4.21793741 C4.68760275,5.08700126 4.23062148,6.36876032 4.00770043,8.06325302 C3.86651711,9.11049316 3.81450298,9.92136483 3.85165649,10.4958924 C3.9259635,12.3431076 4.65416131,13.2921548 6.03627174,13.3430623 C6.9428173,13.3866973 7.72302923,13.0685301 8.37693096,12.3885513 C9.03083269,11.7085725 9.50267508,10.7195272 9.79247243,9.42138579 C10.0822698,8.12324434 10.2048746,6.92511782 10.1602903,5.82697018 Z M18.8541673,13.1576144 L25.4637431,13.1576144 L24.9398813,16.1029626 L14.5183748,16.1029626 L17.3271659,0.219900028 L21.1502426,0.219900028 L18.8541673,13.1576144 Z M30.7023614,16.1029626 L26.8904306,16.1029626 L29.7103676,0.219900028 L33.5111523,0.219900028 L30.7023614,16.1029626 Z M40.299064,11.7394839 L45.2701783,0.219900028 L49.6394089,0.219900028 L41.7926276,16.1029626 L37.624025,16.1029626 L34.9044019,0.219900028 L39.0284205,0.219900028 L40.299064,11.7394839 Z M59.1357976,9.37229666 L53.1726897,9.37229666 L52.4927839,13.1576144 L59.5481994,13.1576144 L59.0243376,16.1029626 L48.1569913,16.1029626 L50.9657824,0.219900028 L61.8554207,0.219900028 L61.3315589,3.17615686 L54.2649973,3.17615686 L53.6631135,6.52512677 L59.6373675,6.52512677 L59.1357976,9.37229666 Z M67.5956087,10.4958924 L65.4778694,10.4958924 L64.4747298,16.1029626 L60.6627991,16.1029626 L63.4715902,0.219900028 L69.2006322,0.230808725 C71.0360154,0.230808725 72.4496851,0.650789351 73.4416837,1.49076321 C74.4336823,2.33073706 74.8776601,3.47795687 74.7736302,4.93245705 C74.6918926,6.08151219 74.3538007,7.03237741 73.7593446,7.78508127 C73.1648885,8.53778512 72.3326624,9.13230313 71.2626415,9.56865319 L73.4472567,15.9175147 L73.4472567,16.1029626 L69.3789681,16.1029626 L67.5956087,10.4958924 Z M65.9905853,7.53963558 L68.2197845,7.56145297 C68.829102,7.56145297 69.3585315,7.41600514 69.8080889,7.1251051 C70.2576464,6.83420506 70.5790194,6.43604162 70.7722176,5.9306028 C70.9654159,5.42516399 71.0211453,4.93609564 70.9394075,4.46338308 C70.7907936,3.65613548 70.2632217,3.23070057 69.3566761,3.18706556 L66.770805,3.17615686 L65.9905853,7.53963558 Z M89.9656232,0.219900028 L93.7775541,0.219900028 L91.8827342,11.1176882 C91.6523829,12.7103658 90.9594801,13.9848525 89.8040064,14.9411863 C88.648532,15.8975203 87.2905919,16.3611352 85.7301449,16.3320452 C84.1622662,16.3029552 82.949223,15.8520669 82.0909771,14.9793668 C81.2327304,14.1066667 80.825906,12.8776324 80.8704906,11.2922273 L84.7158589,11.303136 L84.7158589,12.055836 C84.7455817,12.9212637 85.1728407,13.3648796 85.9976483,13.3866971 C87.1122537,13.4085145 87.8107292,12.6121877 88.093096,10.9976925 L89.9656232,0.219900028 Z M102.683205,13.135797 L97.5003167,13.135797 L96.0624832,16.1029626 L91.8604423,16.1029626 L100.454006,0.219900028 L104.043016,0.219900028 L107.041289,16.1029626 L103.073315,16.1029626 L102.683205,13.135797 Z M98.9270038,10.1795402 L102.293095,10.1795402 L101.579751,4.70337441 L98.9270038,10.1795402 Z M121.519939,16.1029626 L117.7303,16.1029626 L118.90063,9.47047492 L113.338777,9.47047492 L112.157302,16.1029626 L108.345371,16.1029626 L111.154162,0.219900028 L114.977238,0.219900028 L113.851493,6.52512677 L119.424491,6.52512677 L120.539091,0.219900028 L124.339875,0.219900028 L121.519939,16.1029626 Z M137.180063,16.1029626 L133.490738,16.1029626 L129.611932,6.07787021 L127.828572,16.1029626 L124.016642,16.1029626 L126.825432,0.219900028 L130.548196,0.219900028 L134.415856,10.2449924 L136.188069,0.219900028 L140,0.219900028 L137.180063,16.1029626 Z" id="Oliver-Jahn"></path>
                <path d="M0,30.9685186 L1.65951385,21.1361954 L4.13894563,21.1429484 C4.91732493,21.1429484 5.58746447,21.3432844 6.14938435,21.7439626 C6.71130424,22.1446409 7.11469982,22.6972533 7.35958319,23.4018166 C7.60446657,24.1063799 7.67661862,24.8953439 7.57604153,25.7687323 L7.5104481,26.2616991 C7.31803973,27.6933357 6.77799253,28.8357015 5.8902903,29.688831 C5.00258806,30.5419603 3.88751085,30.9685186 2.5450252,30.9685186 L0,30.9685186 Z M2.70900879,22.2031646 L1.41025881,29.9083024 L2.62373732,29.9150554 C3.55079582,29.9150554 4.33681593,29.6179277 4.98182125,29.0236635 C5.62682657,28.4293992 6.04552713,27.614549 6.23793549,26.5790886 C6.3909876,25.7507203 6.44346182,25.0461675 6.39535973,24.4654093 C6.32976597,23.7675989 6.1045641,23.2217394 5.71974737,22.8278142 C5.33493063,22.433889 4.81893412,22.2279255 4.17174235,22.2099175 L2.70900879,22.2031646 Z M14.6273356,26.4237703 L10.6130175,26.4237703 L10.0226766,29.9083024 L14.692929,29.9083024 L14.5092674,30.9685186 L8.6124178,30.9685186 L10.2719316,21.1361954 L16.1031878,21.1361954 L15.9195262,22.2031646 L11.3214266,22.2031646 L10.7901197,25.3635541 L14.8044378,25.3635541 L14.6273356,26.4237703 Z M21.4490526,28.4361551 C21.5452568,27.7158348 21.1823101,27.1891085 20.3602016,26.8559604 L19.2254353,26.4305233 L18.8449933,26.2616991 C17.5681014,25.6629328 16.9712072,24.821071 17.0542926,23.7360886 C17.0980218,23.1913463 17.2794951,22.7096393 17.5987181,22.2909531 C17.9179411,21.872267 18.3410145,21.5492532 18.867951,21.3219021 C19.3948876,21.0945509 19.9557059,20.98763 20.5504226,21.001136 C21.1276477,21.0146421 21.642551,21.1474491 22.095148,21.3995612 C22.5477449,21.6516733 22.892107,22.0039497 23.1282445,22.4564009 C23.3643821,22.9088521 23.4693305,23.4186962 23.443093,23.9859485 L22.2033771,23.9791955 C22.2471063,23.3759272 22.1159207,22.9088515 21.8098165,22.5779543 C21.5037123,22.2470572 21.0664271,22.0771092 20.4979479,22.0681052 C19.8988582,22.0591012 19.3981667,22.203163 18.9958582,22.5002952 C18.5935498,22.7974273 18.3617887,23.2026014 18.3005678,23.7158297 C18.2131095,24.386628 18.6132254,24.8953465 19.5009277,25.2420007 L20.4782699,25.5999081 L20.9702206,25.8160031 C22.2033833,26.4012634 22.7740404,27.2701367 22.6822092,28.4226492 C22.6341071,28.9763955 22.4526337,29.454726 22.1377837,29.8576552 C21.8229336,30.2605844 21.3954874,30.5723434 20.855432,30.7929414 C20.3153767,31.0135395 19.7348807,31.117084 19.1139264,31.103578 C18.5148367,31.099076 17.9671371,30.9673944 17.4708109,30.7085293 C16.9744848,30.4496642 16.5973264,30.0951369 16.3393242,29.6449366 C16.0813221,29.1947364 15.9676279,28.6837669 15.9982384,28.1120126 L17.2313949,28.1187656 C17.1920387,28.7040259 17.3461817,29.1688506 17.6938286,29.5132538 C18.0414755,29.8576569 18.5323281,30.0343578 19.1664012,30.0433618 C19.8004742,30.0523659 20.32303,29.9105549 20.7340842,29.6179248 C21.1451385,29.3252947 21.3834589,28.9313754 21.4490526,28.4361551 Z M25.200997,30.9685186 L23.9743998,30.9685186 L25.6339137,21.1361954 L26.8605108,21.1361954 L25.200997,30.9685186 Z M34.6267734,29.6719485 C34.3075504,30.1356547 33.8429348,30.4924331 33.2329129,30.7422942 C32.6228909,30.9921553 31.9265143,31.112582 31.1437621,31.103578 C30.5184349,31.090072 29.9718284,30.9392572 29.5039262,30.6511291 C29.036024,30.363001 28.6687045,29.9499485 28.4019566,29.4119592 C28.1352086,28.87397 27.9821588,28.2628323 27.9428025,27.5785281 C27.9121921,27.0427898 27.9766916,26.3179784 28.1363031,25.4040719 C28.2959147,24.4901655 28.5746839,23.7000761 28.9726194,23.0337798 C29.3705549,22.3674834 29.8679668,21.8587649 30.46487,21.5076087 C31.0617732,21.1564526 31.7450313,20.98763 32.5146648,21.001136 C33.4023671,21.0191441 34.1096758,21.2903856 34.6366123,21.8148688 C35.1635489,22.3393521 35.4641824,23.0765439 35.5385221,24.0264663 L34.3184842,24.0264663 C34.2703821,23.40519 34.0889088,22.927985 33.7740587,22.5948368 C33.4592087,22.2616886 33.0241099,22.0861132 32.4687494,22.0681052 C31.6466409,22.0365912 30.95901,22.3404718 30.4058359,22.979756 C29.8526618,23.6190403 29.4886219,24.5531917 29.3137052,25.7822382 L29.1890777,26.7276539 L29.1693997,27.2408796 C29.1693997,28.127774 29.3465002,28.8131935 29.7007065,29.2971587 C30.0549128,29.7811239 30.5512315,30.0276048 31.1896775,30.0366089 C32.112363,30.0591189 32.8448157,29.8250183 33.3870574,29.3343001 L33.780618,27.1260791 L31.6291534,27.1260791 L31.8128151,26.072616 L35.1711988,26.072616 L34.6267734,29.6719485 Z M43.560599,30.9685186 L42.3667984,30.9685186 L38.9559399,23.3376634 L37.6703087,30.9685186 L36.4305927,30.9685186 L38.0901066,21.1361954 L39.2839071,21.1361954 L42.7013249,28.8008155 L43.9935156,21.1361954 L45.2201128,21.1361954 L43.560599,30.9685186 Z M54.9279409,26.6263594 L51.0448097,26.6263594 L50.3101632,30.9685186 L49.0770067,30.9685186 L50.7365205,21.1361954 L56.4825053,21.1361954 L56.2988437,22.2031646 L51.7860155,22.2031646 L51.2219119,25.5661432 L55.1116025,25.5661432 L54.9279409,26.6263594 Z M59.8474484,31.103578 C59.2396128,31.090072 58.711591,30.9392572 58.263367,30.6511291 C57.8151429,30.363001 57.4620352,29.9386936 57.2040331,29.3781944 C56.9460309,28.8176951 56.8039132,28.1885497 56.7776757,27.4907395 C56.7514382,26.9459972 56.8104717,26.2729581 56.954778,25.4716016 C57.0990842,24.6702453 57.3483368,23.9476848 57.7025431,23.3038986 C58.0567494,22.6601122 58.4874754,22.1446408 58.9947338,21.7574686 C59.6812818,21.2352363 60.4640223,20.9831281 61.3429787,21.001136 C62.2744101,21.0191441 63.0090492,21.3511617 63.546918,21.997199 C64.0847869,22.6432363 64.3733951,23.5177371 64.4127514,24.6207275 C64.430243,25.0934378 64.3832348,25.694446 64.2717255,26.4237703 C64.1602161,27.1530947 63.9612513,27.8306358 63.6748252,28.4564141 C63.3883991,29.0821924 63.0243592,29.6066677 62.5826945,30.0298559 C61.8130611,30.7681842 60.9013214,31.126088 59.8474484,31.103578 Z M63.1992728,24.9313641 C63.2255103,24.0444697 63.0746469,23.3567993 62.7466782,22.868332 C62.4187093,22.3798648 61.9311363,22.126631 61.2839446,22.108623 C60.6979736,22.090615 60.1743246,22.2526846 59.7129818,22.5948368 C59.2516391,22.9369889 58.8733874,23.4490839 58.5782154,24.1311373 C58.2830435,24.8131906 58.0961041,25.6764365 58.0173916,26.720901 L57.9977136,27.159844 C57.971476,28.0422364 58.1245259,28.7332833 58.4568676,29.2330055 C58.7892093,29.7327277 59.2724095,29.991589 59.9064825,30.009597 C60.7329639,30.032107 61.4184084,29.7248499 61.9628366,29.0878167 C62.5072648,28.4507834 62.8691183,27.5560239 63.048408,26.4035114 C63.1358663,25.8362592 63.186154,25.3455483 63.1992728,24.9313641 Z M69.4765643,26.9910198 L67.272625,26.9910198 L66.603572,30.9685186 L65.3638561,30.9685186 L67.02337,21.1361954 L69.8963624,21.1429484 C70.8977604,21.1474504 71.660823,21.4085626 72.1855731,21.9262928 C72.7103232,22.4440231 72.9311522,23.1485758 72.8480668,24.0399722 C72.7999648,24.6567465 72.5824153,25.1992295 72.1954122,25.6674378 C71.808409,26.135646 71.2935057,26.4890478 70.6506868,26.7276539 L72.1330984,30.88073 L72.1265391,30.9685186 L70.8146704,30.9685186 L69.4765643,26.9910198 Z M67.4497273,25.9308036 L69.2601061,25.9375566 C69.8898062,25.9375566 70.4211076,25.7653576 70.8540264,25.4209544 C71.2869453,25.0765513 71.5405707,24.6162285 71.6149103,24.0399722 C71.6805041,23.4772219 71.5711827,23.0360324 71.2869432,22.7163902 C71.0027035,22.3967481 70.5697911,22.2279255 69.9881932,22.2099175 L68.0794242,22.2031646 L67.4497273,25.9308036 Z M82.116419,28.4361551 C82.2126231,27.7158348 81.8496762,27.1891085 81.0275682,26.8559604 L79.8928013,26.4305233 L79.5123599,26.2616991 C78.2354681,25.6629328 77.6385735,24.821071 77.7216589,23.7360886 C77.7653881,23.1913463 77.9468612,22.7096393 78.2660846,22.2909531 C78.5853071,21.872267 79.0083809,21.5492532 79.5353176,21.3219021 C80.0622542,21.0945509 80.6230724,20.98763 81.2177886,21.001136 C81.795014,21.0146421 82.3099177,21.1474491 82.7625143,21.3995612 C83.215111,21.6516733 83.5594737,22.0039497 83.7956109,22.4564009 C84.0317481,22.9088521 84.1366968,23.4186962 84.1104592,23.9859485 L82.8707437,23.9791955 C82.9144727,23.3759272 82.7832872,22.9088515 82.4771827,22.5779543 C82.1710789,22.2470572 81.7337936,22.0771092 81.1653142,22.0681052 C80.5662247,22.0591012 80.0655326,22.203163 79.6632247,22.5002952 C79.260916,22.7974273 79.0291553,23.2026014 78.9679341,23.7158297 C78.8804761,24.386628 79.2805914,24.8953465 80.1682941,25.2420007 L81.1456364,25.5999081 L81.6375871,25.8160031 C82.8707499,26.4012634 83.441407,27.2701367 83.3495756,28.4226492 C83.3014731,28.9763955 83.1199997,29.454726 82.8051498,29.8576552 C82.4902999,30.2605844 82.0628534,30.5723434 81.522798,30.7929414 C80.9827433,31.0135395 80.4022473,31.117084 79.7812929,31.103578 C79.1822033,31.099076 78.6345031,30.9673944 78.1381774,30.7085293 C77.6418511,30.4496642 77.2646926,30.0951369 77.0066905,29.6449366 C76.7486883,29.1947364 76.6349943,28.6837669 76.6656046,28.1120126 L77.8987611,28.1187656 C77.8594048,28.7040259 78.0135479,29.1688506 78.3611951,29.5132538 C78.7088416,29.8576569 79.1996948,30.0343578 79.8337672,30.0433618 C80.4678404,30.0523659 80.9903967,29.9105549 81.4014507,29.6179248 C81.8125047,29.3252947 82.0508251,28.9313754 82.116419,28.4361551 Z M92.4342658,22.2031646 L89.4628832,22.2031646 L87.9870312,30.9685186 L86.7604337,30.9685186 L88.2362864,22.2031646 L85.2649039,22.2031646 L85.4485652,21.1361954 L92.6179279,21.1361954 L92.4342658,22.2031646 Z M97.4456039,28.4023903 L93.5755917,28.4023903 L92.2702822,30.9685186 L90.951854,30.9685186 L96.1402952,21.1361954 L97.2225862,21.1361954 L99.1116778,30.9685186 L97.898199,30.9685186 L97.4456039,28.4023903 Z M94.1200174,27.3354212 L97.2619426,27.3354212 L96.4682623,22.7501551 L94.1200174,27.3354212 Z M104.542814,26.9910198 L102.338875,26.9910198 L101.669822,30.9685186 L100.430105,30.9685186 L102.089619,21.1361954 L104.962611,21.1429484 C105.96401,21.1474504 106.727073,21.4085626 107.251822,21.9262928 C107.776573,22.4440231 107.997402,23.1485758 107.914316,24.0399722 C107.866214,24.6567465 107.648665,25.1992295 107.261662,25.6674378 C106.874658,26.135646 106.359755,26.4890478 105.716936,26.7276539 L107.199348,30.88073 L107.192788,30.9685186 L105.88092,30.9685186 L104.542814,26.9910198 Z M102.515977,25.9308036 L104.326356,25.9375566 C104.956056,25.9375566 105.487357,25.7653576 105.920276,25.4209544 C106.353195,25.0765513 106.60682,24.6162285 106.68116,24.0399722 C106.746754,23.4772219 106.637432,23.0360324 106.353193,22.7163902 C106.068953,22.3967481 105.63604,22.2279255 105.054443,22.2099175 L103.145674,22.2031646 L102.515977,25.9308036 Z M115.883918,22.2031646 L112.912536,22.2031646 L111.436684,30.9685186 L110.210086,30.9685186 L111.685939,22.2031646 L108.714556,22.2031646 L108.898218,21.1361954 L116.06758,21.1361954 L115.883918,22.2031646 Z M124.05686,21.1361954 L122.95489,27.7878701 C122.806211,28.8098246 122.377672,29.6235492 121.669259,30.2290685 C120.960846,30.8345878 120.105954,31.128339 119.104556,31.110331 C118.479229,31.096825 117.935902,30.9516376 117.474559,30.6747645 C117.013216,30.3978913 116.673227,30.008474 116.454581,29.5065008 C116.235936,29.0045275 116.163784,28.4339074 116.238123,27.7946231 L117.340092,21.1361954 L118.553571,21.1361954 L117.458161,27.801376 C117.383821,28.4901824 117.497515,29.03154 117.799246,29.4254651 C118.100978,29.8193903 118.557941,30.0253538 119.170149,30.0433618 C119.834832,30.0703738 120.395651,29.884669 120.852621,29.4862419 C121.309591,29.0878147 121.597106,28.5284494 121.715175,27.808129 L122.817144,21.1361954 L124.05686,21.1361954 Z M126.234562,27.1193262 L125.585187,30.9685186 L124.35203,30.9685186 L126.011545,21.1361954 L129.199385,21.1429484 C130.183292,21.1429484 130.941981,21.411939 131.475477,21.9499282 C132.008973,22.4879174 132.238548,23.2025995 132.164209,24.093996 C132.085496,25.0349143 131.721456,25.7754826 131.072078,26.3157228 C130.4227,26.8559631 129.566714,27.1260791 128.504095,27.1260791 L126.234562,27.1193262 Z M126.411665,26.05911 L128.536892,26.065863 C129.205948,26.065863 129.754741,25.8925385 130.183287,25.5458843 C130.611833,25.1992302 130.863272,24.7175232 130.937611,24.1007489 C131.007578,23.5470027 130.89607,23.0979347 130.603085,22.7535316 C130.310099,22.4091284 129.883746,22.2279255 129.324013,22.2099175 L127.061039,22.2031646 L126.411665,26.05911 Z M138.002024,28.4361551 C138.098228,27.7158348 137.735281,27.1891085 136.913173,26.8559604 L135.778407,26.4305233 L135.397964,26.2616991 C134.121073,25.6629328 133.524179,24.821071 133.607264,23.7360886 C133.650993,23.1913463 133.832466,22.7096393 134.15169,22.2909531 C134.470912,21.872267 134.893986,21.5492532 135.420922,21.3219021 C135.947859,21.0945509 136.508677,20.98763 137.103394,21.001136 C137.680619,21.0146421 138.195522,21.1474491 138.64812,21.3995612 C139.100716,21.6516733 139.445078,22.0039497 139.681216,22.4564009 C139.917353,22.9088521 140.022302,23.4186962 139.996064,23.9859485 L138.756348,23.9791955 C138.800078,23.3759272 138.668892,22.9088515 138.362788,22.5779543 C138.056683,22.2470572 137.619399,22.0771092 137.050919,22.0681052 C136.451829,22.0591012 135.951138,22.203163 135.54883,22.5002952 C135.146521,22.7974273 134.91476,23.2026014 134.853539,23.7158297 C134.766081,24.386628 135.166197,24.8953465 136.053899,25.2420007 L137.031241,25.5999081 L137.523192,25.8160031 C138.756354,26.4012634 139.327011,27.2701367 139.235181,28.4226492 C139.187078,28.9763955 139.005605,29.454726 138.690755,29.8576552 C138.375905,30.2605844 137.948459,30.5723434 137.408403,30.7929414 C136.868348,31.0135395 136.287852,31.117084 135.666898,31.103578 C135.067808,31.099076 134.520108,30.9673944 134.023782,30.7085293 C133.527456,30.4496642 133.150298,30.0951369 132.892296,29.6449366 C132.634294,29.1947364 132.5206,28.6837669 132.55121,28.1120126 L133.784366,28.1187656 C133.74501,28.7040259 133.899153,29.1688506 134.2468,29.5132538 C134.594447,29.8576569 135.085299,30.0343578 135.719372,30.0433618 C136.353446,30.0523659 136.876001,29.9105549 137.287056,29.6179248 C137.69811,29.3252947 137.93643,28.9313754 138.002024,28.4361551 Z" id="Design-for-Startups"></path>
            </g>
        </g>
    </g>
</svg>