<?xml version="1.0" encoding="UTF-8"?>
<svg width="44px" height="44px" viewBox="0 0 44 44" version="1.1" xmlns="http://www.w3.org/2000/svg" xmlns:xlink="http://www.w3.org/1999/xlink">
    <!-- Generator: Sketch 46.2 (44496) - http://www.bohemiancoding.com/sketch -->
    <title>atom-3</title>
    <desc>Created with Sketch.</desc>
    <defs></defs>
    <g id="Page-1" stroke="none" stroke-width="1" fill="none" fill-rule="evenodd" opacity="0.5">
        <g id="Slack-Copy-3" transform="translate(-40.000000, -40.000000)" fill="#FFFFFF">
            <path d="M53.7171763,55.4185589 C52.7611017,51.2030567 53.0345218,48.0077357 54.6121185,47.20391 C54.8178308,47.0990944 55.0424942,47.038173 55.2967312,47.019105 C56.3330036,46.9413836 57.7573238,47.5945441 59.3610077,48.925126 C59.6532191,49.1675747 60.0866467,49.1272341 60.3290955,48.8350228 C60.5715442,48.5428114 60.5312036,48.1093838 60.2389923,47.866935 C58.3875164,46.3307593 56.6589443,45.5380759 55.1938938,45.647956 C54.7615777,45.6803802 54.3595697,45.7893916 53.9878816,45.978776 C51.73625,47.1260396 51.28702,50.8676717 52.3539294,55.6611397 C47.5196385,56.6356239 44.309486,58.5690396 44.1775047,61.0873933 C44.082815,62.8941808 45.5603211,64.5546424 48.192921,65.9110829 C48.5304477,66.0849927 48.9450488,65.9523549 49.1189586,65.6148283 C49.2928684,65.2773016 49.1602307,64.8627004 48.822704,64.6887906 C46.6189587,63.5533164 45.4915589,62.2863138 45.5506203,61.1593552 C45.6417822,59.4198829 48.424799,57.8545677 52.685517,57.0053687 C53.0830666,58.4780197 53.6112457,60.0304892 54.2626223,61.6227305 C50.4470623,68.7226271 49.4134277,75.2254179 52.3529046,77.1343354 C54.0127641,78.212261 56.4557327,77.5781201 59.2364786,75.5965415 C59.5456951,75.3761917 59.6177358,74.9468934 59.397386,74.6376769 C59.1770362,74.3284604 58.7477379,74.2564197 58.4385214,74.4767695 C56.0688769,76.1653944 54.1517703,76.6630331 53.1017832,75.9811633 C51.1085476,74.6867417 51.9065691,69.3551715 54.968597,63.2571394 C55.2640846,63.9069715 55.5791185,64.5610428 55.9132143,65.2167427 C60.4210222,74.0638147 66.7196369,79.9252499 70.3386811,78.0812537 C73.8153084,76.3098232 73.0027663,68.3587716 68.9015226,59.8369542 C68.736865,59.4948186 68.326028,59.3509442 67.9838924,59.5156017 C67.6417568,59.6802592 67.4978824,60.0910962 67.6625399,60.4332318 C71.4550989,68.313645 72.1987239,75.5903157 69.714444,76.8561198 C67.1083119,78.1840112 61.3180613,72.7956552 57.1383482,64.5925058 C56.6433655,63.6210475 56.193623,62.6543937 55.7896807,61.7028288 C56.2921397,60.796521 56.8419686,59.8797315 57.4375235,58.9626573 C58.0310982,58.0486326 58.6449281,57.1729552 59.2701937,56.3425898 C59.4663912,56.3393084 59.6638366,56.3373201 59.8624699,56.3366516 C60.688908,56.3338704 61.5536205,56.3568333 62.4624566,56.4044633 C71.6576012,56.8863603 78.9289928,59.9802954 78.7759422,62.9006745 C78.7166865,64.0313254 77.4573964,65.1781174 75.1404145,66.076945 C74.7864217,66.2142695 74.6107774,66.6125608 74.748102,66.9665535 C74.8854265,67.3205463 75.2837178,67.4961906 75.6377105,67.358866 C78.4048163,66.2854218 80.0541571,64.783424 80.1490578,62.972637 C80.3616145,58.9168136 72.4514308,55.5510762 62.5344185,55.0313477 C61.7801136,54.9918163 61.0541255,54.9687944 60.3531613,54.9629276 C63.8726026,50.6638953 67.5880093,47.87699 70.0010817,47.7853794 C70.4915337,47.7667597 70.8979742,47.8666367 71.2247794,48.0788666 C72.2599726,48.7511292 72.5912412,50.6662836 72.0418041,53.4627043 C71.9686015,53.8352768 72.2112888,54.1966489 72.5838613,54.2698514 C72.9564338,54.343054 73.3178059,54.1003667 73.3910084,53.7277942 C74.0371947,50.438958 73.6137256,47.9907674 71.9736582,46.9256946 C71.3967837,46.5510679 70.7106162,46.3824519 69.9489183,46.4113692 C66.8825206,46.5277829 62.5182256,49.8990013 58.5762975,54.9833955 C56.8525006,55.0364727 55.2205148,55.1846855 53.7171763,55.4185589 Z M54.0552424,56.7652108 C55.1377355,56.5999776 56.2966276,56.4783826 57.5156088,56.4077059 C57.0976444,56.991855 56.6864923,57.5945361 56.2843515,58.2137787 C55.8819386,58.8334402 55.4987916,59.4533773 55.1356733,60.0710303 C54.7060132,58.9312559 54.3455267,57.8230199 54.0552424,56.7652108 Z M45,40 L79,40 C81.7614237,40 84,42.2385763 84,45 L84,79 C84,81.7614237 81.7614237,84 79,84 L45,84 C42.2385763,84 40,81.7614237 40,79 L40,45 L40,45 C40,42.2385763 42.2385763,40 45,40 L45,40 Z M64.3375,62.275 C64.3375,61.1359127 63.4140873,60.2125 62.275,60.2125 C61.1359127,60.2125 60.2125,61.1359127 60.2125,62.275 C60.2125,63.4140873 61.1359127,64.3375 62.275,64.3375 C63.4140873,64.3375 64.3375,63.4140873 64.3375,62.275 Z" id="atom"></path>
        </g>
    </g>
</svg>