<?xml version="1.0" encoding="UTF-8"?>
<svg width="44px" height="44px" viewBox="0 0 44 44" version="1.1" xmlns="http://www.w3.org/2000/svg" xmlns:xlink="http://www.w3.org/1999/xlink">
    <!-- Generator: Sketch 46.2 (44496) - http://www.bohemiancoding.com/sketch -->
    <title>craft-3</title>
    <desc>Created with Sketch.</desc>
    <defs></defs>
    <g id="Page-1" stroke="none" stroke-width="1" fill="none" fill-rule="evenodd" opacity="0.5">
        <g id="Slack" transform="translate(-40.000000, -40.000000)" fill="#FFFFFF">
            <path d="M45,40 L79,40 C81.7614237,40 84,42.2385763 84,45 L84,79 C84,81.7614237 81.7614237,84 79,84 L45,84 C42.2385763,84 40,81.7614237 40,79 L40,45 L40,45 C40,42.2385763 42.2385763,40 45,40 L45,40 Z M65.025,49.625 C65.0631305,54.3396493 68.9566426,58.15 73.75403,58.15 C73.7777088,58.15 73.8013656,58.1499072 73.825,58.1497219 L73.825,49.625 L65.025,49.625 Z M65.025,74.375 L73.825,74.375 L73.825,65.8502781 C73.8013656,65.8500928 73.7777088,65.85 73.75403,65.85 C68.9566426,65.85 65.0631305,69.6603507 65.025,74.375 Z M62,49.625189 C61.9770981,49.6250631 61.9541814,49.625 61.93125,49.625 C55.1346958,49.625 49.625,55.1654762 49.625,62 C49.625,68.8345238 55.1346958,74.375 61.93125,74.375 C61.9541814,74.375 61.9770981,74.3749369 62,74.374811 L62,49.625189 L62,49.625189 Z" id="craft"></path>
        </g>
    </g>
</svg>