<?xml version="1.0" encoding="UTF-8"?>
<svg width="44px" height="44px" viewBox="0 0 44 44" version="1.1" xmlns="http://www.w3.org/2000/svg" xmlns:xlink="http://www.w3.org/1999/xlink">
    <!-- Generator: Sketch 46.2 (44496) - http://www.bohemiancoding.com/sketch -->
    <title>css-3</title>
    <desc>Created with Sketch.</desc>
    <defs></defs>
    <g id="Page-1" stroke="none" stroke-width="1" fill="none" fill-rule="evenodd" opacity="0.5">
        <g id="Slack-Copy-2" transform="translate(-40.000000, -40.000000)" fill="#FFFFFF">
            <path d="M61.9869048,62.55 L61.9869048,62.5388835 L65.9420852,62.5388835 L66.2151206,59.480321 L61.9869048,59.480321 L61.9869048,59.4464286 L55.0111885,59.4464286 L54.7386905,56.4934524 L62.2449932,56.4934524 L62.2501752,56.4934524 L69.5035714,56.4934524 L68.9618618,62.5388835 L68.8886471,63.3409331 L68.183526,71.2042952 L68.1383945,71.7089143 L61.9869048,73.4059524 L61.9869048,70.2985198 L65.3335705,69.3993875 L65.681869,65.5256864 L61.9869048,65.5256864 L61.9869048,65.5029762 L55.5443778,65.5029762 L55.2755952,62.55 L61.9869048,62.55 Z M45,40 L79,40 C81.7614237,40 84,42.2385763 84,45 L84,79 C84,81.7614237 81.7614237,84 79,84 L45,84 C42.2385763,84 40,81.7614237 40,79 L40,45 L40,45 C40,42.2385763 42.2385763,40 45,40 L45,40 Z M55.8125,44.95 L55.8125,49.5136905 L59.302381,49.5136905 L59.302381,47.9924603 L57.2719048,47.9924603 L57.2719048,46.4712302 L59.302381,46.4712302 L59.302381,44.95 L55.8125,44.95 Z M60.1077381,44.95 L60.1077381,47.883801 L62.1382143,47.883801 L62.1382143,48.1445833 L60.1077381,48.1445833 L60.1077381,49.5136905 L63.597619,49.5136905 L63.597619,46.5146939 L61.5671429,46.5146939 L61.5671429,46.2539116 L63.597619,46.2539116 L63.597619,44.95 L60.1077381,44.95 Z M64.4029762,44.95 L64.4029762,47.883801 L66.4334524,47.883801 L66.4334524,48.1445833 L64.4029762,48.1445833 L64.4029762,49.5136905 L67.8928571,49.5136905 L67.8928571,46.5146939 L65.862381,46.5146939 L65.862381,46.2539116 L67.8928571,46.2539116 L67.8928571,44.95 L64.4029762,44.95 Z M74.0672619,51.6613095 L50.175,51.6613095 L52.3493411,76.0646196 L62.1065084,78.775 L71.8906154,76.0607969 L74.0672619,51.6613095 Z M61.9869048,73.3955573 L61.9733839,73.3994048 L55.9556255,71.6863997 L55.5440476,66.9565476 L56.903251,66.9565476 L58.4930856,66.9565476 L58.7022386,69.3590533 L61.9740308,70.2649432 L61.9869048,70.2614274 L61.9869048,73.3955573 Z" id="css"></path>
        </g>
    </g>
</svg>