<?xml version="1.0" encoding="UTF-8"?>
<svg width="44px" height="44px" viewBox="0 0 44 44" version="1.1" xmlns="http://www.w3.org/2000/svg" xmlns:xlink="http://www.w3.org/1999/xlink">
    <!-- Generator: Sketch 46.2 (44496) - http://www.bohemiancoding.com/sketch -->
    <title>indesign-3</title>
    <desc>Created with Sketch.</desc>
    <defs></defs>
    <g id="Page-1" stroke="none" stroke-width="1" fill="none" fill-rule="evenodd" opacity="0.5">
        <g id="Illustrator-Copy" transform="translate(-40.000000, -40.000000)" fill="#FFFFFF">
            <path d="M45,40 L79,40 C81.7614237,40 84,42.2385763 84,45 L84,79 C84,81.7614237 81.7614237,84 79,84 L45,84 C42.2385763,84 40,81.7614237 40,79 L40,45 L40,45 C40,42.2385763 42.2385763,40 45,40 L45,40 Z M68.4153388,55.7679664 L68.4153388,55.7679664 C62.4893768,55.7679664 58.788578,60.1246137 58.8119033,65.7227931 C58.8119033,72.2578585 62.5127965,75.4667473 67.6892309,75.4667473 C69.6801962,75.4667473 71.8115859,75.0450967 73.825971,74.0847909 C73.9899095,73.9910173 74.0367491,73.9675975 74.0367491,73.803659 C73.9196501,72.9136126 73.9196501,72.0937311 73.9196501,71.437977 L73.9196501,49.5374527 C73.9196501,49.4203538 73.8728106,49.3500944 73.6854522,49.3500944 L69.8908799,49.3500944 C69.7738754,49.3500944 69.6567764,49.4203538 69.6567764,49.5842923 L69.6567764,55.814806 C69.1883807,55.7679664 68.9072488,55.7679664 68.4153388,55.7679664 Z M54.666223,74.8108988 L54.666223,49.6311319 C54.666223,49.4202594 54.5724494,49.35 54.3850911,49.35 L50.7545517,49.35 C50.5670989,49.35 50.45,49.4203538 50.45,49.6545517 L50.45,74.8108988 C50.45,74.9982571 50.5203538,75.115356 50.7545517,75.115356 L54.3616713,75.115356 C54.6193834,75.115356 54.666223,75.0450022 54.666223,74.8108988 Z M69.6568709,59.5858642 L69.6568709,71.4378826 C69.1883807,71.6486607 68.5793717,71.7189201 67.993877,71.7189201 C65.3001291,71.7189201 63.1452253,69.9388273 63.1452253,65.5353404 C63.1452253,61.6706031 65.2532896,59.3516663 68.27482,59.3516663 C68.8369894,59.3516663 69.3054796,59.4219256 69.6568709,59.5858642 Z" id="indesign"></path>
        </g>
    </g>
</svg>