<?xml version="1.0" encoding="UTF-8"?>
<svg width="44px" height="44px" viewBox="0 0 44 44" version="1.1" xmlns="http://www.w3.org/2000/svg" xmlns:xlink="http://www.w3.org/1999/xlink">
    <!-- Generator: Sketch 46.2 (44496) - http://www.bohemiancoding.com/sketch -->
    <title>photoshop-3</title>
    <desc>Created with Sketch.</desc>
    <defs></defs>
    <g id="Page-1" stroke="none" stroke-width="1" fill="none" fill-rule="evenodd" opacity="0.5">
        <g id="Photoshop" transform="translate(-40.000000, -40.000000)" fill="#FFFFFF">
            <path d="M45,40 L79,40 C81.7614237,40 84,42.2385763 84,45 L84,79 C84,81.7614237 81.7614237,84 79,84 L45,84 C42.2385763,84 40,81.7614237 40,79 L40,45 L40,45 C40,42.2385763 42.2385763,40 45,40 L45,40 Z M70.7981608,59.2190844 L70.7981608,59.2190844 C72.2101194,59.2190844 73.622078,59.5884076 74.5778344,60.1964729 C74.7951194,60.2617197 74.9037182,60.1530334 74.9037182,59.9792755 L74.9037182,57.0033201 C74.9037182,56.8512818 74.8602787,56.6775239 74.6865207,56.5689252 C73.9696815,56.243129 72.6663217,55.9606847 70.7981608,55.9606847 C66.9967675,55.9606847 64.8027229,58.2849602 64.8027229,61.0872452 C64.8027229,63.5853662 66.0842755,65.0842038 69.1689172,66.5613217 C71.3629618,67.6909236 71.8626035,68.386043 71.8626035,69.1680414 C71.8626035,70.1456051 71.1457643,70.8624443 69.4296417,70.8624443 C67.9959634,70.8624443 66.4319666,70.4714889 65.0634475,69.5808041 C64.9113217,69.4721178 64.8027229,69.5373646 64.8027229,69.7545621 L64.8027229,72.9478025 C64.8027229,73.1216481 64.8244427,73.2302468 64.9764809,73.2954061 C65.9105175,73.8383997 67.5397611,74.2294427 69.4296417,74.2294427 C73.0139252,74.2294427 75.6640844,72.3612818 75.6640844,68.8856847 C75.6640844,66.5613217 74.5996417,64.9756051 71.1892038,63.3246417 C68.8865605,62.1298806 68.4956051,61.5867994 68.4956051,60.804801 C68.4956051,60.0879618 69.0820382,59.2190844 70.7981608,59.2190844 Z M48.2500876,50.2693232 L48.25,50.2693232 L48.25,73.5994825 C48.25,73.7949602 48.3369666,73.8601194 48.5107245,73.8601194 L51.8342834,73.8601194 C52.0297611,73.8601194 52.0949204,73.7732404 52.0949204,73.5994825 L52.0949204,65.2579618 C52.6815287,65.2579618 52.9638854,65.3014013 53.7893232,65.3014013 C58.6985987,65.3014013 62.6955573,62.9335987 62.6955573,57.4160828 C62.6955573,53.2018392 60.3495621,49.9 54.3324045,49.9 C52.1818869,49.9 50.1182484,49.9434395 48.727922,50.0085987 C48.5542516,50.0085987 48.2500876,50.117285 48.2500876,50.2693232 Z M52.1166401,61.8040844 L52.1166401,53.4191242 C52.5076831,53.3974045 53.3332086,53.353965 54.202086,53.353965 C57.0911624,53.353965 58.807285,54.7442914 58.807285,57.5030494 C58.807285,60.9569268 56.4178503,61.8475239 53.8762022,61.8475239 C53.0073248,61.8475239 52.6162818,61.8475239 52.1166401,61.8040844 Z" id="photoshop"></path>
        </g>
    </g>
</svg>