<?xml version="1.0" encoding="UTF-8"?>
<svg width="44px" height="44px" viewBox="0 0 44 44" version="1.1" xmlns="http://www.w3.org/2000/svg" xmlns:xlink="http://www.w3.org/1999/xlink">
    <!-- Generator: Sketch 46.2 (44496) - http://www.bohemiancoding.com/sketch -->
    <title>illustrator-3</title>
    <desc>Created with Sketch.</desc>
    <defs></defs>
    <g id="Page-1" stroke="none" stroke-width="1" fill="none" fill-rule="evenodd" opacity="0.5">
        <g id="Illustrator" transform="translate(-40.000000, -40.000000)" fill="#FFFFFF">
            <path d="M45,40 L79,40 C81.7614237,40 84,42.2385763 84,45 L84,79 C84,81.7614237 81.7614237,84 79,84 L45,84 C42.2385763,84 40,81.7614237 40,79 L40,45 L40,45 C40,42.2385763 42.2385763,40 45,40 L45,40 Z M54.1066731,67.8250208 L54.1066731,67.8250208 L61.5308753,67.8250208 L63.433368,74.8084665 C63.4796699,74.9707569 63.595752,75.0171523 63.7813336,75.0171523 L67.6327145,75.0171523 C67.8182962,75.0171523 67.8646916,74.9010702 67.8182962,74.7155821 L60.4404894,49.6818871 C60.3940005,49.4963054 60.3244073,49.44991 60.1620234,49.44991 L55.2898498,49.44991 C55.1738613,49.44991 55.1042681,49.5195031 55.1042681,49.6818871 C55.0578727,50.8186683 54.9882796,51.1899252 54.872291,51.607484 L48.2832999,74.6691867 C48.236811,74.9475592 48.2832999,75.0171523 48.515277,75.0171523 L51.9258079,75.0171523 C52.157785,75.0171523 52.2273781,74.9707569 52.2737735,74.7852688 L54.1066731,67.8250208 Z M60.556478,64.0664308 L60.556478,64.0664308 L55.0579662,64.0664308 C56.0323635,60.4702247 57.2619356,55.8765171 57.7491811,53.1620111 L57.7955765,53.1620111 C58.3757063,55.8765171 59.9069421,61.4911109 60.556478,64.0664308 Z M70.9968499,51.1667275 C70.9968499,52.6979634 71.9712472,53.533268 73.316995,53.5331744 C74.7322423,53.5331744 75.7298373,52.6979634 75.7298373,51.1667275 C75.7298373,49.7514802 74.7786377,48.8002806 73.3633904,48.8002806 C72.0408404,48.8002806 70.9968499,49.6818871 70.9968499,51.1667275 Z M71.2520247,56.4333557 L71.2752224,56.4333557 L71.2752224,74.7156756 C71.2752224,74.9012573 71.3449091,75.0172459 71.5768862,75.0172459 L75.1729987,75.0172459 C75.4049758,75.0172459 75.4513712,74.9243615 75.4513712,74.7388734 L75.4513712,56.4333557 C75.4513712,56.2244828 75.3584869,56.1548896 75.1729987,56.1548896 L71.5304908,56.1548896 C71.3216179,56.1548896 71.2520247,56.247774 71.2520247,56.4333557 Z" id="illustrator"></path>
        </g>
    </g>
</svg>