<?xml version="1.0" encoding="UTF-8"?>
<svg width="44px" height="44px" viewBox="0 0 44 44" version="1.1" xmlns="http://www.w3.org/2000/svg" xmlns:xlink="http://www.w3.org/1999/xlink">
    <!-- Generator: Sketch 46.2 (44496) - http://www.bohemiancoding.com/sketch -->
    <title>tool_invision</title>
    <desc>Created with Sketch.</desc>
    <defs></defs>
    <g id="Page-1" stroke="none" stroke-width="1" fill="none" fill-rule="evenodd">
        <g id="tool_invision" fill-rule="nonzero" fill="#FFFFFF">
            <g id="Page-1">
                <g id="Invision">
                    <path d="M5,0 L39,0 C41.7614237,0 44,2.2385763 44,5 L44,39 C44,41.7614237 41.7614237,44 39,44 L5,44 C2.2385763,44 0,41.7614237 0,39 L0,5 L0,5 C0,2.2385763 2.2385763,0 5,0 L5,0 Z M14.1806589,15.0712119 C15.5652754,15.0712119 16.7251968,13.9859719 16.7251968,12.5636079 C16.7251968,11.1422201 15.5652754,10.0571429 14.1806589,10.0571429 C12.7960423,10.0571429 11.6364463,11.1422201 11.6364463,12.5636079 C11.6364463,13.9858092 12.7960423,15.0712119 14.1806589,15.0712119 Z M8.9047981,28.4975991 C8.7552725,29.1337743 8.6802657,29.8207133 8.6802657,30.3810681 C8.6802657,32.5891328 9.8776091,34.0549389 12.4221471,34.0549389 C14.5324263,34.0549389 16.2432656,32.8017878 17.4751025,30.7782301 L16.7229189,33.7968894 L20.913377,33.7968894 L23.3083894,24.1909699 C23.9071425,21.7588609 25.0670639,20.4964355 26.8259011,20.4964355 C28.2103549,20.4964355 29.0708998,21.3574685 29.0708998,22.7788563 C29.0708998,23.1906617 29.0334777,23.6392384 28.8837894,24.125888 L27.6488612,28.541204 C27.4617508,29.1773791 27.3872321,29.8138797 27.3872321,30.4121447 C27.3872321,32.5082686 28.6216723,34.0414345 31.2036323,34.0414345 C33.4113716,34.0414345 35.1698834,32.6202094 36.1428571,29.2149639 L34.4966116,28.5794396 C33.6733261,30.8607214 32.9623068,31.2731776 32.4009757,31.2731776 C31.8396447,31.2731776 31.5402682,30.8992824 31.5402682,30.1513291 C31.5402682,29.8145305 31.6154377,29.4407979 31.7273785,28.9907569 L32.9250474,24.6891715 C33.2242612,23.6791011 33.3366901,22.783412 33.3366901,21.9604519 C33.3366901,18.7424795 31.3907426,17.0630421 29.0334777,17.0630421 C26.8259011,17.0630421 24.580577,19.0543843 23.4582404,21.1501828 L24.2812005,17.3884514 L17.883003,17.3884514 L16.9848734,20.7017688 L19.9784761,20.7017688 L18.1350325,28.0820515 C16.6874493,31.3000239 14.0283673,31.3522521 13.6946601,31.2775707 C13.1466708,31.1539151 12.796205,30.9458159 12.796205,30.2338204 C12.796205,29.8229912 12.8710492,29.2328614 13.0581595,28.521354 L15.8648146,17.3884514 L8.7552725,17.3884514 L7.8571429,20.7017688 L10.8129981,20.7017688 L8.9049608,28.4975991 L8.9047981,28.4975991 Z" id="invision"></path>
                </g>
            </g>
        </g>
    </g>
</svg>