<?xml version="1.0" encoding="UTF-8"?>
<svg width="44px" height="44px" viewBox="0 0 44 44" version="1.1" xmlns="http://www.w3.org/2000/svg" xmlns:xlink="http://www.w3.org/1999/xlink">
    <!-- Generator: Sketch 46.2 (44496) - http://www.bohemiancoding.com/sketch -->
    <title>Artboard</title>
    <desc>Created with Sketch.</desc>
    <defs></defs>
    <g id="Page-1" stroke="none" stroke-width="1" fill="none" fill-rule="evenodd">
        <g id="Artboard" fill-rule="nonzero" fill="#666666">
            <g id="tool_pen-paper">
                <path d="M5,0 L39,0 C41.7614237,0 44,2.2385763 44,5 L44,39 C44,41.7614237 41.7614237,44 39,44 L5,44 C2.2385763,44 0,41.7614237 0,39 L0,5 L0,5 C0,2.2385763 2.2385763,0 5,0 L5,0 Z M35.8487755,15.542551 C36.2304082,15.1609184 36.2304082,14.5884694 35.8487755,14.2068367 L30.1242857,8.4823469 C29.7426531,8.1007143 29.1702041,8.1007143 28.7885714,8.4823469 L11.1857653,25.9897449 C11.0903571,26.0851531 10.994949,26.2282653 10.9472449,26.3713776 L8.085,35.7213776 L17.8166327,33.2884694 C17.9597449,33.2407653 18.1505612,33.1453571 18.2459694,33.049949 L35.8487755,15.542551 Z M29.4087245,10.4859184 L33.7975,14.8746939 L31.7939286,16.8782653 L27.4051531,12.4894898 L29.4087245,10.4859184 Z M26.7372959,13.205051 L27.7390816,14.2068367 L14.2388265,27.7070918 L13.2370408,26.7053061 L26.7372959,13.205051 Z M10.8995408,33.0976531 L12.3306633,28.4703571 L15.7653571,31.905051 L10.8995408,33.0976531 Z M17.6258163,31.0463776 L16.6240306,30.0445918 L30.1242857,16.5443367 L29.4564286,15.8764796 L15.9084694,29.3767347 L14.9066837,28.374949 L28.4069388,14.8746939 L31.1260714,17.5938265 L17.6258163,31.0463776 Z" id="pen-paper"></path>
            </g>
        </g>
    </g>
</svg>