<?xml version="1.0" encoding="UTF-8"?>
<svg width="44px" height="44px" viewBox="0 0 44 44" version="1.1" xmlns="http://www.w3.org/2000/svg" xmlns:xlink="http://www.w3.org/1999/xlink">
    <!-- Generator: Sketch 46.2 (44496) - http://www.bohemiancoding.com/sketch -->
    <title>Artboard</title>
    <desc>Created with Sketch.</desc>
    <defs></defs>
    <g id="Page-1" stroke="none" stroke-width="1" fill="none" fill-rule="evenodd">
        <g id="Artboard" fill-rule="nonzero" fill="#666666">
            <g id="tool_axure">
                <path d="M5,0 L39,0 C41.7614237,0 44,2.2385763 44,5 L44,39 C44,41.7614237 41.7614237,44 39,44 L5,44 C2.2385763,44 0,41.7614237 0,39 L0,5 L0,5 C0,2.2385763 2.2385763,0 5,0 L5,0 Z M8.25,8.25 L8.25,13.875 L35.75,13.875 L35.75,8.25 L8.25,8.25 Z M8.25,16.375 L8.25,35.75 L16.53125,35.75 L16.53125,16.375 L8.25,16.375 Z M19.1875,16.375 L19.1875,35.75 L35.75,35.75 L35.75,16.375 L19.1875,16.375 Z" id="axure"></path>
            </g>
        </g>
    </g>
</svg>