<?xml version="1.0" encoding="UTF-8"?>
<svg width="44px" height="44px" viewBox="0 0 44 44" version="1.1" xmlns="http://www.w3.org/2000/svg" xmlns:xlink="http://www.w3.org/1999/xlink">
    <!-- Generator: Sketch 46.2 (44496) - http://www.bohemiancoding.com/sketch -->
    <title>Artboard</title>
    <desc>Created with Sketch.</desc>
    <defs></defs>
    <g id="Page-1" stroke="none" stroke-width="1" fill="none" fill-rule="evenodd">
        <g id="Artboard" fill-rule="nonzero" fill="#666666">
            <g id="tool_html">
                <path d="M5,0 L39,0 C41.7614237,0 44,2.2385763 44,5 L44,39 C44,41.7614237 41.7614237,44 39,44 L5,44 C2.2385763,44 0,41.7614237 0,39 L0,5 L0,5 C0,2.2385763 2.2385763,0 5,0 L5,0 Z M12.375,5.225 L12.375,9.625 L13.905855,9.625 L13.905855,8.1583333 L15.2915428,8.1583333 L15.2915428,9.625 L16.8092007,9.625 L16.8092007,5.225 L15.2915428,5.225 L15.2915428,6.678913 L13.892658,6.678913 L13.892658,5.225 L12.375,5.225 Z M18.8151487,6.6916667 L18.8151487,9.625 L20.3328067,9.625 L20.3328067,6.6916667 L21.6789033,6.6916667 L21.6789033,5.225 L17.4756506,5.225 L17.4756506,6.6916667 L18.8151487,6.6916667 Z M22.3453532,5.225 L22.3453532,9.625 L23.8366171,9.625 L23.8366171,7.4441304 L24.8989777,9.0255797 L25.9613383,7.4441304 L25.9613383,9.625 L27.4789963,9.625 L27.4789963,5.225 L25.8887546,5.225 L24.9121747,6.7745652 L23.9355948,5.225 L22.3453532,5.225 Z M28.2312268,5.225 L28.2312268,9.625 L31.9,9.625 L31.9,8.171087 L29.7488848,8.171087 L29.7488848,5.225 L28.2312268,5.225 Z M12.351199,36.0891711 L22.1177164,38.775 L31.923801,36.0760695 L34.1,11.825 L10.175,11.825 L12.351199,36.0891711 Z M14.575,16.775 L22,16.775 L22,19.8107416 L17.8588865,19.8107416 L18.0921053,22.7665371 L22,22.7665371 L22,25.7199281 L15.3826316,25.7199281 L14.575,16.775 Z M29.425,16.775 L29.1509666,19.8 L22,19.8 L22,16.775 L29.425,16.775 Z M28.875,22.825 L28.0604265,31.8750303 L22,33.55 L22,30.4857143 L25.30391,29.6027845 L25.6492891,25.7724274 L22,25.7724274 L22,22.825 L28.875,22.825 Z M15.5128947,27.206403 L18.4828947,27.206403 L18.6913158,29.5730276 L22,30.4596969 L22,33.55 L15.9297368,31.854897 L15.5128947,27.206403 Z" id="html"></path>
            </g>
        </g>
    </g>
</svg>