<?xml version="1.0" encoding="UTF-8"?>
<svg width="44px" height="44px" viewBox="0 0 44 44" version="1.1" xmlns="http://www.w3.org/2000/svg" xmlns:xlink="http://www.w3.org/1999/xlink">
    <!-- Generator: Sketch 46.2 (44496) - http://www.bohemiancoding.com/sketch -->
    <title>Artboard</title>
    <desc>Created with Sketch.</desc>
    <defs></defs>
    <g id="Page-1" stroke="none" stroke-width="1" fill="none" fill-rule="evenodd">
        <g id="Artboard" fill-rule="nonzero" fill="#666666">
            <g id="tool_atom">
                <path d="M13.7171763,15.4185589 C12.7611017,11.2030567 13.0345218,8.0077357 14.6121185,7.20391 C14.8178308,7.0990944 15.0424942,7.038173 15.2967312,7.019105 C16.3330036,6.9413836 17.7573238,7.5945441 19.3610077,8.925126 C19.6532191,9.1675747 20.0866467,9.1272341 20.3290955,8.8350228 C20.5715442,8.5428114 20.5312036,8.1093838 20.2389923,7.866935 C18.3875164,6.3307593 16.6589443,5.5380759 15.1938938,5.647956 C14.7615777,5.6803802 14.3595697,5.7893916 13.9878816,5.978776 C11.73625,7.1260396 11.28702,10.8676717 12.3539294,15.6611397 C7.5196385,16.6356239 4.309486,18.5690396 4.1775047,21.0873933 C4.082815,22.8941808 5.5603211,24.5546424 8.192921,25.9110829 C8.5304477,26.0849927 8.9450488,25.9523549 9.1189586,25.6148283 C9.2928684,25.2773016 9.1602307,24.8627004 8.822704,24.6887906 C6.6189587,23.5533164 5.4915589,22.2863138 5.5506203,21.1593552 C5.6417822,19.4198829 8.424799,17.8545677 12.685517,17.0053687 C13.0830666,18.4780197 13.6112457,20.0304892 14.2626223,21.6227305 C10.4470623,28.7226271 9.4134277,35.2254179 12.3529046,37.1343354 C14.0127641,38.212261 16.4557327,37.5781201 19.2364786,35.5965415 C19.5456951,35.3761917 19.6177358,34.9468934 19.397386,34.6376769 C19.1770362,34.3284604 18.7477379,34.2564197 18.4385214,34.4767695 C16.0688769,36.1653944 14.1517703,36.6630331 13.1017832,35.9811633 C11.1085476,34.6867417 11.9065691,29.3551715 14.968597,23.2571394 C15.2640846,23.9069715 15.5791185,24.5610428 15.9132143,25.2167427 C20.4210222,34.0638147 26.7196369,39.9252499 30.3386811,38.0812537 C33.8153084,36.3098232 33.0027663,28.3587716 28.9015226,19.8369542 C28.736865,19.4948186 28.326028,19.3509442 27.9838924,19.5156017 C27.6417568,19.6802592 27.4978824,20.0910962 27.6625399,20.4332318 C31.4550989,28.313645 32.1987239,35.5903157 29.714444,36.8561198 C27.1083119,38.1840112 21.3180613,32.7956552 17.1383482,24.5925058 C16.6433655,23.6210475 16.193623,22.6543937 15.7896807,21.7028288 C16.2921397,20.796521 16.8419686,19.8797315 17.4375235,18.9626573 C18.0310982,18.0486326 18.6449281,17.1729552 19.2701937,16.3425898 C19.4663912,16.3393084 19.6638366,16.3373201 19.8624699,16.3366516 C20.688908,16.3338704 21.5536205,16.3568333 22.4624566,16.4044633 C31.6576012,16.8863603 38.9289928,19.9802954 38.7759422,22.9006745 C38.7166865,24.0313254 37.4573964,25.1781174 35.1404145,26.076945 C34.7864217,26.2142695 34.6107774,26.6125608 34.748102,26.9665535 C34.8854265,27.3205463 35.2837178,27.4961906 35.6377105,27.358866 C38.4048163,26.2854218 40.0541571,24.783424 40.1490578,22.972637 C40.3616145,18.9168136 32.4514308,15.5510762 22.5344185,15.0313477 C21.7801136,14.9918163 21.0541255,14.9687944 20.3531613,14.9629276 C23.8726026,10.6638953 27.5880093,7.87699 30.0010817,7.7853794 C30.4915337,7.7667597 30.8979742,7.8666367 31.2247794,8.0788666 C32.2599726,8.7511292 32.5912412,10.6662836 32.0418041,13.4627043 C31.9686015,13.8352768 32.2112888,14.1966489 32.5838613,14.2698514 C32.9564338,14.343054 33.3178059,14.1003667 33.3910084,13.7277942 C34.0371947,10.438958 33.6137256,7.9907674 31.9736582,6.9256946 C31.3967837,6.5510679 30.7106162,6.3824519 29.9489183,6.4113692 C26.8825206,6.5277829 22.5182256,9.8990013 18.5762975,14.9833955 C16.8525006,15.0364727 15.2205148,15.1846855 13.7171763,15.4185589 Z M14.0552424,16.7652108 C15.1377355,16.5999776 16.2966276,16.4783826 17.5156088,16.4077059 C17.0976444,16.991855 16.6864923,17.5945361 16.2843515,18.2137787 C15.8819386,18.8334402 15.4987916,19.4533773 15.1356733,20.0710303 C14.7060132,18.9312559 14.3455267,17.8230199 14.0552424,16.7652108 Z M5,0 L39,0 C41.7614237,0 44,2.2385763 44,5 L44,39 C44,41.7614237 41.7614237,44 39,44 L5,44 C2.2385763,44 0,41.7614237 0,39 L0,5 L0,5 C0,2.2385763 2.2385763,0 5,0 L5,0 Z M24.3375,22.275 C24.3375,21.1359127 23.4140873,20.2125 22.275,20.2125 C21.1359127,20.2125 20.2125,21.1359127 20.2125,22.275 C20.2125,23.4140873 21.1359127,24.3375 22.275,24.3375 C23.4140873,24.3375 24.3375,23.4140873 24.3375,22.275 Z" id="atom"></path>
            </g>
        </g>
    </g>
</svg>