<?xml version="1.0" encoding="UTF-8"?>
<svg width="44px" height="44px" viewBox="0 0 44 44" version="1.1" xmlns="http://www.w3.org/2000/svg" xmlns:xlink="http://www.w3.org/1999/xlink">
    <!-- Generator: Sketch 46.2 (44496) - http://www.bohemiancoding.com/sketch -->
    <title>tool_indesign</title>
    <desc>Created with Sketch.</desc>
    <defs></defs>
    <g id="Page-1" stroke="none" stroke-width="1" fill="none" fill-rule="evenodd">
        <g id="tool_indesign" fill-rule="nonzero" fill="#FFFFFF">
            <g id="Page-1">
                <g id="Illustrator-Copy">
                    <path d="M5,0 L39,0 C41.7614237,0 44,2.2385763 44,5 L44,39 C44,41.7614237 41.7614237,44 39,44 L5,44 C2.2385763,44 0,41.7614237 0,39 L0,5 L0,5 C0,2.2385763 2.2385763,0 5,0 L5,0 Z M28.4153388,15.7679664 L28.4153388,15.7679664 C22.4893768,15.7679664 18.788578,20.1246137 18.8119033,25.7227931 C18.8119033,32.2578585 22.5127965,35.4667473 27.6892309,35.4667473 C29.6801962,35.4667473 31.8115859,35.0450967 33.825971,34.0847909 C33.9899095,33.9910173 34.0367491,33.9675975 34.0367491,33.803659 C33.9196501,32.9136126 33.9196501,32.0937311 33.9196501,31.437977 L33.9196501,9.5374527 C33.9196501,9.4203538 33.8728106,9.3500944 33.6854522,9.3500944 L29.8908799,9.3500944 C29.7738754,9.3500944 29.6567764,9.4203538 29.6567764,9.5842923 L29.6567764,15.814806 C29.1883807,15.7679664 28.9072488,15.7679664 28.4153388,15.7679664 Z M14.666223,34.8108988 L14.666223,9.6311319 C14.666223,9.4202594 14.5724494,9.35 14.3850911,9.35 L10.7545517,9.35 C10.5670989,9.35 10.45,9.4203538 10.45,9.6545517 L10.45,34.8108988 C10.45,34.9982571 10.5203538,35.115356 10.7545517,35.115356 L14.3616713,35.115356 C14.6193834,35.115356 14.666223,35.0450022 14.666223,34.8108988 Z M29.6568709,19.5858642 L29.6568709,31.4378826 C29.1883807,31.6486607 28.5793717,31.7189201 27.993877,31.7189201 C25.3001291,31.7189201 23.1452253,29.9388273 23.1452253,25.5353404 C23.1452253,21.6706031 25.2532896,19.3516663 28.27482,19.3516663 C28.8369894,19.3516663 29.3054796,19.4219256 29.6568709,19.5858642 Z" id="indesign"></path>
                </g>
            </g>
        </g>
    </g>
</svg>