<?xml version="1.0" encoding="UTF-8"?>
<svg width="44px" height="44px" viewBox="0 0 44 44" version="1.1" xmlns="http://www.w3.org/2000/svg" xmlns:xlink="http://www.w3.org/1999/xlink">
    <!-- Generator: Sketch 46.2 (44496) - http://www.bohemiancoding.com/sketch -->
    <title>invision-3</title>
    <desc>Created with Sketch.</desc>
    <defs></defs>
    <g id="Page-1" stroke="none" stroke-width="1" fill="none" fill-rule="evenodd" opacity="0.5">
        <g id="Invision" transform="translate(-40.000000, -40.000000)" fill="#FFFFFF">
            <path d="M45,40 L79,40 C81.7614237,40 84,42.2385763 84,45 L84,79 C84,81.7614237 81.7614237,84 79,84 L45,84 C42.2385763,84 40,81.7614237 40,79 L40,45 L40,45 C40,42.2385763 42.2385763,40 45,40 L45,40 Z M54.1806589,55.0712119 C55.5652754,55.0712119 56.7251968,53.9859719 56.7251968,52.5636079 C56.7251968,51.1422201 55.5652754,50.0571429 54.1806589,50.0571429 C52.7960423,50.0571429 51.6364463,51.1422201 51.6364463,52.5636079 C51.6364463,53.9858092 52.7960423,55.0712119 54.1806589,55.0712119 Z M48.9047981,68.4975991 C48.7552725,69.1337743 48.6802657,69.8207133 48.6802657,70.3810681 C48.6802657,72.5891328 49.8776091,74.0549389 52.4221471,74.0549389 C54.5324263,74.0549389 56.2432656,72.8017878 57.4751025,70.7782301 L56.7229189,73.7968894 L60.913377,73.7968894 L63.3083894,64.1909699 C63.9071425,61.7588609 65.0670639,60.4964355 66.8259011,60.4964355 C68.2103549,60.4964355 69.0708998,61.3574685 69.0708998,62.7788563 C69.0708998,63.1906617 69.0334777,63.6392384 68.8837894,64.125888 L67.6488612,68.541204 C67.4617508,69.1773791 67.3872321,69.8138797 67.3872321,70.4121447 C67.3872321,72.5082686 68.6216723,74.0414345 71.2036323,74.0414345 C73.4113716,74.0414345 75.1698834,72.6202094 76.1428571,69.2149639 L74.4966116,68.5794396 C73.6733261,70.8607214 72.9623068,71.2731776 72.4009757,71.2731776 C71.8396447,71.2731776 71.5402682,70.8992824 71.5402682,70.1513291 C71.5402682,69.8145305 71.6154377,69.4407979 71.7273785,68.9907569 L72.9250474,64.6891715 C73.2242612,63.6791011 73.3366901,62.783412 73.3366901,61.9604519 C73.3366901,58.7424795 71.3907426,57.0630421 69.0334777,57.0630421 C66.8259011,57.0630421 64.580577,59.0543843 63.4582404,61.1501828 L64.2812005,57.3884514 L57.883003,57.3884514 L56.9848734,60.7017688 L59.9784761,60.7017688 L58.1350325,68.0820515 C56.6874493,71.3000239 54.0283673,71.3522521 53.6946601,71.2775707 C53.1466708,71.1539151 52.796205,70.9458159 52.796205,70.2338204 C52.796205,69.8229912 52.8710492,69.2328614 53.0581595,68.521354 L55.8648146,57.3884514 L48.7552725,57.3884514 L47.8571429,60.7017688 L50.8129981,60.7017688 L48.9049608,68.4975991 L48.9047981,68.4975991 Z" id="invision"></path>
        </g>
    </g>
</svg>