<?xml version="1.0" encoding="UTF-8"?>
<svg width="44px" height="44px" viewBox="0 0 44 44" version="1.1" xmlns="http://www.w3.org/2000/svg" xmlns:xlink="http://www.w3.org/1999/xlink">
    <!-- Generator: Sketch 46.2 (44496) - http://www.bohemiancoding.com/sketch -->
    <title>Artboard</title>
    <desc>Created with Sketch.</desc>
    <defs></defs>
    <g id="Page-1" stroke="none" stroke-width="1" fill="none" fill-rule="evenodd">
        <g id="Artboard" fill-rule="nonzero" fill="#666666">
            <g id="tool_illustrator">
                <path d="M5,0 L39,0 C41.7614237,0 44,2.2385763 44,5 L44,39 C44,41.7614237 41.7614237,44 39,44 L5,44 C2.2385763,44 0,41.7614237 0,39 L0,5 L0,5 C0,2.2385763 2.2385763,0 5,0 L5,0 Z M14.1066731,27.8250208 L14.1066731,27.8250208 L21.5308753,27.8250208 L23.433368,34.8084665 C23.4796699,34.9707569 23.595752,35.0171523 23.7813336,35.0171523 L27.6327145,35.0171523 C27.8182962,35.0171523 27.8646916,34.9010702 27.8182962,34.7155821 L20.4404894,9.6818871 C20.3940005,9.4963054 20.3244073,9.44991 20.1620234,9.44991 L15.2898498,9.44991 C15.1738613,9.44991 15.1042681,9.5195031 15.1042681,9.6818871 C15.0578727,10.8186683 14.9882796,11.1899252 14.872291,11.607484 L8.2832999,34.6691867 C8.236811,34.9475592 8.2832999,35.0171523 8.515277,35.0171523 L11.9258079,35.0171523 C12.157785,35.0171523 12.2273781,34.9707569 12.2737735,34.7852688 L14.1066731,27.8250208 Z M20.556478,24.0664308 L20.556478,24.0664308 L15.0579662,24.0664308 C16.0323635,20.4702247 17.2619356,15.8765171 17.7491811,13.1620111 L17.7955765,13.1620111 C18.3757063,15.8765171 19.9069421,21.4911109 20.556478,24.0664308 Z M30.9968499,11.1667275 C30.9968499,12.6979634 31.9712472,13.533268 33.316995,13.5331744 C34.7322423,13.5331744 35.7298373,12.6979634 35.7298373,11.1667275 C35.7298373,9.7514802 34.7786377,8.8002806 33.3633904,8.8002806 C32.0408404,8.8002806 30.9968499,9.6818871 30.9968499,11.1667275 Z M31.2520247,16.4333557 L31.2752224,16.4333557 L31.2752224,34.7156756 C31.2752224,34.9012573 31.3449091,35.0172459 31.5768862,35.0172459 L35.1729987,35.0172459 C35.4049758,35.0172459 35.4513712,34.9243615 35.4513712,34.7388734 L35.4513712,16.4333557 C35.4513712,16.2244828 35.3584869,16.1548896 35.1729987,16.1548896 L31.5304908,16.1548896 C31.3216179,16.1548896 31.2520247,16.247774 31.2520247,16.4333557 Z" id="illustrator"></path>
            </g>
        </g>
    </g>
</svg>