<?xml version="1.0" encoding="UTF-8"?>
<svg width="44px" height="44px" viewBox="0 0 44 44" version="1.1" xmlns="http://www.w3.org/2000/svg" xmlns:xlink="http://www.w3.org/1999/xlink">
    <!-- Generator: Sketch 46.2 (44496) - http://www.bohemiancoding.com/sketch -->
    <title>Artboard</title>
    <desc>Created with Sketch.</desc>
    <defs></defs>
    <g id="Page-1" stroke="none" stroke-width="1" fill="none" fill-rule="evenodd">
        <g id="Artboard" fill-rule="nonzero" fill="#666666">
            <g id="tool_craft">
                <path d="M5,0 L39,0 C41.7614237,0 44,2.2385763 44,5 L44,39 C44,41.7614237 41.7614237,44 39,44 L5,44 C2.2385763,44 0,41.7614237 0,39 L0,5 L0,5 C0,2.2385763 2.2385763,0 5,0 L5,0 Z M25.025,9.625 C25.0631305,14.3396493 28.9566426,18.15 33.75403,18.15 C33.7777088,18.15 33.8013656,18.1499072 33.825,18.1497219 L33.825,9.625 L25.025,9.625 Z M25.025,34.375 L33.825,34.375 L33.825,25.8502781 C33.8013656,25.8500928 33.7777088,25.85 33.75403,25.85 C28.9566426,25.85 25.0631305,29.6603507 25.025,34.375 Z M22,9.625189 C21.9770981,9.6250631 21.9541814,9.625 21.93125,9.625 C15.1346958,9.625 9.625,15.1654762 9.625,22 C9.625,28.8345238 15.1346958,34.375 21.93125,34.375 C21.9541814,34.375 21.9770981,34.3749369 22,34.374811 L22,9.625189 L22,9.625189 Z" id="craft"></path>
            </g>
        </g>
    </g>
</svg>