<?xml version="1.0" encoding="UTF-8"?>
<svg width="44px" height="44px" viewBox="0 0 44 44" version="1.1" xmlns="http://www.w3.org/2000/svg" xmlns:xlink="http://www.w3.org/1999/xlink">
    <!-- Generator: Sketch 46.2 (44496) - http://www.bohemiancoding.com/sketch -->
    <title>tool_css</title>
    <desc>Created with Sketch.</desc>
    <defs></defs>
    <g id="Page-1" stroke="none" stroke-width="1" fill="none" fill-rule="evenodd">
        <g id="tool_css" fill-rule="nonzero" fill="#FFFFFF">
            <g id="Page-1">
                <g id="Slack-Copy-2">
                    <path d="M21.9869048,22.55 L21.9869048,22.5388835 L25.9420852,22.5388835 L26.2151206,19.480321 L21.9869048,19.480321 L21.9869048,19.4464286 L15.0111885,19.4464286 L14.7386905,16.4934524 L22.2449932,16.4934524 L22.2501752,16.4934524 L29.5035714,16.4934524 L28.9618618,22.5388835 L28.8886471,23.3409331 L28.183526,31.2042952 L28.1383945,31.7089143 L21.9869048,33.4059524 L21.9869048,30.2985198 L25.3335705,29.3993875 L25.681869,25.5256864 L21.9869048,25.5256864 L21.9869048,25.5029762 L15.5443778,25.5029762 L15.2755952,22.55 L21.9869048,22.55 Z M5,0 L39,0 C41.7614237,0 44,2.2385763 44,5 L44,39 C44,41.7614237 41.7614237,44 39,44 L5,44 C2.2385763,44 0,41.7614237 0,39 L0,5 L0,5 C0,2.2385763 2.2385763,0 5,0 L5,0 Z M15.8125,4.95 L15.8125,9.5136905 L19.302381,9.5136905 L19.302381,7.9924603 L17.2719048,7.9924603 L17.2719048,6.4712302 L19.302381,6.4712302 L19.302381,4.95 L15.8125,4.95 Z M20.1077381,4.95 L20.1077381,7.883801 L22.1382143,7.883801 L22.1382143,8.1445833 L20.1077381,8.1445833 L20.1077381,9.5136905 L23.597619,9.5136905 L23.597619,6.5146939 L21.5671429,6.5146939 L21.5671429,6.2539116 L23.597619,6.2539116 L23.597619,4.95 L20.1077381,4.95 Z M24.4029762,4.95 L24.4029762,7.883801 L26.4334524,7.883801 L26.4334524,8.1445833 L24.4029762,8.1445833 L24.4029762,9.5136905 L27.8928571,9.5136905 L27.8928571,6.5146939 L25.862381,6.5146939 L25.862381,6.2539116 L27.8928571,6.2539116 L27.8928571,4.95 L24.4029762,4.95 Z M34.0672619,11.6613095 L10.175,11.6613095 L12.3493411,36.0646196 L22.1065084,38.775 L31.8906154,36.0607969 L34.0672619,11.6613095 Z M21.9869048,33.3955573 L21.9733839,33.3994048 L15.9556255,31.6863997 L15.5440476,26.9565476 L16.903251,26.9565476 L18.4930856,26.9565476 L18.7022386,29.3590533 L21.9740308,30.2649432 L21.9869048,30.2614274 L21.9869048,33.3955573 Z" id="css"></path>
                </g>
            </g>
        </g>
    </g>
</svg>