<?xml version="1.0" encoding="UTF-8"?>
<svg width="44px" height="44px" viewBox="0 0 44 44" version="1.1" xmlns="http://www.w3.org/2000/svg" xmlns:xlink="http://www.w3.org/1999/xlink">
    <!-- Generator: Sketch 46.2 (44496) - http://www.bohemiancoding.com/sketch -->
    <title>Artboard</title>
    <desc>Created with Sketch.</desc>
    <defs></defs>
    <g id="Page-1" stroke="none" stroke-width="1" fill="none" fill-rule="evenodd">
        <g id="Artboard" fill-rule="nonzero" fill="#666666">
            <path d="M5,0 L39,0 C41.7614237,-5.07265313e-16 44,2.23857625 44,5 L44,39 C44,41.7614237 41.7614237,44 39,44 L5,44 C2.23857625,44 3.38176876e-16,41.7614237 0,39 L0,5 C-3.38176876e-16,2.23857625 2.23857625,5.07265313e-16 5,0 Z M4.77101158,14.0068866 L4.77101158,14.0453869 L3,14.0453869 L3,24.8254574 C3.00654504,27.4088243 3.65180926,29.8227901 6.88852544,29.7534896 C10.037846,29.657239 10.8463513,27.5782254 10.8925516,24.7869571 L10.8925516,14.0068866 L9.19854055,14.0068866 L9.19854055,24.9024579 C9.18699047,26.7466199 8.95213894,28.1634292 6.92702569,28.2519798 C5.43591093,28.2096295 4.77101158,26.8390205 4.77101158,24.7869571 L4.77101158,14.0068866 Z M12.471062,14.0068866 L15.4355813,21.398935 L12.0475592,29.4454876 L13.7800705,29.4454876 L16.2440866,23.0159455 L18.7081028,29.4069873 L20.7101158,29.4069873 L17.2835934,21.0909329 L20.3251133,14.0068866 L18.592602,14.0068866 L16.4365879,19.5509229 L14.3575743,14.0068866 L12.471062,14.0068866 Z M22.2116257,14.0068866 L22.2116257,29.4069873 L23.9826373,29.4069873 L23.9826373,23.1314463 L25.4841471,23.1314463 C26.6468547,23.1237462 27.913513,22.8003441 28.7951687,21.7839375 C29.141671,21.3604347 29.3726725,20.8599314 29.5266735,20.3209279 C29.6806745,19.7819244 29.757675,19.2044206 29.757675,18.5884166 C29.757675,18.1264136 29.757675,17.7029108 29.6806745,17.3564085 C29.6421743,17.0099062 29.5651738,16.7019042 29.449673,16.4324025 C28.6604179,14.7460914 27.2821088,13.914871 25.2146453,14.0068866 L22.2116257,14.0068866 Z M31.1821843,18.0109128 L31.1821843,29.4069873 L32.7606947,29.4069873 L32.7606947,18.0109128 L31.1821843,18.0109128 Z M32.8376952,14.0068866 L31.1051838,14.0068866 L31.1051838,15.9703994 L32.8376952,15.9703994 L32.8376952,14.0068866 Z M34.5702065,18.0109128 L34.647207,18.0109128 L34.647207,29.4069873 L36.2257173,29.4069873 L36.2257173,22.8234443 C36.2257173,22.5154423 36.2257173,22.1304397 36.2642176,21.706937 C36.3027178,21.2834342 36.3797183,20.8984317 36.4952191,20.5134292 C36.6107199,20.1669269 36.8032211,19.8589249 37.0342226,19.5894231 C37.3037244,19.3199214 37.6117264,19.2044206 38.0352292,19.2044206 C39.3981381,19.3815218 39.4597385,20.9638821 39.4597385,22.2074402 L39.4597385,29.4069873 L40.9997486,29.4069873 L40.9997486,22.16894 C40.9997486,20.328628 41.0767491,17.8569118 38.5357325,17.741411 C38.1122297,17.741411 37.7657274,17.8184115 37.4577254,17.9724125 C37.1882236,18.1264136 36.9187219,18.3189148 36.7262206,18.5499163 C36.5337194,18.7424176 36.3797183,18.9734191 36.2642176,19.2044206 C36.1487168,19.4354221 36.0717163,19.6279234 36.0332161,19.7434241 L36.0332161,18.0109128 L34.5702065,18.0109128 Z M23.9826373,21.6684367 L23.944137,21.6684367 L23.944137,15.5468967 L25.2916458,15.5468967 C27.1127077,15.5761569 27.9866634,16.7473345 27.9866634,18.6654171 C27.9789634,20.2939777 27.3668094,21.706937 25.4456468,21.6684367 L23.9826373,21.6684367 Z" id="Combined-Shape"></path>
        </g>
    </g>
</svg>