<?xml version="1.0" encoding="UTF-8"?>
<svg width="44px" height="44px" viewBox="0 0 44 44" version="1.1" xmlns="http://www.w3.org/2000/svg" xmlns:xlink="http://www.w3.org/1999/xlink">
    <!-- Generator: Sketch 46.2 (44496) - http://www.bohemiancoding.com/sketch -->
    <title>Artboard</title>
    <desc>Created with Sketch.</desc>
    <defs></defs>
    <g id="Page-1" stroke="none" stroke-width="1" fill="none" fill-rule="evenodd">
        <g id="Artboard" fill-rule="nonzero" fill="#666666">
            <g id="tool_photoshop">
                <path d="M5,0 L39,0 C41.7614237,0 44,2.2385763 44,5 L44,39 C44,41.7614237 41.7614237,44 39,44 L5,44 C2.2385763,44 0,41.7614237 0,39 L0,5 L0,5 C0,2.2385763 2.2385763,0 5,0 L5,0 Z M30.7981608,19.2190844 L30.7981608,19.2190844 C32.2101194,19.2190844 33.622078,19.5884076 34.5778344,20.1964729 C34.7951194,20.2617197 34.9037182,20.1530334 34.9037182,19.9792755 L34.9037182,17.0033201 C34.9037182,16.8512818 34.8602787,16.6775239 34.6865207,16.5689252 C33.9696815,16.243129 32.6663217,15.9606847 30.7981608,15.9606847 C26.9967675,15.9606847 24.8027229,18.2849602 24.8027229,21.0872452 C24.8027229,23.5853662 26.0842755,25.0842038 29.1689172,26.5613217 C31.3629618,27.6909236 31.8626035,28.386043 31.8626035,29.1680414 C31.8626035,30.1456051 31.1457643,30.8624443 29.4296417,30.8624443 C27.9959634,30.8624443 26.4319666,30.4714889 25.0634475,29.5808041 C24.9113217,29.4721178 24.8027229,29.5373646 24.8027229,29.7545621 L24.8027229,32.9478025 C24.8027229,33.1216481 24.8244427,33.2302468 24.9764809,33.2954061 C25.9105175,33.8383997 27.5397611,34.2294427 29.4296417,34.2294427 C33.0139252,34.2294427 35.6640844,32.3612818 35.6640844,28.8856847 C35.6640844,26.5613217 34.5996417,24.9756051 31.1892038,23.3246417 C28.8865605,22.1298806 28.4956051,21.5867994 28.4956051,20.804801 C28.4956051,20.0879618 29.0820382,19.2190844 30.7981608,19.2190844 Z M8.2500876,10.2693232 L8.25,10.2693232 L8.25,33.5994825 C8.25,33.7949602 8.3369666,33.8601194 8.5107245,33.8601194 L11.8342834,33.8601194 C12.0297611,33.8601194 12.0949204,33.7732404 12.0949204,33.5994825 L12.0949204,25.2579618 C12.6815287,25.2579618 12.9638854,25.3014013 13.7893232,25.3014013 C18.6985987,25.3014013 22.6955573,22.9335987 22.6955573,17.4160828 C22.6955573,13.2018392 20.3495621,9.9 14.3324045,9.9 C12.1818869,9.9 10.1182484,9.9434395 8.727922,10.0085987 C8.5542516,10.0085987 8.2500876,10.117285 8.2500876,10.2693232 Z M12.1166401,21.8040844 L12.1166401,13.4191242 C12.5076831,13.3974045 13.3332086,13.353965 14.202086,13.353965 C17.0911624,13.353965 18.807285,14.7442914 18.807285,17.5030494 C18.807285,20.9569268 16.4178503,21.8475239 13.8762022,21.8475239 C13.0073248,21.8475239 12.6162818,21.8475239 12.1166401,21.8040844 Z" id="photoshop"></path>
            </g>
        </g>
    </g>
</svg>