<?xml version="1.0" encoding="UTF-8"?>
<svg width="44px" height="44px" viewBox="0 0 44 44" version="1.1" xmlns="http://www.w3.org/2000/svg" xmlns:xlink="http://www.w3.org/1999/xlink">
    <!-- Generator: Sketch 46.2 (44496) - http://www.bohemiancoding.com/sketch -->
    <title>Artboard</title>
    <desc>Created with Sketch.</desc>
    <defs></defs>
    <g id="Page-1" stroke="none" stroke-width="1" fill="none" fill-rule="evenodd">
        <g id="Artboard" fill-rule="nonzero" fill="#666666">
            <g id="tool_github">
                <path d="M5,0 L39,0 C41.7614237,0 44,2.2385763 44,5 L44,39 C44,41.7614237 41.7614237,44 39,44 L5,44 C2.2385763,44 0,41.7614237 0,39 L0,5 C0,2.2385763 2.2385763,0 5,0 Z M22.288,6 C13.294,6 6,13.293 6,22.29 C6,29.487 10.667,35.592 17.14,37.746 C17.955,37.896 18.252,37.393 18.252,36.961 C18.252,36.575 18.238,35.55 18.23,34.191 C13.699,35.175 12.743,32.007 12.743,32.007 C12.002,30.125 10.934,29.624 10.934,29.624 C9.455,28.614 11.046,28.634 11.046,28.634 C12.681,28.749 13.541,30.313 13.541,30.313 C14.994,32.802 17.354,32.083 18.282,31.666 C18.43,30.614 18.851,29.896 19.316,29.489 C15.699,29.078 11.896,27.68 11.896,21.438 C11.896,19.66 12.531,18.205 13.573,17.067 C13.405,16.655 12.846,14.998 13.733,12.756 C13.733,12.756 15.1,12.318 18.212,14.426 C19.511,14.064 20.905,13.884 22.29,13.877 C23.674,13.884 25.067,14.064 26.368,14.426 C29.478,12.318 30.843,12.756 30.843,12.756 C31.732,14.998 31.173,16.655 31.006,17.067 C32.05,18.205 32.68,19.66 32.68,21.438 C32.68,27.696 28.871,29.073 25.243,29.476 C25.827,29.979 26.348,30.973 26.348,32.493 C26.348,34.67 26.328,36.427 26.328,36.961 C26.328,37.397 26.622,37.904 27.448,37.745 C33.916,35.586 38.579,29.485 38.579,22.29 C38.579,13.293 31.285,6 22.288,6 Z" id="Combined-Shape"></path>
            </g>
        </g>
    </g>
</svg>