<?xml version="1.0" encoding="UTF-8"?>
<svg width="44px" height="44px" viewBox="0 0 44 44" version="1.1" xmlns="http://www.w3.org/2000/svg" xmlns:xlink="http://www.w3.org/1999/xlink">
    <!-- Generator: Sketch 46.2 (44496) - http://www.bohemiancoding.com/sketch -->
    <title>pen-paper-3</title>
    <desc>Created with Sketch.</desc>
    <defs></defs>
    <g id="Page-1" stroke="none" stroke-width="1" fill="none" fill-rule="evenodd" opacity="0.5">
        <g id="Sketch-Copy" transform="translate(-40.000000, -40.000000)" fill="#FFFFFF">
            <path d="M45,40 L79,40 C81.7614237,40 84,42.2385763 84,45 L84,79 C84,81.7614237 81.7614237,84 79,84 L45,84 C42.2385763,84 40,81.7614237 40,79 L40,45 L40,45 C40,42.2385763 42.2385763,40 45,40 L45,40 Z M75.8487755,55.542551 C76.2304082,55.1609184 76.2304082,54.5884694 75.8487755,54.2068367 L70.1242857,48.4823469 C69.7426531,48.1007143 69.1702041,48.1007143 68.7885714,48.4823469 L51.1857653,65.9897449 C51.0903571,66.0851531 50.994949,66.2282653 50.9472449,66.3713776 L48.085,75.7213776 L57.8166327,73.2884694 C57.9597449,73.2407653 58.1505612,73.1453571 58.2459694,73.049949 L75.8487755,55.542551 Z M69.4087245,50.4859184 L73.7975,54.8746939 L71.7939286,56.8782653 L67.4051531,52.4894898 L69.4087245,50.4859184 Z M66.7372959,53.205051 L67.7390816,54.2068367 L54.2388265,67.7070918 L53.2370408,66.7053061 L66.7372959,53.205051 Z M50.8995408,73.0976531 L52.3306633,68.4703571 L55.7653571,71.905051 L50.8995408,73.0976531 Z M57.6258163,71.0463776 L56.6240306,70.0445918 L70.1242857,56.5443367 L69.4564286,55.8764796 L55.9084694,69.3767347 L54.9066837,68.374949 L68.4069388,54.8746939 L71.1260714,57.5938265 L57.6258163,71.0463776 Z" id="pen-paper"></path>
        </g>
    </g>
</svg>