<?xml version="1.0" encoding="UTF-8"?>
<svg width="44px" height="44px" viewBox="0 0 44 44" version="1.1" xmlns="http://www.w3.org/2000/svg" xmlns:xlink="http://www.w3.org/1999/xlink">
    <!-- Generator: Sketch 46.2 (44496) - http://www.bohemiancoding.com/sketch -->
    <title>html-3</title>
    <desc>Created with Sketch.</desc>
    <defs></defs>
    <g id="Page-1" stroke="none" stroke-width="1" fill="none" fill-rule="evenodd" opacity="0.5">
        <g id="Slack-Copy" transform="translate(-40.000000, -40.000000)" fill="#FFFFFF">
            <path d="M45,40 L79,40 C81.7614237,40 84,42.2385763 84,45 L84,79 C84,81.7614237 81.7614237,84 79,84 L45,84 C42.2385763,84 40,81.7614237 40,79 L40,45 L40,45 C40,42.2385763 42.2385763,40 45,40 L45,40 Z M52.375,45.225 L52.375,49.625 L53.905855,49.625 L53.905855,48.1583333 L55.2915428,48.1583333 L55.2915428,49.625 L56.8092007,49.625 L56.8092007,45.225 L55.2915428,45.225 L55.2915428,46.678913 L53.892658,46.678913 L53.892658,45.225 L52.375,45.225 Z M58.8151487,46.6916667 L58.8151487,49.625 L60.3328067,49.625 L60.3328067,46.6916667 L61.6789033,46.6916667 L61.6789033,45.225 L57.4756506,45.225 L57.4756506,46.6916667 L58.8151487,46.6916667 Z M62.3453532,45.225 L62.3453532,49.625 L63.8366171,49.625 L63.8366171,47.4441304 L64.8989777,49.0255797 L65.9613383,47.4441304 L65.9613383,49.625 L67.4789963,49.625 L67.4789963,45.225 L65.8887546,45.225 L64.9121747,46.7745652 L63.9355948,45.225 L62.3453532,45.225 Z M68.2312268,45.225 L68.2312268,49.625 L71.9,49.625 L71.9,48.171087 L69.7488848,48.171087 L69.7488848,45.225 L68.2312268,45.225 Z M52.351199,76.0891711 L62.1177164,78.775 L71.923801,76.0760695 L74.1,51.825 L50.175,51.825 L52.351199,76.0891711 Z M54.575,56.775 L62,56.775 L62,59.8107416 L57.8588865,59.8107416 L58.0921053,62.7665371 L62,62.7665371 L62,65.7199281 L55.3826316,65.7199281 L54.575,56.775 Z M69.425,56.775 L69.1509666,59.8 L62,59.8 L62,56.775 L69.425,56.775 Z M68.875,62.825 L68.0604265,71.8750303 L62,73.55 L62,70.4857143 L65.30391,69.6027845 L65.6492891,65.7724274 L62,65.7724274 L62,62.825 L68.875,62.825 Z M55.5128947,67.206403 L58.4828947,67.206403 L58.6913158,69.5730276 L62,70.4596969 L62,73.55 L55.9297368,71.854897 L55.5128947,67.206403 Z" id="html"></path>
        </g>
    </g>
</svg>